<svg width="500" height="500" viewBox="0 0 500 500" fill="none" xmlns="http://www.w3.org/2000/svg">
<path d="M464.86 277.39C450.13 316.82 420.05 359.5 377.72 372.14C313.72 391.24 306.12 442.79 191.56 438.01C174.826 437.394 158.208 434.96 142 430.75C134.088 428.659 126.316 426.071 118.73 423C51.8 395.89 16.89 336.23 14 273.81C10.18 191.7 67.46 152.57 104.69 129.66C141.92 106.75 186.79 18 299.44 21.77C316.643 22.2862 333.729 24.7826 350.36 29.21C388.27 39.47 426.8 62.16 449.2 95.33C450.88 97.83 452.487 100.377 454.02 102.97C484 153.82 484.93 223.63 464.86 277.39Z" fill="#FC7300"/>
<path opacity="0.7" d="M464.86 277.39C450.13 316.82 420.05 359.5 377.72 372.14C313.72 391.24 306.12 442.79 191.56 438.01C174.826 437.394 158.208 434.96 142 430.75C134.088 428.659 126.316 426.071 118.73 423C51.8 395.89 16.89 336.23 14 273.81C10.18 191.7 67.46 152.57 104.69 129.66C141.92 106.75 186.79 18 299.44 21.77C316.643 22.2862 333.729 24.7826 350.36 29.21C388.27 39.47 426.8 62.16 449.2 95.33C450.88 97.83 452.487 100.377 454.02 102.97C484 153.82 484.93 223.63 464.86 277.39Z" fill="white"/>
<path d="M361.39 234.23C361.39 234.23 362.9 219.13 356.86 212.33C350.82 205.53 341.76 213.84 344.02 222.9C346.28 231.96 361.39 234.23 361.39 234.23Z" fill="#FC7300"/>
<path d="M344 301.5C344 301.5 346.39 278 337 267.38C327.61 256.76 313.47 269.74 317 283.86C320.53 297.98 344 301.5 344 301.5Z" fill="#FC7300"/>
<path d="M338.94 339.64C338.94 339.64 336.36 316.13 324.94 307.73C313.52 299.33 302.41 314.92 308.8 328C315.19 341.08 338.94 339.64 338.94 339.64Z" fill="#FC7300"/>
<path d="M362.9 359.32C349 362 336.54 382.11 336.54 382.11C336.54 382.11 357.36 393.62 368.75 384.57C380.14 375.52 376.81 356.65 362.9 359.32Z" fill="#FC7300"/>
<path d="M367.5 394.75C347.6 398.58 329.79 427.35 329.79 427.35C329.79 427.35 359.58 443.82 375.88 430.86C392.18 417.9 387.4 390.92 367.5 394.75Z" fill="#FC7300"/>
<path d="M335 382.43C335.63 382.43 336 382.43 336 382.43C336 382.43 335.87 381.31 335.56 379.43C337.15 370.52 338.76 359.31 340.67 345.91L341.47 340.33C346.89 342.9 362.47 349.2 371.74 341.81C383.13 332.75 379.8 313.89 365.89 316.57C355.83 318.5 346.53 329.57 342.16 335.52C343.39 327.02 344.73 317.88 346.24 308.31C346.5 306.69 346.79 305.01 347.11 303.26C352.46 307.21 365.55 315.48 375.67 310.44C388.67 303.95 389.35 284.8 375.19 284.53C364.99 284.34 353.65 293.14 348.11 298.08C350.11 288 352.98 276.36 355.99 264.86C359.24 267.3 367.9 272.97 374.56 269.65C382.92 265.48 383.34 253.2 374.25 253.03C367.64 252.9 360.31 258.65 356.79 261.81C359.21 252.65 361.71 243.7 363.98 235.81C367.72 238.46 375.56 243.03 381.69 239.97C390.04 235.8 390.47 223.52 381.38 223.35C375.6 223.24 369.27 227.61 365.38 230.83C368.7 219.36 371.3 210.9 371.97 208.71C375.35 206.47 385.55 199.47 387.25 195.28C387.737 194.082 387.984 192.799 387.975 191.506C387.967 190.212 387.704 188.933 387.201 187.741C386.698 186.549 385.965 185.468 385.045 184.559C384.124 183.651 383.033 182.932 381.835 182.445C380.637 181.958 379.354 181.711 378.061 181.72C376.767 181.728 375.488 181.991 374.296 182.494C373.104 182.997 372.023 183.73 371.114 184.65C370.206 185.571 369.487 186.662 369 187.86C367.37 191.86 369.55 203.21 370.49 207.62L369.89 207.43C369.8 207.7 366.41 218.66 362.04 233.85L361.77 234.12L361.92 234.25C359.57 242.45 356.92 251.86 354.39 261.47C354.53 256.91 354.26 247.13 349.72 242.03C343.72 235.23 334.62 243.54 336.89 252.6C338.89 260.7 351.19 263.36 353.77 263.84C350.38 276.77 347.2 289.91 345.11 300.84L344.64 301.32L344.97 301.6C344.55 303.8 344.18 305.92 343.87 307.92C341.72 321.54 339.87 334.3 338.29 345.56C336.78 356.11 335.47 365.3 334.2 373.07C332.32 365.54 328.67 355.4 321.97 350.47C310.56 342.06 299.44 357.66 305.83 370.74C310.72 380.74 325.76 382.25 332.56 382.4C332.3 383.74 332.05 385.02 331.79 386.24C330.79 391.09 329.13 404.45 327.52 419.11C325.28 408.31 320.02 390.24 308.95 382.11C292.63 370.11 276.72 392.4 285.86 411.11C293.53 426.82 318.71 427.89 326.59 427.83C324.43 448.3 322.51 468.61 322.36 470.17L324.72 470.39C324.79 469.68 331.47 399.1 334.11 386.77C334.41 385.39 334.7 384 335 382.43Z" fill="#FC7300"/>
<path d="M140.13 158.51C140.13 158.51 133.83 144.84 125.58 143.06C117.33 141.28 114.19 154.15 120.52 160.29C126.85 166.43 140.13 158.51 140.13 158.51Z" fill="#FC7300"/>
<path d="M159.67 226.33C159.67 226.33 149.85 205 137 202.24C124.15 199.48 119.23 219.52 129.1 229.09C138.97 238.66 159.67 226.33 159.67 226.33Z" fill="#FC7300"/>
<path d="M174.56 261.69C174.56 261.69 160.77 243.62 147.4 244C134.03 244.38 132.86 264.69 144.51 271.53C156.16 278.37 174.56 261.69 174.56 261.69Z" fill="#FC7300"/>
<path d="M203.63 262.66C193.77 273.95 193.77 298.94 193.77 298.94C193.77 298.94 216.26 295.08 220.91 280.06C225.56 265.04 213.5 251.36 203.63 262.66Z" fill="#FC7300"/>
<path d="M225 289.43C210.89 305.59 210.88 341.34 210.88 341.34C210.88 341.34 243.05 335.82 249.72 314.34C256.39 292.86 239.09 273.27 225 289.43Z" fill="#FC7300"/>
<path d="M192.68 300.22L193.46 299.55C193.46 299.55 192.8 298.69 191.63 297.34C188.47 288.81 184.18 278.34 179.05 265.85L176.91 260.64C182.56 259.28 198.22 254.45 202.01 242.2C206.67 227.2 194.6 213.5 184.73 224.8C177.6 232.96 175.63 248.29 175.08 256.15C171.83 248.21 168.36 239.65 164.81 230.62C164.22 229.1 163.61 227.5 163 225.82C169.27 225.66 183.93 224.1 189.55 213.28C196.8 199.36 187.8 182.84 176.27 191.83C167.96 198.29 163.22 213.06 161.22 220.83C157.84 211.04 154.32 199.41 151.02 187.83C154.85 187.77 164.65 186.9 168.35 179.78C173 170.84 167.23 160.25 159.83 166.01C154.45 170.2 151.41 179.81 150.14 184.74C147.54 175.48 145.14 166.32 142.98 158.21C147.31 158.01 155.89 156.75 159.3 150.21C163.95 141.28 158.18 130.68 150.78 136.45C146.08 140.11 143.16 147.9 141.66 153.11C138.66 141.31 136.5 132.52 135.95 130.23C137.56 126.16 142.28 113.64 141.56 109.01C140.7 103.44 135.88 100.19 130.8 101.75C125.72 103.31 122.31 109.09 123.17 114.66C123.86 119.11 131.26 127.21 134.17 130.3L133.59 130.53C133.65 130.81 136.38 142.23 140.42 157.83C140.37 158.07 140.34 158.24 140.34 158.24H140.53C142.72 166.67 145.28 176.24 148.02 186.01C145.87 182.09 140.77 174.01 134.58 172.71C126.34 170.92 123.18 183.79 129.52 189.93C135.18 195.42 146.39 189.68 148.7 188.4C152.41 201.47 156.4 214.59 160.17 225.15L160.03 225.86H160.43C161.203 227.987 161.957 229.987 162.69 231.86C167.69 244.7 172.63 256.61 176.94 267.12C180.94 276.96 184.5 285.54 187.35 292.89C182.09 287.79 174.1 281.64 166.25 281.89C152.89 282.25 151.71 302.58 163.36 309.42C172.27 314.65 185.13 306.13 190.68 301.85C191.14 303.137 191.57 304.377 191.97 305.57C193.55 310.33 198.89 322.57 204.91 335.97C197.72 328.35 184.49 316.58 171.52 316.97C152.41 317.48 150.71 346.57 167.38 356.35C181.38 364.56 202.17 349.09 208.48 343.91C216.93 362.52 225.48 380.84 226.15 382.25L228.15 380.9C227.85 380.25 198.08 316.6 194.06 304.52C193.69 303.09 193.2 301.68 192.68 300.22Z" fill="#FC7300"/>
<path d="M116.05 333.28C116.05 333.28 109.19 326.89 104.05 327.8C98.91 328.71 100.05 336.88 105.19 338.93C110.33 340.98 116.05 333.28 116.05 333.28Z" fill="#FC7300"/>
<path d="M143.32 367.75C143.32 367.75 132.63 357.75 124.57 359.22C116.51 360.69 118.41 373.37 126.36 376.56C134.31 379.75 143.32 367.75 143.32 367.75Z" fill="#FC7300"/>
<path d="M160.25 384.61C160.25 384.61 148.03 377.45 140.42 380.81C132.81 384.17 136.92 396.17 145.24 397.36C153.56 398.55 160.25 384.61 160.25 384.61Z" fill="#FC7300"/>
<path d="M177.23 378.31C174.23 387.14 180.11 401.55 180.11 401.55C180.11 401.55 192.11 394.01 191.3 384.26C190.49 374.51 180.25 369.47 177.23 378.31Z" fill="#FC7300"/>
<path d="M195.86 388.7C191.54 401.34 200 422 200 422C200 422 217.24 411.22 216 397.26C214.76 383.3 200.17 376.05 195.86 388.7Z" fill="#FC7300"/>
<path d="M179.79 402.54C179.98 402.18 180.08 401.97 180.08 401.97C180.08 401.97 179.49 401.63 178.5 401.13C174.67 396.96 169.73 391.94 163.82 385.95L161.36 383.45C164.29 381.33 172.17 374.85 171.47 366.9C170.61 357.14 160.42 352.11 157.4 360.95C155.22 367.34 157.7 376.64 159.24 381.3C155.49 377.49 151.48 373.38 147.3 369.01C146.59 368.27 145.87 367.49 145.12 366.67C148.69 365.1 156.77 360.74 157.46 353.17C158.35 343.44 149.27 336.04 144.74 343.94C141.48 349.63 142.24 359.26 142.91 364.21C138.65 359.36 133.91 353.49 129.23 347.57C131.43 346.63 136.87 343.82 137.32 338.84C137.89 332.59 132.06 327.84 129.16 332.92C127.05 336.61 127.56 342.86 128 346C124.31 341.27 120.74 336.58 117.61 332.4C120.06 331.26 124.7 328.51 125.12 323.93C125.69 317.68 119.86 312.93 116.96 318C115.11 321.22 115.27 326.4 115.64 329.76C111.1 323.68 107.8 319.11 106.95 317.92C106.95 315.2 106.68 306.87 105.17 304.37C103.36 301.37 99.81 300.63 97.26 302.73C95.9885 303.875 95.1575 305.428 94.9109 307.121C94.6644 308.814 95.0178 310.54 95.91 312C97.35 314.4 103.53 317.33 105.91 318.41L105.63 318.68C105.74 318.83 110 324.77 116.02 332.8L116.07 333.06H116.18C119.43 337.4 123.18 342.33 127.05 347.29C124.89 345.54 120.05 342.11 116.17 342.8C110.99 343.72 112.17 351.88 117.31 353.92C121.87 355.75 126.98 349.79 128.01 348.51C133.23 355.17 138.63 361.79 143.29 366.98L143.38 367.42L143.62 367.34C144.56 368.34 145.47 369.34 146.34 370.28C152.28 376.49 157.91 382.2 162.88 387.28C167.53 392 171.58 396.11 174.96 399.67C170.72 397.97 164.67 396.32 160.2 398.29C152.58 401.65 156.7 413.65 165.03 414.84C171.4 415.75 176.8 407.84 178.98 404.02C179.56 404.66 180.1 405.28 180.6 405.87C182.6 408.24 188.6 414.05 195.24 420.33C189.3 417.64 178.89 413.98 171.5 417.24C160.61 422.05 166.5 439.24 178.41 440.92C188.41 442.34 196.75 428.52 199.16 424.05C208.43 432.78 217.69 441.31 218.4 441.96L219.24 440.71C218.92 440.41 186.73 410.71 181.57 404.71C181.05 404 180.43 403.26 179.79 402.54Z" fill="#FC7300"/>
<path d="M323.21 125.81C323.21 125.81 325.21 116.65 321.78 112.67C318.35 108.69 311.96 113.9 312.78 119.33C313.6 124.76 323.21 125.81 323.21 125.81Z" fill="#FC7300"/>
<path d="M307.45 166.84C307.45 166.84 310.57 152.57 305.23 146.36C299.89 140.15 289.92 148.28 291.23 156.74C292.54 165.2 307.45 166.84 307.45 166.84Z" fill="#FC7300"/>
<path d="M301.57 190C301.57 190 301.51 175.85 294.73 171C287.95 166.15 279.73 175.82 282.96 183.59C286.19 191.36 301.57 190 301.57 190Z" fill="#FC7300"/>
<path d="M315.66 201.4C306.51 203.31 297.13 215.73 297.13 215.73C297.13 215.73 309.75 222.25 317.71 216.54C325.67 210.83 324.8 199.49 315.66 201.4Z" fill="#FC7300"/>
<path d="M316.21 222.72C303.13 225.45 289.7 243.22 289.7 243.22C289.7 243.22 307.76 252.55 319.14 244.38C330.52 236.21 329.29 220 316.21 222.72Z" fill="#FC7300"/>
<path d="M296.11 216H296.75C296.75 216 296.75 215.33 296.67 214.22C298.3 208.8 300.1 201.99 302.24 193.85C302.527 192.743 302.827 191.613 303.14 190.46C306.46 191.9 316.05 195.38 322.53 190.72C330.53 185.01 329.62 173.72 320.53 175.58C313.92 176.96 307.18 183.84 303.96 187.58C305.33 182.41 306.82 176.86 308.45 171.04C308.72 170.04 309.02 169.04 309.35 167.97C312.52 170.24 320.35 174.97 327.25 171.71C336.08 167.52 337.81 155.93 328.71 156.06C322.15 156.16 314.25 161.72 310.34 164.82C312.34 158.68 314.96 151.58 317.68 144.57C319.61 145.98 324.8 149.22 329.32 147.08C334.98 144.39 336.09 136.95 330.25 137.08C326 137.14 320.89 140.77 318.4 142.75C320.59 137.16 322.81 131.7 324.81 126.88C327.04 128.4 331.81 131 335.93 129.02C341.6 126.33 342.7 118.89 336.86 119.02C333.15 119.02 328.78 121.85 326.07 123.87C329 116.87 331.24 111.71 331.83 110.36C334.16 108.94 341.2 104.5 342.59 101.93C344.25 98.83 343.07 95.41 339.96 94.28C338.333 93.7812 336.583 93.8624 335.009 94.5098C333.436 95.1572 332.135 96.3307 331.33 97.83C330 100.3 330.63 107.1 330.94 109.74L330.57 109.64C330.49 109.81 327.57 116.5 323.71 125.78L323.52 125.95L323.61 126.02C321.53 131.02 319.2 136.77 316.9 142.63C317.31 139.88 317.79 133.97 315.22 130.98C311.79 126.98 305.39 132.21 306.22 137.63C306.97 142.49 314.69 143.84 316.32 144.08C313.26 151.97 310.32 159.98 308.22 166.64L307.89 166.94L308.08 167.1C307.66 168.44 307.28 169.73 306.94 170.94C304.63 179.22 302.58 186.94 300.78 193.81C299.09 200.23 297.62 205.81 296.27 210.53C295.58 206.02 293.91 199.97 289.94 197.12C283.16 192.28 274.94 201.94 278.16 209.71C280.63 215.66 290.21 216.26 294.58 216.21C294.33 217.03 294.07 217.8 293.82 218.54C292.82 221.54 290.82 229.61 288.82 238.54C288.11 232.06 285.95 221.24 279.38 216.54C269.69 209.61 257.92 223.43 262.53 234.54C266.4 243.88 282.53 244 287.62 243.8C284.83 256.22 282.21 268.54 282.01 269.48L283.52 269.57C283.61 269.13 292.72 226.33 295.26 218.82C295.53 217.76 295.82 216.88 296.11 216Z" fill="#FC7300"/>
<path d="M324.87 459.23H241.63V471.2H324.87V459.23Z" fill="white" stroke="#B2B2B2" stroke-linejoin="round"/>
<path d="M246.2 459.45V467.94" stroke="#B2B2B2" stroke-linejoin="round"/>
<path d="M250.75 470.66V461.27" stroke="#B2B2B2" stroke-linejoin="round"/>
<path d="M256.51 459.45V469.76" stroke="#B2B2B2" stroke-linejoin="round"/>
<path d="M262.87 459.15V466.72" stroke="#B2B2B2" stroke-linejoin="round"/>
<path d="M268.63 459.75V470.36" stroke="#B2B2B2" stroke-linejoin="round"/>
<path d="M274.39 470.66V464.3" stroke="#B2B2B2" stroke-linejoin="round"/>
<path d="M279.54 459.75V465.82" stroke="#B2B2B2" stroke-linejoin="round"/>
<path d="M286.81 468.85V465.21" stroke="#B2B2B2" stroke-linejoin="round"/>
<path d="M301.22 459.66H296.29V470.81H301.22V459.66Z" fill="#B2B2B2" stroke="#B2B2B2" stroke-linejoin="round"/>
<path d="M304.59 459.66H303.03V470.81H304.59V459.66Z" fill="#B2B2B2" stroke="#B2B2B2" stroke-linejoin="round"/>
<path d="M320.86 447.23H237.62V459.2H320.86V447.23Z" fill="white" stroke="#B2B2B2" stroke-linejoin="round"/>
<path d="M242.2 447.45V455.94" stroke="#B2B2B2" stroke-linejoin="round"/>
<path d="M246.75 458.66V449.27" stroke="#B2B2B2" stroke-linejoin="round"/>
<path d="M252.51 447.45V457.76" stroke="#B2B2B2" stroke-linejoin="round"/>
<path d="M258.87 447.15V454.72" stroke="#B2B2B2" stroke-linejoin="round"/>
<path d="M264.63 447.75V458.36" stroke="#B2B2B2" stroke-linejoin="round"/>
<path d="M270.39 458.66V452.3" stroke="#B2B2B2" stroke-linejoin="round"/>
<path d="M275.54 447.75V453.82" stroke="#B2B2B2" stroke-linejoin="round"/>
<path d="M282.81 456.85V453.21" stroke="#B2B2B2" stroke-linejoin="round"/>
<path d="M297.22 447.66H292.29V458.81H297.22V447.66Z" fill="#B2B2B2" stroke="#B2B2B2" stroke-linejoin="round"/>
<path d="M300.59 447.66H299.03V458.81H300.59V447.66Z" fill="#B2B2B2" stroke="#B2B2B2" stroke-linejoin="round"/>
<path d="M323.87 435.23H240.63V447.2H323.87V435.23Z" fill="white" stroke="#B2B2B2" stroke-linejoin="round"/>
<path d="M245.2 435.45V443.94" stroke="#B2B2B2" stroke-linejoin="round"/>
<path d="M249.75 446.66V437.27" stroke="#B2B2B2" stroke-linejoin="round"/>
<path d="M255.51 435.45V445.76" stroke="#B2B2B2" stroke-linejoin="round"/>
<path d="M261.87 435.15V442.72" stroke="#B2B2B2" stroke-linejoin="round"/>
<path d="M267.63 435.75V446.36" stroke="#B2B2B2" stroke-linejoin="round"/>
<path d="M273.39 446.66V440.3" stroke="#B2B2B2" stroke-linejoin="round"/>
<path d="M278.54 435.75V441.82" stroke="#B2B2B2" stroke-linejoin="round"/>
<path d="M285.81 444.85V441.21" stroke="#B2B2B2" stroke-linejoin="round"/>
<path d="M300.22 435.66H295.29V446.81H300.22V435.66Z" fill="#B2B2B2" stroke="#B2B2B2" stroke-linejoin="round"/>
<path d="M303.59 435.66H302.03V446.81H303.59V435.66Z" fill="#B2B2B2" stroke="#B2B2B2" stroke-linejoin="round"/>
<path d="M320.86 423.23H237.62V435.2H320.86V423.23Z" fill="white" stroke="#B2B2B2" stroke-linejoin="round"/>
<path d="M242.2 423.45V431.94" stroke="#B2B2B2" stroke-linejoin="round"/>
<path d="M246.75 434.66V425.27" stroke="#B2B2B2" stroke-linejoin="round"/>
<path d="M252.51 423.45V433.76" stroke="#B2B2B2" stroke-linejoin="round"/>
<path d="M258.87 423.15V430.72" stroke="#B2B2B2" stroke-linejoin="round"/>
<path d="M264.63 423.75V434.36" stroke="#B2B2B2" stroke-linejoin="round"/>
<path d="M270.39 434.66V428.3" stroke="#B2B2B2" stroke-linejoin="round"/>
<path d="M275.54 423.75V429.82" stroke="#B2B2B2" stroke-linejoin="round"/>
<path d="M282.81 432.85V429.21" stroke="#B2B2B2" stroke-linejoin="round"/>
<path d="M297.22 423.66H292.29V434.81H297.22V423.66Z" fill="#B2B2B2" stroke="#B2B2B2" stroke-linejoin="round"/>
<path d="M300.59 423.66H299.03V434.81H300.59V423.66Z" fill="#B2B2B2" stroke="#B2B2B2" stroke-linejoin="round"/>
<path d="M323.87 411.23H240.63V423.2H323.87V411.23Z" fill="white" stroke="#B2B2B2" stroke-linejoin="round"/>
<path d="M245.2 411.45V419.94" stroke="#B2B2B2" stroke-linejoin="round"/>
<path d="M249.75 422.66V413.27" stroke="#B2B2B2" stroke-linejoin="round"/>
<path d="M255.51 411.45V421.76" stroke="#B2B2B2" stroke-linejoin="round"/>
<path d="M261.87 411.15V418.72" stroke="#B2B2B2" stroke-linejoin="round"/>
<path d="M267.63 411.75V422.36" stroke="#B2B2B2" stroke-linejoin="round"/>
<path d="M273.39 422.66V416.3" stroke="#B2B2B2" stroke-linejoin="round"/>
<path d="M278.54 411.75V417.82" stroke="#B2B2B2" stroke-linejoin="round"/>
<path d="M285.81 420.85V417.21" stroke="#B2B2B2" stroke-linejoin="round"/>
<path d="M300.22 411.66H295.29V422.81H300.22V411.66Z" fill="#B2B2B2" stroke="#B2B2B2" stroke-linejoin="round"/>
<path d="M303.59 411.66H302.03V422.81H303.59V411.66Z" fill="#B2B2B2" stroke="#B2B2B2" stroke-linejoin="round"/>
<path d="M323.87 399.23H240.63V411.2H323.87V399.23Z" fill="white" stroke="#B2B2B2" stroke-linejoin="round"/>
<path d="M245.2 399.45V407.94" stroke="#B2B2B2" stroke-linejoin="round"/>
<path d="M249.75 410.66V401.27" stroke="#B2B2B2" stroke-linejoin="round"/>
<path d="M255.51 399.45V409.76" stroke="#B2B2B2" stroke-linejoin="round"/>
<path d="M261.87 399.15V406.72" stroke="#B2B2B2" stroke-linejoin="round"/>
<path d="M267.63 399.75V410.36" stroke="#B2B2B2" stroke-linejoin="round"/>
<path d="M273.39 410.66V404.3" stroke="#B2B2B2" stroke-linejoin="round"/>
<path d="M278.54 399.75V405.82" stroke="#B2B2B2" stroke-linejoin="round"/>
<path d="M285.81 408.85V405.21" stroke="#B2B2B2" stroke-linejoin="round"/>
<path d="M300.22 399.66H295.29V410.81H300.22V399.66Z" fill="#B2B2B2" stroke="#B2B2B2" stroke-linejoin="round"/>
<path d="M303.59 399.66H302.03V410.81H303.59V399.66Z" fill="#B2B2B2" stroke="#B2B2B2" stroke-linejoin="round"/>
<path d="M322.87 387.23H239.63V399.2H322.87V387.23Z" fill="white" stroke="#B2B2B2" stroke-linejoin="round"/>
<path d="M244.2 387.45V395.94" stroke="#B2B2B2" stroke-linejoin="round"/>
<path d="M248.75 398.66V389.27" stroke="#B2B2B2" stroke-linejoin="round"/>
<path d="M254.51 387.45V397.76" stroke="#B2B2B2" stroke-linejoin="round"/>
<path d="M260.87 387.15V394.72" stroke="#B2B2B2" stroke-linejoin="round"/>
<path d="M266.63 387.75V398.36" stroke="#B2B2B2" stroke-linejoin="round"/>
<path d="M272.39 398.66V392.3" stroke="#B2B2B2" stroke-linejoin="round"/>
<path d="M277.54 387.75V393.82" stroke="#B2B2B2" stroke-linejoin="round"/>
<path d="M284.81 396.85V393.21" stroke="#B2B2B2" stroke-linejoin="round"/>
<path d="M299.22 387.66H294.29V398.81H299.22V387.66Z" fill="#B2B2B2" stroke="#B2B2B2" stroke-linejoin="round"/>
<path d="M302.59 387.66H301.03V398.81H302.59V387.66Z" fill="#B2B2B2" stroke="#B2B2B2" stroke-linejoin="round"/>
<path d="M317.86 375.23H234.62V387.2H317.86V375.23Z" fill="white" stroke="#B2B2B2" stroke-linejoin="round"/>
<path d="M239.2 375.45V383.94" stroke="#B2B2B2" stroke-linejoin="round"/>
<path d="M243.75 386.66V377.27" stroke="#B2B2B2" stroke-linejoin="round"/>
<path d="M249.51 375.45V385.76" stroke="#B2B2B2" stroke-linejoin="round"/>
<path d="M255.87 375.15V382.72" stroke="#B2B2B2" stroke-linejoin="round"/>
<path d="M261.63 375.75V386.36" stroke="#B2B2B2" stroke-linejoin="round"/>
<path d="M267.39 386.66V380.3" stroke="#B2B2B2" stroke-linejoin="round"/>
<path d="M272.54 375.75V381.82" stroke="#B2B2B2" stroke-linejoin="round"/>
<path d="M279.81 384.85V381.21" stroke="#B2B2B2" stroke-linejoin="round"/>
<path d="M294.22 375.66H289.29V386.81H294.22V375.66Z" fill="#B2B2B2" stroke="#B2B2B2" stroke-linejoin="round"/>
<path d="M297.59 375.66H296.03V386.81H297.59V375.66Z" fill="#B2B2B2" stroke="#B2B2B2" stroke-linejoin="round"/>
<path d="M318.86 363.23H235.62V375.2H318.86V363.23Z" fill="white" stroke="#B2B2B2" stroke-linejoin="round"/>
<path d="M240.2 363.45V371.94" stroke="#B2B2B2" stroke-linejoin="round"/>
<path d="M244.75 374.66V365.27" stroke="#B2B2B2" stroke-linejoin="round"/>
<path d="M250.51 363.45V373.76" stroke="#B2B2B2" stroke-linejoin="round"/>
<path d="M256.87 363.15V370.72" stroke="#B2B2B2" stroke-linejoin="round"/>
<path d="M262.63 363.75V374.36" stroke="#B2B2B2" stroke-linejoin="round"/>
<path d="M268.39 374.66V368.3" stroke="#B2B2B2" stroke-linejoin="round"/>
<path d="M273.54 363.75V369.82" stroke="#B2B2B2" stroke-linejoin="round"/>
<path d="M280.81 372.85V369.21" stroke="#B2B2B2" stroke-linejoin="round"/>
<path d="M295.22 363.66H290.29V374.81H295.22V363.66Z" fill="#B2B2B2" stroke="#B2B2B2" stroke-linejoin="round"/>
<path d="M298.59 363.66H297.03V374.81H298.59V363.66Z" fill="#B2B2B2" stroke="#B2B2B2" stroke-linejoin="round"/>
<path d="M317.86 351.23H234.62V363.2H317.86V351.23Z" fill="white" stroke="#B2B2B2" stroke-linejoin="round"/>
<path d="M239.2 351.45V359.94" stroke="#B2B2B2" stroke-linejoin="round"/>
<path d="M243.75 362.66V353.27" stroke="#B2B2B2" stroke-linejoin="round"/>
<path d="M249.51 351.45V361.76" stroke="#B2B2B2" stroke-linejoin="round"/>
<path d="M255.87 351.15V358.72" stroke="#B2B2B2" stroke-linejoin="round"/>
<path d="M261.63 351.75V362.36" stroke="#B2B2B2" stroke-linejoin="round"/>
<path d="M267.39 362.66V356.3" stroke="#B2B2B2" stroke-linejoin="round"/>
<path d="M272.54 351.75V357.82" stroke="#B2B2B2" stroke-linejoin="round"/>
<path d="M279.81 360.85V357.21" stroke="#B2B2B2" stroke-linejoin="round"/>
<path d="M294.22 351.66H289.29V362.81H294.22V351.66Z" fill="#B2B2B2" stroke="#B2B2B2" stroke-linejoin="round"/>
<path d="M297.59 351.66H296.03V362.81H297.59V351.66Z" fill="#B2B2B2" stroke="#B2B2B2" stroke-linejoin="round"/>
<path d="M323.87 339.23H240.63V351.2H323.87V339.23Z" fill="white" stroke="#B2B2B2" stroke-linejoin="round"/>
<path d="M245.2 339.45V347.94" stroke="#B2B2B2" stroke-linejoin="round"/>
<path d="M249.75 350.66V341.27" stroke="#B2B2B2" stroke-linejoin="round"/>
<path d="M255.51 339.45V349.76" stroke="#B2B2B2" stroke-linejoin="round"/>
<path d="M261.87 339.15V346.72" stroke="#B2B2B2" stroke-linejoin="round"/>
<path d="M267.63 339.75V350.36" stroke="#B2B2B2" stroke-linejoin="round"/>
<path d="M273.39 350.66V344.3" stroke="#B2B2B2" stroke-linejoin="round"/>
<path d="M278.54 339.75V345.82" stroke="#B2B2B2" stroke-linejoin="round"/>
<path d="M285.81 348.85V345.21" stroke="#B2B2B2" stroke-linejoin="round"/>
<path d="M300.22 339.66H295.29V350.81H300.22V339.66Z" fill="#B2B2B2" stroke="#B2B2B2" stroke-linejoin="round"/>
<path d="M303.59 339.66H302.03V350.81H303.59V339.66Z" fill="#B2B2B2" stroke="#B2B2B2" stroke-linejoin="round"/>
<path d="M320.86 327.45H237.62V339.42H320.86V327.45Z" fill="white" stroke="#B2B2B2" stroke-linejoin="round"/>
<path d="M242.2 327.67V336.16" stroke="#B2B2B2" stroke-linejoin="round"/>
<path d="M246.75 338.89V329.49" stroke="#B2B2B2" stroke-linejoin="round"/>
<path d="M252.51 327.67V337.98" stroke="#B2B2B2" stroke-linejoin="round"/>
<path d="M258.87 327.37V334.95" stroke="#B2B2B2" stroke-linejoin="round"/>
<path d="M264.63 327.98V338.58" stroke="#B2B2B2" stroke-linejoin="round"/>
<path d="M270.39 338.89V332.52" stroke="#B2B2B2" stroke-linejoin="round"/>
<path d="M275.54 327.98V334.04" stroke="#B2B2B2" stroke-linejoin="round"/>
<path d="M282.81 337.07V333.43" stroke="#B2B2B2" stroke-linejoin="round"/>
<path d="M297.22 327.89H292.29V339.04H297.22V327.89Z" fill="#B2B2B2" stroke="#B2B2B2" stroke-linejoin="round"/>
<path d="M300.59 327.89H299.03V339.04H300.59V327.89Z" fill="#B2B2B2" stroke="#B2B2B2" stroke-linejoin="round"/>
<path d="M323.87 315.45H240.63V327.42H323.87V315.45Z" fill="white" stroke="#B2B2B2" stroke-linejoin="round"/>
<path d="M245.2 315.67V324.16" stroke="#B2B2B2" stroke-linejoin="round"/>
<path d="M249.75 326.89V317.49" stroke="#B2B2B2" stroke-linejoin="round"/>
<path d="M255.51 315.67V325.98" stroke="#B2B2B2" stroke-linejoin="round"/>
<path d="M261.87 315.37V322.95" stroke="#B2B2B2" stroke-linejoin="round"/>
<path d="M267.63 315.98V326.58" stroke="#B2B2B2" stroke-linejoin="round"/>
<path d="M273.39 326.89V320.52" stroke="#B2B2B2" stroke-linejoin="round"/>
<path d="M278.54 315.98V322.04" stroke="#B2B2B2" stroke-linejoin="round"/>
<path d="M285.81 325.07V321.43" stroke="#B2B2B2" stroke-linejoin="round"/>
<path d="M300.22 315.89H295.29V327.04H300.22V315.89Z" fill="#B2B2B2" stroke="#B2B2B2" stroke-linejoin="round"/>
<path d="M303.59 315.89H302.03V327.04H303.59V315.89Z" fill="#B2B2B2" stroke="#B2B2B2" stroke-linejoin="round"/>
<path d="M320.86 303.45H237.62V315.42H320.86V303.45Z" fill="white" stroke="#B2B2B2" stroke-linejoin="round"/>
<path d="M242.2 303.67V312.16" stroke="#B2B2B2" stroke-linejoin="round"/>
<path d="M246.75 314.89V305.49" stroke="#B2B2B2" stroke-linejoin="round"/>
<path d="M252.51 303.67V313.98" stroke="#B2B2B2" stroke-linejoin="round"/>
<path d="M258.87 303.37V310.95" stroke="#B2B2B2" stroke-linejoin="round"/>
<path d="M264.63 303.98V314.58" stroke="#B2B2B2" stroke-linejoin="round"/>
<path d="M270.39 314.89V308.52" stroke="#B2B2B2" stroke-linejoin="round"/>
<path d="M275.54 303.98V310.04" stroke="#B2B2B2" stroke-linejoin="round"/>
<path d="M282.81 313.07V309.43" stroke="#B2B2B2" stroke-linejoin="round"/>
<path d="M297.22 303.89H292.29V315.04H297.22V303.89Z" fill="#B2B2B2" stroke="#B2B2B2" stroke-linejoin="round"/>
<path d="M300.59 303.89H299.03V315.04H300.59V303.89Z" fill="#B2B2B2" stroke="#B2B2B2" stroke-linejoin="round"/>
<path d="M320.86 291.45H237.62V303.42H320.86V291.45Z" fill="white" stroke="#B2B2B2" stroke-linejoin="round"/>
<path d="M242.2 291.67V300.16" stroke="#B2B2B2" stroke-linejoin="round"/>
<path d="M246.75 302.89V293.49" stroke="#B2B2B2" stroke-linejoin="round"/>
<path d="M252.51 291.67V301.98" stroke="#B2B2B2" stroke-linejoin="round"/>
<path d="M258.87 291.37V298.95" stroke="#B2B2B2" stroke-linejoin="round"/>
<path d="M264.63 291.98V302.58" stroke="#B2B2B2" stroke-linejoin="round"/>
<path d="M270.39 302.89V296.52" stroke="#B2B2B2" stroke-linejoin="round"/>
<path d="M275.54 291.98V298.04" stroke="#B2B2B2" stroke-linejoin="round"/>
<path d="M282.81 301.07V297.43" stroke="#B2B2B2" stroke-linejoin="round"/>
<path d="M297.22 291.89H292.29V303.04H297.22V291.89Z" fill="#B2B2B2" stroke="#B2B2B2" stroke-linejoin="round"/>
<path d="M300.59 291.89H299.03V303.04H300.59V291.89Z" fill="#B2B2B2" stroke="#B2B2B2" stroke-linejoin="round"/>
<path d="M320.86 279.45H237.62V291.42H320.86V279.45Z" fill="white" stroke="#B2B2B2" stroke-linejoin="round"/>
<path d="M242.2 279.67V288.16" stroke="#B2B2B2" stroke-linejoin="round"/>
<path d="M246.75 290.89V281.49" stroke="#B2B2B2" stroke-linejoin="round"/>
<path d="M252.51 279.67V289.98" stroke="#B2B2B2" stroke-linejoin="round"/>
<path d="M258.87 279.37V286.95" stroke="#B2B2B2" stroke-linejoin="round"/>
<path d="M264.63 279.98V290.58" stroke="#B2B2B2" stroke-linejoin="round"/>
<path d="M270.39 290.89V284.52" stroke="#B2B2B2" stroke-linejoin="round"/>
<path d="M275.54 279.98V286.04" stroke="#B2B2B2" stroke-linejoin="round"/>
<path d="M282.81 289.07V285.43" stroke="#B2B2B2" stroke-linejoin="round"/>
<path d="M297.22 279.89H292.29V291.04H297.22V279.89Z" fill="#B2B2B2" stroke="#B2B2B2" stroke-linejoin="round"/>
<path d="M300.59 279.89H299.03V291.04H300.59V279.89Z" fill="#B2B2B2" stroke="#B2B2B2" stroke-linejoin="round"/>
<path d="M316.86 267.45H233.62V279.42H316.86V267.45Z" fill="white" stroke="#B2B2B2" stroke-linejoin="round"/>
<path d="M238.2 267.67V276.16" stroke="#B2B2B2" stroke-linejoin="round"/>
<path d="M242.75 278.89V269.49" stroke="#B2B2B2" stroke-linejoin="round"/>
<path d="M248.51 267.67V277.98" stroke="#B2B2B2" stroke-linejoin="round"/>
<path d="M254.87 267.37V274.95" stroke="#B2B2B2" stroke-linejoin="round"/>
<path d="M260.63 267.98V278.58" stroke="#B2B2B2" stroke-linejoin="round"/>
<path d="M266.39 278.89V272.52" stroke="#B2B2B2" stroke-linejoin="round"/>
<path d="M271.54 267.98V274.04" stroke="#B2B2B2" stroke-linejoin="round"/>
<path d="M278.81 277.07V273.43" stroke="#B2B2B2" stroke-linejoin="round"/>
<path d="M293.22 267.89H288.29V279.04H293.22V267.89Z" fill="#B2B2B2" stroke="#B2B2B2" stroke-linejoin="round"/>
<path d="M296.59 267.89H295.03V279.04H296.59V267.89Z" fill="#B2B2B2" stroke="#B2B2B2" stroke-linejoin="round"/>
<path d="M320.86 255.45H237.62V267.42H320.86V255.45Z" fill="white" stroke="#B2B2B2" stroke-linejoin="round"/>
<path d="M242.2 255.67V264.16" stroke="#B2B2B2" stroke-linejoin="round"/>
<path d="M246.75 266.89V257.49" stroke="#B2B2B2" stroke-linejoin="round"/>
<path d="M252.51 255.67V265.98" stroke="#B2B2B2" stroke-linejoin="round"/>
<path d="M258.87 255.37V262.95" stroke="#B2B2B2" stroke-linejoin="round"/>
<path d="M264.63 255.98V266.58" stroke="#B2B2B2" stroke-linejoin="round"/>
<path d="M270.39 266.89V260.52" stroke="#B2B2B2" stroke-linejoin="round"/>
<path d="M275.54 255.98V262.04" stroke="#B2B2B2" stroke-linejoin="round"/>
<path d="M282.81 265.07V261.43" stroke="#B2B2B2" stroke-linejoin="round"/>
<path d="M297.22 255.89H292.29V267.04H297.22V255.89Z" fill="#B2B2B2" stroke="#B2B2B2" stroke-linejoin="round"/>
<path d="M300.59 255.89H299.03V267.04H300.59V255.89Z" fill="#B2B2B2" stroke="#B2B2B2" stroke-linejoin="round"/>
<path d="M315.86 243.45H232.62V255.42H315.86V243.45Z" fill="white" stroke="#B2B2B2" stroke-linejoin="round"/>
<path d="M237.2 243.67V252.16" stroke="#B2B2B2" stroke-linejoin="round"/>
<path d="M241.75 254.89V245.49" stroke="#B2B2B2" stroke-linejoin="round"/>
<path d="M247.51 243.67V253.98" stroke="#B2B2B2" stroke-linejoin="round"/>
<path d="M253.87 243.37V250.95" stroke="#B2B2B2" stroke-linejoin="round"/>
<path d="M259.63 243.98V254.58" stroke="#B2B2B2" stroke-linejoin="round"/>
<path d="M265.39 254.89V248.52" stroke="#B2B2B2" stroke-linejoin="round"/>
<path d="M270.54 243.98V250.04" stroke="#B2B2B2" stroke-linejoin="round"/>
<path d="M277.81 253.07V249.43" stroke="#B2B2B2" stroke-linejoin="round"/>
<path d="M292.22 243.89H287.29V255.04H292.22V243.89Z" fill="#B2B2B2" stroke="#B2B2B2" stroke-linejoin="round"/>
<path d="M295.59 243.89H294.03V255.04H295.59V243.89Z" fill="#B2B2B2" stroke="#B2B2B2" stroke-linejoin="round"/>
<path d="M320.86 231.45H237.62V243.42H320.86V231.45Z" fill="white" stroke="#B2B2B2" stroke-linejoin="round"/>
<path d="M242.2 231.67V240.16" stroke="#B2B2B2" stroke-linejoin="round"/>
<path d="M246.75 242.89V233.49" stroke="#B2B2B2" stroke-linejoin="round"/>
<path d="M252.51 231.67V241.98" stroke="#B2B2B2" stroke-linejoin="round"/>
<path d="M258.87 231.37V238.95" stroke="#B2B2B2" stroke-linejoin="round"/>
<path d="M264.63 231.98V242.58" stroke="#B2B2B2" stroke-linejoin="round"/>
<path d="M270.39 242.89V236.52" stroke="#B2B2B2" stroke-linejoin="round"/>
<path d="M275.54 231.98V238.04" stroke="#B2B2B2" stroke-linejoin="round"/>
<path d="M282.81 241.07V237.43" stroke="#B2B2B2" stroke-linejoin="round"/>
<path d="M297.22 231.89H292.29V243.04H297.22V231.89Z" fill="#B2B2B2" stroke="#B2B2B2" stroke-linejoin="round"/>
<path d="M300.59 231.89H299.03V243.04H300.59V231.89Z" fill="#B2B2B2" stroke="#B2B2B2" stroke-linejoin="round"/>
<path d="M316.86 219.45H233.62V231.42H316.86V219.45Z" fill="white" stroke="#B2B2B2" stroke-linejoin="round"/>
<path d="M238.2 219.67V228.16" stroke="#B2B2B2" stroke-linejoin="round"/>
<path d="M242.75 230.89V221.49" stroke="#B2B2B2" stroke-linejoin="round"/>
<path d="M248.51 219.67V229.98" stroke="#B2B2B2" stroke-linejoin="round"/>
<path d="M254.87 219.37V226.95" stroke="#B2B2B2" stroke-linejoin="round"/>
<path d="M260.63 219.98V230.58" stroke="#B2B2B2" stroke-linejoin="round"/>
<path d="M266.39 230.89V224.52" stroke="#B2B2B2" stroke-linejoin="round"/>
<path d="M271.54 219.98V226.04" stroke="#B2B2B2" stroke-linejoin="round"/>
<path d="M278.81 229.07V225.43" stroke="#B2B2B2" stroke-linejoin="round"/>
<path d="M293.22 219.89H288.29V231.04H293.22V219.89Z" fill="#B2B2B2" stroke="#B2B2B2" stroke-linejoin="round"/>
<path d="M296.59 219.89H295.03V231.04H296.59V219.89Z" fill="#B2B2B2" stroke="#B2B2B2" stroke-linejoin="round"/>
<path d="M320.86 207.45H237.62V219.42H320.86V207.45Z" fill="white" stroke="#B2B2B2" stroke-linejoin="round"/>
<path d="M242.2 207.67V216.16" stroke="#B2B2B2" stroke-linejoin="round"/>
<path d="M246.75 218.89V209.49" stroke="#B2B2B2" stroke-linejoin="round"/>
<path d="M252.51 207.67V217.98" stroke="#B2B2B2" stroke-linejoin="round"/>
<path d="M258.87 207.37V214.95" stroke="#B2B2B2" stroke-linejoin="round"/>
<path d="M264.63 207.98V218.58" stroke="#B2B2B2" stroke-linejoin="round"/>
<path d="M270.39 218.89V212.52" stroke="#B2B2B2" stroke-linejoin="round"/>
<path d="M275.54 207.98V214.04" stroke="#B2B2B2" stroke-linejoin="round"/>
<path d="M282.81 217.07V213.43" stroke="#B2B2B2" stroke-linejoin="round"/>
<path d="M297.22 207.89H292.29V219.04H297.22V207.89Z" fill="#B2B2B2" stroke="#B2B2B2" stroke-linejoin="round"/>
<path d="M300.59 207.89H299.03V219.04H300.59V207.89Z" fill="#B2B2B2" stroke="#B2B2B2" stroke-linejoin="round"/>
<path d="M257.61 459.23H174.37V471.2H257.61V459.23Z" fill="white" stroke="#B2B2B2" stroke-linejoin="round"/>
<path d="M178.95 459.45V467.94" stroke="#B2B2B2" stroke-linejoin="round"/>
<path d="M183.49 470.66V461.27" stroke="#B2B2B2" stroke-linejoin="round"/>
<path d="M189.25 459.45V469.76" stroke="#B2B2B2" stroke-linejoin="round"/>
<path d="M195.62 459.15V466.72" stroke="#B2B2B2" stroke-linejoin="round"/>
<path d="M201.38 459.75V470.36" stroke="#B2B2B2" stroke-linejoin="round"/>
<path d="M207.13 470.66V464.3" stroke="#B2B2B2" stroke-linejoin="round"/>
<path d="M212.29 459.75V465.82" stroke="#B2B2B2" stroke-linejoin="round"/>
<path d="M219.56 468.85V465.21" stroke="#B2B2B2" stroke-linejoin="round"/>
<path d="M233.97 459.66H229.04V470.81H233.97V459.66Z" fill="#B2B2B2" stroke="#B2B2B2" stroke-linejoin="round"/>
<path d="M237.34 459.66H235.78V470.81H237.34V459.66Z" fill="#B2B2B2" stroke="#B2B2B2" stroke-linejoin="round"/>
<path d="M257.61 447.23H174.37V459.2H257.61V447.23Z" fill="white" stroke="#B2B2B2" stroke-linejoin="round"/>
<path d="M178.95 447.45V455.94" stroke="#B2B2B2" stroke-linejoin="round"/>
<path d="M183.49 458.66V449.27" stroke="#B2B2B2" stroke-linejoin="round"/>
<path d="M189.25 447.45V457.76" stroke="#B2B2B2" stroke-linejoin="round"/>
<path d="M195.62 447.15V454.72" stroke="#B2B2B2" stroke-linejoin="round"/>
<path d="M201.38 447.75V458.36" stroke="#B2B2B2" stroke-linejoin="round"/>
<path d="M207.13 458.66V452.3" stroke="#B2B2B2" stroke-linejoin="round"/>
<path d="M212.29 447.75V453.82" stroke="#B2B2B2" stroke-linejoin="round"/>
<path d="M219.56 456.85V453.21" stroke="#B2B2B2" stroke-linejoin="round"/>
<path d="M233.97 447.66H229.04V458.81H233.97V447.66Z" fill="#B2B2B2" stroke="#B2B2B2" stroke-linejoin="round"/>
<path d="M237.34 447.66H235.78V458.81H237.34V447.66Z" fill="#B2B2B2" stroke="#B2B2B2" stroke-linejoin="round"/>
<path d="M262.61 435.23H179.37V447.2H262.61V435.23Z" fill="white" stroke="#B2B2B2" stroke-linejoin="round"/>
<path d="M183.95 435.45V443.94" stroke="#B2B2B2" stroke-linejoin="round"/>
<path d="M188.49 446.66V437.27" stroke="#B2B2B2" stroke-linejoin="round"/>
<path d="M194.25 435.45V445.76" stroke="#B2B2B2" stroke-linejoin="round"/>
<path d="M200.62 435.15V442.72" stroke="#B2B2B2" stroke-linejoin="round"/>
<path d="M206.38 435.75V446.36" stroke="#B2B2B2" stroke-linejoin="round"/>
<path d="M212.13 446.66V440.3" stroke="#B2B2B2" stroke-linejoin="round"/>
<path d="M217.29 435.75V441.82" stroke="#B2B2B2" stroke-linejoin="round"/>
<path d="M224.56 444.85V441.21" stroke="#B2B2B2" stroke-linejoin="round"/>
<path d="M238.97 435.66H234.04V446.81H238.97V435.66Z" fill="#B2B2B2" stroke="#B2B2B2" stroke-linejoin="round"/>
<path d="M242.34 435.66H240.78V446.81H242.34V435.66Z" fill="#B2B2B2" stroke="#B2B2B2" stroke-linejoin="round"/>
<path d="M258.61 423.23H175.37V435.2H258.61V423.23Z" fill="white" stroke="#B2B2B2" stroke-linejoin="round"/>
<path d="M179.95 423.45V431.94" stroke="#B2B2B2" stroke-linejoin="round"/>
<path d="M184.49 434.66V425.27" stroke="#B2B2B2" stroke-linejoin="round"/>
<path d="M190.25 423.45V433.76" stroke="#B2B2B2" stroke-linejoin="round"/>
<path d="M196.62 423.15V430.72" stroke="#B2B2B2" stroke-linejoin="round"/>
<path d="M202.38 423.75V434.36" stroke="#B2B2B2" stroke-linejoin="round"/>
<path d="M208.13 434.66V428.3" stroke="#B2B2B2" stroke-linejoin="round"/>
<path d="M213.29 423.75V429.82" stroke="#B2B2B2" stroke-linejoin="round"/>
<path d="M220.56 432.85V429.21" stroke="#B2B2B2" stroke-linejoin="round"/>
<path d="M234.97 423.66H230.04V434.81H234.97V423.66Z" fill="#B2B2B2" stroke="#B2B2B2" stroke-linejoin="round"/>
<path d="M238.34 423.66H236.78V434.81H238.34V423.66Z" fill="#B2B2B2" stroke="#B2B2B2" stroke-linejoin="round"/>
<path d="M262.61 411.23H179.37V423.2H262.61V411.23Z" fill="white" stroke="#B2B2B2" stroke-linejoin="round"/>
<path d="M183.95 411.45V419.94" stroke="#B2B2B2" stroke-linejoin="round"/>
<path d="M188.49 422.66V413.27" stroke="#B2B2B2" stroke-linejoin="round"/>
<path d="M194.25 411.45V421.76" stroke="#B2B2B2" stroke-linejoin="round"/>
<path d="M200.62 411.15V418.72" stroke="#B2B2B2" stroke-linejoin="round"/>
<path d="M206.38 411.75V422.36" stroke="#B2B2B2" stroke-linejoin="round"/>
<path d="M212.13 422.66V416.3" stroke="#B2B2B2" stroke-linejoin="round"/>
<path d="M217.29 411.75V417.82" stroke="#B2B2B2" stroke-linejoin="round"/>
<path d="M224.56 420.85V417.21" stroke="#B2B2B2" stroke-linejoin="round"/>
<path d="M238.97 411.66H234.04V422.81H238.97V411.66Z" fill="#B2B2B2" stroke="#B2B2B2" stroke-linejoin="round"/>
<path d="M242.34 411.66H240.78V422.81H242.34V411.66Z" fill="#B2B2B2" stroke="#B2B2B2" stroke-linejoin="round"/>
<path d="M257.61 399.23H174.37V411.2H257.61V399.23Z" fill="white" stroke="#B2B2B2" stroke-linejoin="round"/>
<path d="M178.95 399.45V407.94" stroke="#B2B2B2" stroke-linejoin="round"/>
<path d="M183.49 410.66V401.27" stroke="#B2B2B2" stroke-linejoin="round"/>
<path d="M189.25 399.45V409.76" stroke="#B2B2B2" stroke-linejoin="round"/>
<path d="M195.62 399.15V406.72" stroke="#B2B2B2" stroke-linejoin="round"/>
<path d="M201.38 399.75V410.36" stroke="#B2B2B2" stroke-linejoin="round"/>
<path d="M207.13 410.66V404.3" stroke="#B2B2B2" stroke-linejoin="round"/>
<path d="M212.29 399.75V405.82" stroke="#B2B2B2" stroke-linejoin="round"/>
<path d="M219.56 408.85V405.21" stroke="#B2B2B2" stroke-linejoin="round"/>
<path d="M233.97 399.66H229.04V410.81H233.97V399.66Z" fill="#B2B2B2" stroke="#B2B2B2" stroke-linejoin="round"/>
<path d="M237.34 399.66H235.78V410.81H237.34V399.66Z" fill="#B2B2B2" stroke="#B2B2B2" stroke-linejoin="round"/>
<path d="M255.61 387.23H172.37V399.2H255.61V387.23Z" fill="white" stroke="#B2B2B2" stroke-linejoin="round"/>
<path d="M176.95 387.45V395.94" stroke="#B2B2B2" stroke-linejoin="round"/>
<path d="M181.49 398.66V389.27" stroke="#B2B2B2" stroke-linejoin="round"/>
<path d="M187.25 387.45V397.76" stroke="#B2B2B2" stroke-linejoin="round"/>
<path d="M193.62 387.15V394.72" stroke="#B2B2B2" stroke-linejoin="round"/>
<path d="M199.38 387.75V398.36" stroke="#B2B2B2" stroke-linejoin="round"/>
<path d="M205.13 398.66V392.3" stroke="#B2B2B2" stroke-linejoin="round"/>
<path d="M210.29 387.75V393.82" stroke="#B2B2B2" stroke-linejoin="round"/>
<path d="M217.56 396.85V393.21" stroke="#B2B2B2" stroke-linejoin="round"/>
<path d="M231.97 387.66H227.04V398.81H231.97V387.66Z" fill="#B2B2B2" stroke="#B2B2B2" stroke-linejoin="round"/>
<path d="M235.34 387.66H233.78V398.81H235.34V387.66Z" fill="#B2B2B2" stroke="#B2B2B2" stroke-linejoin="round"/>
<path d="M256.61 375.23H173.37V387.2H256.61V375.23Z" fill="white" stroke="#B2B2B2" stroke-linejoin="round"/>
<path d="M177.95 375.45V383.94" stroke="#B2B2B2" stroke-linejoin="round"/>
<path d="M182.49 386.66V377.27" stroke="#B2B2B2" stroke-linejoin="round"/>
<path d="M188.25 375.45V385.76" stroke="#B2B2B2" stroke-linejoin="round"/>
<path d="M194.62 375.15V382.72" stroke="#B2B2B2" stroke-linejoin="round"/>
<path d="M200.38 375.75V386.36" stroke="#B2B2B2" stroke-linejoin="round"/>
<path d="M206.13 386.66V380.3" stroke="#B2B2B2" stroke-linejoin="round"/>
<path d="M211.29 375.75V381.82" stroke="#B2B2B2" stroke-linejoin="round"/>
<path d="M218.56 384.85V381.21" stroke="#B2B2B2" stroke-linejoin="round"/>
<path d="M232.97 375.66H228.04V386.81H232.97V375.66Z" fill="#B2B2B2" stroke="#B2B2B2" stroke-linejoin="round"/>
<path d="M236.34 375.66H234.78V386.81H236.34V375.66Z" fill="#B2B2B2" stroke="#B2B2B2" stroke-linejoin="round"/>
<path d="M252.61 363.23H169.37V375.2H252.61V363.23Z" fill="white" stroke="#B2B2B2" stroke-linejoin="round"/>
<path d="M173.95 363.45V371.94" stroke="#B2B2B2" stroke-linejoin="round"/>
<path d="M178.49 374.66V365.27" stroke="#B2B2B2" stroke-linejoin="round"/>
<path d="M184.25 363.45V373.76" stroke="#B2B2B2" stroke-linejoin="round"/>
<path d="M190.62 363.15V370.72" stroke="#B2B2B2" stroke-linejoin="round"/>
<path d="M196.37 363.75V374.36" stroke="#B2B2B2" stroke-linejoin="round"/>
<path d="M202.13 374.66V368.3" stroke="#B2B2B2" stroke-linejoin="round"/>
<path d="M207.29 363.75V369.82" stroke="#B2B2B2" stroke-linejoin="round"/>
<path d="M214.56 372.85V369.21" stroke="#B2B2B2" stroke-linejoin="round"/>
<path d="M228.97 363.66H224.04V374.81H228.97V363.66Z" fill="#B2B2B2" stroke="#B2B2B2" stroke-linejoin="round"/>
<path d="M232.34 363.66H230.78V374.81H232.34V363.66Z" fill="#B2B2B2" stroke="#B2B2B2" stroke-linejoin="round"/>
<path d="M260.61 351.23H177.37V363.2H260.61V351.23Z" fill="white" stroke="#B2B2B2" stroke-linejoin="round"/>
<path d="M181.95 351.45V359.94" stroke="#B2B2B2" stroke-linejoin="round"/>
<path d="M186.49 362.66V353.27" stroke="#B2B2B2" stroke-linejoin="round"/>
<path d="M192.25 351.45V361.76" stroke="#B2B2B2" stroke-linejoin="round"/>
<path d="M198.62 351.15V358.72" stroke="#B2B2B2" stroke-linejoin="round"/>
<path d="M204.38 351.75V362.36" stroke="#B2B2B2" stroke-linejoin="round"/>
<path d="M210.13 362.66V356.3" stroke="#B2B2B2" stroke-linejoin="round"/>
<path d="M215.29 351.75V357.82" stroke="#B2B2B2" stroke-linejoin="round"/>
<path d="M222.56 360.85V357.21" stroke="#B2B2B2" stroke-linejoin="round"/>
<path d="M236.97 351.66H232.04V362.81H236.97V351.66Z" fill="#B2B2B2" stroke="#B2B2B2" stroke-linejoin="round"/>
<path d="M240.34 351.66H238.78V362.81H240.34V351.66Z" fill="#B2B2B2" stroke="#B2B2B2" stroke-linejoin="round"/>
<path d="M257.61 339.23H174.37V351.2H257.61V339.23Z" fill="white" stroke="#B2B2B2" stroke-linejoin="round"/>
<path d="M178.95 339.45V347.94" stroke="#B2B2B2" stroke-linejoin="round"/>
<path d="M183.49 350.66V341.27" stroke="#B2B2B2" stroke-linejoin="round"/>
<path d="M189.25 339.45V349.76" stroke="#B2B2B2" stroke-linejoin="round"/>
<path d="M195.62 339.15V346.72" stroke="#B2B2B2" stroke-linejoin="round"/>
<path d="M201.38 339.75V350.36" stroke="#B2B2B2" stroke-linejoin="round"/>
<path d="M207.13 350.66V344.3" stroke="#B2B2B2" stroke-linejoin="round"/>
<path d="M212.29 339.75V345.82" stroke="#B2B2B2" stroke-linejoin="round"/>
<path d="M219.56 348.85V345.21" stroke="#B2B2B2" stroke-linejoin="round"/>
<path d="M233.97 339.66H229.04V350.81H233.97V339.66Z" fill="#B2B2B2" stroke="#B2B2B2" stroke-linejoin="round"/>
<path d="M237.34 339.66H235.78V350.81H237.34V339.66Z" fill="#B2B2B2" stroke="#B2B2B2" stroke-linejoin="round"/>
<path d="M386.467 459.318C408.838 454.133 422.77 431.794 417.585 409.423C412.399 387.052 390.061 373.12 367.69 378.306C345.319 383.491 331.387 405.83 336.573 428.201C341.758 450.572 364.097 464.503 386.467 459.318Z" fill="white" stroke="#263238" stroke-linejoin="round"/>
<path d="M401.567 448.249C417.805 432.011 417.805 405.684 401.567 389.446C385.329 373.208 359.002 373.208 342.764 389.446C326.526 405.684 326.526 432.011 342.764 448.249C359.002 464.487 385.329 464.487 401.567 448.249Z" fill="white" stroke="#263238" stroke-linejoin="round"/>
<path d="M395.804 442.486C408.859 429.431 408.859 408.264 395.804 395.209C382.749 382.154 361.582 382.154 348.527 395.209C335.472 408.264 335.472 429.431 348.527 442.486C361.582 455.542 382.749 455.542 395.804 442.486Z" fill="white" stroke="#263238" stroke-linejoin="round"/>
<path d="M341.63 418.85C341.632 410.233 344.962 401.95 350.924 395.729C356.887 389.507 365.021 385.829 373.63 385.46C373.16 385.46 372.68 385.46 372.19 385.46C363.324 385.46 354.821 388.982 348.551 395.251C342.282 401.521 338.76 410.024 338.76 418.89C338.76 427.756 342.282 436.259 348.551 442.529C354.821 448.798 363.324 452.32 372.19 452.32C372.68 452.32 373.19 452.32 373.63 452.32C365.005 451.956 356.856 448.267 350.891 442.028C344.926 435.788 341.607 427.482 341.63 418.85Z" fill="white" stroke="#263238" stroke-linejoin="round"/>
<path d="M403.16 386.78H399.99" stroke="#263238" stroke-linejoin="round"/>
<path d="M407.2 390.54H404.89" stroke="#263238" stroke-linejoin="round"/>
<path d="M412.4 396.31H409.8" stroke="#263238" stroke-linejoin="round"/>
<path d="M415.29 403.53H411.82" stroke="#263238" stroke-linejoin="round"/>
<path d="M417.89 411.33H414.71" stroke="#263238" stroke-linejoin="round"/>
<path d="M417.89 427.78H414.42" stroke="#263238" stroke-linejoin="round"/>
<path d="M404.32 447.42H407.2" stroke="#263238" stroke-linejoin="round"/>
<path d="M399.41 451.17H402.58" stroke="#263238" stroke-linejoin="round"/>
<path d="M394.21 455.21H397.39" stroke="#263238" stroke-linejoin="round"/>
<path d="M397.68 382.74H392.77" stroke="#263238" stroke-linejoin="round"/>
<path d="M386.1 397H364.54V403H366.37C368.71 403 369.73 404.32 369.73 407.32V407.82H364.54V412H369.7C369.54 414.94 368.1 415.93 365.77 415.93H364.54V421.93H365.47C368.47 421.93 369.79 423.37 369.79 427.27V433.86C369.79 437.28 370.03 437.94 370.39 439.02H377.1C376.505 437.389 376.26 435.652 376.38 433.92V427.45C376.38 423.07 375.3 419.9 372.01 418.52C374.46 417.37 375.81 415.2 376.19 412.01H386.1V407.87H376.32V406.71C376.389 404.814 376.016 402.927 375.23 401.2H386.1V397Z" fill="#263238"/>
<path d="M428.39 354.57C451.354 354.57 469.97 335.954 469.97 312.99C469.97 290.026 451.354 271.41 428.39 271.41C405.426 271.41 386.81 290.026 386.81 312.99C386.81 335.954 405.426 354.57 428.39 354.57Z" fill="white" stroke="#263238" stroke-linejoin="round"/>
<path d="M423.5 354.57C446.464 354.57 465.08 335.954 465.08 312.99C465.08 290.026 446.464 271.41 423.5 271.41C400.536 271.41 381.92 290.026 381.92 312.99C381.92 335.954 400.536 354.57 423.5 354.57Z" fill="white" stroke="#263238" stroke-linejoin="round"/>
<path d="M423.5 346.42C441.963 346.42 456.93 331.453 456.93 312.99C456.93 294.527 441.963 279.56 423.5 279.56C405.037 279.56 390.07 294.527 390.07 312.99C390.07 331.453 405.037 346.42 423.5 346.42Z" fill="white" stroke="#263238" stroke-linejoin="round"/>
<path d="M393 313C393.002 304.383 396.332 296.1 402.294 289.879C408.257 283.657 416.391 279.979 425 279.61C424.52 279.61 424.04 279.61 423.56 279.61C419.122 279.533 414.713 280.341 410.59 281.986C406.468 283.632 402.714 286.081 399.549 289.193C396.383 292.304 393.869 296.015 392.152 300.108C390.436 304.202 389.552 308.596 389.552 313.035C389.552 317.474 390.436 321.868 392.152 325.962C393.869 330.055 396.383 333.766 399.549 336.877C402.714 339.989 406.468 342.438 410.59 344.084C414.713 345.729 419.122 346.537 423.56 346.46C424.04 346.46 424.52 346.46 425 346.46C416.379 346.091 408.234 342.402 402.27 336.166C396.306 329.93 392.984 321.629 393 313Z" fill="white" stroke="#263238" stroke-linejoin="round"/>
<path d="M454.49 280.93H451.31" stroke="#263238" stroke-linejoin="round"/>
<path d="M458.53 284.68H456.22" stroke="#263238" stroke-linejoin="round"/>
<path d="M463.73 290.45H461.13" stroke="#263238" stroke-linejoin="round"/>
<path d="M466.61 297.67H463.15" stroke="#263238" stroke-linejoin="round"/>
<path d="M469.21 305.47H466.04" stroke="#263238" stroke-linejoin="round"/>
<path d="M469.21 321.92H465.75" stroke="#263238" stroke-linejoin="round"/>
<path d="M455.64 341.56H458.53" stroke="#263238" stroke-linejoin="round"/>
<path d="M450.73 345.31H453.91" stroke="#263238" stroke-linejoin="round"/>
<path d="M445.54 349.35H448.71" stroke="#263238" stroke-linejoin="round"/>
<path d="M449 276.88H444.09" stroke="#263238" stroke-linejoin="round"/>
<path d="M440.52 316.17V311.74H437.31L439.31 293.69H433.86L432 311.74H429.28L427.49 293.69H421.49L419.75 311.74H417L415.07 293.69H409L411 311.74H407.1V316.17H411.49L412.02 320.93H407.1V325.36H412.51L413.42 333.46H422L422.86 325.36H425.67L426.54 333.46H434.84L435.74 325.36H440.47V320.93H436.23L436.77 316.17H440.52ZM417.52 316.17H419.32L418.86 320.93H418L417.52 316.17ZM423.39 320.93L423.9 316.17H424.74L425.25 320.93H423.39ZM431.07 320.93H430.2L429.73 316.17H431.56L431.07 320.93Z" fill="#263238"/>
<path d="M452.43 232.855C468.668 216.617 468.668 190.29 452.43 174.052C436.192 157.814 409.865 157.814 393.627 174.052C377.389 190.29 377.389 216.617 393.627 232.855C409.865 249.093 436.192 249.093 452.43 232.855Z" fill="white" stroke="#263238" stroke-linejoin="round"/>
<path d="M427.871 243.854C450.198 238.482 463.942 216.027 458.57 193.7C453.197 171.374 430.743 157.629 408.416 163.002C386.089 168.374 372.345 190.829 377.718 213.156C383.09 235.483 405.545 249.227 427.871 243.854Z" fill="white" stroke="#263238" stroke-linejoin="round"/>
<path d="M425.939 235.943C443.893 231.64 454.959 213.596 450.655 195.642C446.351 177.687 428.308 166.621 410.353 170.925C392.399 175.229 381.333 193.273 385.637 211.227C389.941 229.181 407.985 240.247 425.939 235.943Z" fill="white" stroke="#263238" stroke-linejoin="round"/>
<path d="M387.59 203.45C387.592 194.833 390.922 186.55 396.884 180.329C402.847 174.107 410.981 170.429 419.59 170.06C419.11 170.06 418.59 170.06 418.15 170.06C409.284 170.06 400.781 173.582 394.511 179.851C388.242 186.121 384.72 194.624 384.72 203.49C384.72 212.356 388.242 220.859 394.511 227.129C400.781 233.398 409.284 236.92 418.15 236.92C418.63 236.92 419.15 236.92 419.59 236.92C410.966 236.553 402.819 232.864 396.854 226.625C390.889 220.386 387.569 212.082 387.59 203.45Z" fill="white" stroke="#263238" stroke-linejoin="round"/>
<path d="M449.13 171.38H445.95" stroke="#263238" stroke-linejoin="round"/>
<path d="M453.17 175.14H450.86" stroke="#263238" stroke-linejoin="round"/>
<path d="M458.36 180.91H455.77" stroke="#263238" stroke-linejoin="round"/>
<path d="M461.25 188.13H457.79" stroke="#263238" stroke-linejoin="round"/>
<path d="M463.85 195.93H460.67" stroke="#263238" stroke-linejoin="round"/>
<path d="M463.85 212.38H460.39" stroke="#263238" stroke-linejoin="round"/>
<path d="M450.28 232.02H453.17" stroke="#263238" stroke-linejoin="round"/>
<path d="M445.37 235.77H448.55" stroke="#263238" stroke-linejoin="round"/>
<path d="M440.17 239.81H443.35" stroke="#263238" stroke-linejoin="round"/>
<path d="M443.64 167.34H438.73" stroke="#263238" stroke-linejoin="round"/>
<path d="M422.12 183.47H412.41V203.26H406.9V208.88H412.41V214.5H407.12V218.77H412.41V225.42H419V218.77H424.12V214.5H419V209.66H422.11C428.71 209.66 431.94 206 431.94 199.29V193.84C432 187.12 428.72 183.47 422.12 183.47ZM425.36 199.71C425.36 202.71 424.22 203.71 422.12 203.71H419V189.46H422.11C424.21 189.46 425.35 190.46 425.35 193.46L425.36 199.71Z" fill="#263238"/>
<path d="M384.75 135.76C407.714 135.76 426.33 117.144 426.33 94.18C426.33 71.216 407.714 52.6 384.75 52.6C361.786 52.6 343.17 71.216 343.17 94.18C343.17 117.144 361.786 135.76 384.75 135.76Z" fill="white" stroke="#263238" stroke-linejoin="round"/>
<path d="M379.86 135.76C402.824 135.76 421.44 117.144 421.44 94.18C421.44 71.216 402.824 52.6 379.86 52.6C356.896 52.6 338.28 71.216 338.28 94.18C338.28 117.144 356.896 135.76 379.86 135.76Z" fill="white" stroke="#263238" stroke-linejoin="round"/>
<path d="M386.683 126.882C404.758 123.116 416.358 105.41 412.591 87.3355C408.825 69.2608 391.12 57.6614 373.045 61.4275C354.97 65.1937 343.371 82.8991 347.137 100.974C350.903 119.049 368.609 130.648 386.683 126.882Z" fill="white" stroke="#263238" stroke-linejoin="round"/>
<path d="M349.31 94.18C349.31 85.5623 352.639 77.2776 358.602 71.0558C364.564 64.8341 372.7 61.1561 381.31 60.79C380.83 60.79 380.31 60.79 379.87 60.79C371.004 60.79 362.501 64.3121 356.231 70.5814C349.962 76.8507 346.44 85.3538 346.44 94.22C346.44 103.086 349.962 111.589 356.231 117.859C362.501 124.128 371.004 127.65 379.87 127.65C380.35 127.65 380.87 127.65 381.31 127.65C372.686 127.283 364.539 123.594 358.574 117.355C352.609 111.116 349.289 102.812 349.31 94.18Z" fill="white" stroke="#263238" stroke-linejoin="round"/>
<path d="M410.85 62.11H407.67" stroke="#263238" stroke-linejoin="round"/>
<path d="M414.89 65.86H412.58" stroke="#263238" stroke-linejoin="round"/>
<path d="M420.09 71.64H417.49" stroke="#263238" stroke-linejoin="round"/>
<path d="M422.97 78.86H419.51" stroke="#263238" stroke-linejoin="round"/>
<path d="M425.57 86.65H422.39" stroke="#263238" stroke-linejoin="round"/>
<path d="M425.57 103.11H422.11" stroke="#263238" stroke-linejoin="round"/>
<path d="M412 122.74H414.89" stroke="#263238" stroke-linejoin="round"/>
<path d="M407.09 126.5H410.27" stroke="#263238" stroke-linejoin="round"/>
<path d="M401.9 130.54H405.07" stroke="#263238" stroke-linejoin="round"/>
<path d="M405.36 58.07H400.45" stroke="#263238" stroke-linejoin="round"/>
<path d="M391.01 80.09V74.09H373.57V104.02H368.84V108.02H373.57V116.05H380.16V108.02H385.51V104.02H380.16V98.73H388.67V92.73H380.16V80.09H391.01Z" fill="#263238"/>
<path d="M272.215 110.161C294.586 104.976 308.518 82.6374 303.332 60.2665C298.147 37.8955 275.808 23.9638 253.437 29.1491C231.066 34.3344 217.135 56.6732 222.32 79.0441C227.505 101.415 249.844 115.347 272.215 110.161Z" fill="white" stroke="#263238" stroke-linejoin="round"/>
<path d="M287.337 99.0786C303.575 82.8406 303.575 56.5136 287.337 40.2756C271.099 24.0376 244.772 24.0376 228.534 40.2756C212.296 56.5136 212.296 82.8406 228.534 99.0786C244.772 115.317 271.099 115.317 287.337 99.0786Z" fill="white" stroke="#263238" stroke-linejoin="round"/>
<path d="M281.574 93.3157C294.629 80.2605 294.629 59.0938 281.574 46.0386C268.519 32.9833 247.352 32.9833 234.297 46.0385C221.241 59.0938 221.241 80.2605 234.297 93.3157C247.352 106.371 268.519 106.371 281.574 93.3157Z" fill="white" stroke="#263238" stroke-linejoin="round"/>
<path d="M227.39 69.68C227.39 61.0613 230.718 52.7756 236.681 46.5522C242.643 40.3288 250.779 36.6487 259.39 36.28C258.91 36.28 258.43 36.28 257.95 36.28C253.512 36.2033 249.103 37.0111 244.98 38.6564C240.858 40.3017 237.104 42.7515 233.939 45.8629C230.773 48.9743 228.258 52.685 226.542 56.7785C224.826 60.872 223.942 65.2663 223.942 69.705C223.942 74.1438 224.826 78.5381 226.542 82.6316C228.258 86.725 230.773 90.4357 233.939 93.5471C237.104 96.6586 240.858 99.1084 244.98 100.754C249.103 102.399 253.512 103.207 257.95 103.13C258.43 103.13 258.91 103.13 259.39 103.13C250.771 102.761 242.627 99.0739 236.664 92.8398C230.7 86.6058 227.377 78.3074 227.39 69.68Z" fill="white" stroke="#263238" stroke-linejoin="round"/>
<path d="M288.92 37.61H285.74" stroke="#263238" stroke-linejoin="round"/>
<path d="M292.96 41.36H290.65" stroke="#263238" stroke-linejoin="round"/>
<path d="M298.16 47.14H295.56" stroke="#263238" stroke-linejoin="round"/>
<path d="M301.05 54.35H297.58" stroke="#263238" stroke-linejoin="round"/>
<path d="M303.65 62.15H300.47" stroke="#263238" stroke-linejoin="round"/>
<path d="M303.65 78.61H300.18" stroke="#263238" stroke-linejoin="round"/>
<path d="M290.08 98.24H292.96" stroke="#263238" stroke-linejoin="round"/>
<path d="M285.17 101.99H288.34" stroke="#263238" stroke-linejoin="round"/>
<path d="M279.97 106.04H283.15" stroke="#263238" stroke-linejoin="round"/>
<path d="M283.43 33.5699H278.53" stroke="#263238" stroke-linejoin="round"/>
<path d="M266.86 61.55V58.49C266.86 51.78 263.68 47.94 257.21 47.94C250.74 47.94 247.56 51.78 247.56 58.49V64.31H245.88V67.6H247.56V70.9H245.88V74.2H247.56V80.31C247.56 87.02 250.74 90.86 257.21 90.86C263.68 90.86 266.86 87.02 266.86 80.31V77H260.63V80.78C260.63 83.78 259.49 84.85 257.39 84.85C255.29 84.85 254.15 83.78 254.15 80.78V74.2H263.38V70.9H254.15V67.6H263.38V64.31H254.15V58.07C254.15 55.07 255.29 53.94 257.39 53.94C259.49 53.94 260.63 55.08 260.63 58.07V61.55H266.86Z" fill="#263238"/>
<path d="M140.01 135.76C162.974 135.76 181.59 117.144 181.59 94.18C181.59 71.216 162.974 52.6 140.01 52.6C117.046 52.6 98.43 71.216 98.43 94.18C98.43 117.144 117.046 135.76 140.01 135.76Z" fill="white" stroke="#263238" stroke-linejoin="round"/>
<path d="M135.12 135.76C158.084 135.76 176.7 117.144 176.7 94.18C176.7 71.216 158.084 52.6 135.12 52.6C112.156 52.6 93.54 71.216 93.54 94.18C93.54 117.144 112.156 135.76 135.12 135.76Z" fill="white" stroke="#263238" stroke-linejoin="round"/>
<path d="M142.69 126.742C160.673 122.56 171.862 104.592 167.68 86.6094C163.499 68.6262 145.531 57.4378 127.548 61.6193C109.565 65.8008 98.3762 83.7688 102.558 101.752C106.739 119.735 124.707 130.923 142.69 126.742Z" fill="white" stroke="#263238" stroke-linejoin="round"/>
<path d="M104.58 94.18C104.578 85.5615 107.906 77.2755 113.869 71.0532C119.832 64.8309 127.969 61.1537 136.58 60.79C136.11 60.79 135.58 60.79 135.14 60.79C126.274 60.79 117.771 64.3121 111.501 70.5814C105.232 76.8507 101.71 85.3538 101.71 94.22C101.71 103.086 105.232 111.589 111.501 117.859C117.771 124.128 126.274 127.65 135.14 127.65C135.62 127.65 136.14 127.65 136.58 127.65C127.955 127.286 119.807 123.597 113.841 117.358C107.876 111.118 104.557 102.812 104.58 94.18Z" fill="white" stroke="#263238" stroke-linejoin="round"/>
<path d="M166.11 62.11H162.94" stroke="#263238" stroke-linejoin="round"/>
<path d="M170.15 65.86H167.84" stroke="#263238" stroke-linejoin="round"/>
<path d="M175.35 71.64H172.75" stroke="#263238" stroke-linejoin="round"/>
<path d="M178.24 78.86H174.77" stroke="#263238" stroke-linejoin="round"/>
<path d="M180.84 86.65H177.66" stroke="#263238" stroke-linejoin="round"/>
<path d="M180.84 103.11H177.37" stroke="#263238" stroke-linejoin="round"/>
<path d="M167.27 122.74H170.15" stroke="#263238" stroke-linejoin="round"/>
<path d="M162.36 126.5H165.53" stroke="#263238" stroke-linejoin="round"/>
<path d="M157.16 130.54H160.34" stroke="#263238" stroke-linejoin="round"/>
<path d="M160.63 58.07H155.72" stroke="#263238" stroke-linejoin="round"/>
<path d="M145.39 85.74V81.61C145.39 74.89 142.1 71.06 135.68 71.06C129.26 71.06 126 74.89 126 81.61C126 88.92 128.82 91.67 130.26 95.81H126.26V100.9H131.12C131 105.22 128.54 107.74 125.42 107.74V113.49H145V107.49H133.64C134.628 106.684 135.437 105.681 136.016 104.544C136.594 103.408 136.93 102.163 137 100.89H143.83V95.81H136.58C135.44 91.26 132.58 88.68 132.58 81.19C132.58 78.19 133.77 77.05 135.87 77.05C137.97 77.05 139.17 78.19 139.17 81.19V85.74H145.39Z" fill="#263238"/>
<path d="M107.296 232.849C123.534 216.611 123.534 190.284 107.296 174.046C91.058 157.808 64.731 157.808 48.493 174.046C32.255 190.284 32.255 216.611 48.493 232.849C64.731 249.087 91.058 249.087 107.296 232.849Z" fill="white" stroke="#263238" stroke-linejoin="round"/>
<path d="M82.6808 243.888C105.015 238.546 118.79 216.111 113.449 193.777C108.108 171.443 85.6722 157.667 63.338 163.009C41.0039 168.35 27.2285 190.785 32.5698 213.12C37.9112 235.454 60.3466 249.229 82.6808 243.888Z" fill="white" stroke="#263238" stroke-linejoin="round"/>
<path d="M80.7878 235.963C98.7451 231.672 109.824 213.636 105.532 195.679C101.241 177.722 83.205 166.643 65.2478 170.934C47.2905 175.226 36.212 193.262 40.5033 211.219C44.7946 229.176 62.8306 240.255 80.7878 235.963Z" fill="white" stroke="#263238" stroke-linejoin="round"/>
<path d="M42.46 203.45C42.4624 194.833 45.7922 186.55 51.7544 180.329C57.7167 174.107 65.8509 170.429 74.46 170.06C73.98 170.06 73.46 170.06 73.02 170.06C64.1538 170.06 55.6508 173.582 49.3814 179.851C43.1121 186.121 39.59 194.624 39.59 203.49C39.59 212.356 43.1121 220.859 49.3814 227.129C55.6508 233.398 64.1538 236.92 73.02 236.92C73.5 236.92 74.02 236.92 74.46 236.92C65.8363 236.553 57.6888 232.864 51.7239 226.625C45.759 220.386 42.4393 212.082 42.46 203.45Z" fill="white" stroke="#263238" stroke-linejoin="round"/>
<path d="M104 171.38H100.82" stroke="#263238" stroke-linejoin="round"/>
<path d="M108.04 175.14H105.73" stroke="#263238" stroke-linejoin="round"/>
<path d="M113.24 180.91H110.64" stroke="#263238" stroke-linejoin="round"/>
<path d="M116.12 188.13H112.66" stroke="#263238" stroke-linejoin="round"/>
<path d="M118.72 195.93H115.55" stroke="#263238" stroke-linejoin="round"/>
<path d="M118.72 212.38H115.26" stroke="#263238" stroke-linejoin="round"/>
<path d="M105.15 232.02H108.04" stroke="#263238" stroke-linejoin="round"/>
<path d="M100.24 235.77H103.42" stroke="#263238" stroke-linejoin="round"/>
<path d="M95.05 239.81H98.22" stroke="#263238" stroke-linejoin="round"/>
<path d="M98.51 167.34H93.6" stroke="#263238" stroke-linejoin="round"/>
<path d="M71.3 192.06C71.3 189.06 72.5 187.93 74.59 187.93C76.68 187.93 77.89 189.07 77.89 192.06V193.8H84.12V192.48C84.12 186.79 81.73 183.19 77.05 182.23V179.12H71.66V182.23C67.04 183.23 64.66 186.85 64.66 192.48C64.66 204.48 77.55 204.89 77.55 213.48C77.55 216.48 76.23 217.56 74.13 217.56C72.03 217.56 70.72 216.48 70.72 213.48V210.18H64.53V213.06C64.53 218.76 66.92 222.41 71.66 223.37V226.43H77.05V223.37C81.73 222.37 84.18 218.76 84.18 213.06C84.18 201.11 71.3 200.69 71.3 192.06Z" fill="#263238"/>
<path d="M72.75 354.57C95.714 354.57 114.33 335.954 114.33 312.99C114.33 290.026 95.714 271.41 72.75 271.41C49.786 271.41 31.17 290.026 31.17 312.99C31.17 335.954 49.786 354.57 72.75 354.57Z" fill="white" stroke="#263238" stroke-linejoin="round"/>
<path d="M67.86 354.57C90.824 354.57 109.44 335.954 109.44 312.99C109.44 290.026 90.824 271.41 67.86 271.41C44.896 271.41 26.28 290.026 26.28 312.99C26.28 335.954 44.896 354.57 67.86 354.57Z" fill="white" stroke="#263238" stroke-linejoin="round"/>
<path d="M67.86 346.42C86.3229 346.42 101.29 331.453 101.29 312.99C101.29 294.527 86.3229 279.56 67.86 279.56C49.3971 279.56 34.43 294.527 34.43 312.99C34.43 331.453 49.3971 346.42 67.86 346.42Z" fill="white" stroke="#263238" stroke-linejoin="round"/>
<path d="M37.31 313C37.3149 304.384 40.6454 296.102 46.6071 289.881C52.5689 283.66 60.7017 279.981 69.31 279.61C68.83 279.61 68.35 279.61 67.87 279.61C63.4319 279.533 59.023 280.341 54.9004 281.986C50.7779 283.632 47.0242 286.081 43.8585 289.193C40.6928 292.304 38.1785 296.015 36.4621 300.108C34.7458 304.202 33.8618 308.596 33.8618 313.035C33.8618 317.474 34.7458 321.868 36.4621 325.962C38.1785 330.055 40.6928 333.766 43.8585 336.877C47.0242 339.989 50.7779 342.438 54.9004 344.084C59.023 345.729 63.4319 346.537 67.87 346.46C68.35 346.46 68.83 346.46 69.31 346.46C60.6896 346.088 52.5465 342.399 46.5829 336.164C40.6193 329.928 37.2968 321.628 37.31 313Z" fill="white" stroke="#263238" stroke-linejoin="round"/>
<path d="M98.85 280.93H95.67" stroke="#263238" stroke-linejoin="round"/>
<path d="M102.89 284.68H100.58" stroke="#263238" stroke-linejoin="round"/>
<path d="M108.09 290.45H105.49" stroke="#263238" stroke-linejoin="round"/>
<path d="M110.97 297.67H107.51" stroke="#263238" stroke-linejoin="round"/>
<path d="M113.57 305.47H110.39" stroke="#263238" stroke-linejoin="round"/>
<path d="M113.57 321.92H110.11" stroke="#263238" stroke-linejoin="round"/>
<path d="M100 341.56H102.89" stroke="#263238" stroke-linejoin="round"/>
<path d="M95.09 345.31H98.27" stroke="#263238" stroke-linejoin="round"/>
<path d="M89.9 349.35H93.07" stroke="#263238" stroke-linejoin="round"/>
<path d="M93.36 276.88H88.45" stroke="#263238" stroke-linejoin="round"/>
<path d="M75.67 311.5C78.61 310.12 79.93 307.36 79.93 303.05V301.55C79.93 296.34 78.02 293.27 73.72 292.27V285.27H70.35V291.9H67.7V285.28H64.33V291.9H60.21V333.9H64.33V339.85H67.7V333.9H70.35V339.85H73.72V333.58C78.25 332.58 80.59 329.3 80.59 323.96V320.54C80.59 316.05 79.21 312.88 75.67 311.5ZM66.8 297.89H70C72.34 297.89 73.35 299.21 73.35 302.21V304.55C73.35 307.9 71.86 308.98 69.35 308.98H66.8V297.89ZM74 323.73C74 326.84 72.81 327.86 70.59 327.86H66.8V315H69.74C72.74 315 73.99 316.2 73.99 320.1L74 323.73Z" fill="#263238"/>
<path d="M156.844 448.252C173.082 432.014 173.082 405.687 156.844 389.449C140.606 373.211 114.279 373.211 98.0409 389.449C81.8029 405.687 81.8029 432.014 98.0409 448.252C114.279 464.49 140.606 464.49 156.844 448.252Z" fill="white" stroke="#263238" stroke-linejoin="round"/>
<path d="M129.072 459.924C151.751 456.316 167.211 435.006 163.603 412.327C159.994 389.648 138.685 374.189 116.006 377.797C93.3271 381.405 77.8673 402.715 81.4755 425.394C85.0837 448.072 106.394 463.532 129.072 459.924Z" fill="white" stroke="#263238" stroke-linejoin="round"/>
<path d="M153.08 432.477C160.599 415.614 153.023 395.85 136.161 388.331C119.298 380.813 99.5332 388.388 92.0148 405.251C84.4964 422.113 92.0716 441.878 108.934 449.397C125.797 456.915 145.562 449.34 153.08 432.477Z" fill="white" stroke="#263238" stroke-linejoin="round"/>
<path d="M92 418.85C92.0049 410.234 95.3354 401.952 101.297 395.731C107.259 389.51 115.392 385.831 124 385.46C123.52 385.46 123 385.46 122.56 385.46C113.694 385.46 105.191 388.982 98.9214 395.251C92.6521 401.521 89.13 410.024 89.13 418.89C89.13 427.756 92.6521 436.259 98.9214 442.529C105.191 448.798 113.694 452.32 122.56 452.32C123.04 452.32 123.56 452.32 124 452.32C115.376 451.953 107.229 448.264 101.264 442.025C95.299 435.786 91.9793 427.482 92 418.85Z" fill="white" stroke="#263238" stroke-linejoin="round"/>
<path d="M153.55 386.78H150.37" stroke="#263238" stroke-linejoin="round"/>
<path d="M157.59 390.54H155.28" stroke="#263238" stroke-linejoin="round"/>
<path d="M162.78 396.31H160.19" stroke="#263238" stroke-linejoin="round"/>
<path d="M165.67 403.53H162.21" stroke="#263238" stroke-linejoin="round"/>
<path d="M168.27 411.33H165.09" stroke="#263238" stroke-linejoin="round"/>
<path d="M168.27 427.78H164.81" stroke="#263238" stroke-linejoin="round"/>
<path d="M154.7 447.42H157.59" stroke="#263238" stroke-linejoin="round"/>
<path d="M149.79 451.17H152.97" stroke="#263238" stroke-linejoin="round"/>
<path d="M144.6 455.21H147.77" stroke="#263238" stroke-linejoin="round"/>
<path d="M148.06 382.74H143.15" stroke="#263238" stroke-linejoin="round"/>
<path d="M135 399.22L127.33 424.93H132.33V428.22H126.88V430.92H132.33V434.22H126.88V441.17H120.28V434.22H114.83V430.92H120.28V428.22H114.83V424.93H119.74L112.13 399.22H119L123.85 417.73L128.7 399.22H135Z" fill="#263238"/>
<path d="M274.13 450.83L282.52 459.83C282.52 459.83 293.38 465.53 293.91 465.89C294.44 466.25 293.91 471.23 293.91 471.23H256.44C256.266 471.229 256.094 471.193 255.935 471.125C255.775 471.056 255.63 470.957 255.509 470.832C255.388 470.708 255.293 470.56 255.23 470.398C255.167 470.236 255.136 470.064 255.14 469.89L255.46 460.01C255.46 460.01 269.3 448.63 274.13 450.83Z" fill="white" stroke="#263238" stroke-miterlimit="10"/>
<path d="M294.15 467.46H255.22L255.14 469.86C255.136 470.034 255.167 470.206 255.23 470.368C255.293 470.53 255.388 470.677 255.509 470.802C255.63 470.927 255.775 471.026 255.935 471.095C256.094 471.163 256.266 471.199 256.44 471.2H293.91C293.91 471.2 294.14 469 294.15 467.46Z" fill="white" stroke="#263238" stroke-miterlimit="10"/>
<path d="M205.39 453.54C205.58 455.385 205.58 457.245 205.39 459.09C205.03 460.69 199.87 464.25 199.51 466.39C199.299 467.803 199.242 469.235 199.34 470.66H226.57C227.301 468.361 227.603 465.948 227.46 463.54C227.11 460.16 226.34 453.54 226.34 453.54H205.39Z" fill="white" stroke="#263238" stroke-miterlimit="10"/>
<path d="M227.29 467.82H199.39C199.321 468.765 199.321 469.715 199.39 470.66H226.62C226.91 469.73 227.134 468.781 227.29 467.82Z" fill="white" stroke="#263238" stroke-miterlimit="10"/>
<path d="M210.31 285L207.76 320.65V438.31L205.39 442.71V453.54H226.39C226.39 453.54 228.09 444.06 228.09 442.71C228.09 441.36 227.41 439.32 227.41 437.97C227.41 436.62 241.28 324 241.28 324L243.99 323.32L252.79 445.38L250.79 448.08L255.53 461.29L271.11 451.47L274.16 450.79V442C273.52 439.452 273.185 436.837 273.16 434.21C273.16 430.15 273.5 326.04 273.5 326.04L273.16 284.04L210.31 285Z" fill="#263238" stroke="#263238" stroke-miterlimit="10"/>
<path d="M263.06 229L275.06 257.75L278.06 277.75L283.81 282.5C283.81 282.5 294.81 259 295.06 256.5C295.31 254 276.31 208.75 275.31 205.5C274.31 202.25 269.81 201 269.81 201H265.06" fill="white"/>
<path d="M263.06 229L275.06 257.75L278.06 277.75L283.81 282.5C283.81 282.5 294.81 259 295.06 256.5C295.31 254 276.31 208.75 275.31 205.5C274.31 202.25 269.81 201 269.81 201H265.06" stroke="#263238" stroke-miterlimit="10"/>
<path d="M275.56 256C275.56 256 278.56 247.75 285.31 247.75" stroke="#263238" stroke-miterlimit="10"/>
<path d="M277.31 273.25C277.31 273.25 282.81 267.5 286.31 276.5" stroke="#263238" stroke-miterlimit="10"/>
<path d="M285.31 280.25C285.31 280.25 282.06 275.5 280.31 275.25C278.56 275 276.56 276.5 276.56 276.5L272.56 279.75C272.56 279.75 268.31 285.5 268.81 286.75C269.31 288 272.06 297 272.81 297.25C273.56 297.5 277.31 294.5 277.31 294.5C277.31 294.5 282.81 289.75 283.31 287C283.817 284.706 284.486 282.45 285.31 280.25Z" fill="white" stroke="#263238" stroke-miterlimit="10"/>
<path d="M271.31 215.5L272.81 271.5C272.81 271.5 275.81 280.25 274.81 283C274.245 284.61 273.197 286.007 271.81 287C271.81 287 218.56 288 215.31 287.75C214.333 287.658 213.385 287.367 212.525 286.894C211.665 286.421 210.911 285.776 210.31 285L195.81 203.75L226.56 188.5C231.48 187.133 236.493 186.13 241.56 185.5C247.56 185 272.06 202.75 272.06 202.75L272.56 204.75" fill="white"/>
<path d="M271.31 215.5L272.81 271.5C272.81 271.5 275.81 280.25 274.81 283C274.245 284.61 273.197 286.007 271.81 287C271.81 287 218.56 288 215.31 287.75C214.333 287.658 213.385 287.367 212.525 286.894C211.665 286.421 210.911 285.776 210.31 285L195.81 203.75L226.56 188.5C231.48 187.133 236.493 186.13 241.56 185.5C247.56 185 272.06 202.75 272.06 202.75L272.56 204.75" stroke="#263238" stroke-miterlimit="10"/>
<path d="M239.31 204.75L246.56 211.5L241.31 265.5L248.81 280.75L257.56 264L249.56 212.25L255.31 202L246.31 195.75L239.31 204.75Z" fill="#263238" stroke="#263238" stroke-miterlimit="10"/>
<path d="M233.81 178.5L228.31 182L224.31 191.25L234.81 212.75L242.56 202L248.17 204.84L252.81 201.75L262.06 209.75C262.06 209.75 256.06 191.75 254.31 187C252.94 183.624 250.475 180.806 247.31 179C245.81 178 237.06 177.5 233.81 178.5Z" fill="white" stroke="#263238" stroke-miterlimit="10"/>
<path d="M251.85 138.35C251.85 138.35 257.24 142.28 258.96 144.98C260.68 147.68 260.43 150.86 261.42 151.85C262.41 152.84 268.04 154.3 268.04 156.51C268.04 158.72 263.87 162.4 263.87 162.4C263.87 162.4 264.61 173.93 263.62 175.64C262.63 177.35 252.83 177.85 252.83 177.85C252.83 177.85 251.83 191.35 251.83 195.27C251.83 199.19 248.15 204.84 248.15 204.84L240.81 198C240.81 198 233.69 187.7 232.71 184.75C231.73 181.8 233 171 233 171C233 171 221.47 159 223 148.68C224.53 138.36 240.66 137.68 241.15 136.68C241.64 135.68 238.7 133.99 242.15 132.76C245.6 131.53 253.56 135.41 251.85 138.35Z" fill="white" stroke="#263238" stroke-miterlimit="10"/>
<path d="M242 132.71C238.57 133.93 241.51 135.65 241 136.63C240.49 137.61 224.32 138.35 222.85 148.63C221.38 158.91 233 171 233 171C233 171 233 171.24 232.94 171.63L234.48 170.51C234.48 170.51 231.48 166.34 231.78 163.4C232.08 160.46 235.46 159.72 236.19 160.45C236.92 161.18 237.67 163.15 239.87 163.64C242.07 164.13 241.1 160.7 241.1 160.7L239.1 154.56C239.1 154.56 245.97 149.17 245.72 147.45C245.47 145.73 242 143.5 242 143.5L251.82 138.35C253.56 135.41 245.47 131.48 242 132.71Z" fill="#263238" stroke="#263238" stroke-miterlimit="10"/>
<path d="M259.53 150.84C260.47 153.84 259.61 156.84 257.6 157.48C255.59 158.12 253.21 156.14 252.26 153.1C251.31 150.06 252.18 147.1 254.19 146.46C256.2 145.82 258.58 147.8 259.53 150.84Z" stroke="#263238" stroke-miterlimit="10"/>
<path d="M259.41 145.72C260.98 146.15 262.5 147.82 263.21 150.11C263.379 150.979 263.446 151.865 263.41 152.75" stroke="#263238" stroke-miterlimit="10"/>
<path d="M252.26 153.1L236.14 160.43" stroke="#263238" stroke-miterlimit="10"/>
<path d="M259.53 150.84L262.97 149.35" stroke="#263238" stroke-miterlimit="10"/>
<path d="M262.31 165C262.31 165 258.97 167 256.14 163.16" stroke="#263238" stroke-miterlimit="10"/>
<path d="M252.83 177.85L244.31 177.5L252.31 184.25L252.83 177.85Z" fill="#263238" stroke="#263238" stroke-miterlimit="10"/>
<path d="M234.43 170.49L237.56 171.75L239.56 169.75" stroke="#263238" stroke-miterlimit="10"/>
<path d="M195.81 203.75L171.31 259.25L183.56 267.75L207.31 236.83" fill="white"/>
<path d="M195.81 203.75L171.31 259.25L183.56 267.75L207.31 236.83" stroke="#263238" stroke-miterlimit="10"/>
<path d="M185.31 249.75L206.56 280.5L197.06 287.25C197.06 287.25 170.31 264.25 170.06 262C169.81 259.75 174.56 252.25 174.56 252.25" fill="white"/>
<path d="M185.31 249.75L206.56 280.5L197.06 287.25C197.06 287.25 170.31 264.25 170.06 262C169.81 259.75 174.56 252.25 174.56 252.25" stroke="#263238" stroke-miterlimit="10"/>
<path d="M194.31 284.75L203.81 277.25" stroke="#263238" stroke-miterlimit="10"/>
<path d="M206.56 280.5C206.56 280.5 217.03 289.85 217.56 290.85C217.915 291.403 218.124 292.037 218.168 292.693C218.212 293.349 218.089 294.005 217.81 294.6C217.516 295.067 217.117 295.459 216.645 295.746C216.173 296.032 215.64 296.205 215.09 296.25C215.09 296.25 212.59 301 209.34 301.5C206.09 302 202.09 300.5 201.59 298.5L200.59 294.5L197.09 287.25L206.56 280.5Z" fill="white" stroke="#263238" stroke-miterlimit="10"/>
<path d="M200.56 294.5C200.56 294.5 203.81 298 205.56 298.75" stroke="#263238" stroke-miterlimit="10"/>
<path d="M454 471.2H485" stroke="#263238" stroke-miterlimit="10"/>
<path d="M21 471.2H445" stroke="#263238" stroke-miterlimit="10"/>
</svg>
