<svg width="500" height="500" viewBox="0 0 500 500" fill="none" xmlns="http://www.w3.org/2000/svg">
<path d="M378.07 87.43C328.57 59.14 284.73 82.43 262.8 107.23C240.87 132.03 224.53 157.08 197 161.68C169.47 166.28 127.7 154.61 96.58 176.53C65.46 198.45 65.58 256.67 90.22 289.68C114.86 322.69 178.61 338.47 252.16 349.08C278.551 353.077 305.483 351.583 331.27 344.69L364.68 332.56C381 325.11 394.68 316.72 406.26 309.91C423.88 299.51 430.09 274.16 433.46 255.59C438.352 227.762 437.928 199.26 432.21 171.59C424.83 136.73 408 104.52 378.07 87.43Z" fill="#1F8A70"/>
<path opacity="0.8" d="M378.07 87.43C328.57 59.14 284.73 82.43 262.8 107.23C240.87 132.03 224.53 157.08 197 161.68C169.47 166.28 127.7 154.61 96.58 176.53C65.46 198.45 65.58 256.67 90.22 289.68C114.86 322.69 178.61 338.47 252.16 349.08C278.551 353.077 305.483 351.583 331.27 344.69L364.68 332.56C381 325.11 394.68 316.72 406.26 309.91C423.88 299.51 430.09 274.16 433.46 255.59C438.352 227.762 437.928 199.26 432.21 171.59C424.83 136.73 408 104.52 378.07 87.43Z" fill="white"/>
<path opacity="0.8" d="M453.74 122.08C452.62 103.6 440 97.54 432 106.34C430.099 108.487 428.826 111.115 428.32 113.937C427.813 116.759 428.094 119.667 429.13 122.34C431.94 129.93 436.77 143.4 439.65 153.94C443.89 169.5 442.47 181.52 447.42 175.16C452.37 168.8 455.15 145.42 453.74 122.08Z" fill="#1F8A70"/>
<path opacity="0.8" d="M453.74 122.08C452.62 103.6 440 97.54 432 106.34C430.099 108.487 428.826 111.115 428.32 113.937C427.813 116.759 428.094 119.667 429.13 122.34C431.94 129.93 436.77 143.4 439.65 153.94C443.89 169.5 442.47 181.52 447.42 175.16C452.37 168.8 455.15 145.42 453.74 122.08Z" fill="white"/>
<path d="M240.18 119.25C247.95 117.84 257.85 99.45 270.58 91.67C283.31 83.89 272 78.23 260 83.89C260 83.89 250.8 86.01 243.73 100.16C236.66 114.31 232.4 120.66 240.18 119.25Z" fill="#1F8A70"/>
<path opacity="0.8" d="M240.18 119.25C247.95 117.84 257.85 99.45 270.58 91.67C283.31 83.89 272 78.23 260 83.89C260 83.89 250.8 86.01 243.73 100.16C236.66 114.31 232.4 120.66 240.18 119.25Z" fill="white"/>
<path d="M227.45 109.35C233.76 106.82 240.64 89.64 233.45 90.52C232.542 90.6517 231.682 91.0153 230.955 91.5759C230.229 92.1364 229.658 92.8749 229.3 93.72C227 98.83 221.77 111.62 227.45 109.35Z" fill="#1F8A70"/>
<path opacity="0.8" d="M227.45 109.35C233.76 106.82 240.64 89.64 233.45 90.52C232.542 90.6517 231.682 91.0153 230.955 91.5759C230.229 92.1364 229.658 92.8749 229.3 93.72C227 98.83 221.77 111.62 227.45 109.35Z" fill="white"/>
<path d="M265.98 429.19C377.718 429.19 468.3 425.823 468.3 421.67C468.3 417.517 377.718 414.15 265.98 414.15C154.242 414.15 63.66 417.517 63.66 421.67C63.66 425.823 154.242 429.19 265.98 429.19Z" fill="#1F8A70"/>
<path opacity="0.8" d="M265.98 429.19C377.718 429.19 468.3 425.823 468.3 421.67C468.3 417.517 377.718 414.15 265.98 414.15C154.242 414.15 63.66 417.517 63.66 421.67C63.66 425.823 154.242 429.19 265.98 429.19Z" fill="white"/>
<path d="M363.22 139C362.822 139 362.441 139.158 362.159 139.439C361.878 139.721 361.72 140.102 361.72 140.5V148.19H334.31V140.5C334.31 140.102 334.152 139.721 333.871 139.439C333.589 139.158 333.208 139 332.81 139C332.412 139 332.031 139.158 331.749 139.439C331.468 139.721 331.31 140.102 331.31 140.5V334.2C331.31 334.598 331.468 334.979 331.749 335.261C332.031 335.542 332.412 335.7 332.81 335.7C333.208 335.7 333.589 335.542 333.871 335.261C334.152 334.979 334.31 334.598 334.31 334.2V290.87H361.72V334.2C361.72 334.598 361.878 334.979 362.159 335.261C362.441 335.542 362.822 335.7 363.22 335.7C363.618 335.7 363.999 335.542 364.281 335.261C364.562 334.979 364.72 334.598 364.72 334.2V140.47C364.712 140.077 364.551 139.704 364.27 139.429C363.99 139.154 363.613 139 363.22 139ZM361.72 287.9H334.31V278.18H361.72V287.9ZM361.72 275.17H334.31V265.46H361.72V275.17ZM361.72 262.45H334.31V252.77H361.72V262.45ZM361.72 249.74H334.31V240.1H361.72V249.74ZM361.72 237.04H334.31V227.51H361.72V237.04ZM361.72 224.38H334.31V214.79H361.72V224.38ZM361.72 211.78H334.31V202.1H361.72V211.78ZM361.72 199.06H334.31V189.38H361.72V199.06ZM361.72 186.37H334.31V176.66H361.72V186.37ZM361.72 173.65H334.31V163.92H361.72V173.65ZM361.72 160.92H334.31V151.19H361.72V160.92Z" fill="white"/>
<path d="M103.58 295.16C103.58 295.16 126.03 264.43 115.08 257.16C103.69 249.65 98.34 272.4 95.93 283.57C90.79 307.41 92.24 312.47 95.69 307.23L103.58 295.16Z" fill="#1F8A70"/>
<path opacity="0.5" d="M103.58 295.16C103.58 295.16 126.03 264.43 115.08 257.16C103.69 249.65 98.34 272.4 95.93 283.57C90.79 307.41 92.24 312.47 95.69 307.23L103.58 295.16Z" fill="white"/>
<path d="M112 314.06C112 314.06 143.21 292.28 135.2 281.9C126.87 271.09 114.42 290.9 108.51 300.66C95.9 321.54 95.64 326.8 100.6 322.96L112 314.06Z" fill="#1F8A70"/>
<path opacity="0.5" d="M112 314.06C112 314.06 143.21 292.28 135.2 281.9C126.87 271.09 114.42 290.9 108.51 300.66C95.9 321.54 95.64 326.8 100.6 322.96L112 314.06Z" fill="white"/>
<path d="M112.68 339.32C112.68 339.32 139.68 327.19 135.07 318.09C130.27 308.62 117.88 321.94 111.95 328.56C99.28 342.7 98.32 346.68 102.67 344.47L112.68 339.32Z" fill="#1F8A70"/>
<path opacity="0.5" d="M112.68 339.32C112.68 339.32 139.68 327.19 135.07 318.09C130.27 308.62 117.88 321.94 111.95 328.56C99.28 342.7 98.32 346.68 102.67 344.47L112.68 339.32Z" fill="white"/>
<path d="M114.28 364.69C114.28 364.69 141.28 352.56 136.68 343.46C131.87 334 119.49 347.31 113.55 353.94C100.89 368.08 99.92 372.06 104.28 369.84L114.28 364.69Z" fill="#1F8A70"/>
<path opacity="0.5" d="M114.28 364.69C114.28 364.69 141.28 352.56 136.68 343.46C131.87 334 119.49 347.31 113.55 353.94C100.89 368.08 99.92 372.06 104.28 369.84L114.28 364.69Z" fill="white"/>
<path d="M82.61 308C82.61 308 52.93 284.17 45.22 294.77C37.22 305.77 59.68 312.2 70.73 315.12C94.31 321.35 99.43 320.12 94.35 316.44L82.61 308Z" fill="#1F8A70"/>
<path opacity="0.5" d="M82.61 308C82.61 308 52.93 284.17 45.22 294.77C37.22 305.77 59.68 312.2 70.73 315.12C94.31 321.35 99.43 320.12 94.35 316.44L82.61 308Z" fill="white"/>
<path d="M83.49 327.91C83.49 327.91 49.67 310.45 44.22 322.38C38.55 334.79 61.85 336.59 73.22 337.25C97.57 338.67 102.35 336.45 96.64 333.85L83.49 327.91Z" fill="#1F8A70"/>
<path opacity="0.5" d="M83.49 327.91C83.49 327.91 49.67 310.45 44.22 322.38C38.55 334.79 61.85 336.59 73.22 337.25C97.57 338.67 102.35 336.45 96.64 333.85L83.49 327.91Z" fill="white"/>
<path d="M87.58 350.23C87.58 350.23 58.58 336.23 54.25 346.46C49.74 357.09 69.48 358.07 79.15 358.36C99.77 359 103.76 357 98.87 355L87.58 350.23Z" fill="#1F8A70"/>
<path opacity="0.5" d="M87.58 350.23C87.58 350.23 58.58 336.23 54.25 346.46C49.74 357.09 69.48 358.07 79.15 358.36C99.77 359 103.76 357 98.87 355L87.58 350.23Z" fill="white"/>
<path d="M89 368.26C89 368.26 61.64 351.26 56.25 360.97C50.64 371.06 70.17 374.13 79.75 375.45C100.19 378.27 104.36 376.72 99.75 374.15L89 368.26Z" fill="#1F8A70"/>
<path opacity="0.5" d="M89 368.26C89 368.26 61.64 351.26 56.25 360.97C50.64 371.06 70.17 374.13 79.75 375.45C100.19 378.27 104.36 376.72 99.75 374.15L89 368.26Z" fill="white"/>
<path d="M86.41 277.81C86.41 277.81 81.27 233.18 64.41 237.74C46.9 242.5 61.56 265.08 69 276C84.81 299.24 90.63 301.8 89.38 294.54L86.41 277.81Z" fill="#1F8A70"/>
<path opacity="0.5" d="M86.41 277.81C86.41 277.81 81.27 233.18 64.41 237.74C46.9 242.5 61.56 265.08 69 276C84.81 299.24 90.63 301.8 89.38 294.54L86.41 277.81Z" fill="white"/>
<path d="M67.86 254C67.86 254 93.52 302.08 97.5 324.4C102.08 350.04 102.82 378.68 99.66 401.12" stroke="#1F8A70" stroke-width="1.25197" stroke-linecap="round" stroke-linejoin="round"/>
<path d="M93.45 309.55L106.02 271.05" stroke="#1F8A70" stroke-width="1.25197" stroke-linecap="round" stroke-linejoin="round"/>
<path d="M97.5 324.4L121.16 294.65" stroke="#1F8A70" stroke-width="1.25197" stroke-linecap="round" stroke-linejoin="round"/>
<path d="M95.99 318.99L61.73 304.6" stroke="#1F8A70" stroke-width="1.25197" stroke-linecap="round" stroke-linejoin="round"/>
<path d="M100.47 344.55L126.23 324.81" stroke="#1F8A70" stroke-width="1.25197" stroke-linecap="round" stroke-linejoin="round"/>
<path d="M99.1 336.08L72.19 330.48" stroke="#1F8A70" stroke-width="1.25197" stroke-linecap="round" stroke-linejoin="round"/>
<path d="M100.39 356.69L79.55 353.39" stroke="#1F8A70" stroke-width="1.25197" stroke-linecap="round" stroke-linejoin="round"/>
<path d="M102.15 370.03L116.17 357.47" stroke="#1F8A70" stroke-width="1.25197" stroke-linecap="round" stroke-linejoin="round"/>
<path d="M101.87 375.68L77.92 369.66" stroke="#1F8A70" stroke-width="1.25197" stroke-linecap="round" stroke-linejoin="round"/>
<path d="M84.13 383.01H112.44V388.87H109.97L104.86 420.84H91.71L86.6 388.87H84.13V383.01Z" fill="#1F8A70"/>
<path opacity="0.5" d="M84.13 383.01H112.44V388.87H109.97L104.86 420.84H91.71L86.6 388.87H84.13V383.01Z" fill="white"/>
<path d="M130.75 81.12C129.523 80.0233 128.024 79.2752 126.41 78.9534C124.795 78.6316 123.124 78.7478 121.57 79.29C116.07 81.12 110.8 89.07 112.13 95.8C113.06 100.46 117.38 107.33 118.69 109.95C120 112.57 118.16 117 114 126.2C109.84 135.4 108.23 144.03 120.29 151.63C132.35 159.23 146 147.17 153 138.52C160 129.87 147.75 109.95 146.7 101.52C145.65 93.09 143.85 76.93 130.75 81.12Z" fill="#263238"/>
<path d="M159.1 139.1C156.099 142.102 152.473 144.406 148.481 145.848C144.488 147.289 140.227 147.833 136 147.44L133.11 159.49L138.61 187L174.52 168.39L166.39 147.39L159.1 139.1Z" fill="#1F8A70" stroke="#263238" stroke-linecap="round" stroke-linejoin="round"/>
<path opacity="0.3" d="M159.1 139.1C156.099 142.102 152.473 144.406 148.481 145.848C144.488 147.289 140.227 147.833 136 147.44L133.11 159.49L138.61 187L174.52 168.39L166.39 147.39L159.1 139.1Z" fill="#263238"/>
<path d="M159.1 139.1L153.6 102.66L137.3 106L129.17 111.24C129.17 111.24 119.47 118.85 119.47 119.63C119.47 120.41 135.88 147.87 135.88 147.87C140.149 148.123 144.424 147.472 148.425 145.961C152.426 144.45 156.064 142.112 159.1 139.1Z" fill="white"/>
<path d="M159.1 139.1L153.6 102.66L137.3 106L129.17 111.24C129.17 111.24 119.47 118.85 119.47 119.63C119.47 120.41 135.88 147.87 135.88 147.87C140.149 148.123 144.424 147.472 148.425 145.961C152.426 144.45 156.064 142.112 159.1 139.1Z" stroke="#263238" stroke-linecap="round" stroke-linejoin="round"/>
<path opacity="0.5" d="M137.23 137.54C137.23 137.54 148.72 129.02 147.66 131.54C146.6 134.06 138.66 140.35 136.53 140.54C134.4 140.73 137.23 137.54 137.23 137.54Z" fill="#1F8A70"/>
<path d="M137.58 121.36L138.03 121.83L140.83 124.79L141.55 136.16L144.98 135.62L142.27 124.97L146.61 133.99L150.22 130.38L142.46 123.34L142.27 117.75L138.3 115.76" fill="#263238"/>
<path d="M131.27 107.86C131.27 107.86 127.86 109.43 127.86 112.57C127.86 115.71 131.55 123.18 133.86 124.75C136.17 126.32 140.13 119.13 140.13 119.13C140.13 119.13 146.13 122.01 147.73 119.39C149.33 116.77 144.06 108.12 140.66 105.76C137.26 103.4 131.27 107.86 131.27 107.86Z" fill="white" stroke="#263238" stroke-linecap="round" stroke-linejoin="round"/>
<path d="M128.39 104.71C129.328 107.106 130.116 109.557 130.75 112.05C131.27 114.67 138.35 119.13 139.13 119.39C139.91 119.65 140.44 111 140.44 111L138.35 100.78L128.39 104.71Z" fill="white"/>
<mask id="mask0_10_209" style="mask-type:luminance" maskUnits="userSpaceOnUse" x="128" y="100" width="13" height="20">
<path d="M128.39 104.71C129.328 107.106 130.116 109.557 130.75 112.05C131.27 114.67 138.35 119.13 139.13 119.39C139.91 119.65 140.44 111 140.44 111L138.35 100.78L128.39 104.71Z" fill="white"/>
</mask>
<g mask="url(#mask0_10_209)">
<g style="mix-blend-mode:multiply" opacity="0.5">
<path d="M138.57 101.87C138.13 101.747 137.682 101.653 137.23 101.59L130 104.14L129.05 106.62C129.53 107.96 130.14 109.76 130.51 111.22C131.695 112.176 133.127 112.775 134.64 112.95C136.81 113.1 138.72 111.42 140.07 109.36L138.57 101.87Z" fill="#1F8A70"/>
</g>
</g>
<path d="M128.39 104.71C129.328 107.106 130.116 109.557 130.75 112.05C131.27 114.67 138.35 119.13 139.13 119.39C139.91 119.65 140.44 111 140.44 111L138.35 100.78L128.39 104.71Z" stroke="#263238" stroke-linecap="round" stroke-linejoin="round"/>
<path d="M123.67 100.25C123.67 100.25 120.78 97.9 120.78 100.25C120.78 102.6 123.41 103.92 125.5 103.92" fill="white"/>
<path d="M123.67 100.25C123.67 100.25 120.78 97.9 120.78 100.25C120.78 102.6 123.41 103.92 125.5 103.92" stroke="#263238" stroke-linecap="round" stroke-linejoin="round"/>
<path d="M139.13 92.65C139.13 92.65 140.97 89.77 141.49 92.92C141.73 94.9707 141.167 97.0345 139.92 98.68L139.13 92.65Z" fill="white" stroke="#263238" stroke-linecap="round" stroke-linejoin="round"/>
<g opacity="0.5">
<path d="M123.67 100.25C123.67 100.25 120.78 97.9 120.78 100.25C120.78 102.6 123.41 103.92 125.5 103.92" fill="#1F8A70"/>
<path d="M123.67 100.25C123.67 100.25 120.78 97.9 120.78 100.25C120.78 102.6 123.41 103.92 125.5 103.92" stroke="#263238" stroke-linecap="round" stroke-linejoin="round"/>
</g>
<path opacity="0.5" d="M139.13 92.65C139.13 92.65 140.97 89.77 141.49 92.92C141.73 94.9707 141.167 97.0345 139.92 98.68L139.13 92.65Z" fill="#1F8A70" stroke="#263238" stroke-linecap="round" stroke-linejoin="round"/>
<path d="M120.42 92.67C120.42 92.67 122.67 102.04 127.5 106.67C132.33 111.3 137.5 111.34 139.29 103.09C140.76 96.29 137.11 87.22 137.11 87.22C137.11 87.22 125.33 77.52 120.42 92.67Z" fill="white"/>
<mask id="mask1_10_209" style="mask-type:luminance" maskUnits="userSpaceOnUse" x="120" y="84" width="20" height="26">
<path d="M120.42 92.67C120.42 92.67 122.67 102.04 127.5 106.67C132.33 111.3 137.5 111.34 139.29 103.09C140.76 96.29 137.11 87.22 137.11 87.22C137.11 87.22 125.33 77.52 120.42 92.67Z" fill="white"/>
</mask>
<g mask="url(#mask1_10_209)">
<g style="mix-blend-mode:multiply" opacity="0.5">
<path d="M128.81 84.1699L130.64 88.7699C130.64 88.7699 133.52 88.1299 135.14 91.6099C136.76 95.0899 138.39 100.19 137.46 104.14C136.57 107.9 134.46 109.14 131.21 109.23C134.75 110.74 137.96 109.23 139.29 103.07C140.76 96.2699 137.11 87.1999 137.11 87.1999C137.11 87.1999 133.12 83.9299 128.81 84.1699Z" fill="#1F8A70"/>
</g>
</g>
<path d="M120.42 92.67C120.42 92.67 122.67 102.04 127.5 106.67C132.33 111.3 137.5 111.34 139.29 103.09C140.76 96.29 137.11 87.22 137.11 87.22C137.11 87.22 125.33 77.52 120.42 92.67Z" stroke="#263238" stroke-linecap="round" stroke-linejoin="round"/>
<path d="M134.94 93C134.532 92.7255 134.044 92.5925 133.553 92.6214C133.062 92.6503 132.593 92.8395 132.22 93.16C130.78 94.28 133.5 99.89 133.5 99.89C133.5 99.89 133.55 101.66 131.28 100.84" stroke="#263238" stroke-width="0.5" stroke-linecap="round" stroke-linejoin="round"/>
<path d="M134.94 102.66C134.784 103.028 134.545 103.355 134.241 103.615C133.937 103.875 133.577 104.061 133.19 104.158C132.802 104.255 132.396 104.26 132.006 104.174C131.616 104.088 131.251 103.912 130.94 103.66" stroke="#263238" stroke-width="0.5" stroke-linecap="round" stroke-linejoin="round"/>
<path d="M128.85 94.49C128.85 94.49 126.29 92.08 125.17 96.73" stroke="#263238" stroke-width="0.5" stroke-linecap="round" stroke-linejoin="round"/>
<path d="M137.26 84.25C134.45 81.81 132.18 81.84 131.19 82.16C130.263 81.5817 129.209 81.2385 128.12 81.16C120.26 80.11 119.21 86.16 119.21 91.91C119.21 97.66 114.21 104.49 117.64 105.28C118.579 105.505 119.567 105.392 120.43 104.96C121.294 104.529 121.977 103.806 122.36 102.92C122.36 102.92 126.03 96.92 126.03 92.69C126.03 88.46 130.6 88.86 130.6 88.86C130.797 88.5687 131.055 88.3235 131.356 88.1413C131.657 87.9591 131.994 87.844 132.343 87.8042C132.693 87.7643 133.047 87.8004 133.381 87.9102C133.716 88.0199 134.022 88.2007 134.28 88.44C136.36 90.22 136.6 92.31 138.28 92.85C139.96 93.39 142.77 90.69 142.77 90.69C141.169 88.3522 139.322 86.1931 137.26 84.25Z" fill="#263238"/>
<path d="M130.82 85.82C130.82 85.82 127.66 83.28 124.82 86.13C121.98 88.98 122.29 94.37 121.34 97.86C120.39 101.35 117.85 101.98 117.85 101.98" stroke="white" stroke-width="0.5" stroke-linecap="round" stroke-linejoin="round"/>
<path d="M128.61 84.87C128.61 84.87 125.2 81.49 120.91 85.77C117.64 89.05 119.1 91.2 118.46 96.59" stroke="white" stroke-width="0.5" stroke-linecap="round" stroke-linejoin="round"/>
<path d="M132.41 84.23C132.41 84.23 138.41 81.38 140.97 88.67" stroke="white" stroke-width="0.5" stroke-linecap="round" stroke-linejoin="round"/>
<path d="M119.47 119.65L110.4 156.15L137 163.69L138.31 158.97L120.84 150.91L126.77 129.91C126.77 129.91 125.99 125.98 121.77 121.53" fill="white"/>
<mask id="mask2_10_209" style="mask-type:luminance" maskUnits="userSpaceOnUse" x="110" y="119" width="29" height="45">
<path d="M119.47 119.65L110.4 156.15L137 163.69L138.31 158.97L120.84 150.91L126.77 129.91C126.77 129.91 125.99 125.98 121.77 121.53" fill="white"/>
</mask>
<g mask="url(#mask2_10_209)">
<g style="mix-blend-mode:multiply" opacity="0.5">
<path d="M138.35 159L120.88 150.94L126.81 129.94C126.346 128.197 125.592 126.544 124.58 125.05L124.01 124.62V130.42C124.01 134.13 119.37 145.96 117.74 148.74C116.11 151.52 113.57 155 113.57 155L118.67 152.68L138 160.42L138.35 159Z" fill="#1F8A70"/>
</g>
</g>
<path d="M119.47 119.65L110.4 156.15L137 163.69L138.31 158.97L120.84 150.91L126.77 129.91C126.77 129.91 125.99 125.98 121.77 121.53" stroke="#263238" stroke-linecap="round" stroke-linejoin="round"/>
<path d="M194.26 130.61L174.12 126.38L153.55 102.61L156.59 121.73L169.21 133.75L194.57 134.91L194.26 130.61Z" fill="white"/>
<mask id="mask3_10_209" style="mask-type:luminance" maskUnits="userSpaceOnUse" x="153" y="102" width="42" height="33">
<path d="M194.26 130.61L174.12 126.38L153.55 102.61L156.59 121.73L169.21 133.75L194.57 134.91L194.26 130.61Z" fill="white"/>
</mask>
<g mask="url(#mask3_10_209)">
<g style="mix-blend-mode:multiply" opacity="0.5">
<path d="M153.55 102.61L156 117.87L157.56 122.64L157.76 122.82C158.35 122.21 161.68 118.75 162.53 118.75C163.38 118.75 172.97 127.1 171.58 127.75L170.18 128.44L194.07 132.38L194.24 130.55L174.14 126.33L153.55 102.61Z" fill="#1F8A70"/>
</g>
</g>
<path d="M194.26 130.61L174.12 126.38L153.55 102.61L156.59 121.73L169.21 133.75L194.57 134.91L194.26 130.61Z" stroke="#263238" stroke-linecap="round" stroke-linejoin="round"/>
<path d="M382.27 333L125.8 295.42C124.985 295.299 124.251 294.859 123.759 294.197C123.268 293.535 123.06 292.705 123.18 291.89L144.54 146.18C144.599 145.777 144.736 145.389 144.945 145.039C145.154 144.689 145.43 144.383 145.757 144.14C146.084 143.897 146.455 143.72 146.851 143.621C147.246 143.521 147.657 143.501 148.06 143.56L152.92 144.27C153.536 144.362 154.165 144.267 154.725 143.995C155.285 143.724 155.751 143.29 156.06 142.75L162.51 131.6C162.706 131.25 162.971 130.944 163.29 130.7C164.8 129.608 166.676 129.149 168.52 129.42L233.17 138.9C234.62 139.108 235.971 139.758 237.04 140.76C237.325 141.046 237.549 141.386 237.7 141.76L243.45 156C243.652 156.504 243.982 156.945 244.409 157.281C244.836 157.616 245.343 157.833 245.88 157.91L404.53 181.17C405.345 181.289 406.08 181.726 406.573 182.386C407.066 183.046 407.277 183.875 407.16 184.69L385.8 330.39C385.677 331.204 385.236 331.935 384.574 332.424C383.912 332.913 383.084 333.12 382.27 333Z" fill="#263238" stroke="#263238" stroke-miterlimit="10"/>
<path d="M385 332.29H130.79C130.052 332.29 129.321 332.145 128.639 331.862C127.957 331.58 127.338 331.166 126.816 330.644C126.294 330.122 125.88 329.502 125.598 328.821C125.315 328.139 125.17 327.408 125.17 326.67V184.43C125.17 182.939 125.762 181.51 126.816 180.456C127.87 179.402 129.299 178.81 130.79 178.81H131.48C132.605 178.808 133.704 178.47 134.636 177.839C135.568 177.208 136.29 176.314 136.71 175.27L140.58 165.54C141.013 164.417 141.803 163.468 142.83 162.84C143.933 162.189 145.189 161.844 146.47 161.84H211.81C212.688 161.839 213.559 161.998 214.38 162.31C215.52 162.77 216.472 163.601 217.08 164.67L223.73 176C224.226 176.846 224.934 177.548 225.785 178.036C226.636 178.523 227.599 178.78 228.58 178.78H385C386.491 178.78 387.92 179.372 388.974 180.426C390.028 181.48 390.62 182.909 390.62 184.4V326.67C390.62 327.408 390.475 328.139 390.192 328.821C389.91 329.502 389.496 330.122 388.974 330.644C388.452 331.166 387.833 331.58 387.151 331.862C386.469 332.145 385.738 332.29 385 332.29Z" fill="#1F8A70"/>
<mask id="mask4_10_209" style="mask-type:luminance" maskUnits="userSpaceOnUse" x="125" y="161" width="266" height="172">
<path d="M385 332.29H130.79C130.052 332.29 129.321 332.145 128.639 331.862C127.957 331.58 127.338 331.166 126.816 330.644C126.294 330.122 125.88 329.502 125.598 328.821C125.315 328.139 125.17 327.408 125.17 326.67V184.43C125.17 182.939 125.762 181.51 126.816 180.456C127.87 179.402 129.299 178.81 130.79 178.81H131.48C132.605 178.808 133.704 178.47 134.636 177.839C135.568 177.208 136.29 176.314 136.71 175.27L140.58 165.54C141.013 164.417 141.803 163.468 142.83 162.84C143.933 162.189 145.189 161.844 146.47 161.84H211.81C212.688 161.839 213.559 161.998 214.38 162.31C215.52 162.77 216.472 163.601 217.08 164.67L223.73 176C224.226 176.846 224.934 177.548 225.785 178.036C226.636 178.523 227.599 178.78 228.58 178.78H385C386.491 178.78 387.92 179.372 388.974 180.426C390.028 181.48 390.62 182.909 390.62 184.4V326.67C390.62 327.408 390.475 328.139 390.192 328.821C389.91 329.502 389.496 330.122 388.974 330.644C388.452 331.166 387.833 331.58 387.151 331.862C386.469 332.145 385.738 332.29 385 332.29Z" fill="white"/>
</mask>
<g mask="url(#mask4_10_209)">
<path opacity="0.1" d="M385 332.29H130.79C130.052 332.29 129.321 332.145 128.639 331.862C127.957 331.58 127.338 331.166 126.816 330.644C126.294 330.122 125.88 329.502 125.598 328.821C125.315 328.139 125.17 327.408 125.17 326.67V184.43C125.17 182.939 125.762 181.51 126.816 180.456C127.87 179.402 129.299 178.81 130.79 178.81H131.48C132.605 178.808 133.704 178.47 134.636 177.839C135.568 177.208 136.29 176.314 136.71 175.27L140.58 165.54C141.013 164.417 141.803 163.468 142.83 162.84C143.933 162.189 145.189 161.844 146.47 161.84H211.81C212.688 161.839 213.559 161.998 214.38 162.31C215.52 162.77 216.472 163.601 217.08 164.67L223.73 176C224.226 176.846 224.934 177.548 225.785 178.036C226.636 178.523 227.599 178.78 228.58 178.78H385C386.491 178.78 387.92 179.372 388.974 180.426C390.028 181.48 390.62 182.909 390.62 184.4V326.67C390.62 327.408 390.475 328.139 390.192 328.821C389.91 329.502 389.496 330.122 388.974 330.644C388.452 331.166 387.833 331.58 387.151 331.862C386.469 332.145 385.738 332.29 385 332.29Z" fill="#263238"/>
</g>
<path d="M385 332.29H130.79C130.052 332.29 129.321 332.145 128.639 331.862C127.957 331.58 127.338 331.166 126.816 330.644C126.294 330.122 125.88 329.502 125.598 328.821C125.315 328.139 125.17 327.408 125.17 326.67V184.43C125.17 182.939 125.762 181.51 126.816 180.456C127.87 179.402 129.299 178.81 130.79 178.81H131.48C132.605 178.808 133.704 178.47 134.636 177.839C135.568 177.208 136.29 176.314 136.71 175.27L140.58 165.54C141.013 164.417 141.803 163.468 142.83 162.84C143.933 162.189 145.189 161.844 146.47 161.84H211.81C212.688 161.839 213.559 161.998 214.38 162.31C215.52 162.77 216.472 163.601 217.08 164.67L223.73 176C224.226 176.846 224.934 177.548 225.785 178.036C226.636 178.523 227.599 178.78 228.58 178.78H385C386.491 178.78 387.92 179.372 388.974 180.426C390.028 181.48 390.62 182.909 390.62 184.4V326.67C390.62 327.408 390.475 328.139 390.192 328.821C389.91 329.502 389.496 330.122 388.974 330.644C388.452 331.166 387.833 331.58 387.151 331.862C386.469 332.145 385.738 332.29 385 332.29Z" stroke="#263238" stroke-miterlimit="10"/>
<path d="M197 178.33H156.32C155.349 178.33 154.418 177.944 153.732 177.258C153.046 176.572 152.66 175.641 152.66 174.67C152.659 174.189 152.752 173.712 152.936 173.266C153.119 172.821 153.388 172.416 153.728 172.076C154.068 171.735 154.472 171.464 154.917 171.28C155.362 171.095 155.839 171 156.32 171H197C197.973 171 198.907 171.387 199.595 172.075C200.283 172.763 200.67 173.697 200.67 174.67C200.67 175.151 200.575 175.628 200.39 176.073C200.206 176.518 199.935 176.922 199.594 177.262C199.254 177.602 198.849 177.871 198.404 178.054C197.958 178.238 197.481 178.331 197 178.33Z" fill="white"/>
<path d="M385 357.11H130.79C129.299 357.11 127.87 356.518 126.816 355.464C125.762 354.41 125.17 352.98 125.17 351.49V209.25C125.17 207.759 125.762 206.33 126.816 205.276C127.87 204.222 129.299 203.63 130.79 203.63H131.48C132.605 203.629 133.705 203.292 134.637 202.661C135.569 202.03 136.291 201.135 136.71 200.09L140.58 190.37C141.01 189.245 141.801 188.296 142.83 187.67C143.931 187.015 145.189 186.669 146.47 186.67H211.81C212.688 186.669 213.559 186.828 214.38 187.14C215.523 187.6 216.476 188.436 217.08 189.51L223.73 200.85C224.226 201.696 224.934 202.398 225.785 202.886C226.636 203.373 227.599 203.63 228.58 203.63H385C386.491 203.63 387.92 204.222 388.974 205.276C390.028 206.33 390.62 207.759 390.62 209.25V351.49C390.62 352.98 390.028 354.41 388.974 355.464C387.92 356.518 386.491 357.11 385 357.11Z" fill="#263238" stroke="#263238" stroke-miterlimit="10"/>
<path d="M216.49 149L176.13 144C175.166 143.878 174.29 143.379 173.692 142.613C173.094 141.846 172.824 140.875 172.94 139.91C173.062 138.945 173.563 138.068 174.332 137.471C175.1 136.875 176.075 136.608 177.04 136.73L217.39 141.73C218.355 141.85 219.233 142.348 219.831 143.115C220.429 143.882 220.699 144.855 220.58 145.82C220.521 146.298 220.368 146.759 220.13 147.177C219.892 147.595 219.574 147.963 219.194 148.258C218.815 148.554 218.38 148.771 217.916 148.898C217.452 149.026 216.967 149.06 216.49 149Z" fill="#1F8A70"/>
<path opacity="0.5" d="M216.49 149L176.13 144C175.166 143.878 174.29 143.379 173.692 142.613C173.094 141.846 172.824 140.875 172.94 139.91C173.062 138.945 173.563 138.068 174.332 137.471C175.1 136.875 176.075 136.608 177.04 136.73L217.39 141.73C218.355 141.85 219.233 142.348 219.831 143.115C220.429 143.882 220.699 144.855 220.58 145.82C220.521 146.298 220.368 146.759 220.13 147.177C219.892 147.595 219.574 147.963 219.194 148.258C218.815 148.554 218.38 148.771 217.916 148.898C217.452 149.026 216.967 149.06 216.49 149Z" fill="white"/>
<path d="M197 203.16H156.32C155.839 203.16 155.362 203.065 154.917 202.88C154.472 202.696 154.068 202.425 153.728 202.084C153.388 201.744 153.119 201.339 152.936 200.894C152.752 200.448 152.659 199.971 152.66 199.49C152.66 198.518 153.045 197.586 153.731 196.898C154.417 196.21 155.348 195.823 156.32 195.82H197C197.973 195.82 198.907 196.207 199.595 196.895C200.283 197.583 200.67 198.517 200.67 199.49C200.67 200.463 200.283 201.397 199.595 202.085C198.907 202.773 197.973 203.16 197 203.16Z" fill="#1F8A70"/>
<path opacity="0.5" d="M197 203.16H156.32C155.839 203.16 155.362 203.065 154.917 202.88C154.472 202.696 154.068 202.425 153.728 202.084C153.388 201.744 153.119 201.339 152.936 200.894C152.752 200.448 152.659 199.971 152.66 199.49C152.66 198.518 153.045 197.586 153.731 196.898C154.417 196.21 155.348 195.823 156.32 195.82H197C197.973 195.82 198.907 196.207 199.595 196.895C200.283 197.583 200.67 198.517 200.67 199.49C200.67 200.463 200.283 201.397 199.595 202.085C198.907 202.773 197.973 203.16 197 203.16Z" fill="white"/>
<path d="M393.31 246.41H122.47C119.559 246.41 117.2 248.769 117.2 251.68V415.57C117.2 418.481 119.559 420.84 122.47 420.84H393.31C396.221 420.84 398.58 418.481 398.58 415.57V251.68C398.58 248.769 396.221 246.41 393.31 246.41Z" fill="white"/>
<mask id="mask5_10_209" style="mask-type:luminance" maskUnits="userSpaceOnUse" x="117" y="246" width="282" height="175">
<path d="M393.31 246.41H122.47C119.559 246.41 117.2 248.769 117.2 251.68V415.57C117.2 418.481 119.559 420.84 122.47 420.84H393.31C396.221 420.84 398.58 418.481 398.58 415.57V251.68C398.58 248.769 396.221 246.41 393.31 246.41Z" fill="white"/>
</mask>
<g mask="url(#mask5_10_209)">
<g style="mix-blend-mode:multiply">
<path d="M398.58 293.36C367.39 322.511 331.952 346.754 293.48 365.26C236.63 392.45 171.65 411.19 133.79 420.84H393.3C393.993 420.841 394.679 420.706 395.32 420.442C395.96 420.177 396.542 419.79 397.033 419.3C397.523 418.811 397.912 418.229 398.178 417.589C398.443 416.949 398.58 416.263 398.58 415.57V293.36Z" fill="#1F8A70"/>
</g>
<path opacity="0.2" d="M398.58 293.36C367.39 322.511 331.952 346.754 293.48 365.26C236.63 392.45 171.65 411.19 133.79 420.84H393.3C393.993 420.841 394.679 420.706 395.32 420.442C395.96 420.177 396.542 419.79 397.033 419.3C397.523 418.811 397.912 418.229 398.178 417.589C398.443 416.949 398.58 416.263 398.58 415.57V293.36Z" fill="white"/>
</g>
<path d="M393.31 246.41H122.47C119.559 246.41 117.2 248.769 117.2 251.68V415.57C117.2 418.481 119.559 420.84 122.47 420.84H393.31C396.221 420.84 398.58 418.481 398.58 415.57V251.68C398.58 248.769 396.221 246.41 393.31 246.41Z" stroke="#263238" stroke-miterlimit="10"/>
<path d="M121.27 261.73V254.73C121.273 253.331 121.83 251.991 122.82 251.003C123.81 250.015 125.151 249.46 126.55 249.46H138" stroke="#263238" stroke-miterlimit="10"/>
<path d="M121.27 368.04V270.26" stroke="#263238" stroke-miterlimit="10"/>
<path d="M394.5 401.4V412.47C394.501 413.163 394.366 413.849 394.102 414.49C393.837 415.13 393.449 415.712 392.96 416.203C392.47 416.693 391.889 417.082 391.249 417.348C390.609 417.613 389.923 417.75 389.23 417.75H380" stroke="#263238" stroke-miterlimit="10"/>
<path d="M394.5 259.27V393.17" stroke="#263238" stroke-miterlimit="10"/>
<path d="M299.72 310.19H216.05C214.542 310.19 213.32 311.412 213.32 312.92V355.61C213.32 357.118 214.542 358.34 216.05 358.34H299.72C301.228 358.34 302.45 357.118 302.45 355.61V312.92C302.45 311.412 301.228 310.19 299.72 310.19Z" fill="#263238" stroke="#263238" stroke-miterlimit="10"/>
<path d="M299.72 310.19H216.05C214.542 310.19 213.32 311.412 213.32 312.92V322.1C213.32 323.608 214.542 324.83 216.05 324.83H299.72C301.228 324.83 302.45 323.608 302.45 322.1V312.92C302.45 311.412 301.228 310.19 299.72 310.19Z" fill="white" stroke="#263238" stroke-miterlimit="10"/>
<path d="M137 163.69L138.83 167.1L142.72 169.9C142.965 170.08 143.258 170.181 143.561 170.192C143.864 170.203 144.163 170.122 144.42 169.96L144.76 169.74C145.007 169.59 145.191 169.355 145.278 169.079C145.364 168.803 145.347 168.504 145.23 168.24L143.02 163.16L144.51 164.32C144.747 164.502 145.045 164.585 145.341 164.552C145.638 164.518 145.91 164.371 146.1 164.14C146.265 163.934 146.354 163.679 146.354 163.415C146.354 163.151 146.265 162.896 146.1 162.69L142.63 158.3L138.29 158.97L137 163.69Z" fill="white" stroke="#263238" stroke-miterlimit="10"/>
<path d="M144.8 169.74L141.32 165.17" stroke="#263238" stroke-width="0.5" stroke-linecap="round" stroke-linejoin="round"/>
<path d="M142.76 169.9L140.03 166.28" stroke="#263238" stroke-width="0.5" stroke-linecap="round" stroke-linejoin="round"/>
<path d="M194.26 130.61L199.7 130.93L206.32 135.16C206.32 135.16 206.69 136.45 205.77 136.63C204.85 136.81 199.88 134.98 199.88 134.98L194.57 134.91L194.26 130.61Z" fill="white" stroke="#263238" stroke-miterlimit="10"/>
<path d="M194.54 134.24L200.25 136.82C200.25 136.82 201.17 135.53 199.88 134.98L198 133.69" fill="white"/>
<path d="M194.54 134.24L200.25 136.82C200.25 136.82 201.17 135.53 199.88 134.98L198 133.69" stroke="#263238" stroke-linejoin="round"/>
<path d="M396.27 231.76L393.91 224.7L391.26 221.07C391.216 221.004 391.152 220.954 391.077 220.928C391.002 220.902 390.921 220.901 390.845 220.926C390.77 220.952 390.705 221.001 390.661 221.066C390.617 221.132 390.595 221.211 390.6 221.29V231.75L392.6 234.38L396.27 231.76Z" fill="white"/>
<path d="M434.73 262.63L414.93 263.33C414.199 263.356 413.477 263.173 412.846 262.803C412.216 262.432 411.704 261.89 411.37 261.24L396.27 231.76C396.27 231.76 392.87 233.6 392.61 234.38C392.35 235.16 403.79 263.85 407.3 272.66C407.595 273.4 408.112 274.029 408.78 274.463C409.448 274.896 410.234 275.112 411.03 275.08L433.16 274.14" fill="white"/>
<path d="M434.73 262.63L414.93 263.33C414.199 263.356 413.477 263.173 412.846 262.803C412.216 262.432 411.704 261.89 411.37 261.24L396.27 231.76C396.27 231.76 392.87 233.6 392.61 234.38C392.35 235.16 403.79 263.85 407.3 272.66C407.595 273.4 408.112 274.029 408.78 274.463C409.448 274.896 410.234 275.112 411.03 275.08L433.16 274.14" stroke="#263238" stroke-miterlimit="10"/>
<path d="M397.72 235.43L394.62 236.71" stroke="#263238" stroke-width="0.75" stroke-miterlimit="10"/>
<g opacity="0.5">
<path d="M434.73 262.63L414.93 263.33C414.199 263.356 413.477 263.173 412.846 262.803C412.216 262.432 411.704 261.89 411.37 261.24L396.27 231.76C396.27 231.76 392.87 233.6 392.61 234.38C392.35 235.16 403.79 263.85 407.3 272.66C407.595 273.4 408.112 274.029 408.78 274.463C409.448 274.896 410.234 275.112 411.03 275.08L433.16 274.14" fill="#1F8A70"/>
<path d="M434.73 262.63L414.93 263.33C414.199 263.356 413.477 263.173 412.846 262.803C412.216 262.432 411.704 261.89 411.37 261.24L396.27 231.76C396.27 231.76 392.87 233.6 392.61 234.38C392.35 235.16 403.79 263.85 407.3 272.66C407.595 273.4 408.112 274.029 408.78 274.463C409.448 274.896 410.234 275.112 411.03 275.08L433.16 274.14" stroke="#263238" stroke-miterlimit="10"/>
<path d="M397.72 235.43L394.62 236.71" stroke="#263238" stroke-width="0.75" stroke-miterlimit="10"/>
</g>
<path d="M396.27 231.76L393.91 224.7L391.26 221.07C391.216 221.004 391.152 220.954 391.077 220.928C391.002 220.902 390.921 220.901 390.845 220.926C390.77 220.952 390.705 221.001 390.661 221.066C390.617 221.132 390.595 221.211 390.6 221.29V231.75L392.6 234.38L396.27 231.76Z" fill="#1F8A70"/>
<mask id="mask6_10_209" style="mask-type:luminance" maskUnits="userSpaceOnUse" x="390" y="220" width="7" height="15">
<path d="M396.27 231.76L393.91 224.7L391.26 221.07C391.216 221.004 391.152 220.954 391.077 220.928C391.002 220.902 390.921 220.901 390.845 220.926C390.77 220.952 390.705 221.001 390.661 221.066C390.617 221.132 390.595 221.211 390.6 221.29V231.75L392.6 234.38L396.27 231.76Z" fill="white"/>
</mask>
<g mask="url(#mask6_10_209)">
<path opacity="0.5" d="M396.27 231.76L393.91 224.7L391.26 221.07C391.216 221.004 391.152 220.954 391.077 220.928C391.002 220.902 390.921 220.901 390.845 220.926C390.77 220.952 390.705 221.001 390.661 221.066C390.617 221.132 390.595 221.211 390.6 221.29V231.75L392.6 234.38L396.27 231.76Z" fill="white"/>
</g>
<path d="M396.27 231.76L393.91 224.7L391.26 221.07C391.216 221.004 391.152 220.954 391.077 220.928C391.002 220.902 390.921 220.901 390.845 220.926C390.77 220.952 390.705 221.001 390.661 221.066C390.617 221.132 390.595 221.211 390.6 221.29V231.75L392.6 234.38L396.27 231.76Z" stroke="#263238" stroke-miterlimit="10"/>
<path d="M440.86 244C439.909 245.205 439.227 246.6 438.86 248.09C438.57 250.01 439.03 257.4 439.03 257.4L428.73 258.56C428.73 258.56 429.51 251.05 429.55 249.8C429.88 248.25 430.536 246.788 431.476 245.512C432.416 244.236 433.617 243.175 435 242.4C438.54 240.66 441.55 241.51 440.86 244Z" fill="white"/>
<mask id="mask7_10_209" style="mask-type:luminance" maskUnits="userSpaceOnUse" x="428" y="241" width="13" height="18">
<path d="M440.86 244C439.909 245.205 439.227 246.6 438.86 248.09C438.57 250.01 439.03 257.4 439.03 257.4L428.73 258.56C428.73 258.56 429.51 251.05 429.55 249.8C429.88 248.25 430.536 246.788 431.476 245.512C432.416 244.236 433.617 243.175 435 242.4C438.54 240.66 441.55 241.51 440.86 244Z" fill="white"/>
</mask>
<g mask="url(#mask7_10_209)">
<g style="mix-blend-mode:multiply" opacity="0.5">
<path d="M440.79 244.08C438.92 243.57 436.65 243 434.73 242.54C433.41 243.326 432.266 244.375 431.37 245.622C430.474 246.87 429.844 248.288 429.52 249.79C429.52 250.27 429.38 251.67 429.24 253.21C430.24 252.98 431.83 252.63 433.01 252.42C433.945 252.269 434.865 252.038 435.76 251.73L435.41 257.73H435.64L439 257.35C439 257.35 438.54 249.96 438.83 248.04C439.195 246.596 439.863 245.246 440.79 244.08Z" fill="#1F8A70"/>
</g>
</g>
<path d="M440.86 244C439.909 245.205 439.227 246.6 438.86 248.09C438.57 250.01 439.03 257.4 439.03 257.4L428.73 258.56C428.73 258.56 429.51 251.05 429.55 249.8C429.88 248.25 430.536 246.788 431.476 245.512C432.416 244.236 433.617 243.175 435 242.4C438.54 240.66 441.55 241.51 440.86 244Z" stroke="#263238" stroke-width="1.00396" stroke-miterlimit="10"/>
<path d="M443 245.27C451.54 233.99 430.95 222.27 425.54 233.48C424.786 234.862 424.189 236.325 423.76 237.84C422.94 238.34 420.76 239.68 420.36 240.05C419.96 240.42 421.36 241.37 422.13 241.84C420.66 245.45 420.88 249.25 421.3 250.11C422.03 251.59 425.63 251.61 428 251.17C430.37 250.73 431.31 248.46 432 247.84C432.69 247.22 436.13 248.01 437.34 248.37C438.55 248.73 441.34 247.5 443 245.27Z" fill="white"/>
<mask id="mask8_10_209" style="mask-type:luminance" maskUnits="userSpaceOnUse" x="420" y="228" width="26" height="24">
<path d="M443 245.27C451.54 233.99 430.95 222.27 425.54 233.48C424.786 234.862 424.189 236.325 423.76 237.84C422.94 238.34 420.76 239.68 420.36 240.05C419.96 240.42 421.36 241.37 422.13 241.84C420.66 245.45 420.88 249.25 421.3 250.11C422.03 251.59 425.63 251.61 428 251.17C430.37 250.73 431.31 248.46 432 247.84C432.69 247.22 436.13 248.01 437.34 248.37C438.55 248.73 441.34 247.5 443 245.27Z" fill="white"/>
</mask>
<g mask="url(#mask8_10_209)">
<g style="mix-blend-mode:multiply" opacity="0.5">
<path d="M434.55 244.19C434.55 244.19 434.73 245.04 433.01 245.73C431.29 246.42 430.95 245.9 430.44 247.1C430.223 247.889 429.785 248.599 429.177 249.147C428.569 249.695 427.817 250.057 427.01 250.19C425.381 250.499 423.735 250.71 422.08 250.82C423.44 251.58 426.14 251.52 428.08 251.17C430.44 250.74 431.39 248.46 432.08 247.84C432.77 247.22 436.21 248.01 437.42 248.37C437.704 248.427 437.996 248.427 438.28 248.37C438.731 247.365 439.002 246.289 439.08 245.19L434.55 244.19Z" fill="#1F8A70"/>
</g>
</g>
<path d="M443 245.27C451.54 233.99 430.95 222.27 425.54 233.48C424.786 234.862 424.189 236.325 423.76 237.84C422.94 238.34 420.76 239.68 420.36 240.05C419.96 240.42 421.36 241.37 422.13 241.84C420.66 245.45 420.88 249.25 421.3 250.11C422.03 251.59 425.63 251.61 428 251.17C430.37 250.73 431.31 248.46 432 247.84C432.69 247.22 436.13 248.01 437.34 248.37C438.55 248.73 441.34 247.5 443 245.27Z" stroke="#263238" stroke-miterlimit="10"/>
<path d="M426.12 235.75C426.12 235.75 427.12 234.92 427.32 236.83" stroke="#263238" stroke-width="0.5" stroke-linecap="round" stroke-linejoin="round"/>
<path d="M421.93 243.78C421.93 243.78 421.93 244.78 423.73 244.78" stroke="#263238" stroke-width="0.5" stroke-linecap="round" stroke-linejoin="round"/>
<path d="M419.49 309.22L418.7 319C418.7 319 413.23 357.94 413.49 362.41C413.75 366.88 414.34 413.06 414.34 413.06L420.93 414.11L428.33 362.89L438.72 310.84L419.49 309.22Z" fill="#1F8A70" stroke="#263238" stroke-miterlimit="10"/>
<path opacity="0.2" d="M419.49 309.22L418.7 319C418.7 319 413.23 357.94 413.49 362.41C413.75 366.88 414.34 413.06 414.34 413.06L420.93 414.11L428.33 362.89L438.72 310.84L419.49 309.22Z" fill="#263238"/>
<path d="M427.83 344.79C427.83 344.79 425.3 359.68 423.39 366.98C421.48 374.28 421.49 381.56 421.49 389.48C421.49 397.4 418.64 412 418.64 412" stroke="#263238" stroke-width="0.75" stroke-miterlimit="10"/>
<path d="M432.86 306.82C437.2 304.54 441.86 303.03 443.19 306.06C445.83 312.12 442.67 321.33 442.67 321.33L445.08 363.81L449.49 415.06L442.9 414C442.9 414 432.78 370.75 431.2 368.11C429.62 365.47 427.13 328.44 427.13 328.44L422.13 323.89" fill="#1F8A70"/>
<path d="M432.86 306.82C437.2 304.54 441.86 303.03 443.19 306.06C445.83 312.12 442.67 321.33 442.67 321.33L445.08 363.81L449.49 415.06L442.9 414C442.9 414 432.78 370.75 431.2 368.11C429.62 365.47 427.13 328.44 427.13 328.44L422.13 323.89" stroke="#263238" stroke-miterlimit="10"/>
<g opacity="0.2">
<path d="M432.86 306.82C437.2 304.54 441.86 303.03 443.19 306.06C445.83 312.12 442.67 321.33 442.67 321.33L445.08 363.81L449.49 415.06L442.9 414C442.9 414 432.78 370.75 431.2 368.11C429.62 365.47 427.13 328.44 427.13 328.44L422.13 323.89" fill="#263238"/>
</g>
<path d="M438 339C438.15 348.85 439.15 353.59 439.93 356.19C440.88 359.36 440.56 365.38 440.56 368.19C440.56 371 439.29 367.56 442.15 380.56C445.01 393.56 446.9 411.62 446.9 411.62" stroke="#263238" stroke-width="0.75" stroke-miterlimit="10"/>
<path d="M438 317.53C438 317.53 438.31 316.89 438 331.79C438 332.59 438 333.36 438 334.11" stroke="#263238" stroke-width="0.75" stroke-miterlimit="10"/>
<path d="M423.37 314.7L423.16 319.16L422.13 322.26L423.67 324.06" stroke="#263238" stroke-width="0.75" stroke-linecap="round" stroke-linejoin="round"/>
<path d="M421.35 317.36C421.35 317.36 423.93 319.94 430.63 319.16" stroke="#263238" stroke-width="0.75" stroke-linecap="round" stroke-linejoin="round"/>
<path d="M437.18 315.13C442.18 314.13 442.5 312.75 444.23 311.59C444.262 309.699 443.923 307.82 443.23 306.06C441.92 303.06 437.23 304.54 432.9 306.82L430.8 310.14L419.53 309.22L419.17 313.64C424.956 315.625 431.146 316.137 437.18 315.13Z" fill="#263238"/>
<path d="M420.62 312.28L420.51 314.04L423.37 314.7L423.59 312.39L420.62 312.28Z" fill="white" stroke="#263238" stroke-width="0.75" stroke-miterlimit="10"/>
<path d="M440.58 314.89L440.1 310.51L441.55 310.03L442.28 313.92" fill="#1F8A70"/>
<path d="M440.58 314.89L440.1 310.51L441.55 310.03L442.28 313.92" stroke="#263238" stroke-miterlimit="10"/>
<path d="M429.4 316.35L428.43 311.24H430.86L431.83 315.62" fill="#1F8A70"/>
<path d="M429.4 316.35L428.43 311.24H430.86L431.83 315.62" stroke="#263238" stroke-miterlimit="10"/>
<g opacity="0.2">
<path d="M440.58 314.89L440.1 310.51L441.55 310.03L442.28 313.92" fill="#263238"/>
<path d="M429.4 316.35L428.43 311.24H430.86L431.83 315.62" fill="#263238"/>
</g>
<path d="M418.2 270.46C418.2 270.46 417.37 276.01 414.88 285.46C412.39 294.91 409.88 306.24 409.88 306.24L411.27 312.06L415.42 305.96L418.2 270.46Z" fill="#263238" stroke="#263238" stroke-miterlimit="10"/>
<path d="M425.13 262.43C425.13 262.43 419.31 263.81 418.76 266.58C418.463 267.855 418.276 269.153 418.2 270.46L427.07 263.26L438.16 258.82L425.13 262.43Z" fill="#263238" stroke="#263238" stroke-miterlimit="10"/>
<path d="M426.72 260.29C426.72 260.29 421.99 265.64 420.11 267.84C418.23 270.04 418.22 293.65 418.22 297.12C418.22 300.59 416.34 310.01 419.48 311.9C422.62 313.79 441.83 313.16 443.72 310.01C445.61 306.86 446.86 269.1 446.55 265.64C446.314 264.088 445.703 262.617 444.769 261.355C443.835 260.093 442.606 259.078 441.19 258.4C439 257.39 426.72 260.29 426.72 260.29Z" fill="white"/>
<mask id="mask9_10_209" style="mask-type:luminance" maskUnits="userSpaceOnUse" x="417" y="258" width="30" height="55">
<path d="M426.72 260.29C426.72 260.29 421.99 265.64 420.11 267.84C418.23 270.04 418.22 293.65 418.22 297.12C418.22 300.59 416.34 310.01 419.48 311.9C422.62 313.79 441.83 313.16 443.72 310.01C445.61 306.86 446.86 269.1 446.55 265.64C446.314 264.088 445.703 262.617 444.769 261.355C443.835 260.093 442.606 259.078 441.19 258.4C439 257.39 426.72 260.29 426.72 260.29Z" fill="white"/>
</mask>
<g mask="url(#mask9_10_209)">
<g style="mix-blend-mode:multiply" opacity="0.5">
<path d="M441.19 258.4C440.929 258.294 440.651 258.234 440.37 258.22L439.01 258.93C441.299 260.806 442.874 263.411 443.47 266.31C444.102 270.521 444.045 274.807 443.3 279C442.62 283.63 431.64 279 433.7 280.72C435.76 282.44 443.47 285.35 443.82 286.89C444.17 288.43 440 291 438.5 291.18C437 291.36 439.5 294.78 441.07 297.69C442.64 300.6 442.07 304.69 438.5 307.47C434.93 310.25 426.64 311.62 423.06 311.76C421.9 311.76 421.18 312.06 420.96 312.4C426.46 313.63 442.03 312.83 443.72 310.01C445.61 306.86 446.86 269.1 446.55 265.64C446.314 264.088 445.703 262.617 444.769 261.355C443.835 260.093 442.606 259.078 441.19 258.4Z" fill="#1F8A70"/>
</g>
</g>
<path d="M426.72 260.29C426.72 260.29 421.99 265.64 420.11 267.84C418.23 270.04 418.22 293.65 418.22 297.12C418.22 300.59 416.34 310.01 419.48 311.9C422.62 313.79 441.83 313.16 443.72 310.01C445.61 306.86 446.86 269.1 446.55 265.64C446.314 264.088 445.703 262.617 444.769 261.355C443.835 260.093 442.606 259.078 441.19 258.4C439 257.39 426.72 260.29 426.72 260.29Z" stroke="#263238" stroke-miterlimit="10"/>
<path d="M436.39 284.24C431.32 282.66 426.88 278.24 426.88 278.24C428.005 283.492 431.06 288.131 435.44 291.24" fill="white"/>
<path d="M436.39 284.24C431.32 282.66 426.88 278.24 426.88 278.24C428.005 283.492 431.06 288.131 435.44 291.24" stroke="#263238" stroke-width="0.75" stroke-linecap="round" stroke-linejoin="round"/>
<path d="M440.25 254.94L425.14 258.4L424.2 262.81L441.19 258.4L440.25 254.94Z" fill="white" stroke="#263238" stroke-miterlimit="10"/>
<path d="M421.81 420.71L420.93 414.07L414.34 413.02L408.85 416.93L403.93 419.63V420.71H421.81Z" fill="#263238" stroke="#263238" stroke-miterlimit="10"/>
<path d="M450.31 421.23L449.49 415.06L442.9 414L437.41 417.91L432.49 420.62V421.23H450.31Z" fill="#263238" stroke="#263238" stroke-miterlimit="10"/>
<path d="M393.39 226L389.33 223.65C389.33 223.65 387.75 223.46 388.43 225.22L392.49 228.35" fill="white"/>
<path d="M393.39 226L389.33 223.65C389.33 223.65 387.75 223.46 388.43 225.22L392.49 228.35" stroke="#263238" stroke-linecap="round" stroke-linejoin="round"/>
<path d="M392.79 232.11C392.599 231.628 392.317 231.186 391.96 230.81L391.2 229.99L387.07 224.87C387.07 224.87 385.79 224.01 386.07 225.87L388.63 230.87L384.08 226.6C384.08 226.6 383.22 225.89 383.22 226.89C383.22 227.89 387.35 232.3 387.35 232.3L382.79 230.16C382.79 230.16 381.79 230.87 382.51 231.58C383.23 232.29 387.06 233.72 387.06 233.72L383.65 233.58C383.65 233.58 382.65 234.43 383.36 234.72C384.07 235.01 388.06 235.85 388.06 235.85C388.567 236.281 389.146 236.619 389.77 236.85L390.77 238.7L394.6 236.77L392.79 232.11Z" fill="white" stroke="#263238" stroke-linecap="round" stroke-linejoin="round"/>
<path d="M433.68 276.5L410.86 281.85C409.692 282.056 408.488 281.85 407.455 281.269C406.421 280.687 405.621 279.765 405.19 278.66L390.79 238.66L394.62 236.73L410.53 266.2C410.891 266.874 411.459 267.414 412.151 267.74C412.842 268.066 413.62 268.161 414.37 268.01L431.82 263.08" fill="white"/>
<path d="M433.68 276.5L410.86 281.85C409.692 282.056 408.488 281.85 407.455 281.269C406.421 280.687 405.621 279.765 405.19 278.66L390.79 238.66L394.62 236.73L410.53 266.2C410.891 266.874 411.459 267.414 412.151 267.74C412.842 268.066 413.62 268.161 414.37 268.01L431.82 263.08" stroke="#263238" stroke-miterlimit="10"/>
<path d="M396.77 240.5L392.33 242.72" stroke="#263238" stroke-width="0.75" stroke-miterlimit="10"/>
<path d="M430.84 233.6C430.84 233.6 428.41 236.03 429.62 237.85C430.337 238.901 430.884 240.059 431.24 241.28C431.24 241.28 430.24 243.71 431.04 243.71C431.84 243.71 431.44 241.89 432.86 242.3C434.28 242.71 435.69 245.13 434.48 245.94C433.575 246.446 432.615 246.849 431.62 247.14C431.493 247.179 431.38 247.254 431.296 247.356C431.211 247.458 431.158 247.582 431.143 247.714C431.128 247.846 431.152 247.979 431.212 248.097C431.272 248.216 431.365 248.314 431.48 248.38C432.796 249.269 434.311 249.818 435.89 249.98C437.182 250.008 438.472 249.873 439.73 249.58C439.73 249.58 443.73 244.12 446.61 242.7C449.49 241.28 448.23 234.81 448.23 234C448.23 233.19 445.4 231.37 445.4 231.37C445.4 231.37 446.21 229.55 442.57 225.51C438.93 221.47 432.05 220.65 431.85 222.07C431.78 222.446 431.819 222.834 431.962 223.189C432.106 223.543 432.348 223.849 432.66 224.07C432.66 224.07 426.59 221.44 423.76 224.27C420.93 227.1 430.84 233.6 430.84 233.6Z" fill="#263238" stroke="#263238" stroke-miterlimit="10"/>
<path d="M430.84 233.6C430.84 233.6 435.76 239.6 443.05 240.18" stroke="white" stroke-width="0.5" stroke-linecap="round" stroke-linejoin="round"/>
<path d="M429.1 235.43C429.1 235.43 431.39 242.09 440.86 243.99" stroke="white" stroke-width="0.5" stroke-linecap="round" stroke-linejoin="round"/>
</svg>
