<svg width="500" height="500" viewBox="0 0 500 500" fill="none" xmlns="http://www.w3.org/2000/svg">
<path d="M364 20.75L362.64 21.7C357.008 25.5635 352.54 30.8939 349.72 37.1142C346.899 43.3346 345.834 50.2079 346.64 56.99C346.867 58.7573 347.225 60.5054 347.71 62.22C349.56 68.4243 352.914 74.0753 357.474 78.6706C362.035 83.2659 367.66 86.6631 373.85 88.56C381.16 90.75 389.43 90.95 395.43 95.62C403.23 101.7 404.2 112.82 404.54 122.62C404.88 132.42 405.88 143.62 413.71 149.62C418.62 153.4 425.3 154.27 431.48 153.53C447.86 151.53 461.8 139.14 468.14 124.1C474.48 109.06 474.01 91.86 469.74 76.1C463.74 54.1 450 33.65 430.06 22.1C410.12 10.55 383.89 9.18003 364 20.75Z" fill="#F5F5F5"/>
<path d="M292.75 67.44C305.331 67.44 315.53 57.2411 315.53 44.66C315.53 32.079 305.331 21.88 292.75 21.88C280.169 21.88 269.97 32.079 269.97 44.66C269.97 57.2411 280.169 67.44 292.75 67.44Z" fill="#F5F5F5"/>
<path d="M81.7786 360.783C95.6578 346.904 95.6578 324.401 81.7786 310.522C67.8993 296.643 45.3966 296.643 31.5174 310.522C17.6382 324.401 17.6382 346.904 31.5174 360.783C45.3966 374.663 67.8993 374.663 81.7786 360.783Z" fill="#F5F5F5"/>
<path d="M470.66 471.34C470.66 471.49 370.51 471.6 247.01 471.6C123.51 471.6 23.34 471.49 23.34 471.34C23.34 471.19 123.46 471.08 247.01 471.08C370.56 471.08 470.66 471.2 470.66 471.34Z" fill="#263238"/>
<path d="M69.4 179.21L38.73 194.6C37.6174 195.085 36.6711 195.885 36.0082 196.901C35.3453 197.918 34.9948 199.106 35 200.32V214.67C34.9648 227.723 38.7655 240.499 45.93 251.41C51.46 259.83 58.79 270.59 70.98 276.74H76.48C90.06 272.6 100.19 261.57 106.38 252.13C113.547 241.22 117.352 228.444 117.32 215.39V200.32C117.318 199.101 116.959 197.91 116.288 196.893C115.616 195.877 114.66 195.079 113.54 194.6L78.55 179.71C77 179.05 71 178.55 69.4 179.21Z" fill="#088395"/>
<path opacity="0.3" d="M69.4 179.21L38.73 194.6C37.6174 195.085 36.6711 195.885 36.0082 196.901C35.3453 197.918 34.9948 199.106 35 200.32V214.67C34.9648 227.723 38.7655 240.499 45.93 251.41C51.46 259.83 58.79 270.59 70.98 276.74H76.48C90.06 272.6 100.19 261.57 106.38 252.13C113.547 241.22 117.352 228.444 117.32 215.39V200.32C117.318 199.101 116.959 197.91 116.288 196.893C115.616 195.877 114.66 195.079 113.54 194.6L78.55 179.71C77 179.05 71 178.55 69.4 179.21Z" fill="black"/>
<path d="M68.17 179.71L33.22 194.6C32.0996 195.079 31.1443 195.877 30.4724 196.893C29.8005 197.91 29.4416 199.101 29.44 200.32V214.67C29.4408 227.96 33.3832 240.951 40.7686 251.999C48.1539 263.048 58.6504 271.658 70.93 276.74C84.5 272.6 94.63 261.57 100.83 252.13C107.997 241.22 111.802 228.444 111.77 215.39V200.32C111.769 199.103 111.412 197.912 110.742 196.895C110.072 195.879 109.119 195.081 108 194.6L73 179.71C72.2353 179.389 71.4143 179.224 70.585 179.224C69.7557 179.224 68.9347 179.389 68.17 179.71Z" fill="#088395"/>
<path opacity="0.3" d="M78.8983 244.797C90.6948 240.222 96.5486 226.949 91.973 215.153C87.3974 203.356 74.1252 197.503 62.3286 202.078C50.5321 206.654 44.6783 219.926 49.2539 231.723C53.8295 243.519 67.1017 249.373 78.8983 244.797Z" fill="black"/>
<path d="M70.6 224.71C75.8522 224.71 80.11 220.452 80.11 215.2C80.11 209.948 75.8522 205.69 70.6 205.69C65.3478 205.69 61.09 209.948 61.09 215.2C61.09 220.452 65.3478 224.71 70.6 224.71Z" fill="white"/>
<path d="M53.24 238.37C54.7694 235.17 57.1832 232.475 60.1958 230.604C63.2084 228.733 66.6938 227.763 70.24 227.81C73.8763 227.811 77.4452 228.792 80.5707 230.65C83.6962 232.509 86.2628 235.175 88 238.37C88 238.37 82.39 246.67 70 246.37C66.789 246.357 63.6206 245.633 60.7228 244.25C57.8249 242.866 55.2694 240.858 53.24 238.37Z" fill="white"/>
<path d="M93.51 223.44C93.4986 223.317 93.4986 223.193 93.51 223.07C93.51 222.8 93.51 222.44 93.42 221.99C93.42 221.75 93.42 221.48 93.42 221.19C93.42 220.9 93.32 220.58 93.27 220.19C93.1657 219.396 93.0053 218.611 92.79 217.84C92.2463 215.704 91.3869 213.662 90.24 211.78C88.7358 209.283 86.767 207.097 84.44 205.34C81.6289 203.202 78.3538 201.757 74.88 201.12C70.8918 200.386 66.7799 200.731 62.97 202.12C61.939 202.478 60.9362 202.913 59.97 203.42C59.0039 203.949 58.0751 204.544 57.19 205.2C56.2898 205.877 55.4315 206.609 54.62 207.39C53.8245 208.215 53.083 209.09 52.4 210.01C51.0001 211.906 49.9098 214.012 49.17 216.25C47.6098 220.889 47.6098 225.911 49.17 230.55C49.9054 232.79 50.996 234.897 52.4 236.79C53.0829 237.713 53.8245 238.592 54.62 239.42C55.4291 240.201 56.2875 240.929 57.19 241.6C58.9262 242.924 60.8598 243.967 62.92 244.69C66.7299 246.079 70.8418 246.424 74.83 245.69C77.9974 245.094 81.003 243.835 83.65 241.996C86.297 240.157 88.5257 237.78 90.19 235.02C91.3241 233.151 92.1702 231.121 92.7 229C92.9145 228.225 93.0749 227.437 93.18 226.64C93.18 226.3 93.3 225.98 93.33 225.64C93.36 225.3 93.33 225.08 93.33 224.84L93.42 223.75C93.4098 223.627 93.4098 223.503 93.42 223.38C93.4308 223.503 93.4308 223.627 93.42 223.75C93.42 224.03 93.42 224.39 93.42 224.85C93.42 225.09 93.42 225.36 93.42 225.65C93.42 225.94 93.34 226.27 93.29 226.65C93.2101 227.458 93.0629 228.257 92.85 229.04C92.3426 231.206 91.5026 233.281 90.36 235.19C87.6425 239.829 83.3856 243.37 78.3289 245.197C73.2721 247.024 67.7351 247.021 62.68 245.19C61.6506 244.82 60.6482 244.379 59.68 243.87C58.6956 243.316 57.7531 242.691 56.86 242C55.9299 241.318 55.0478 240.573 54.22 239.77C53.424 238.939 52.6824 238.057 52 237.13C50.5605 235.194 49.4397 233.04 48.68 230.75C47.9206 228.386 47.5194 225.922 47.49 223.44C47.5178 220.957 47.9224 218.492 48.69 216.13C49.4421 213.839 50.5598 211.684 52 209.75C52.7031 208.81 53.4646 207.915 54.28 207.07C55.1048 206.268 55.9835 205.523 56.91 204.84C57.7967 204.163 58.7289 203.549 59.7 203C60.6681 202.488 61.6705 202.044 62.7 201.67C66.5888 200.261 70.7832 199.916 74.85 200.67C78.0759 201.29 81.132 202.592 83.8138 204.49C86.4956 206.387 88.7411 208.835 90.4 211.67C91.5429 213.583 92.3828 215.661 92.89 217.83C93.1028 218.61 93.25 219.406 93.33 220.21C93.33 220.56 93.44 220.88 93.46 221.21V222.02C93.46 222.48 93.46 222.84 93.46 223.11C93.4858 223.218 93.5026 223.329 93.51 223.44Z" fill="#263238"/>
<path d="M111.65 211.5C111.697 211.72 111.72 211.945 111.72 212.17C111.72 212.65 111.72 213.28 111.8 214.07C111.88 214.86 111.88 215.9 111.8 217.07C111.8 217.66 111.8 218.28 111.8 218.95C111.8 219.62 111.8 220.32 111.67 221.05C111.53 222.52 111.43 224.14 111.12 225.86C110.99 226.72 110.88 227.61 110.7 228.52C110.52 229.43 110.3 230.36 110.1 231.32C109.138 235.454 107.799 239.491 106.1 243.38C104.344 247.249 102.246 250.954 99.83 254.45C98.67 256.02 97.6 257.54 96.44 258.85C95.88 259.51 95.36 260.18 94.81 260.77L93.22 262.45C92.22 263.56 91.22 264.45 90.36 265.24C89.6404 265.948 88.8826 266.615 88.09 267.24L86.61 268.44C86.4477 268.586 86.27 268.713 86.08 268.82C86.2222 268.653 86.3795 268.499 86.55 268.36L87.96 267.09C88.59 266.55 89.34 265.88 90.16 265.09C90.98 264.3 91.98 263.37 92.95 262.26L94.51 260.56C95.05 259.97 95.51 259.3 96.11 258.64C97.24 257.33 98.29 255.81 99.44 254.23C101.814 250.749 103.881 247.068 105.62 243.23C107.31 239.358 108.649 235.342 109.62 231.23L110.24 228.45C110.42 227.55 110.54 226.66 110.69 225.81C111.01 224.11 111.13 222.5 111.29 221.04C111.38 220.31 111.44 219.61 111.46 218.95L111.55 217.08C111.64 215.91 111.62 214.9 111.62 214.08C111.62 213.26 111.62 212.67 111.62 212.18C111.613 211.953 111.623 211.726 111.65 211.5Z" fill="#263238"/>
<path d="M354.81 471.34H118.35C116.801 471.314 115.272 470.983 113.851 470.366C112.43 469.748 111.144 468.857 110.068 467.742C108.991 466.628 108.145 465.312 107.578 463.87C107.01 462.429 106.732 460.889 106.76 459.34V97.92C106.732 96.3709 107.01 94.8314 107.578 93.3897C108.145 91.9479 108.991 90.6322 110.068 89.5177C111.144 88.4032 112.43 87.5119 113.851 86.8945C115.272 86.2772 116.801 85.9461 118.35 85.92H354.81C356.359 85.9461 357.887 86.2773 359.308 86.8947C360.728 87.5122 362.013 88.4037 363.089 89.5183C364.164 90.6329 365.01 91.9488 365.576 93.3904C366.143 94.8321 366.419 96.3713 366.39 97.92V459.36C366.417 460.907 366.138 462.444 365.57 463.884C365.003 465.323 364.157 466.636 363.082 467.749C362.006 468.861 360.722 469.751 359.303 470.367C357.884 470.983 356.357 471.314 354.81 471.34Z" fill="#263238"/>
<path d="M241.11 453.81C241.148 455.993 240.535 458.139 239.349 459.972C238.164 461.806 236.459 463.245 234.453 464.107C232.446 464.969 230.229 465.214 228.083 464.811C225.937 464.409 223.959 463.376 222.402 461.846C220.844 460.315 219.777 458.356 219.337 456.217C218.897 454.078 219.104 451.857 219.93 449.836C220.757 447.815 222.167 446.085 223.979 444.868C225.792 443.651 227.926 443 230.11 443C233.002 442.976 235.785 444.101 237.847 446.128C239.91 448.155 241.084 450.918 241.11 453.81Z" fill="#455A64"/>
<path d="M263.18 106.3H210.18C209.686 106.292 209.199 106.187 208.746 105.991C208.292 105.795 207.882 105.511 207.539 105.156C207.195 104.802 206.925 104.383 206.743 103.924C206.561 103.464 206.472 102.974 206.48 102.48C206.464 101.482 206.844 100.518 207.538 99.8C208.232 99.082 209.182 98.6684 210.18 98.65H263.18C264.178 98.6684 265.128 99.082 265.822 99.8C266.516 100.518 266.896 101.482 266.88 102.48C266.888 102.974 266.799 103.464 266.617 103.924C266.435 104.383 266.165 104.802 265.821 105.156C265.478 105.511 265.068 105.795 264.614 105.991C264.161 106.187 263.674 106.292 263.18 106.3Z" fill="#455A64"/>
<path d="M357.99 113.43H114.73V435.29H357.99V113.43Z" fill="white"/>
<path d="M357.99 113.43H347.61V435.29H357.99V113.43Z" fill="#F5F5F5"/>
<path d="M352.79 229.07C351.932 229.067 351.111 228.725 350.505 228.118C349.9 227.51 349.56 226.688 349.56 225.83V154.64C349.56 153.782 349.9 152.96 350.505 152.353C351.111 151.745 351.932 151.403 352.79 151.4C353.649 151.4 354.473 151.741 355.081 152.349C355.689 152.957 356.03 153.781 356.03 154.64V225.83C356.03 226.689 355.689 227.513 355.081 228.121C354.473 228.729 353.649 229.07 352.79 229.07Z" fill="#E0E0E0"/>
<path d="M326.26 186.68H146.9C145.531 186.68 144.219 186.136 143.251 185.169C142.284 184.201 141.74 182.889 141.74 181.52C141.74 180.152 142.284 178.839 143.251 177.871C144.219 176.904 145.531 176.36 146.9 176.36H326.26C327.629 176.36 328.941 176.904 329.909 177.871C330.876 178.839 331.42 180.152 331.42 181.52C331.42 182.889 330.876 184.201 329.909 185.169C328.941 186.136 327.629 186.68 326.26 186.68Z" fill="#E0E0E0"/>
<path d="M298.67 149H185.84C184.471 149 183.159 148.456 182.191 147.489C181.224 146.521 180.68 145.209 180.68 143.84C180.68 142.472 181.224 141.159 182.191 140.191C183.159 139.224 184.471 138.68 185.84 138.68H298.67C300.039 138.68 301.351 139.224 302.319 140.191C303.286 141.159 303.83 142.472 303.83 143.84C303.83 145.209 303.286 146.521 302.319 147.489C301.351 148.456 300.039 149 298.67 149Z" fill="#088395"/>
<path d="M300.79 207.45H172.37C171.001 207.45 169.689 206.906 168.721 205.939C167.754 204.971 167.21 203.659 167.21 202.29C167.21 200.921 167.754 199.609 168.721 198.641C169.689 197.674 171.001 197.13 172.37 197.13H300.79C301.468 197.13 302.139 197.263 302.765 197.523C303.391 197.782 303.96 198.162 304.439 198.641C304.918 199.12 305.298 199.689 305.557 200.315C305.817 200.941 305.95 201.612 305.95 202.29C305.95 202.968 305.817 203.639 305.557 204.265C305.298 204.891 304.918 205.46 304.439 205.939C303.96 206.418 303.391 206.798 302.765 207.057C302.139 207.317 301.468 207.45 300.79 207.45Z" fill="#E0E0E0"/>
<path d="M242.81 298H144C142.632 298 141.319 297.456 140.351 296.489C139.384 295.521 138.84 294.209 138.84 292.84C138.84 292.162 138.974 291.491 139.233 290.865C139.492 290.239 139.872 289.671 140.351 289.191C140.831 288.712 141.399 288.332 142.025 288.073C142.651 287.814 143.322 287.68 144 287.68H242.81C243.488 287.68 244.159 287.814 244.785 288.073C245.411 288.332 245.98 288.712 246.459 289.191C246.938 289.671 247.318 290.239 247.577 290.865C247.837 291.491 247.97 292.162 247.97 292.84C247.97 294.209 247.426 295.521 246.459 296.489C245.491 297.456 244.179 298 242.81 298Z" fill="#E0E0E0"/>
<path d="M323.36 276.37H144C142.632 276.37 141.319 275.826 140.351 274.859C139.384 273.891 138.84 272.579 138.84 271.21C138.84 270.533 138.974 269.862 139.233 269.237C139.492 268.611 139.873 268.043 140.352 267.565C140.831 267.087 141.4 266.707 142.026 266.449C142.652 266.191 143.323 266.059 144 266.06H323.36C324.037 266.059 324.708 266.191 325.334 266.449C325.96 266.707 326.529 267.087 327.008 267.565C327.487 268.043 327.868 268.611 328.127 269.237C328.386 269.862 328.52 270.533 328.52 271.21C328.52 271.888 328.387 272.559 328.127 273.185C327.868 273.811 327.488 274.38 327.009 274.859C326.53 275.338 325.961 275.718 325.335 275.977C324.709 276.237 324.038 276.37 323.36 276.37Z" fill="#E0E0E0"/>
<path d="M323.36 335.65H166.37C163.52 335.65 161.21 337.96 161.21 340.81C161.21 343.66 163.52 345.97 166.37 345.97H323.36C326.21 345.97 328.52 343.66 328.52 340.81C328.52 337.96 326.21 335.65 323.36 335.65Z" fill="#E0E0E0"/>
<path d="M323.36 368H144C142.632 368 141.319 367.456 140.351 366.489C139.384 365.521 138.84 364.209 138.84 362.84C138.845 361.475 139.391 360.168 140.358 359.204C141.326 358.241 142.635 357.7 144 357.7H323.36C324.038 357.7 324.709 357.834 325.335 358.093C325.961 358.352 326.53 358.732 327.009 359.211C327.488 359.691 327.868 360.259 328.127 360.885C328.387 361.511 328.52 362.182 328.52 362.86C328.515 364.225 327.969 365.532 327.002 366.496C326.035 367.459 324.725 368 323.36 368Z" fill="#E0E0E0"/>
<path d="M323.36 390.42H144C142.632 390.42 141.319 389.876 140.351 388.909C139.384 387.941 138.84 386.629 138.84 385.26C138.84 383.892 139.384 382.579 140.351 381.611C141.319 380.644 142.632 380.1 144 380.1H323.36C324.038 380.1 324.709 380.234 325.335 380.493C325.961 380.752 326.53 381.132 327.009 381.611C327.488 382.091 327.868 382.659 328.127 383.285C328.387 383.911 328.52 384.582 328.52 385.26C328.52 386.629 327.976 387.941 327.009 388.909C326.041 389.876 324.729 390.42 323.36 390.42Z" fill="#E0E0E0"/>
<path d="M152.07 340.81C152.07 341.871 151.755 342.907 151.166 343.789C150.577 344.671 149.739 345.358 148.759 345.763C147.779 346.168 146.701 346.274 145.661 346.066C144.621 345.859 143.666 345.347 142.916 344.597C142.167 343.846 141.657 342.89 141.452 341.85C141.246 340.809 141.354 339.731 141.761 338.752C142.168 337.773 142.857 336.936 143.739 336.349C144.622 335.761 145.659 335.448 146.72 335.45C148.14 335.453 149.501 336.019 150.504 337.024C151.507 338.028 152.07 339.39 152.07 340.81Z" fill="#088395"/>
<path d="M323.36 256.22H166.36C164.991 256.22 163.679 255.676 162.711 254.709C161.744 253.741 161.2 252.429 161.2 251.06C161.2 249.692 161.744 248.379 162.711 247.411C163.679 246.444 164.991 245.9 166.36 245.9H323.36C324.038 245.9 324.709 246.034 325.335 246.293C325.961 246.552 326.53 246.932 327.009 247.411C327.488 247.891 327.868 248.459 328.127 249.085C328.387 249.711 328.52 250.382 328.52 251.06C328.52 251.738 328.387 252.409 328.127 253.035C327.868 253.661 327.488 254.23 327.009 254.709C326.53 255.188 325.961 255.568 325.335 255.827C324.709 256.087 324.038 256.22 323.36 256.22Z" fill="#E0E0E0"/>
<path d="M146.72 256.42C149.68 256.42 152.08 254.02 152.08 251.06C152.08 248.1 149.68 245.7 146.72 245.7C143.76 245.7 141.36 248.1 141.36 251.06C141.36 254.02 143.76 256.42 146.72 256.42Z" fill="#088395"/>
<path d="M318.35 423.23H278.1C275.92 423.23 273.829 422.364 272.288 420.822C270.746 419.281 269.88 417.19 269.88 415.01C269.88 412.83 270.746 410.739 272.288 409.198C273.829 407.656 275.92 406.79 278.1 406.79H318.35C320.53 406.79 322.621 407.656 324.162 409.198C325.704 410.739 326.57 412.83 326.57 415.01C326.57 417.19 325.704 419.281 324.162 420.822C322.621 422.364 320.53 423.23 318.35 423.23Z" fill="#088395"/>
<path d="M427.82 141.17V181.69C427.91 188.69 428.94 199.69 417.82 199.33C408.23 198.33 405.68 189.2 405.61 182.66C405.61 179.56 405.54 176.97 405.51 176.66C405.51 176.66 395.01 175.8 394.12 165.42C393.69 160.42 393.65 150.01 393.72 140.6C393.763 135.726 395.638 131.047 398.973 127.494C402.308 123.94 406.859 121.771 411.72 121.42L412.72 121.35C423.59 121.19 428 130.32 427.82 141.17Z" fill="#FFBF9D"/>
<path d="M405.54 176.66C410.337 176.291 414.928 174.556 418.77 171.66C418.77 171.66 416.03 179.49 405.6 179.31L405.54 176.66Z" fill="#FF9A6C"/>
<path d="M380 131.29C380.058 131.079 380.158 130.882 380.294 130.71C380.43 130.538 380.598 130.395 380.79 130.29C381.619 129.913 382.534 129.764 383.44 129.86C386.21 129.809 388.91 128.988 391.24 127.49C392.328 125.927 393.542 124.455 394.87 123.09C398.02 119.85 400.6 117.64 403.28 116.56C406.74 115.17 412.53 114.56 416.14 115.56C419.75 116.56 422.99 119.44 423.5 123.13C425.5 121.42 428.56 121.44 431.03 122.43H431.09C433.83 123.43 435.39 126.31 436.2 129.11C437.01 131.91 437.36 134.91 438.84 137.42C439.15 137.94 439.52 138.57 439.25 139.12C439.125 139.319 438.942 139.475 438.726 139.568C438.51 139.661 438.271 139.686 438.04 139.64C437.577 139.541 437.14 139.343 436.76 139.06C437.07 139.8 437.37 140.53 437.68 141.26C436.679 141.434 435.651 141.369 434.68 141.07C434.176 143.566 433.525 146.031 432.73 148.45C431.706 148.329 430.673 148.581 429.82 149.16C428.82 150.03 428.43 151.66 426.82 151.04C426.01 150.72 425.27 149.04 424.99 148.19C423.181 142.652 422.584 136.789 423.24 131C422.102 129.789 420.745 128.805 419.24 128.1L419.36 128.21C416.46 127.21 413.18 126.21 410.43 127.57C408.3 128.63 407.05 130.84 405.43 132.57C403.964 134.214 402.178 135.544 400.183 136.477C398.187 137.411 396.022 137.929 393.82 138C393.67 140.92 393.91 145.05 393.76 148L391.3 143.32C391.107 142.996 390.93 142.662 390.77 142.32V142.22C390.524 141.649 390.247 141.091 389.94 140.55C389.6 140.824 389.172 140.966 388.736 140.952C388.299 140.939 387.882 140.769 387.559 140.474C387.237 140.18 387.03 139.779 386.977 139.346C386.924 138.912 387.028 138.474 387.27 138.11C387.516 137.77 387.813 137.47 388.15 137.22C387.793 137.568 387.352 137.816 386.869 137.94C386.387 138.065 385.881 138.061 385.4 137.93C384.924 137.785 384.509 137.487 384.22 137.082C383.93 136.677 383.783 136.187 383.8 135.69C383.841 135.355 383.969 135.038 384.171 134.768C384.373 134.497 384.641 134.285 384.95 134.15C383.662 134.253 382.373 133.968 381.25 133.33C380.45 132.9 379.73 132.21 380 131.29Z" fill="#263238"/>
<path d="M420.21 124.34C420.572 124.644 420.906 124.978 421.21 125.34C422.032 126.328 422.58 127.514 422.8 128.78C422.982 129.648 423.072 130.533 423.07 131.42C423.07 132.42 423 133.42 422.92 134.48C422.826 135.611 422.802 136.746 422.85 137.88C422.878 138.485 422.955 139.087 423.08 139.68C423.173 140.312 423.424 140.911 423.81 141.42C423.992 141.622 424.223 141.773 424.48 141.859C424.738 141.945 425.013 141.962 425.28 141.91C425.787 141.817 426.249 141.557 426.59 141.17C427.155 140.396 427.501 139.484 427.59 138.53H427.38C427.69 139.315 428.114 140.05 428.64 140.71C429.143 141.317 429.858 141.71 430.64 141.81C431.007 141.847 431.378 141.781 431.71 141.62C432.02 141.458 432.274 141.207 432.44 140.9C432.59 140.617 432.666 140.3 432.66 139.98C432.644 139.682 432.524 139.398 432.32 139.18L432.21 139.28C432.828 139.986 433.588 140.555 434.44 140.95C434.74 141.083 434.97 141.173 435.13 141.22L435.38 141.28L435.15 141.18C434.99 141.11 434.76 141.02 434.48 140.88C433.655 140.462 432.921 139.884 432.32 139.18L432.21 139.28C432.38 139.498 432.478 139.763 432.491 140.039C432.503 140.315 432.43 140.588 432.28 140.82C432.132 141.091 431.906 141.311 431.63 141.45C431.319 141.6 430.972 141.655 430.63 141.61C429.899 141.526 429.228 141.169 428.75 140.61C428.247 139.961 427.84 139.244 427.54 138.48L427.39 138.15L427.32 138.51C427.213 139.423 426.868 140.292 426.32 141.03C426.007 141.369 425.593 141.601 425.14 141.69C424.914 141.736 424.68 141.722 424.461 141.65C424.242 141.578 424.045 141.451 423.89 141.28C423.53 140.803 423.299 140.242 423.22 139.65C423.097 139.07 423.016 138.482 422.98 137.89C422.932 136.763 422.956 135.634 423.05 134.51C423.11 133.43 423.18 132.41 423.17 131.44C423.164 130.542 423.063 129.647 422.87 128.77C422.627 127.48 422.043 126.279 421.18 125.29C420.913 124.92 420.585 124.599 420.21 124.34Z" fill="#455A64"/>
<path d="M388.1 134.43L388.19 134.5C388.272 134.57 388.359 134.633 388.45 134.69C388.586 134.801 388.734 134.899 388.89 134.98C389.094 135.1 389.305 135.211 389.52 135.31C390.911 135.941 392.437 136.216 393.96 136.11C396.227 135.957 398.401 135.151 400.22 133.79C402.421 132.115 404.252 130.005 405.6 127.59C406.36 126.34 406.97 125.05 407.6 123.86C408.246 122.698 409.054 121.634 410 120.7C410.832 119.852 411.863 119.226 413 118.88C413.514 118.738 414.047 118.677 414.58 118.7C415.064 118.737 415.542 118.838 416 119C416.807 119.274 417.547 119.717 418.17 120.3C418.64 120.74 419.035 121.253 419.34 121.82C419.582 122.315 419.76 122.84 419.87 123.38C419.87 123.38 419.87 123.38 419.87 123.27C419.87 123.16 419.87 123.08 419.82 122.95C419.737 122.545 419.602 122.151 419.42 121.78C418.72 120.404 417.516 119.351 416.06 118.84C415.579 118.673 415.078 118.568 414.57 118.53C414.017 118.507 413.464 118.567 412.93 118.71C411.76 119.055 410.697 119.692 409.84 120.56C408.897 121.504 408.098 122.583 407.47 123.76C406.78 124.96 406.16 126.24 405.42 127.49C404.081 129.873 402.275 131.962 400.11 133.63C398.329 134.979 396.198 135.788 393.97 135.96C392.47 136.078 390.964 135.831 389.58 135.24C389.07 135.001 388.576 134.731 388.1 134.43Z" fill="#455A64"/>
<path d="M387.16 129.87C387.16 129.87 387.28 129.98 387.53 130.13C387.882 130.344 388.25 130.531 388.63 130.69C389.196 130.93 389.781 131.121 390.38 131.26C391.112 131.432 391.859 131.533 392.61 131.56C393.363 131.579 394.116 131.528 394.86 131.41C395.462 131.308 396.055 131.155 396.63 130.95C397.022 130.816 397.403 130.652 397.77 130.46C397.908 130.398 398.039 130.321 398.16 130.23C398.16 130.23 397.57 130.48 396.58 130.79C396.003 130.962 395.415 131.095 394.82 131.19C394.091 131.291 393.356 131.335 392.62 131.32C391.884 131.287 391.152 131.197 390.43 131.05C389.841 130.92 389.263 130.747 388.7 130.53C387.74 130.16 387.18 129.83 387.16 129.87Z" fill="#455A64"/>
<path d="M427.55 148.92C427.72 148.83 434.55 146.29 434.82 153.4C435.09 160.51 427.91 159.33 427.89 159.13C427.87 158.93 427.55 148.92 427.55 148.92Z" fill="#FFBF9D"/>
<path d="M430 156.35C430 156.35 430.13 156.43 430.34 156.52C430.639 156.636 430.971 156.636 431.27 156.52C431.717 156.209 432.073 155.785 432.302 155.291C432.53 154.798 432.623 154.252 432.57 153.71C432.569 153.1 432.429 152.498 432.16 151.95C432.082 151.727 431.95 151.527 431.775 151.368C431.601 151.209 431.389 151.097 431.16 151.04C431.017 151.012 430.869 151.033 430.74 151.1C430.611 151.167 430.509 151.277 430.45 151.41C430.36 151.61 430.45 151.75 430.37 151.77C430.29 151.79 430.22 151.66 430.26 151.36C430.297 151.183 430.388 151.023 430.52 150.9C430.713 150.749 430.955 150.674 431.2 150.69C431.494 150.737 431.771 150.859 432.005 151.042C432.24 151.226 432.424 151.466 432.54 151.74C432.875 152.353 433.05 153.041 433.05 153.74C433.05 155.17 432.39 156.54 431.37 156.88C431.182 156.943 430.981 156.964 430.784 156.939C430.587 156.915 430.397 156.847 430.23 156.74C430 156.52 429.93 156.36 430 156.35Z" fill="#FF9A6C"/>
<path d="M448 439.59L450.12 463.59L457.64 482.15C457.763 482.473 457.817 482.819 457.796 483.165C457.775 483.51 457.682 483.847 457.521 484.154C457.36 484.46 457.136 484.729 456.863 484.942C456.591 485.155 456.276 485.308 455.94 485.39C455.542 485.508 455.123 485.534 454.713 485.465C454.304 485.395 453.916 485.233 453.58 484.99C449.29 481.87 433.82 470.39 433.65 468.9C433.43 466.96 429.48 443.33 429.48 443.33L448 439.59Z" fill="#455A64"/>
<path d="M456 485.42L433.28 466.19L433.51 467.97C433.66 468.97 433.68 469.47 434.36 470.08C440.398 475.549 446.741 480.671 453.36 485.42C453.767 485.61 454.211 485.709 454.66 485.709C455.109 485.709 455.553 485.61 455.96 485.42H456Z" fill="#263238"/>
<path d="M437.7 458.69C438.033 458.862 438.287 459.155 438.409 459.508C438.532 459.862 438.514 460.249 438.36 460.59C438.16 460.92 437.847 461.165 437.479 461.281C437.111 461.397 436.713 461.375 436.36 461.22C436.013 461.036 435.749 460.727 435.623 460.355C435.497 459.983 435.517 459.577 435.68 459.22C435.922 458.896 436.276 458.672 436.673 458.593C437.069 458.514 437.482 458.584 437.83 458.79" fill="white"/>
<path d="M448.94 475.52C449.09 475.58 449.52 474.26 450.94 473.44C451.842 473 452.813 472.719 453.81 472.61C453.81 472.55 453.48 472.4 452.88 472.38C452.088 472.373 451.31 472.584 450.63 472.99C449.967 473.374 449.432 473.944 449.09 474.63C448.87 475.15 448.87 475.51 448.94 475.52Z" fill="#263238"/>
<path d="M451.12 478.55C451.25 478.65 451.98 477.78 453.26 477.3C454.068 477.066 454.889 476.882 455.72 476.75C455.299 476.557 454.841 476.463 454.378 476.473C453.916 476.484 453.462 476.599 453.05 476.81C451.59 477.37 451 478.5 451.12 478.55Z" fill="#263238"/>
<path d="M445.09 471.75C446.091 470.955 447.151 470.236 448.26 469.6C449.46 469.109 450.693 468.705 451.95 468.39C450.588 468.185 449.196 468.446 448 469.13C445.94 470.12 445 471.69 445.09 471.75Z" fill="#263238"/>
<path d="M443.8 464.49C443.88 464.63 445.23 463.93 447.05 463.69C448.87 463.45 450.38 463.69 450.42 463.56C449.347 463.045 448.132 462.904 446.97 463.16C445.793 463.23 444.675 463.699 443.8 464.49Z" fill="#263238"/>
<path d="M443 457.45C444.052 456.922 445.199 456.609 446.374 456.53C447.548 456.451 448.727 456.607 449.84 456.99C449.84 456.93 449.57 456.66 448.94 456.4C448.111 456.074 447.219 455.938 446.33 456C445.443 456.05 444.58 456.307 443.81 456.75C443.21 457.09 442.94 457.4 443 457.45Z" fill="#263238"/>
<path d="M446.15 455.19C446.15 455.19 446.21 454.86 446.09 454.28C445.914 453.454 445.574 452.672 445.09 451.98C444.761 451.433 444.262 451.008 443.67 450.77C443.464 450.708 443.246 450.708 443.04 450.768C442.834 450.829 442.65 450.947 442.51 451.11C442.391 451.27 442.305 451.453 442.257 451.647C442.209 451.841 442.2 452.042 442.23 452.24C442.403 453.064 442.857 453.802 443.513 454.329C444.17 454.856 444.988 455.139 445.83 455.13C446.671 455.143 447.497 454.911 448.207 454.461C448.918 454.012 449.482 453.365 449.83 452.6C449.909 452.413 449.945 452.211 449.935 452.008C449.924 451.805 449.868 451.608 449.77 451.43C449.642 451.257 449.465 451.125 449.262 451.052C449.059 450.979 448.839 450.968 448.63 451.02C448.025 451.215 447.478 451.559 447.04 452.02C446.418 452.593 445.9 453.269 445.51 454.02C445.349 454.285 445.246 454.582 445.21 454.89C445.781 453.915 446.492 453.029 447.32 452.26C447.713 451.872 448.193 451.584 448.72 451.42C448.833 451.388 448.954 451.392 449.065 451.431C449.176 451.471 449.272 451.544 449.34 451.64C449.395 451.761 449.423 451.892 449.423 452.025C449.423 452.158 449.395 452.289 449.34 452.41C449.022 453.059 448.528 453.605 447.914 453.987C447.301 454.369 446.593 454.571 445.87 454.57C445.157 454.573 444.463 454.336 443.901 453.897C443.339 453.458 442.94 452.843 442.77 452.15C442.721 451.876 442.779 451.594 442.93 451.36C443.005 451.267 443.106 451.2 443.221 451.166C443.335 451.132 443.457 451.133 443.57 451.17C444.071 451.372 444.5 451.72 444.8 452.17C445.433 453.085 445.89 454.109 446.15 455.19Z" fill="#263238"/>
<path d="M387.46 440.83L388.4 461.18C388.4 461.18 366.71 468.92 366.5 472.7L408.55 472.39L408.46 440.62L387.46 440.83Z" fill="#455A64"/>
<path d="M401.39 459.37C401.786 459.468 402.13 459.712 402.353 460.054C402.575 460.395 402.66 460.808 402.59 461.21C402.469 461.604 402.205 461.939 401.849 462.148C401.494 462.357 401.073 462.426 400.67 462.34C400.253 462.237 399.89 461.98 399.656 461.619C399.422 461.259 399.334 460.823 399.41 460.4C399.575 459.995 399.888 459.667 400.284 459.481C400.681 459.296 401.133 459.267 401.55 459.4" fill="#E0E0E0"/>
<path d="M408.55 472.39L408.41 469.19L368.14 470.68C368.14 470.68 366.28 471.46 366.5 472.68L408.55 472.39Z" fill="#263238"/>
<path d="M387.72 461C387.72 461.19 388.72 461.27 389.72 461.88C390.72 462.49 391.28 463.3 391.47 463.22C391.66 463.14 391.34 462.03 390.1 461.31C388.86 460.59 387.67 460.81 387.72 461Z" fill="#263238"/>
<path d="M383.32 462.73C383.32 462.92 384.17 463.24 384.87 464.05C385.57 464.86 385.79 465.73 385.99 465.72C386.19 465.71 386.32 464.61 385.42 463.62C384.52 462.63 383.33 462.55 383.32 462.73Z" fill="#263238"/>
<path d="M380.86 467.71C381.05 467.71 381.32 466.79 380.79 465.71C380.26 464.63 379.29 464.25 379.2 464.41C379.11 464.57 379.72 465.13 380.14 466C380.56 466.87 380.66 467.7 380.86 467.71Z" fill="#263238"/>
<path d="M388.05 456.32C388.14 456.5 389.05 456.23 390.24 456.32C391.43 456.41 392.31 456.72 392.41 456.56C392.51 456.4 391.65 455.71 390.28 455.65C388.91 455.59 388 456.17 388.05 456.32Z" fill="#263238"/>
<path d="M380.14 294.68C380.14 295.85 385.02 458.53 385.02 458.53H411.02L416.29 319.37C416.29 319.37 422.44 392.13 422.44 393.7C422.44 395.27 427.86 459.31 427.86 459.31L451.96 457.46L450.37 311L447.43 289.52L380.14 294.68Z" fill="#263238"/>
<path d="M419 314.22C418.671 314.407 418.317 314.548 417.95 314.64C417.26 314.88 416.25 315.21 415.01 315.64L414.78 315.71V315.48C414.64 313.53 414.47 310.91 414.32 308.04C414.15 304.93 414.03 302.12 413.97 300.04C413.97 299.04 413.92 298.19 413.92 297.62C413.89 297.322 413.911 297.021 413.98 296.73C414.063 297.016 414.11 297.312 414.12 297.61C414.19 298.18 414.26 299.01 414.33 300.02C414.49 302.02 414.67 304.87 414.83 308.02C414.99 310.89 415.1 313.51 415.16 315.47L414.91 315.31C416.17 314.96 417.19 314.68 417.91 314.5C418.263 314.371 418.628 314.278 419 314.22Z" fill="#455A64"/>
<path d="M417 297.31C417 297.31 417.08 297.18 417.35 297.09C417.73 296.99 418.133 297.025 418.49 297.19C418.759 297.289 418.989 297.471 419.146 297.711C419.302 297.95 419.377 298.234 419.36 298.52C419.326 298.881 419.175 299.222 418.929 299.489C418.684 299.757 418.357 299.936 418 300C417.636 300.054 417.265 300.008 416.926 299.865C416.587 299.722 416.295 299.488 416.08 299.19C415.93 298.959 415.85 298.69 415.85 298.415C415.85 298.14 415.93 297.871 416.08 297.64C416.287 297.33 416.589 297.095 416.94 296.97C417.2 296.88 417.35 296.9 417.36 296.92C417.37 296.94 416.77 297.11 416.41 297.79C416.304 297.971 416.254 298.179 416.264 298.389C416.275 298.599 416.346 298.8 416.47 298.97C416.632 299.184 416.848 299.351 417.096 299.453C417.344 299.555 417.615 299.588 417.88 299.55C418.128 299.502 418.355 299.382 418.534 299.204C418.712 299.025 418.832 298.798 418.88 298.55C418.9 298.345 418.855 298.139 418.753 297.96C418.651 297.781 418.496 297.638 418.31 297.55C417.91 297.333 417.451 297.249 417 297.31Z" fill="#455A64"/>
<path d="M428.94 299C428.8 299 428.6 298.3 428.5 297.42C428.4 296.54 428.43 295.81 428.57 295.8C428.71 295.79 428.91 296.49 429.01 297.37C429.11 298.25 429.08 299 428.94 299Z" fill="#455A64"/>
<path d="M430.74 298.81C430.6 298.81 430.48 298.06 430.48 297.13C430.48 296.2 430.58 295.45 430.73 295.45C430.88 295.45 430.99 296.2 430.99 297.13C430.99 298.06 430.89 298.81 430.74 298.81Z" fill="#455A64"/>
<path d="M399.41 299.93C399.27 299.93 399.05 299.1 398.92 298.05C398.79 297 398.8 296.12 398.92 296.11C399.04 296.1 399.28 296.94 399.41 298C399.54 299.06 399.55 299.92 399.41 299.93Z" fill="#455A64"/>
<path d="M401.6 300.09C401.138 299.53 400.909 298.814 400.96 298.09C400.852 297.39 401.013 296.676 401.41 296.09C401.56 296.09 401.41 297.01 401.48 298.09C401.55 299.17 401.74 300.05 401.6 300.09Z" fill="#455A64"/>
<path d="M393.38 297.92C393.391 298.16 393.36 298.4 393.29 298.63C393.165 299.279 392.991 299.917 392.77 300.54C392.028 302.64 390.94 304.6 389.55 306.34C388.106 308.134 386.393 309.692 384.47 310.96C383.879 311.35 383.264 311.704 382.63 312.02C382.399 312.15 382.154 312.254 381.9 312.33C381.9 312.27 382.84 311.75 384.27 310.72C386.109 309.414 387.759 307.859 389.17 306.1C390.533 304.385 391.641 302.482 392.46 300.45C393.07 298.9 393.3 297.9 393.38 297.92Z" fill="#455A64"/>
<path d="M449.58 308.88C449.323 308.956 449.058 308.997 448.79 309C448.064 309.057 447.336 309.057 446.61 309C444.236 308.772 441.952 307.976 439.95 306.68C438.054 305.438 436.524 303.712 435.52 301.68C435.228 301.089 435 300.469 434.84 299.83C434.759 299.606 434.722 299.368 434.73 299.13C434.81 299.13 435.03 300.13 435.82 301.56C436.875 303.494 438.39 305.139 440.23 306.35C442.169 307.602 444.362 308.408 446.65 308.71C448.44 308.91 449.57 308.8 449.58 308.88Z" fill="#455A64"/>
<path d="M407.23 391.26C407.23 391.37 402.89 390.43 397.61 389.18C392.33 387.93 388.07 386.81 388.11 386.7C388.15 386.59 392.45 387.52 397.73 388.78C403.01 390.04 407.26 391.15 407.23 391.26Z" fill="#455A64"/>
<path d="M449.11 385.34C449.17 385.44 445.42 387.39 440.74 389.71C436.06 392.03 432.2 393.82 432.14 393.71C432.08 393.6 435.83 391.65 440.51 389.34C445.19 387.03 449.05 385.24 449.11 385.34Z" fill="#455A64"/>
<path d="M367.52 239.59L371.07 244.04V236.39H382.27C382.27 236.39 383.51 253.9 383.27 257.63C383.004 259.574 382.545 261.487 381.9 263.34C381.565 264.418 380.959 265.392 380.138 266.168C379.318 266.944 378.311 267.495 377.216 267.768C376.12 268.042 374.973 268.028 373.884 267.729C372.795 267.43 371.802 266.855 371 266.06C369.746 264.841 368.577 263.538 367.5 262.16C362.5 255.76 354.26 240.16 354.26 240.16L362.9 235L367.52 239.59Z" fill="#FFBF9D"/>
<path d="M366.81 238.77C367.233 239.481 367.722 240.15 368.27 240.77C369.27 241.94 370.53 243.55 372.02 245.29C373.51 247.03 374.93 248.57 376.02 249.62C376.572 250.226 377.213 250.745 377.92 251.16C377.413 250.525 376.865 249.924 376.28 249.36C375.28 248.26 373.9 246.69 372.41 244.95C369.46 241.41 366.94 238.65 366.81 238.77Z" fill="#FF9A6C"/>
<path d="M393.06 185.8L404.87 181.16L426.62 179.93L436.84 183.82L422.83 191.6L410.75 191.16L393.06 185.8Z" fill="#FFBF9D"/>
<path d="M379.13 296.9C380.2 297.08 451.46 300.11 451.46 300.11L449 236L448.79 223.42L444.79 185.31C444.79 185.31 434.13 181.64 428.7 179.89C428.7 179.89 422.98 185.89 412.1 185.69C401.47 185.54 399.25 183.14 399.25 183.14L384.39 188.84C384.39 188.84 373.82 192.63 372 197.31C370.18 201.99 367 227.86 367 227.86H382.41L382 273.83L379.13 296.9Z" fill="#455A64"/>
<g opacity="0.2">
<path d="M423.94 211.38L426.15 227.54L436.84 232.31L444.74 225.58V210.58L423.94 211.38Z" fill="black"/>
</g>
<path d="M444.46 216C444.46 216.13 440.02 216.24 434.54 216.24C429.06 216.24 424.61 216.13 424.61 216C427.914 215.749 431.228 215.666 434.54 215.75C437.849 215.666 441.16 215.749 444.46 216Z" fill="#263238"/>
<path d="M374.33 204C374.381 204.14 374.421 204.284 374.45 204.43C374.52 204.75 374.61 205.15 374.73 205.66C375.114 207.203 375.588 208.722 376.15 210.21C376.86 212.12 377.86 214.37 379.09 216.89C380.32 219.41 381.3 222.42 382.39 225.62C382.39 229.46 382.39 233.62 382.31 238.05C382.21 247.85 382.11 256.72 382.05 263.19C381.99 266.37 381.95 268.96 381.91 270.81C381.91 271.67 381.89 272.36 381.85 272.88C381.855 273.121 381.838 273.362 381.8 273.6C381.783 273.357 381.783 273.113 381.8 272.87C381.8 272.363 381.8 271.673 381.8 270.8C381.8 268.96 381.8 266.36 381.8 263.18C381.8 256.71 381.88 247.84 381.93 238.05C381.93 233.66 382.01 229.46 382.04 225.62V225.69C380.97 222.49 379.94 219.52 378.82 216.97C377.751 214.774 376.796 212.525 375.96 210.23C375.419 208.728 374.982 207.191 374.65 205.63C374.55 205.08 374.47 204.63 374.43 204.37C374.385 204.25 374.352 204.126 374.33 204Z" fill="#263238"/>
<path d="M449.88 196.52C449.915 196.976 449.915 197.434 449.88 197.89C449.88 198.89 449.8 200.11 449.74 201.61C449.61 204.83 449.44 209.13 449.25 213.88C449.06 218.63 448.84 222.94 448.7 226.16C448.61 227.66 448.54 228.91 448.48 229.88C448.478 230.337 448.431 230.792 448.34 231.24C448.304 230.784 448.304 230.326 448.34 229.87C448.34 228.87 448.34 227.65 448.41 226.15C448.49 223 448.63 218.66 448.83 213.87C449.03 209.08 449.25 204.73 449.45 201.6C449.55 200.03 449.65 198.76 449.74 197.88C449.747 197.423 449.793 196.968 449.88 196.52Z" fill="#263238"/>
<g opacity="0.3">
<path d="M374.37 206.35C374.099 213.387 376.614 220.247 381.37 225.44C379.92 218.83 376.3 212.68 374.37 206.35Z" fill="black"/>
</g>
<g opacity="0.3">
<path d="M405.67 269.78C409.02 269.334 412.076 267.632 414.22 265.02C416.476 262.501 418.408 259.709 419.97 256.71C421.986 252.631 423.131 248.176 423.33 243.63C419.18 254.76 413.1 263.56 405.67 269.78Z" fill="black"/>
</g>
<path d="M424.65 238.78C424.643 238.918 424.623 239.056 424.59 239.19C424.52 239.51 424.43 239.89 424.33 240.35C424.23 240.81 424.07 241.46 423.85 242.16C423.63 242.86 423.42 243.66 423.1 244.53C422.4 246.577 421.578 248.58 420.64 250.53C418.346 255.303 415.401 259.735 411.89 263.7C410.457 265.318 408.92 266.841 407.29 268.26C406.62 268.89 405.95 269.39 405.38 269.85C404.81 270.31 404.31 270.68 403.88 270.97L402.88 271.64C402.65 271.78 402.53 271.86 402.52 271.84C402.608 271.734 402.709 271.64 402.82 271.56L403.75 270.82C404.16 270.52 404.65 270.13 405.2 269.65C405.75 269.17 406.4 268.65 407.06 268.02C408.639 266.57 410.138 265.034 411.55 263.42C413.26 261.428 414.853 259.337 416.32 257.16C417.754 254.966 419.063 252.692 420.24 250.35C421.186 248.425 422.03 246.453 422.77 244.44C423.11 243.59 423.35 242.79 423.58 242.1C423.81 241.41 424 240.81 424.14 240.32C424.28 239.83 424.38 239.5 424.48 239.19C424.58 238.88 424.63 238.77 424.65 238.78Z" fill="#263238"/>
<path d="M422.59 218.72C422.575 218.942 422.544 219.162 422.5 219.38C422.42 219.85 422.31 220.47 422.18 221.24C422.05 222.01 421.85 223.03 421.56 224.16C421.27 225.29 421.01 226.6 420.56 228C420.36 228.7 420.14 229.44 419.91 230.21C419.68 230.98 419.38 231.76 419.1 232.57C418.57 234.22 417.85 235.92 417.1 237.72C413.815 245.489 409.401 252.731 404 259.21C402.73 260.67 401.54 262.09 400.32 263.31C399.72 263.93 399.16 264.55 398.58 265.1C398 265.65 397.45 266.19 396.91 266.69C395.91 267.69 394.83 268.56 393.91 269.32C392.99 270.08 392.25 270.71 391.59 271.2L390.08 272.34C389.915 272.484 389.734 272.608 389.54 272.71C389.686 272.549 389.847 272.401 390.02 272.27L391.47 271.06C392.11 270.55 392.89 269.92 393.74 269.13C394.59 268.34 395.62 267.5 396.65 266.45L398.29 264.85C398.86 264.29 399.41 263.67 400 263.05C401.21 261.82 402.38 260.4 403.64 258.93C408.994 252.461 413.399 245.262 416.72 237.55C417.46 235.76 418.18 234.08 418.72 232.45C419.01 231.63 419.31 230.86 419.55 230.1C419.79 229.34 420.01 228.61 420.23 227.91C420.69 226.52 420.98 225.23 421.29 224.1C421.6 222.97 421.82 222 421.98 221.2C422.14 220.4 422.29 219.83 422.39 219.36C422.433 219.14 422.5 218.925 422.59 218.72Z" fill="#263238"/>
<path d="M366.28 198.79L393.72 240.51C393.851 240.707 393.923 240.938 393.926 241.174C393.929 241.411 393.864 241.644 393.738 241.844C393.613 242.045 393.432 242.205 393.218 242.305C393.003 242.405 392.765 242.442 392.53 242.41L360.93 238.41C360.764 238.387 360.604 238.331 360.46 238.245C360.315 238.159 360.19 238.045 360.09 237.91L329.91 196.69C329.76 196.499 329.67 196.269 329.65 196.028C329.63 195.786 329.681 195.544 329.797 195.331C329.913 195.119 330.089 194.944 330.302 194.83C330.516 194.716 330.759 194.668 331 194.69L363.51 197.09C364.071 197.141 364.614 197.321 365.094 197.616C365.575 197.911 365.98 198.312 366.28 198.79Z" fill="#E0E0E0"/>
<path d="M366.28 198.79C366.212 198.654 366.128 198.526 366.03 198.41C365.752 198.065 365.413 197.774 365.03 197.55C364.379 197.21 363.654 197.035 362.92 197.04L360 196.8L341.26 195.33L335.05 194.85L331.75 194.6C331.46 194.6 331.21 194.6 330.88 194.6C330.542 194.611 330.22 194.742 329.97 194.97C329.716 195.201 329.553 195.515 329.509 195.856C329.465 196.197 329.543 196.542 329.73 196.83L338.51 208.88C344.71 217.35 351.51 226.66 358.66 236.44C359.12 237.05 359.53 237.64 360.03 238.28C360.184 238.45 360.376 238.58 360.59 238.66C360.787 238.729 360.992 238.769 361.2 238.78L362.32 238.92L366.74 239.48L375.38 240.56L391.72 242.56C392.06 242.56 392.34 242.65 392.72 242.67C392.915 242.671 393.108 242.634 393.288 242.56C393.468 242.487 393.632 242.378 393.77 242.24C394.032 241.971 394.185 241.615 394.2 241.24C394.185 240.874 394.052 240.523 393.82 240.24L391.7 237L387.7 231L380.54 220.17C376.16 213.58 372.62 208.23 370.15 204.52L367.3 200.27C366.98 199.81 366.73 199.44 366.54 199.18C366.46 199.05 366.369 198.926 366.27 198.81C366.339 198.948 366.415 199.081 366.5 199.21L367.21 200.33C367.85 201.33 368.78 202.78 369.97 204.63L380.23 220.38L387.34 231.24L391.34 237.29L393.42 240.46C393.6 240.67 393.705 240.934 393.72 241.21C393.71 241.472 393.603 241.722 393.42 241.91C393.234 242.095 392.982 242.199 392.72 242.2C392.45 242.2 392.08 242.12 391.77 242.09L375.4 240L366.76 238.91L362.34 238.35L361.23 238.21C361.064 238.196 360.9 238.166 360.74 238.12C360.599 238.066 360.473 237.98 360.37 237.87C359.93 237.27 359.49 236.68 359.05 236.07C351.89 226.31 345.05 217.01 338.87 208.54C335.76 204.32 332.82 200.3 330.06 196.54C329.957 196.391 329.896 196.218 329.884 196.037C329.872 195.857 329.908 195.677 329.99 195.516C330.073 195.355 330.197 195.219 330.35 195.123C330.503 195.027 330.679 194.974 330.86 194.97C331.09 194.97 331.41 194.97 331.68 195.02L334.98 195.26L341.2 195.7L360 197L362.94 197.2C363.657 197.176 364.368 197.33 365.01 197.65C365.51 197.934 365.944 198.323 366.28 198.79Z" fill="#263238"/>
<path d="M329.91 196.72C330.126 196.776 330.347 196.809 330.57 196.82L332.49 197.02L339.63 197.65L363.91 199.65L363.72 199.54C365.24 201.8 366.81 204.14 368.38 206.54C374.79 216.39 380.38 225.45 384.61 231.89C386.71 235.12 388.46 237.7 389.68 239.48L391.1 241.48C391.253 241.724 391.431 241.952 391.63 242.16C391.498 241.905 391.351 241.658 391.19 241.42L389.85 239.33L384.92 231.66C380.78 225.17 375.23 216.09 368.82 206.23C367.25 203.8 365.67 201.46 364.14 199.23L364.07 199.13H364L339.71 197.33L332.56 196.85L330.63 196.74C330.391 196.715 330.15 196.709 329.91 196.72Z" fill="#263238"/>
<path d="M348.72 203.09C348.739 203.007 348.774 202.929 348.824 202.859C348.873 202.79 348.937 202.732 349.01 202.688C349.082 202.644 349.164 202.616 349.248 202.604C349.332 202.592 349.418 202.598 349.5 202.62C349.822 202.693 350.117 202.856 350.35 203.09C350.498 203.225 350.595 203.409 350.622 203.608C350.65 203.807 350.606 204.009 350.5 204.18C350.19 204.57 349.5 204.42 349.16 204.1C349.007 203.983 348.886 203.829 348.809 203.652C348.732 203.475 348.701 203.282 348.72 203.09Z" fill="white"/>
<path d="M363.48 226.47C363.48 226.47 364.72 223.47 361.56 223.11C357.739 222.911 353.911 222.911 350.09 223.11C350.09 223.11 345.54 223.59 346.5 226.85C346.5 226.85 343.82 229.25 345.26 231.85C346.7 234.45 347.26 233.67 347.26 233.67C347.26 233.67 346.88 236.84 349.26 237.31C349.26 237.31 351.86 240.38 354.26 240.19C356.66 240 366.81 235.11 367.48 234.19C368.15 233.27 369.11 232.69 368.54 231.62C368.54 231.62 369.78 228.81 367.1 228.38C367.12 228.33 366.93 226 363.48 226.47Z" fill="#FFBF9D"/>
<path d="M349.06 227.54C349.763 227.687 350.483 227.74 351.2 227.7C352.52 227.7 354.34 227.7 356.35 227.7C358.082 227.75 359.815 227.65 361.53 227.4C362.89 227.08 363.43 226.28 363.37 226.26C362.783 226.632 362.132 226.893 361.45 227.03C360.2 227.24 358.35 227.11 356.34 227.18C354.33 227.25 352.51 227.27 351.19 227.33C350.474 227.314 349.759 227.385 349.06 227.54Z" fill="#FF9A6C"/>
<path d="M351.32 232.34C351.531 232.464 351.767 232.542 352.01 232.57C352.668 232.704 353.341 232.747 354.01 232.7C354.986 232.626 355.951 232.448 356.89 232.17C357.95 231.88 359.08 231.47 360.27 231.11C361.376 230.744 362.52 230.506 363.68 230.4C364.683 230.493 365.69 230.292 366.58 229.82C366.927 229.585 367.174 229.228 367.27 228.82C367.334 228.515 367.292 228.197 367.15 227.92C366.9 227.47 366.56 227.44 366.57 227.46C366.58 227.48 366.81 227.6 366.96 228.01C367.056 228.288 367.049 228.591 366.941 228.864C366.833 229.138 366.63 229.363 366.37 229.5C365.516 229.876 364.577 230.018 363.65 229.91C362.449 229.985 361.263 230.213 360.12 230.59L356.76 231.7C355.852 231.982 354.922 232.19 353.98 232.32C353.095 232.38 352.206 232.387 351.32 232.34Z" fill="#FF9A6C"/>
<path d="M354.72 236.39C355.448 236.348 356.168 236.21 356.86 235.98C358.16 235.65 359.94 235.14 361.86 234.51C363.78 233.88 365.54 233.23 366.78 232.72C367.484 232.499 368.157 232.186 368.78 231.79C368.72 231.65 365.6 232.79 361.78 234C357.96 235.21 354.68 236.25 354.72 236.39Z" fill="#FF9A6C"/>
<path d="M353.91 240.15C354.507 240.202 355.109 240.134 355.68 239.95C357.075 239.611 358.432 239.132 359.73 238.52C361.25 237.83 362.58 237.12 363.54 236.61C364.088 236.378 364.6 236.068 365.06 235.69C363.145 236.309 361.287 237.095 359.51 238.04C356.52 239.48 353.89 240 353.91 240.15Z" fill="#FF9A6C"/>
<path d="M454.93 211.56C454.93 211.56 448.47 237.44 440.4 247C432.58 256.26 420.33 252 416.09 240C411.85 228 404.29 200.69 404.29 200.69L413.57 193.59L429.57 224.68L436.8 203.49L454.93 211.56Z" fill="#FFBF9D"/>
<path d="M404.72 201.43L397.91 191.56C396.919 191.346 395.948 191.045 395.01 190.66C394.24 190.21 393.48 186.29 393.5 185.53C393.52 184.77 392.18 182.98 392.72 182.47C393.26 181.96 395.08 181.93 394.98 181.2C394.98 181.04 393.63 179.4 394.69 178.2C395.274 177.814 395.925 177.539 396.61 177.39L396.5 173.62C396.5 173.62 398.5 169.18 400.61 170.79C400.61 170.79 408.44 176.79 409.23 177.79C410.02 178.79 413.04 191.28 413.57 193.63" fill="#FFBF9D"/>
<path d="M413.57 193.61C413.559 193.387 413.526 193.166 413.47 192.95C413.36 192.47 413.23 191.85 413.06 191.07C412.7 189.43 412.15 187.07 411.41 184.16C411.03 182.7 410.62 181.16 410.09 179.41C409.96 178.99 409.82 178.56 409.64 178.12C409.433 177.672 409.117 177.283 408.72 176.99C408 176.36 407.25 175.74 406.48 175.11C404.93 173.86 403.28 172.56 401.57 171.23C401.138 170.846 400.653 170.526 400.13 170.28C399.824 170.207 399.506 170.207 399.2 170.279C398.894 170.352 398.61 170.496 398.37 170.7C397.477 171.477 396.764 172.439 396.28 173.52V173.58C396.28 173.95 396.28 174.34 396.28 174.73C396.28 175.61 396.28 176.49 396.36 177.35L396.54 177.11C396.068 177.224 395.606 177.378 395.16 177.57C394.911 177.673 394.684 177.823 394.49 178.01C394.318 178.211 394.188 178.446 394.11 178.7C393.982 179.199 394.024 179.727 394.23 180.2C394.313 180.426 394.417 180.643 394.54 180.85L394.71 181.14V181.21C394.715 181.233 394.715 181.257 394.71 181.28C394.71 181.36 394.51 181.48 394.32 181.55C394.13 181.62 393.92 181.69 393.71 181.76C393.493 181.818 393.279 181.888 393.07 181.97C392.808 182.045 392.579 182.208 392.42 182.43C392.316 182.686 392.316 182.973 392.42 183.23C392.48 183.446 392.557 183.656 392.65 183.86C392.82 184.26 393.01 184.64 393.15 185.01C393.221 185.178 393.262 185.358 393.27 185.54C393.274 185.754 393.294 185.968 393.33 186.18C393.39 186.59 393.46 186.99 393.55 187.39C393.706 188.161 393.916 188.919 394.18 189.66C394.307 190.047 394.511 190.404 394.78 190.71C395.107 190.921 395.464 191.08 395.84 191.18C396.53 191.39 397.21 191.56 397.84 191.71L397.73 191.64L402.73 198.8L404.13 200.74C404.285 200.974 404.459 201.194 404.65 201.4C404.522 201.151 404.378 200.911 404.22 200.68L402.9 198.68C401.71 196.91 400.04 194.44 397.99 191.42V191.36H398C397.36 191.2 396.69 191.02 396 190.81C395.68 190.719 395.374 190.584 395.09 190.41C394.875 190.147 394.712 189.844 394.61 189.52C394.355 188.796 394.154 188.054 394.01 187.3C393.93 186.91 393.86 186.52 393.8 186.12C393.8 185.93 393.8 185.72 393.8 185.54C393.791 185.307 393.744 185.077 393.66 184.86C393.51 184.45 393.32 184.07 393.16 183.68C393.073 183.497 393.002 183.306 392.95 183.11C392.896 182.961 392.896 182.798 392.95 182.65C393.065 182.53 393.21 182.444 393.37 182.4C393.569 182.321 393.773 182.255 393.98 182.2C394.19 182.13 394.41 182.07 394.63 181.98C394.905 181.895 395.135 181.704 395.27 181.45C395.307 181.368 395.324 181.279 395.32 181.19C395.317 181.127 395.3 181.065 395.27 181.01V180.93L395.1 180.64C394.993 180.45 394.899 180.253 394.82 180.05C394.659 179.674 394.624 179.257 394.72 178.86C394.773 178.668 394.869 178.49 395 178.34C395.151 178.208 395.323 178.103 395.51 178.03C395.931 177.849 396.366 177.702 396.81 177.59L396.99 177.54V177.35C396.99 176.49 396.94 175.62 396.91 174.74C396.91 174.35 396.91 173.95 396.91 173.59V173.7C397.355 172.691 398.013 171.79 398.84 171.06C399.017 170.896 399.232 170.778 399.466 170.717C399.7 170.656 399.945 170.654 400.18 170.71C400.646 170.939 401.08 171.228 401.47 171.57C403.19 172.9 404.84 174.19 406.39 175.43C407.17 176.05 407.92 176.66 408.63 177.27C408.989 177.525 409.276 177.87 409.46 178.27C409.63 178.68 409.77 179.11 409.91 179.52C410.44 181.2 410.91 182.79 411.27 184.23C412.02 187.1 412.64 189.43 413.07 191.1C413.28 191.87 413.44 192.49 413.56 192.96C413.541 193.176 413.544 193.394 413.57 193.61Z" fill="#FF9A6C"/>
<path d="M396.61 177.39C396.61 177.47 397.4 177.39 398.61 177.53C399.334 177.642 400.049 177.805 400.75 178.02C401.669 178.15 402.601 178.15 403.52 178.02C404.308 177.909 405.112 177.979 405.869 178.225C406.626 178.471 407.317 178.887 407.89 179.44C408.333 179.932 408.688 180.497 408.94 181.11C408.945 180.754 408.876 180.4 408.738 180.072C408.601 179.743 408.397 179.447 408.14 179.2C407.62 178.628 406.977 178.18 406.26 177.89C405.379 177.548 404.428 177.428 403.49 177.54C402.61 177.65 401.72 177.65 400.84 177.54C400.118 177.339 399.378 177.208 398.63 177.15C397.947 177.096 397.261 177.177 396.61 177.39Z" fill="#FF9A6C"/>
<path d="M399.38 177.18C399.49 177.24 399.81 176.78 399.77 176.13C399.73 175.48 399.36 175.07 399.26 175.13C399.16 175.19 399.26 175.63 399.26 176.13C399.26 176.63 399.25 177.13 399.38 177.18Z" fill="#FF9A6C"/>
<path d="M394.74 181.34C396.718 181.529 398.715 181.373 400.64 180.88C401.339 180.651 402.075 180.556 402.81 180.6C403.379 180.725 403.881 181.057 404.22 181.53C404.515 182.001 404.775 182.492 405 183C405.035 182.394 404.862 181.795 404.51 181.3C404.15 180.718 403.575 180.301 402.91 180.14C402.116 180.047 401.311 180.125 400.55 180.37C397.38 181.09 394.74 181.2 394.74 181.34Z" fill="#FF9A6C"/>
<path d="M393.7 184.9C394.177 185.011 394.673 185.011 395.15 184.9C396.04 184.8 397.24 184.49 398.54 184.23C399.14 184.096 399.755 184.036 400.37 184.05C400.848 184.058 401.31 184.227 401.68 184.53C402.011 184.836 402.239 185.238 402.33 185.68C402.33 185.68 402.42 185.55 402.41 185.28C402.369 184.899 402.196 184.545 401.92 184.28C401.515 183.881 400.978 183.642 400.41 183.61C399.74 183.564 399.066 183.614 398.41 183.76C397.07 184.02 395.91 184.38 395.05 184.56C394.59 184.627 394.137 184.741 393.7 184.9Z" fill="#FF9A6C"/>
<path d="M396 187.72C395.92 187.78 396.59 188.48 397.81 188.48L397.57 188.27C397.57 188.48 397.57 188.69 397.64 188.9C397.672 189.757 397.862 190.601 398.2 191.39C398.333 190.546 398.306 189.684 398.12 188.85L398.03 188.22V188H397.82C397.205 187.975 396.594 187.881 396 187.72Z" fill="#FF9A6C"/>
<path d="M444.71 185.35C444.71 185.35 457.94 188.55 457.91 206.1C457.88 223.65 453.91 232.31 453.91 232.31L429.52 219L435 205.37L444.71 185.35Z" fill="#455A64"/>
<path d="M453.91 232.31C453.734 232.259 453.566 232.185 453.41 232.09L451.99 231.37L446.79 228.63L429.4 219.26L429.2 219.16L429.28 218.95L430.59 215.53C432.15 211.48 433.59 207.62 434.99 204.11C435.67 202.36 436.31 200.69 436.92 199.11C437.452 197.642 438.098 196.218 438.85 194.85C439.855 192.803 441.37 191.05 443.25 189.76C443.778 189.43 444.36 189.196 444.97 189.07C445.125 189.037 445.282 189.017 445.44 189.01H445.61C444.81 189.176 444.047 189.488 443.36 189.93C441.556 191.25 440.114 193.004 439.17 195.03C438.451 196.393 437.833 197.807 437.32 199.26C436.73 200.83 436.1 202.5 435.43 204.26L431.07 215.7L429.76 219.12L429.64 218.8L447 228.33L452.12 231.21L453.49 232.01C453.641 232.094 453.781 232.195 453.91 232.31Z" fill="#263238"/>
</svg>
