<svg width="500" height="500" viewBox="0 0 500 500" fill="none" xmlns="http://www.w3.org/2000/svg">
<path d="M429 464.07C366.86 462.53 303.83 471.17 243 458.32L241.7 460C273.276 478.08 308.976 487.723 345.36 488C365.85 488.12 386.23 485.25 406.51 482.39C424.39 479.87 442.44 477.31 459.31 470.9C450.54 465.06 439.47 464.33 429 464.07Z" fill="#F5F5F5"/>
<path d="M287.14 127.34H232.44V235.77H287.14V127.34Z" fill="#EBEBEB"/>
<path d="M348.35 127.34H289.25V235.77H348.35V127.34Z" fill="#EBEBEB"/>
<path d="M348.35 243.35H289.25V348.12H348.35V243.35Z" fill="#EBEBEB"/>
<path d="M355.93 125.47H418.17V29.28H420.28V125.47H470.93V27.14H355.93V125.47Z" fill="#EBEBEB"/>
<path d="M470.93 127.34H420.28V235.77H470.93V127.34Z" fill="#EBEBEB"/>
<path d="M470.93 243.35H420.28V348.12H470.93V243.35Z" fill="#EBEBEB"/>
<path d="M287.14 243.35H232.44V348.12H287.14V243.35Z" fill="#EBEBEB"/>
<path d="M418.17 243.35H355.93V348.12H418.17V243.35Z" fill="#EBEBEB"/>
<path d="M287.14 349.99H232.44V444.4H287.14V349.99Z" fill="#EBEBEB"/>
<path d="M470.93 349.99H420.28V444.4H470.93V349.99Z" fill="#EBEBEB"/>
<path d="M287.15 125.47V29.28H289.25V125.47H348.35V27.14H232.44V125.47H287.15Z" fill="#EBEBEB"/>
<path d="M418.17 349.99H355.93V444.4H418.17V349.99Z" fill="#EBEBEB"/>
<path d="M348.35 349.99H289.25V444.4H348.35V349.99Z" fill="#EBEBEB"/>
<path d="M418.17 127.34H355.93V235.77H418.17V127.34Z" fill="#EBEBEB"/>
<path d="M193.35 45.98H51.49V172.9H193.35V45.98Z" fill="#FAFAFA"/>
<path d="M193.35 172.9C193.35 172.9 193.35 172.08 193.35 170.54C193.35 169 193.35 166.71 193.35 163.74C193.35 157.74 193.3 149.07 193.26 137.98C193.26 115.8 193.17 84.11 193.1 45.98L193.42 46.3L51.5 46.36L51.87 45.98C51.87 92.15 51.87 135.6 51.87 172.9L51.54 172.56L154.14 172.73L183.08 172.82H190.74H192.74C193.18 172.82 193.42 172.82 193.42 172.82H192.78H190.84H183.24L154.38 172.91L51.56 173.08H51.22V172.75C51.22 135.45 51.22 92 51.22 45.83V45.6H51.61H193.46H193.78V46C193.71 84.22 193.65 116 193.61 138.2C193.61 149.26 193.55 157.95 193.53 163.89C193.53 166.83 193.53 169.09 193.53 170.63C193.53 172.17 193.35 172.9 193.35 172.9Z" fill="#E0E0E0"/>
<path d="M105.88 68.53C105.88 68.74 98.41 68.91 89.2 68.91C79.99 68.91 72.53 68.74 72.53 68.53C72.53 68.32 79.99 68.15 89.2 68.15C98.41 68.15 105.88 68.32 105.88 68.53Z" fill="#E0E0E0"/>
<path d="M166 78.06C166 78.27 145.49 78.44 120.19 78.44C94.89 78.44 74.37 78.27 74.37 78.06C74.37 77.85 94.88 77.68 120.19 77.68C145.5 77.68 166 77.85 166 78.06Z" fill="#E0E0E0"/>
<path d="M78.75 94.2H72.77V100.18H78.75V94.2Z" fill="#E0E0E0"/>
<path d="M93.46 94.2H87.48V100.18H93.46V94.2Z" fill="#E0E0E0"/>
<path d="M108.45 93.93H102.47V99.91H108.45V93.93Z" fill="#E0E0E0"/>
<path d="M122.89 94.2H116.91V100.18H122.89V94.2Z" fill="#E0E0E0"/>
<path d="M137.6 94.2H131.62V100.18H137.6V94.2Z" fill="#E0E0E0"/>
<path d="M152.31 94.2H146.33V100.18H152.31V94.2Z" fill="#E0E0E0"/>
<path d="M167.02 94.2H161.04V100.18H167.02V94.2Z" fill="#EBEBEB"/>
<path d="M78.75 106.91H72.77V112.89H78.75V106.91Z" fill="#EBEBEB"/>
<path d="M93.46 106.91H87.48V112.89H93.46V106.91Z" fill="#E0E0E0"/>
<path d="M108.17 106.91H102.19V112.89H108.17V106.91Z" fill="#EBEBEB"/>
<path d="M122.89 106.91H116.91V112.89H122.89V106.91Z" fill="#E0E0E0"/>
<path d="M137.6 106.91H131.62V112.89H137.6V106.91Z" fill="#E0E0E0"/>
<path d="M152.58 106.63H146.6V112.61H152.58V106.63Z" fill="#E0E0E0"/>
<path d="M167.02 106.91H161.04V112.89H167.02V106.91Z" fill="#E0E0E0"/>
<path d="M78.75 119.61H72.77V125.59H78.75V119.61Z" fill="#E0E0E0"/>
<path d="M93.73 119.34H87.75V125.32H93.73V119.34Z" fill="#E0E0E0"/>
<path d="M108.17 119.61H102.19V125.59H108.17V119.61Z" fill="#E0E0E0"/>
<path d="M122.89 119.61H116.91V125.59H122.89V119.61Z" fill="#EBEBEB"/>
<path d="M137.6 119.61H131.62V125.59H137.6V119.61Z" fill="#E0E0E0"/>
<path d="M152.31 119.61H146.33V125.59H152.31V119.61Z" fill="#E0E0E0"/>
<path d="M167.02 119.61H161.04V125.59H167.02V119.61Z" fill="#E0E0E0"/>
<path d="M78.75 132.32H72.77V138.3H78.75V132.32Z" fill="#E0E0E0"/>
<path d="M93.46 132.32H87.48V138.3H93.46V132.32Z" fill="#E0E0E0"/>
<path d="M108.17 132.32H102.19V138.3H108.17V132.32Z" fill="#E0E0E0"/>
<path d="M123.16 132.05H117.18V138.03H123.16V132.05Z" fill="#E0E0E0"/>
<path d="M137.6 132.32H131.62V138.3H137.6V132.32Z" fill="#E0E0E0"/>
<path d="M152.31 132.32H146.33V138.3H152.31V132.32Z" fill="#EBEBEB"/>
<path d="M167.02 132.32H161.04V138.3H167.02V132.32Z" fill="#E0E0E0"/>
<path d="M78.75 145.02H72.77V151H78.75V145.02Z" fill="#E0E0E0"/>
<path d="M93.46 145.02H87.48V151H93.46V145.02Z" fill="#EBEBEB"/>
<path d="M108.17 145.02H102.19V151H108.17V145.02Z" fill="#E0E0E0"/>
<path d="M122.89 145.02H116.91V151H122.89V145.02Z" fill="#E0E0E0"/>
<path d="M137.6 145.02H131.62V151H137.6V145.02Z" fill="#E0E0E0"/>
<path d="M152.58 144.75H146.6V150.73H152.58V144.75Z" fill="#E0E0E0"/>
<path d="M167.02 145.02H161.04V151H167.02V145.02Z" fill="#E0E0E0"/>
<path d="M78.9 326C76.0905 324.782 73.8466 322.546 72.62 319.74C72.12 318.59 72.11 316.8 73.34 316.54C74.1 316.38 74.78 316.97 75.34 317.54L80.82 322.98C80.2863 321.545 80.045 320.017 80.1103 318.487C80.1755 316.957 80.546 315.455 81.2 314.07C81.67 313.07 82.64 312.07 83.67 312.41C84.47 312.71 84.73 313.7 84.87 314.55L86.19 322.41C86.9123 319.348 88.3946 316.518 90.5 314.18C91.26 313.33 92.5 312.5 93.44 313.1C94.38 313.7 94.25 314.87 94.07 315.86C93.6343 318.318 92.9646 320.729 92.07 323.06C94.4307 320.977 97.4434 319.782 100.59 319.68C101.044 319.613 101.507 319.652 101.944 319.792C102.381 319.932 102.78 320.171 103.11 320.49C103.96 321.57 103.21 323.15 102.31 324.18C99.62 327.18 93.31 328 89.31 327.73" fill="#E0E0E0"/>
<path d="M103.15 332.46C93.34 324.73 76.09 323.64 64.73 328.84C51.9 334.71 43.51 348.36 42.25 361.45C41.06 373.88 47.05 386.45 52.15 397.9L101.72 398.13C107.72 388.3 113.85 377.31 114.26 365.83C114.67 354.35 112.18 339.56 103.15 332.46Z" fill="#EBEBEB"/>
<path d="M80.92 325.64L80.7 325.7L80.05 325.86L79.05 326.09C78.5662 326.169 78.0908 326.293 77.63 326.46C74.6259 327.314 71.7864 328.666 69.23 330.46C65.4621 333.157 62.2216 336.522 59.67 340.39C58.1677 342.671 56.8309 345.057 55.67 347.53C54.4506 350.201 53.4213 352.954 52.59 355.77C51.0514 361.236 50.7642 366.978 51.75 372.57C52.5454 377.154 53.7777 381.651 55.43 386C56.8 389.71 58.03 392.68 58.84 394.75C59.23 395.75 59.54 396.55 59.76 397.13C59.86 397.38 59.93 397.59 59.99 397.76L60.06 397.97C60.06 397.97 60.01 397.91 59.95 397.77L59.68 397.17C59.43 396.6 59.1 395.81 58.68 394.82C57.82 392.82 56.55 389.82 55.13 386.11C53.4098 381.777 52.1202 377.285 51.28 372.7C50.2542 367.045 50.5312 361.231 52.09 355.7C52.9297 352.863 53.9689 350.09 55.2 347.4C56.3819 344.909 57.7421 342.506 59.27 340.21C61.8614 336.299 65.1615 332.907 69 330.21C71.5996 328.419 74.4886 327.089 77.54 326.28C78.0187 326.149 78.5068 326.056 79 326L80.07 325.81L80.72 325.71L80.92 325.64Z" fill="#E0E0E0"/>
<path d="M95.36 397.73C95.4117 397.476 95.4888 397.228 95.59 396.99L96.33 394.9C96.98 393.09 97.93 390.46 99.04 387.2C100.15 383.94 101.4 380.04 102.48 375.62C103.694 370.831 104.435 365.934 104.69 361C104.898 356.075 104.386 351.147 103.17 346.37C102.189 342.469 100.621 338.74 98.52 335.31C97.103 333.001 95.3995 330.881 93.45 329C92.79 328.3 92.18 327.86 91.82 327.51C91.6143 327.347 91.4236 327.167 91.25 326.97C91.4707 327.108 91.6812 327.262 91.88 327.43C92.26 327.76 92.88 328.18 93.58 328.86C95.5857 330.721 97.3405 332.836 98.8 335.15C100.961 338.591 102.577 342.345 103.59 346.28C104.84 351.095 105.366 356.07 105.15 361.04C104.897 365.993 104.143 370.908 102.9 375.71C101.79 380.14 100.5 384.05 99.35 387.3C98.2 390.55 97.2 393.17 96.5 395C96.15 395.87 95.88 396.56 95.68 397.07C95.5881 397.297 95.4812 397.517 95.36 397.73Z" fill="#E0E0E0"/>
<path d="M85.78 325.93C85.7392 326.175 85.6755 326.416 85.59 326.65L84.94 328.71C84.65 329.59 84.31 330.71 83.94 331.96C83.57 333.21 83.1 334.67 82.67 336.28C81.74 339.49 80.77 343.34 79.79 347.64C78.81 351.94 77.92 356.71 77.16 361.75C76.4 366.79 75.94 371.62 75.64 376.02C75.53 378.22 75.38 380.31 75.36 382.28C75.36 383.28 75.36 384.2 75.3 385.11C75.24 386.02 75.3 386.9 75.3 387.73C75.3 389.4 75.37 390.91 75.41 392.23C75.45 393.55 75.51 394.7 75.58 395.63C75.65 396.56 75.68 397.25 75.71 397.78C75.732 398.03 75.732 398.28 75.71 398.53C75.6597 398.286 75.6262 398.039 75.61 397.79C75.55 397.26 75.48 396.54 75.39 395.65C75.3 394.76 75.2 393.57 75.14 392.25C75.08 390.93 74.97 389.41 74.96 387.74C74.96 386.9 74.96 386.03 74.96 385.11C74.96 384.19 74.96 383.25 74.96 382.27C74.96 380.27 75.1 378.2 75.2 375.99C75.48 371.58 75.95 366.73 76.69 361.68C77.43 356.63 78.39 351.86 79.36 347.55C80.33 343.24 81.36 339.39 82.36 336.19C82.82 334.58 83.29 333.14 83.7 331.88C84.11 330.62 84.46 329.53 84.78 328.65C85.1 327.77 85.33 327.13 85.51 326.65C85.5809 326.403 85.6712 326.163 85.78 325.93Z" fill="#E0E0E0"/>
<path d="M43.83 365.4C42.7794 366.139 41.6406 366.744 40.44 367.2C39.3059 367.801 38.104 368.264 36.86 368.58C37.9122 367.844 39.0507 367.239 40.25 366.78C41.3849 366.181 42.5865 365.718 43.83 365.4Z" fill="#E0E0E0"/>
<path d="M45.4 351.16C44.0948 350.672 42.8473 350.041 41.68 349.28C40.437 348.655 39.2695 347.89 38.2 347C39.5052 347.488 40.7527 348.119 41.92 348.88C43.163 349.505 44.3306 350.27 45.4 351.16Z" fill="#E0E0E0"/>
<path d="M54.45 339.4C53.7709 338.507 53.219 337.524 52.81 336.48C52.2585 335.506 51.8477 334.459 51.59 333.37C52.2677 334.26 52.8195 335.239 53.23 336.28C53.7756 337.26 54.186 338.31 54.45 339.4Z" fill="#E0E0E0"/>
<path d="M66.87 328.29C66.1668 327.724 65.559 327.049 65.07 326.29C64.4731 325.611 63.9933 324.837 63.65 324C64.3586 324.56 64.9672 325.236 65.45 326C66.0532 326.675 66.5338 327.45 66.87 328.29Z" fill="#E0E0E0"/>
<path d="M49.45 382.8C48.3835 383.64 47.2262 384.358 46 384.94C44.8413 385.658 43.6029 386.238 42.31 386.67C43.3809 385.826 44.5452 385.108 45.78 384.53C46.9313 383.812 48.1631 383.231 49.45 382.8Z" fill="#E0E0E0"/>
<path d="M64.25 374.14C63.1338 373.773 62.0686 373.265 61.08 372.63C60.0208 372.12 59.0325 371.475 58.14 370.71C59.2583 371.072 60.3242 371.58 61.31 372.22C62.3716 372.725 63.3605 373.371 64.25 374.14Z" fill="#E0E0E0"/>
<path d="M68.37 354.34C67.467 355.081 66.4321 355.644 65.32 356C64.2696 356.493 63.1373 356.788 61.98 356.87C62.9958 356.343 64.0567 355.908 65.15 355.57C66.1879 355.073 67.2648 354.661 68.37 354.34Z" fill="#E0E0E0"/>
<path d="M73.08 339.42C72.4643 338.727 72.0221 337.897 71.79 337C71.4127 336.156 71.2479 335.232 71.31 334.31C71.7055 335.123 72.0172 335.974 72.24 336.85C72.6067 337.676 72.8882 338.537 73.08 339.42Z" fill="#E0E0E0"/>
<path d="M62.57 393.56C62.8703 392.398 63.3173 391.279 63.9 390.23C64.3516 389.118 64.9394 388.067 65.65 387.1C65.3606 388.265 64.9131 389.386 64.32 390.43C63.8789 391.547 63.2903 392.599 62.57 393.56Z" fill="#E0E0E0"/>
<path d="M87.56 388.25C86.4357 387.577 85.4512 386.694 84.66 385.65C83.7593 384.708 83.0435 383.606 82.55 382.4C83.4259 383.356 84.2504 384.357 85.02 385.4C85.9143 386.306 86.7621 387.258 87.56 388.25Z" fill="#E0E0E0"/>
<path d="M96.22 366.46C95.1526 367.334 93.9923 368.089 92.76 368.71C91.6042 369.462 90.3661 370.079 89.07 370.55C90.1354 369.673 91.296 368.918 92.53 368.3C93.6831 367.543 94.9217 366.926 96.22 366.46Z" fill="#E0E0E0"/>
<path d="M90.39 353.05C91.1675 351.997 92.0671 351.041 93.07 350.2C93.9684 349.249 94.9753 348.406 96.07 347.69C95.2921 348.742 94.3925 349.699 93.39 350.54C92.4916 351.491 91.4847 352.334 90.39 353.05Z" fill="#E0E0E0"/>
<path d="M90.65 338.83C89.6564 338.318 88.7378 337.672 87.92 336.91C87.0053 336.266 86.1842 335.499 85.48 334.63C86.475 335.14 87.3939 335.786 88.21 336.55C89.1246 337.194 89.9457 337.961 90.65 338.83Z" fill="#E0E0E0"/>
<path d="M107.17 329.42C106.362 330.207 105.45 330.88 104.46 331.42C103.543 332.111 102.533 332.67 101.46 333.08C102.266 332.277 103.178 331.588 104.17 331.03C105.091 330.358 106.101 329.816 107.17 329.42Z" fill="#E0E0E0"/>
<path d="M113.54 342.45C112.624 342.75 111.664 342.899 110.7 342.89C109.753 343.044 108.787 343.044 107.84 342.89C108.754 342.595 109.709 342.446 110.67 342.45C111.621 342.303 112.589 342.303 113.54 342.45Z" fill="#E0E0E0"/>
<path d="M117.69 357.87C116.486 357.977 115.274 357.937 114.08 357.75C112.87 357.712 111.67 357.517 110.51 357.17C111.714 357.063 112.926 357.103 114.12 357.29C115.33 357.327 116.53 357.522 117.69 357.87Z" fill="#E0E0E0"/>
<path d="M115.63 377.74C114.423 376.857 113.31 375.852 112.31 374.74C111.2 373.723 110.195 372.598 109.31 371.38C110.515 372.265 111.628 373.27 112.63 374.38C113.742 375.395 114.747 376.521 115.63 377.74Z" fill="#E0E0E0"/>
<path d="M110.21 393.05C107.744 391.128 105.719 388.7 104.27 385.93C104.38 385.85 105.58 387.55 107.27 389.51C108.96 391.47 110.3 393 110.21 393.05Z" fill="#E0E0E0"/>
<path d="M117.21 397.13H38.02V411.17H117.21V397.13Z" fill="#EBEBEB"/>
<path d="M44.52 407.56L54.15 449.51H101.35L111.88 407.56H44.52Z" fill="#EBEBEB"/>
<path d="M117.17 411.19C117.17 411.34 99.31 411.47 77.28 411.47C55.25 411.47 37.38 411.34 37.38 411.19C37.38 411.04 55.24 410.91 77.28 410.91C99.32 410.91 117.17 411 117.17 411.19Z" fill="#E0E0E0"/>
<path d="M332.72 227.54C332.12 218.13 328.16 209.15 322.61 201.54C319.82 197.7 316.53 193.97 315.53 189.33C314.21 183.15 317.14 176.06 313.76 170.71C311.39 166.94 306.57 165.38 303.87 161.84C300.96 158.04 301.03 152.79 299.31 148.33C297.59 143.87 291.79 140.03 288.24 143.25C287.56 134.84 288.92 130.12 281.75 125.69C274.58 121.26 260.44 123.4 257.69 131.37C251.59 126.27 240.44 121.37 233.43 125.11C229.11 127.43 225.8 131.23 221.78 134.05C215.55 138.41 207.94 140.22 200.97 143.29C194 146.36 187.11 151.45 185.49 158.89C184.3 164.38 186.22 170.15 185.21 175.67C184.35 180.32 181.51 184.31 179.33 188.5C177.5 192.011 176.103 195.732 175.17 199.58C173.35 207.08 174.36 216.75 181.36 220C178.835 220.721 176.645 222.307 175.172 224.48C173.7 226.654 173.039 229.276 173.306 231.888C173.573 234.5 174.751 236.935 176.633 238.765C178.515 240.596 180.982 241.705 183.6 241.9L171.81 263.27C170.72 265.27 169.59 267.43 169.96 269.66C170.48 272.77 173.85 274.73 176.96 274.76C180.07 274.79 183.07 273.38 185.89 272C186.884 273.855 188.374 275.398 190.194 276.455C192.014 277.512 194.093 278.042 196.197 277.986C198.301 277.93 200.348 277.29 202.109 276.137C203.87 274.985 205.276 273.365 206.17 271.46C207.36 273.654 209.117 275.488 211.258 276.771C213.399 278.053 215.846 278.737 218.342 278.75C220.837 278.763 223.291 278.106 225.446 276.846C227.6 275.587 229.377 273.771 230.59 271.59L278.47 260.59L314.57 257.26C319.81 256.77 325.65 255.96 328.86 251.8C330.94 249.09 331.42 245.51 331.86 242.12C332.589 237.296 332.877 232.416 332.72 227.54Z" fill="#263238"/>
<path d="M249.12 360L226 298.66L238 286.66L237.53 282.8C236.22 273.15 235.74 269.19 235.74 269.28C235.74 269.37 214.94 268.41 207.44 242.34C203.71 229.34 201.7 207.6 200.63 189.74C199.63 173.66 207.83 152.74 223.93 152.51L275.12 158.94C277.48 158.897 279.769 159.742 281.536 161.307C283.302 162.872 284.417 165.043 284.66 167.39L293.53 275L300.32 280.81L308.5 355.34L249.12 360Z" fill="#B47266"/>
<path d="M233 225.51C233 225.3 230.67 225.18 226.91 225.17C225.91 225.17 225.05 225.11 224.81 224.49C224.617 223.529 224.718 222.532 225.1 221.63L226.99 214.16C229.59 203.52 231.34 194.83 230.91 194.72C230.48 194.61 228.03 203.16 225.43 213.8C224.82 216.42 224.23 218.91 223.66 221.3C223.44 222.41 222.98 223.69 223.66 225.04C223.837 225.353 224.083 225.622 224.379 225.826C224.676 226.031 225.014 226.165 225.37 226.22C225.908 226.289 226.452 226.289 226.99 226.22C230.66 226 233 225.72 233 225.51Z" fill="#263238"/>
<path d="M235.77 269.25C248.317 267.897 260.243 263.089 270.22 255.36C270.22 255.36 263.55 275 236.62 275.79L235.77 269.25Z" fill="#89544C"/>
<path d="M234.24 234.94C236.24 232.67 241.77 229.06 243.59 228.61C245.41 228.16 245.3 230.39 246.59 231.97C247.244 232.833 247.648 233.86 247.759 234.937C247.871 236.014 247.684 237.101 247.22 238.08C246.09 240.31 243.71 242.24 241.54 242C239.37 241.76 237.33 239.59 235.54 238.34C235.002 238.03 234.543 237.598 234.2 237.08C234.025 236.791 233.926 236.463 233.912 236.125C233.898 235.788 233.969 235.452 234.12 235.15" fill="#89544C"/>
<path d="M239.31 185.68C239.79 186.63 243.4 185.68 247.77 185.68C252.14 185.68 255.77 186.42 256.22 185.45C256.43 184.99 255.71 184.13 254.22 183.34C252.21 182.361 249.995 181.877 247.76 181.93C245.523 181.938 243.319 182.476 241.33 183.5C239.79 184.34 239.09 185.22 239.31 185.68Z" fill="#263238"/>
<path d="M206.25 189.34C207 190.09 209.42 188.92 212.46 188.5C215.5 188.08 218.14 188.37 218.62 187.43C218.83 186.97 218.32 186.18 217.1 185.53C215.468 184.766 213.645 184.505 211.864 184.781C210.083 185.057 208.424 185.857 207.1 187.08C206.16 188.07 205.92 189 206.25 189.34Z" fill="#263238"/>
<path d="M281.75 200.63C282.09 200.41 295.92 193.95 297.75 208.8C299.58 223.65 284.24 222.39 284.16 222C284.08 221.61 281.75 200.63 281.75 200.63Z" fill="#B47266"/>
<path d="M288 215.8C288.06 215.74 288.28 215.95 288.74 216.09C289.387 216.282 290.083 216.214 290.68 215.9C292.18 215.13 293.2 212.48 292.94 209.8C292.828 208.52 292.428 207.283 291.77 206.18C291.576 205.733 291.276 205.34 290.896 205.036C290.516 204.731 290.068 204.523 289.59 204.43C289.282 204.39 288.969 204.458 288.705 204.622C288.441 204.786 288.241 205.036 288.14 205.33C288 205.77 288.14 206.05 288.05 206.09C287.96 206.13 287.7 205.88 287.75 205.25C287.781 204.871 287.948 204.516 288.22 204.25C288.402 204.071 288.617 203.93 288.854 203.835C289.091 203.741 289.345 203.695 289.6 203.7C290.231 203.743 290.84 203.95 291.366 204.301C291.892 204.652 292.317 205.134 292.6 205.7C293.388 206.898 293.869 208.272 294 209.7C294.27 212.7 293.08 215.7 291 216.57C290.614 216.735 290.196 216.81 289.777 216.791C289.358 216.772 288.949 216.659 288.58 216.46C288.09 216.15 288 215.83 288 215.8Z" fill="#89544C"/>
<path d="M294.92 220.06C294.92 220.12 295.33 220.19 295.97 220.55C296.86 221.076 297.56 221.871 297.97 222.82C298.29 223.496 298.425 224.244 298.362 224.989C298.299 225.733 298.039 226.448 297.61 227.06C297.086 227.808 296.367 228.398 295.532 228.767C294.696 229.135 293.776 229.268 292.87 229.15C292.048 228.99 291.275 228.64 290.612 228.128C289.949 227.617 289.415 226.957 289.052 226.203C288.689 225.448 288.506 224.619 288.52 223.782C288.534 222.945 288.743 222.122 289.13 221.38C289.604 220.448 290.289 219.64 291.13 219.02C291.479 218.825 291.814 218.605 292.13 218.36C291.732 218.423 291.353 218.574 291.02 218.8C290.073 219.376 289.294 220.189 288.76 221.16C288.342 221.884 288.086 222.69 288.012 223.522C287.938 224.355 288.046 225.194 288.33 225.98C288.677 226.955 289.274 227.822 290.059 228.496C290.845 229.169 291.793 229.626 292.81 229.82C293.841 229.959 294.89 229.806 295.839 229.381C296.787 228.955 297.598 228.272 298.18 227.41C298.695 226.658 298.977 225.771 298.99 224.86C298.988 224.078 298.803 223.307 298.45 222.61C297.965 221.598 297.141 220.787 296.12 220.32C295.754 220.118 295.337 220.028 294.92 220.06Z" fill="#455A64"/>
<path d="M240 241.56C240 241.51 240.16 241.56 240.36 241.63C240.622 241.778 240.896 241.902 241.18 242C241.706 242.089 242.245 242.067 242.762 241.935C243.279 241.802 243.762 241.562 244.18 241.23C244.84 240.884 245.438 240.431 245.95 239.89C246.537 239.283 247.02 238.584 247.38 237.82C247.745 237.026 247.847 236.136 247.67 235.28C247.423 234.329 246.958 233.449 246.31 232.71C244.99 231.06 243.31 229.66 241.75 229.78C240.942 229.897 240.173 230.198 239.5 230.66C238.79 231.11 238.11 231.56 237.5 231.97C235.09 233.6 234.14 235.14 233.94 235.04C233.74 234.94 233.94 234.52 234.41 233.78C235.066 232.765 235.88 231.86 236.82 231.1C237.4 230.61 238.04 230.1 238.82 229.59C239.639 228.937 240.615 228.509 241.65 228.35C242.856 228.277 244.049 228.631 245.02 229.35C245.982 230.027 246.838 230.842 247.56 231.77C248.36 232.698 248.923 233.806 249.2 235C249.419 236.172 249.25 237.383 248.72 238.45C248.488 238.924 248.203 239.37 247.87 239.78C247.56 240.155 247.226 240.509 246.87 240.84C246.231 241.436 245.489 241.91 244.68 242.24C244.051 242.556 243.376 242.772 242.68 242.88C242.221 242.956 241.749 242.903 241.318 242.726C240.887 242.55 240.514 242.257 240.24 241.88C240.07 241.71 240 241.6 240 241.56Z" fill="#263238"/>
<path d="M294.6 246.9C294.669 246.887 294.741 246.887 294.81 246.9L295.39 246.96C296.153 247.01 296.92 246.993 297.68 246.91C300.561 246.568 303.277 245.386 305.49 243.51C308.83 240.536 311.17 236.604 312.19 232.25C312.91 229.625 313.246 226.911 313.19 224.19C313.147 221.192 312.352 218.252 310.88 215.64L310.82 215.54L310.87 215.43C311.914 213.169 312.493 210.722 312.573 208.233C312.653 205.745 312.232 203.265 311.334 200.942C310.437 198.62 309.082 196.501 307.349 194.712C305.617 192.924 303.543 191.501 301.25 190.53L300.86 190.36L301.19 190.08C301.861 189.536 302.407 188.854 302.79 188.08C303.695 186.13 303.814 183.905 303.12 181.87C302.423 179.877 301.339 178.042 299.93 176.47C298.636 174.881 297.06 173.545 295.28 172.53C293.596 171.509 291.593 171.152 289.66 171.53L289.08 171.67L289.39 171.16C290.346 169.616 290.818 167.821 290.746 166.006C290.674 164.191 290.061 162.44 288.986 160.976C287.911 159.512 286.423 158.402 284.713 157.79C283.004 157.178 281.15 157.091 279.39 157.54L279.05 157.63L279.15 157.29C279.676 155.442 279.751 153.495 279.368 151.612C278.986 149.729 278.156 147.966 276.95 146.47C276.419 145.849 275.811 145.297 275.14 144.83C274.522 144.408 273.849 144.072 273.14 143.83C271.879 143.395 270.539 143.234 269.21 143.36C268.141 143.456 267.096 143.734 266.12 144.18C265.413 144.517 264.757 144.952 264.17 145.47C263.703 145.926 263.272 146.418 262.88 146.94C262.956 146.793 263.042 146.653 263.14 146.52C263.409 146.106 263.728 145.726 264.09 145.39C264.684 144.836 265.359 144.374 266.09 144.02C267.075 143.55 268.134 143.252 269.22 143.14C270.585 142.985 271.968 143.132 273.27 143.57C274.013 143.805 274.719 144.142 275.37 144.57C276.067 145.05 276.702 145.614 277.26 146.25C278.514 147.783 279.382 149.596 279.789 151.535C280.196 153.473 280.131 155.482 279.6 157.39L279.35 157.14C281.192 156.677 283.131 156.773 284.919 157.417C286.706 158.06 288.262 159.221 289.386 160.753C290.511 162.284 291.154 164.116 291.233 166.014C291.312 167.912 290.823 169.791 289.83 171.41L289.56 171.04C291.615 170.623 293.751 170.979 295.56 172.04C297.397 173.085 299.025 174.461 300.36 176.1C301.815 177.72 302.933 179.614 303.65 181.67C304.393 183.833 304.264 186.201 303.29 188.27C302.882 189.119 302.291 189.867 301.56 190.46L301.5 190.02C303.858 191.013 305.99 192.472 307.77 194.309C309.55 196.147 310.941 198.324 311.859 200.712C312.777 203.1 313.203 205.649 313.112 208.205C313.021 210.762 312.415 213.273 311.33 215.59V215.38C312.842 218.057 313.648 221.075 313.67 224.15C313.716 226.911 313.355 229.664 312.6 232.32C311.545 236.741 309.132 240.72 305.7 243.7C303.429 245.589 300.641 246.749 297.7 247.03C296.932 247.104 296.158 247.104 295.39 247.03L294.8 246.93L294.6 246.9Z" fill="#455A64"/>
<path d="M289.65 193.45C289.26 183.38 288.83 173.1 285.22 163.69C284.529 161.509 283.293 159.541 281.63 157.97C280.143 156.859 278.44 156.072 276.63 155.66C273.84 154.87 273.08 152.98 270.19 152.77C259.19 143.42 243.4 140.22 229.46 143.98C215.52 147.74 203.65 158.19 197.63 171.32C191.705 184.684 191.274 199.841 196.43 213.52C195.5 202.82 202.28 192.79 210.59 185.98C218.9 179.17 228.84 174.65 237.59 168.48C237.512 169.969 237.114 171.424 236.424 172.746C235.734 174.067 234.767 175.225 233.59 176.14C240.53 174.28 247.59 172.38 253.84 168.92C255.249 168.152 256.608 167.297 257.91 166.36C258.05 167.994 258.501 169.586 259.24 171.05C261.59 175.66 266.63 178.12 270.47 181.59C270.97 181.982 271.37 182.485 271.64 183.06C271.881 184.009 271.814 185.011 271.45 185.92C270.468 188.912 270.127 192.077 270.45 195.21C270.92 198.31 272.66 201.36 275.45 202.71C274.41 204.346 273.907 206.267 274.011 208.203C274.115 210.139 274.821 211.994 276.03 213.51C276.355 213.973 276.833 214.305 277.38 214.45C278.29 214.58 279.05 213.79 279.57 213.03C281.105 210.817 282.158 208.306 282.66 205.66C282.736 204.532 283.079 203.439 283.66 202.47C284.66 201.2 286.52 200.94 287.75 199.87C289.69 198.36 289.74 195.74 289.65 193.45Z" fill="#263238"/>
<path d="M211.44 170.18C211.486 169.925 211.552 169.674 211.64 169.43C211.898 168.728 212.234 168.058 212.64 167.43C214.1 165.084 216.399 163.382 219.07 162.67L218.92 162.85C219.075 161.404 219.374 159.977 219.81 158.59C220.319 157.038 220.99 155.543 221.81 154.13C223.714 150.955 226.377 148.302 229.56 146.41C230.984 145.543 232.518 144.871 234.12 144.41C234.913 144.206 235.736 144.145 236.55 144.23C237.373 144.316 238.134 144.709 238.68 145.33H238.29C240.091 143.005 242.405 141.126 245.05 139.84C247.41 138.67 249.87 138.18 251.78 138.75C252.527 138.954 253.214 139.332 253.786 139.854C254.358 140.375 254.798 141.025 255.07 141.75C255.205 142.135 255.269 142.542 255.26 142.95C255.265 143.089 255.245 143.228 255.2 143.36C255.198 142.83 255.1 142.305 254.91 141.81C254.62 141.14 254.179 140.545 253.623 140.071C253.066 139.598 252.408 139.259 251.7 139.08C249.88 138.58 247.53 139.08 245.24 140.25C242.673 141.535 240.43 143.384 238.68 145.66L238.49 145.9L238.3 145.67C237.4 144.59 235.71 144.56 234.24 144.93C232.689 145.374 231.203 146.019 229.82 146.85C226.715 148.705 224.11 151.29 222.23 154.38C221.413 155.756 220.742 157.214 220.23 158.73C219.787 160.083 219.475 161.477 219.3 162.89V163H219.17C216.571 163.661 214.309 165.26 212.82 167.49C212.283 168.345 211.821 169.245 211.44 170.18Z" fill="#455A64"/>
<path d="M193.39 259.63L193.14 260.01L192.34 261.14L192.28 261.22V261.12C191.215 257.894 190.678 254.517 190.69 251.12C190.689 245.089 192.328 239.172 195.43 234L195.52 234.28C193.562 233.355 191.903 231.897 190.734 230.074C189.566 228.251 188.933 226.136 188.91 223.97C188.881 222.792 189.057 221.618 189.43 220.5C189.639 219.969 189.8 219.42 189.91 218.86C189.944 218.596 189.922 218.327 189.844 218.072C189.767 217.816 189.636 217.581 189.46 217.38C189.061 216.945 188.63 216.54 188.17 216.17C187.705 215.759 187.265 215.321 186.85 214.86C186.01 213.917 185.273 212.888 184.65 211.79C182.996 208.841 182.259 205.465 182.533 202.095C182.808 198.725 184.081 195.513 186.19 192.87C186.625 192.316 187.096 191.792 187.6 191.3C188.1 190.82 188.6 190.35 188.6 189.76C188.496 189.097 188.311 188.449 188.05 187.83C187.815 187.153 187.624 186.462 187.48 185.76C187.173 184.344 187.025 182.899 187.04 181.45C187.033 178.393 187.692 175.372 188.969 172.595C190.247 169.819 192.114 167.353 194.44 165.37C195.56 164.42 196.82 163.67 197.37 162.37C197.638 161.725 197.842 161.055 197.98 160.37C198.16 159.68 198.39 159 198.59 158.32C199.52 155.701 200.942 153.284 202.78 151.2C206.171 147.301 210.731 144.6 215.78 143.5C218.054 143.047 220.382 142.933 222.69 143.16C223.203 143.204 223.718 143.107 224.18 142.88C224.601 142.588 224.989 142.253 225.34 141.88L226.5 140.79L227.71 139.79C229.26 138.624 230.937 137.637 232.71 136.85C234.298 136.164 235.949 135.634 237.64 135.27C240.343 134.669 243.127 134.517 245.88 134.82C247.625 135.025 249.342 135.421 251 136L252.26 136.5L252.69 136.69L252.24 136.55L250.97 136.1C249.311 135.599 247.606 135.264 245.88 135.1C243.149 134.838 240.394 135.017 237.72 135.63C236.056 136.009 234.432 136.544 232.87 137.23C231.126 138.021 229.476 139.003 227.95 140.16L226.77 141.16L225.63 142.24C225.261 142.651 224.845 143.017 224.39 143.33C223.869 143.599 223.284 143.717 222.7 143.67C222.13 143.67 221.58 143.59 221.02 143.59C220.461 143.555 219.899 143.555 219.34 143.59C218.181 143.649 217.027 143.796 215.89 144.03C210.951 145.137 206.497 147.797 203.18 151.62C201.384 153.67 199.998 156.047 199.1 158.62C198.91 159.28 198.68 159.94 198.51 160.62C198.362 161.332 198.148 162.028 197.87 162.7C197.24 164.14 195.87 164.94 194.8 165.86C192.538 167.798 190.722 170.203 189.479 172.91C188.236 175.617 187.595 178.561 187.6 181.54C187.587 182.952 187.731 184.36 188.03 185.74C188.173 186.418 188.36 187.086 188.59 187.74C188.876 188.414 189.068 189.124 189.16 189.85C189.096 190.228 188.958 190.589 188.754 190.914C188.549 191.238 188.283 191.519 187.97 191.74C187.485 192.22 187.027 192.728 186.6 193.26C184.167 196.319 182.894 200.141 183.008 204.048C183.121 207.956 184.613 211.697 187.22 214.61C187.618 215.061 188.042 215.489 188.49 215.89C188.973 216.274 189.421 216.699 189.83 217.16C190.045 217.409 190.206 217.701 190.3 218.016C190.395 218.332 190.422 218.663 190.38 218.99C190.268 219.582 190.097 220.162 189.87 220.72C189.515 221.787 189.343 222.906 189.36 224.03C189.37 226.122 189.969 228.168 191.086 229.936C192.203 231.704 193.795 233.123 195.68 234.03L195.88 234.12L195.77 234.31C194.054 237.1 192.772 240.134 191.97 243.31C190.46 249.217 190.595 255.424 192.36 261.26H192.27L193.1 260.16C193.185 259.977 193.281 259.8 193.39 259.63Z" fill="#455A64"/>
<path d="M282.54 127.53C280.971 127.33 279.392 127.22 277.81 127.2C276.113 127.228 274.443 127.631 272.92 128.38C271.057 129.285 269.622 130.882 268.92 132.83C268.81 133.183 268.73 133.544 268.68 133.91V134.15H268.45C266.504 134.074 264.567 134.437 262.78 135.21C261.343 135.849 260.104 136.86 259.19 138.14C258.575 138.997 258.139 139.97 257.91 141C257.76 141.73 257.75 142.15 257.71 142.15C257.67 142.15 257.71 142.05 257.71 141.85C257.701 141.556 257.718 141.261 257.76 140.97C257.925 139.895 258.328 138.87 258.94 137.97C259.856 136.603 261.128 135.514 262.62 134.82C264.466 133.979 266.483 133.582 268.51 133.66L268.24 133.89C268.289 133.493 268.376 133.101 268.5 132.72C269.226 130.656 270.734 128.961 272.7 128C274.296 127.243 276.044 126.86 277.81 126.88C278.982 126.884 280.152 127.004 281.3 127.24C281.724 127.285 282.14 127.383 282.54 127.53Z" fill="#455A64"/>
<path d="M241.22 349.46L315.62 346.91L322.52 448.51L257.42 449.42L241.22 349.46Z" fill="#E0E0E0"/>
<path d="M299.12 274C300.12 272.73 355.61 310.37 358.12 314.87C360.63 319.37 374 449.43 374 449.43H301.51C301.51 449.43 294.85 342.31 295.2 332.43C295.55 322.55 299.12 274 299.12 274Z" fill="#FC7300"/>
<path d="M131.8 450C131.8 450 123.62 433.17 124.53 425C125.44 416.83 131.8 400.44 131.8 400.44L148.17 371.34C148.17 371.34 151.45 347.09 153.26 342.54C155.07 337.99 164.66 307.23 176 300C187.34 292.77 221.82 287.81 221.82 287.81L237.09 276.47C237.09 276.47 252.28 321.32 254.55 333.6C256.82 345.88 269.55 450 269.55 450H131.8Z" fill="#FC7300"/>
<path d="M259.45 371.77C259.383 371.705 259.326 371.631 259.28 371.55L258.81 370.9L257.07 368.34L250.75 358.9C248.09 354.9 244.94 350.13 241.43 344.9L235.95 336.6C234.07 333.73 232.03 330.6 231.34 326.92C230.975 324.71 231.101 322.446 231.71 320.29C232.271 318.244 232.972 316.239 233.81 314.29L234.12 314.62L224.12 318.1L223.84 318.19V317.89C223.17 309.18 222.61 301.84 222.21 296.63C222.03 294.07 221.89 292.04 221.79 290.63C221.79 289.96 221.72 289.44 221.7 289.04C221.685 288.857 221.685 288.673 221.7 288.49C221.742 288.667 221.769 288.848 221.78 289.03C221.78 289.43 221.88 289.95 221.95 290.62C222.08 292.05 222.26 294.08 222.5 296.62C222.94 301.82 223.57 309.16 224.31 317.87L224 317.67L234 314.15L234.52 313.97L234.32 314.49C233.493 316.416 232.801 318.398 232.25 320.42C231.66 322.504 231.538 324.693 231.89 326.83C232.55 330.39 234.55 333.45 236.41 336.32C238.27 339.19 240.13 341.98 241.87 344.64L251.1 358.74L257.28 368.28L258.94 370.89L259.36 371.57C259.41 371.68 259.46 371.76 259.45 371.77Z" fill="#263238"/>
<path d="M207.15 447.81C207.1 447.713 207.066 447.608 207.05 447.5L206.81 446.58C206.61 445.73 206.33 444.58 205.96 443.02C205.25 439.9 204.23 435.43 202.96 429.92C200.52 418.81 197.16 403.52 193.44 386.63L184 343.31C182.78 337.79 181.8 333.31 181.11 330.19C180.783 328.663 180.523 327.473 180.33 326.62C180.25 326.23 180.19 325.92 180.14 325.69C180.124 325.581 180.124 325.469 180.14 325.36C180.14 325.36 180.14 325.47 180.23 325.67C180.32 325.87 180.38 326.21 180.47 326.59C180.68 327.44 180.98 328.59 181.35 330.14C182.09 333.23 183.14 337.7 184.35 343.23C186.87 354.29 190.25 369.6 193.93 386.52C197.61 403.44 200.93 418.73 203.3 429.84C204.48 435.37 205.45 439.84 206.12 442.98C206.44 444.51 206.7 445.7 206.88 446.55C206.95 446.94 207.01 447.25 207.06 447.49C207.11 447.73 207.15 447.81 207.15 447.81Z" fill="#263238"/>
<g opacity="0.3">
<path d="M200.57 448.51C207.924 444.151 216.185 441.55 224.71 440.91C231.26 440.43 238.02 441.1 244.27 439.07C251.27 436.8 256.78 431.44 262.01 426.24C263.55 424.93 264.76 423.275 265.54 421.41C266.17 419.5 265.64 417.05 263.85 416.13C262.47 415.42 260.8 415.79 259.3 416.21C237.238 422.31 216.786 433.183 199.39 448.06" fill="black"/>
</g>
<path d="M181.19 411C181.19 411 180.79 410.44 180.1 409.41C179.116 407.973 178.037 406.603 176.87 405.31C173.044 400.995 168.244 397.655 162.868 395.568C157.492 393.481 151.695 392.707 145.96 393.31C144.226 393.48 142.505 393.767 140.81 394.17C140.191 394.35 139.564 394.496 138.93 394.61C139.076 394.522 139.234 394.458 139.4 394.42C139.71 394.31 140.16 394.14 140.76 393.98C142.449 393.503 144.175 393.169 145.92 392.98C151.718 392.269 157.603 393.001 163.051 395.11C168.499 397.219 173.342 400.64 177.15 405.07C178.303 406.397 179.346 407.815 180.27 409.31C180.61 409.84 180.82 410.31 180.98 410.55C181.14 410.79 181.21 411 181.19 411Z" fill="#263238"/>
<path d="M189.15 407.05C189.15 407.05 189.05 406.9 188.91 406.59L188.34 405.23C188.1 404.64 187.81 403.92 187.4 403.11C186.99 402.3 186.6 401.35 186.02 400.36L185.16 398.79C184.86 398.25 184.5 397.71 184.16 397.14C183.48 395.98 182.62 394.83 181.76 393.6C177.858 388.344 173.049 383.826 167.56 380.26C166.28 379.46 165.08 378.68 163.89 378.08C163.3 377.76 162.74 377.43 162.18 377.16L160.56 376.4C159.56 375.89 158.56 375.54 157.73 375.2C157.018 374.891 156.291 374.621 155.55 374.39L154.16 373.9C153.994 373.854 153.835 373.783 153.69 373.69C153.86 373.708 154.028 373.745 154.19 373.8L155.61 374.19C156.362 374.395 157.103 374.638 157.83 374.92C158.68 375.25 159.67 375.57 160.71 376.07L162.35 376.8C162.92 377.06 163.49 377.39 164.09 377.69C165.31 378.29 166.52 379.07 167.82 379.85C170.587 381.645 173.194 383.676 175.61 385.92C177.998 388.192 180.183 390.668 182.14 393.32C183.01 394.57 183.85 395.74 184.53 396.91C184.87 397.49 185.23 398.04 185.53 398.59L186.37 400.19C186.93 401.19 187.31 402.19 187.68 402.99C188.01 403.697 188.3 404.421 188.55 405.16L189.03 406.55C189.087 406.712 189.127 406.88 189.15 407.05Z" fill="#263238"/>
<path d="M340.35 358.8C340.363 358.873 340.363 358.947 340.35 359.02L340.21 359.69C340.07 360.31 339.88 361.15 339.63 362.22C339.12 364.41 338.37 367.59 337.52 371.53C335.215 381.77 333.899 392.208 333.59 402.7C333.439 408.47 333.851 414.24 334.82 419.93C335.596 424.58 336.839 429.14 338.53 433.54C339.672 436.503 341.04 439.375 342.62 442.13C343.17 443.13 343.67 443.84 343.96 444.35L344.31 444.93C344.351 444.996 344.384 445.067 344.41 445.14C344.41 445.14 344.35 445.09 344.26 444.96L343.87 444.41C343.55 443.91 343.02 443.21 342.45 442.23C340.791 439.502 339.366 436.638 338.19 433.67C336.428 429.26 335.131 424.679 334.32 420C333.306 414.288 332.864 408.49 333 402.69C333.304 392.165 334.674 381.698 337.09 371.45C337.98 367.51 338.79 364.35 339.36 362.17C339.65 361.11 339.88 360.28 340.04 359.66C340.12 359.4 340.18 359.19 340.23 359.01L340.35 358.8Z" fill="#263238"/>
<path d="M333.34 401.18C333.316 400.927 333.316 400.673 333.34 400.42C333.393 399.88 333.453 399.16 333.52 398.26C333.62 397.33 333.7 396.18 333.8 394.85C333.9 393.52 334.01 392 334.11 390.32C334.53 383.61 334.82 374.32 334.75 364.06C334.68 353.8 334.27 344.51 333.84 337.8C333.64 334.44 333.43 331.73 333.28 329.85C333.22 328.95 333.17 328.24 333.13 327.69C333.1 327.438 333.1 327.182 333.13 326.93C333.188 327.177 333.228 327.427 333.25 327.68C333.31 328.22 333.4 328.94 333.51 329.83C333.71 331.7 333.98 334.42 334.23 337.77C334.75 344.48 335.23 353.77 335.29 364.06C335.35 374.35 335.01 383.63 334.49 390.34C334.38 392.02 334.25 393.54 334.11 394.87C333.97 396.2 333.87 397.35 333.75 398.28C333.63 399.21 333.54 399.89 333.47 400.43C333.443 400.682 333.399 400.933 333.34 401.18Z" fill="#263238"/>
<path d="M312.57 307.28C312.541 307.569 312.47 307.852 312.36 308.12C312.048 308.893 311.554 309.579 310.92 310.12C309.92 310.992 308.704 311.579 307.4 311.82C305.687 312.116 303.943 312.193 302.21 312.05L302.26 311.69L308.97 313.35H309.16V313.53C308.51 320.11 307.55 327.99 306.16 336.4C304.29 347.95 301.98 358.3 300.16 365.74C299.22 369.45 298.41 372.45 297.82 374.51C297.53 375.51 297.3 376.29 297.12 376.87C297.046 377.149 296.956 377.422 296.85 377.69C296.88 377.405 296.937 377.124 297.02 376.85C297.17 376.25 297.37 375.46 297.63 374.45C298.15 372.38 298.91 369.37 299.81 365.65C301.57 358.2 303.81 347.85 305.69 336.32C307 328 308 320.1 308.7 313.54L308.87 313.77L302.17 312.04L302.23 311.68C303.933 311.84 305.649 311.793 307.34 311.54C308.607 311.326 309.796 310.785 310.79 309.97C311.42 309.462 311.923 308.815 312.26 308.08C312.49 307.57 312.54 307.28 312.57 307.28Z" fill="#263238"/>
<g opacity="0.3">
<path d="M182.82 337.82C181.807 336.364 180.557 335.09 179.12 334.05C178.629 333.622 178.011 333.365 177.361 333.319C176.71 333.273 176.063 333.44 175.516 333.794C174.969 334.149 174.552 334.673 174.329 335.285C174.106 335.898 174.089 336.567 174.28 337.19C174.539 338.302 174.982 339.363 175.59 340.33C181.982 352.085 186.215 364.891 188.09 378.14C188.89 383.8 189.25 389.54 190.47 395.14C191.69 400.74 192.95 404.97 196.84 409.14L198.44 408.46C198.26 406.957 198 405.465 197.66 403.99C192.45 382.26 187.89 360.58 182.82 337.82Z" fill="black"/>
</g>
<g opacity="0.3">
<path d="M181.86 411.22C181.17 406.02 177.86 401.43 173.67 398.22C169.48 395.01 164.48 393.22 159.46 391.66C156.779 390.726 153.958 390.26 151.12 390.28C148.29 390.44 142.99 391.65 141.33 393.95C160.06 389.53 173.67 398.22 181.15 411.61" fill="black"/>
</g>
<g opacity="0.3">
<path d="M334 344.06C332.58 359.46 328.44 374.49 326.6 389.84C324.76 405.19 325.47 421.52 333 435C335.54 439.53 339.13 443.87 344.11 445.38C338.18 438.26 335.26 429.04 334.19 419.83C333.12 410.62 333.74 401.33 334.19 392.07C334.89 376.07 334.917 360.07 334.27 344.07" fill="black"/>
</g>
<path d="M185.14 348.6C184.747 348.814 184.335 348.991 183.91 349.13C182.767 349.559 181.602 349.926 180.42 350.23C178.669 350.671 176.892 351.005 175.1 351.23C172.898 351.511 170.68 351.638 168.46 351.61C166.242 351.55 164.03 351.34 161.84 350.98C160.054 350.681 158.29 350.263 156.56 349.73C155.391 349.385 154.243 348.974 153.12 348.5C152.701 348.346 152.296 348.155 151.91 347.93C152.35 348.005 152.78 348.133 153.19 348.31C154 348.6 155.19 348.98 156.66 349.38C158.392 349.848 160.148 350.226 161.92 350.51C166.262 351.186 170.676 351.27 175.04 350.76C176.819 350.548 178.585 350.238 180.33 349.83C181.82 349.48 183.02 349.15 183.84 348.89C184.26 348.742 184.697 348.644 185.14 348.6Z" fill="white"/>
<path d="M236.17 337.85C234.937 338.888 233.596 339.79 232.17 340.54C225.543 344.132 217.825 345.158 210.49 343.42C207.081 342.586 203.85 341.146 200.95 339.17C197.736 336.993 194.953 334.24 192.74 331.05C191.581 329.359 190.593 327.556 189.79 325.67C188.931 323.734 188.349 321.688 188.06 319.59C187.741 317.472 187.916 315.309 188.57 313.27C188.893 312.267 189.413 311.339 190.1 310.54C190.787 309.742 191.627 309.089 192.57 308.62C194.435 307.79 196.535 307.655 198.49 308.24C200.368 308.757 202.03 309.865 203.23 311.4C204.314 312.868 205.003 314.589 205.23 316.4C205.452 318.111 205.326 319.849 204.86 321.51C203.949 324.462 202.177 327.073 199.77 329.01C197.819 330.61 195.62 331.88 193.26 332.77C191.488 333.435 189.67 333.97 187.82 334.37C186.3 334.7 185.1 334.9 184.3 335.02L183.37 335.16C183.267 335.171 183.163 335.171 183.06 335.16L183.37 335.08L184.28 334.9C185.08 334.74 186.28 334.51 187.77 334.15C189.601 333.72 191.399 333.158 193.15 332.47C195.468 331.575 197.624 330.304 199.53 328.71C201.859 326.805 203.568 324.25 204.44 321.37C204.882 319.769 204.994 318.095 204.77 316.45C204.553 314.706 203.88 313.051 202.82 311.65C201.686 310.188 200.106 309.135 198.32 308.65C196.483 308.1 194.51 308.228 192.76 309.01C191.879 309.451 191.095 310.064 190.454 310.813C189.813 311.561 189.329 312.431 189.03 313.37C188.4 315.332 188.233 317.413 188.54 319.45C188.823 321.52 189.396 323.539 190.24 325.45C192.539 330.857 196.361 335.478 201.24 338.75C204.09 340.708 207.266 342.14 210.62 342.98C213.547 343.692 216.563 343.965 219.57 343.79C223.943 343.536 228.213 342.36 232.1 340.34C232.715 340.04 233.312 339.706 233.89 339.34C234.4 339.04 234.83 338.77 235.16 338.53L235.93 338.01L236.17 337.85Z" fill="white"/>
<path d="M243.58 298.35C243.58 298.44 242.31 298.54 240.28 298.92C237.641 299.413 235.067 300.208 232.61 301.29C230.155 302.379 227.831 303.741 225.68 305.35C224.03 306.59 223.1 307.47 223.03 307.35C223.201 307.099 223.403 306.871 223.63 306.67C224.203 306.078 224.815 305.523 225.46 305.01C227.572 303.288 229.906 301.859 232.4 300.76C234.896 299.666 237.525 298.906 240.22 298.5C241.035 298.379 241.856 298.302 242.68 298.27C242.982 298.251 243.286 298.278 243.58 298.35Z" fill="white"/>
<path d="M260 376.26L259.65 376.12L258.65 375.68C257.353 375.14 256.015 374.702 254.65 374.37C249.656 373.19 244.435 373.38 239.54 374.92C236.163 375.946 233.001 377.579 230.21 379.74C226.999 382.208 224.238 385.212 222.05 388.62C219.617 392.373 217.838 396.512 216.79 400.86C216.183 403.123 216.207 405.51 216.86 407.76C217.274 408.874 217.953 409.87 218.838 410.663C219.723 411.456 220.788 412.021 221.94 412.31C224.265 412.953 226.727 412.897 229.02 412.15C231.255 411.435 233.276 410.173 234.9 408.48C236.475 406.862 237.486 404.779 237.78 402.54C237.898 401.462 237.823 400.372 237.56 399.32C237.278 398.294 236.85 397.314 236.29 396.41C235.154 394.686 233.681 393.21 231.96 392.07C230.335 390.979 228.565 390.124 226.7 389.53C224.957 388.969 223.166 388.571 221.35 388.34C219.671 388.149 217.978 388.095 216.29 388.18C211.168 388.423 206.19 389.957 201.82 392.64C200.632 393.37 199.5 394.186 198.43 395.08L197.6 395.78L197.31 396C197.387 395.908 197.471 395.821 197.56 395.74L198.36 395C199.406 394.067 200.526 393.221 201.71 392.47C206.087 389.694 211.104 388.089 216.28 387.81C217.987 387.71 219.7 387.754 221.4 387.94C223.243 388.161 225.061 388.556 226.83 389.12C228.737 389.715 230.549 390.58 232.21 391.69C233.995 392.855 235.523 394.373 236.7 396.15C237.29 397.096 237.738 398.124 238.03 399.2C238.314 400.31 238.398 401.461 238.28 402.6C237.976 404.945 236.924 407.13 235.28 408.83C233.599 410.589 231.506 411.902 229.19 412.65C226.796 413.428 224.226 413.484 221.8 412.81C220.57 412.494 219.434 411.886 218.491 411.036C217.547 410.186 216.823 409.12 216.38 407.93C215.695 405.589 215.667 403.105 216.3 400.75C217.368 396.345 219.18 392.154 221.66 388.36C223.884 384.902 226.693 381.856 229.96 379.36C232.796 377.18 236.01 375.543 239.44 374.53C244.397 372.997 249.681 372.862 254.71 374.14C256.083 374.487 257.422 374.959 258.71 375.55L259.71 376.04L260 376.26Z" fill="white"/>
<path d="M168.78 380.21C168.78 380.31 167.65 380.45 165.93 381.05C164.927 381.404 163.956 381.846 163.03 382.37C160.755 383.651 158.781 385.403 157.24 387.51C156.619 388.373 156.07 389.286 155.6 390.24C154.8 391.88 154.53 392.99 154.43 392.96C154.43 392.688 154.474 392.418 154.56 392.16C154.729 391.447 154.964 390.75 155.26 390.08C155.697 389.081 156.229 388.126 156.85 387.23C157.63 386.137 158.525 385.131 159.52 384.23C160.529 383.37 161.629 382.622 162.8 382C163.753 381.478 164.758 381.059 165.8 380.75C166.5 380.531 167.22 380.38 167.95 380.3C168.22 380.226 168.5 380.196 168.78 380.21Z" fill="white"/>
<path d="M202.49 431.48C202.49 431.48 202.4 431.41 202.24 431.25C202.08 431.09 201.84 430.82 201.55 430.52C200.95 429.88 200.06 428.93 198.88 427.76C195.607 424.377 191.91 421.432 187.88 419C185.096 417.346 182.079 416.119 178.93 415.36C175.32 414.515 171.574 414.43 167.93 415.11C163.888 415.855 160.197 417.89 157.41 420.91C155.968 422.499 155.037 424.485 154.74 426.61C154.586 427.69 154.662 428.791 154.961 429.84C155.261 430.89 155.779 431.864 156.48 432.7C157.204 433.506 158.129 434.106 159.16 434.439C160.19 434.773 161.291 434.828 162.35 434.6C163.372 434.346 164.285 433.767 164.95 432.95C165.608 432.136 166.061 431.176 166.27 430.15C166.673 428.121 166.317 426.014 165.27 424.23C164.282 422.504 162.88 421.05 161.19 420C157.986 418.113 154.255 417.32 150.56 417.74C147.333 418.042 144.153 418.73 141.09 419.79C136.621 421.271 132.378 423.361 128.48 426C127.1 426.94 126.08 427.73 125.38 428.27L124.6 428.89C124.42 429.03 124.33 429.1 124.32 429.09C125.567 427.905 126.905 426.818 128.32 425.84C132.218 423.109 136.488 420.954 141 419.44C144.086 418.349 147.293 417.634 150.55 417.31C154.341 416.864 158.174 417.665 161.47 419.59C163.231 420.679 164.694 422.187 165.73 423.98C166.844 425.872 167.221 428.108 166.79 430.26C166.572 431.36 166.088 432.39 165.38 433.26C164.642 434.162 163.631 434.8 162.5 435.08C161.35 435.334 160.154 435.278 159.033 434.917C157.912 434.557 156.907 433.906 156.12 433.03C155.372 432.137 154.82 431.097 154.5 429.977C154.18 428.858 154.098 427.683 154.26 426.53C154.565 424.293 155.542 422.201 157.06 420.53C159.919 417.431 163.711 415.349 167.86 414.6C171.58 413.917 175.402 414.019 179.08 414.9C182.25 415.69 185.284 416.951 188.08 418.64C192.127 421.115 195.827 424.118 199.08 427.57C200.24 428.78 201.08 429.75 201.68 430.41L202.33 431.17L202.49 431.48Z" fill="white"/>
<path d="M333.58 403.24C333.377 403.416 333.156 403.571 332.92 403.7C332.7 403.84 332.43 404.02 332.1 404.21L330.92 404.8C330.47 405.02 329.92 405.2 329.38 405.43C328.84 405.66 328.17 405.8 327.49 405.99C325.921 406.348 324.319 406.536 322.71 406.55C318.483 406.556 314.356 405.261 310.89 402.84C308.779 401.469 307.116 399.508 306.11 397.2C305.648 395.907 305.648 394.493 306.11 393.2C306.36 392.54 306.762 391.948 307.283 391.472C307.804 390.996 308.43 390.649 309.11 390.46C310.438 390.152 311.821 390.164 313.144 390.494C314.466 390.825 315.692 391.464 316.72 392.36C317.722 393.167 318.526 394.194 319.07 395.36C319.587 396.506 319.747 397.782 319.53 399.02C319.301 400.18 318.801 401.27 318.07 402.2C317.393 403.065 316.606 403.838 315.73 404.5C314.176 405.66 312.499 406.645 310.73 407.44C308.166 408.601 305.448 409.386 302.66 409.77C301.66 409.9 300.9 409.96 300.38 409.98C300.114 410.007 299.846 410.007 299.58 409.98C299.84 409.924 300.104 409.89 300.37 409.88C300.89 409.82 301.65 409.73 302.62 409.57C305.386 409.117 308.077 408.29 310.62 407.11C312.362 406.309 314.012 405.319 315.54 404.16C317.334 402.914 318.613 401.059 319.14 398.94C319.289 397.76 319.122 396.562 318.654 395.469C318.187 394.376 317.436 393.427 316.48 392.72C315.515 391.881 314.365 391.282 313.124 390.971C311.884 390.66 310.587 390.646 309.34 390.93C308.732 391.095 308.171 391.401 307.704 391.823C307.236 392.245 306.875 392.772 306.65 393.36C306.225 394.533 306.225 395.817 306.65 396.99C307.48 399.34 309.41 401.04 311.23 402.41C314.605 404.796 318.627 406.097 322.76 406.14C324.342 406.147 325.921 405.99 327.47 405.67C328.15 405.49 328.78 405.34 329.35 405.15C329.92 404.96 330.44 404.78 330.89 404.58L332.08 404.03C332.42 403.86 332.69 403.69 332.92 403.57C333.133 403.447 333.353 403.337 333.58 403.24Z" fill="white"/>
<path d="M304.71 334.41C302.949 334.879 301.222 335.467 299.54 336.17C297.935 337.021 296.391 337.983 294.92 339.05C296.074 337.573 297.59 336.419 299.32 335.7C300.98 334.824 302.833 334.38 304.71 334.41Z" fill="white"/>
<path d="M254.39 334.64C254.252 335.447 253.985 336.227 253.6 336.95C252.757 338.74 251.626 340.378 250.25 341.8C248.875 343.222 247.277 344.411 245.52 345.32C244.807 345.725 244.034 346.016 243.23 346.18C245.67 344.939 247.911 343.342 249.88 341.44C251.717 339.413 253.237 337.121 254.39 334.64Z" fill="white"/>
<path d="M319.65 287.46C319.65 287.46 318.94 287.59 317.65 287.91C315.867 288.366 314.134 289.002 312.48 289.81C311.337 290.353 310.234 290.978 309.18 291.68C307.973 292.466 306.919 293.466 306.07 294.63C305.156 295.914 304.692 297.465 304.75 299.04C304.795 299.857 305.031 300.652 305.44 301.36C305.888 302.066 306.531 302.629 307.29 302.98C308.04 303.348 308.884 303.477 309.71 303.35C310.51 303.227 311.23 302.792 311.71 302.14C312.125 301.494 312.357 300.748 312.384 299.981C312.41 299.213 312.229 298.453 311.86 297.78C311.509 297.172 311.033 296.645 310.464 296.234C309.896 295.822 309.247 295.534 308.56 295.39C307.344 295.105 306.077 295.122 304.87 295.44C303.114 295.97 301.48 296.84 300.06 298C299.06 298.79 298.48 299.27 298.45 299.24C298.42 299.21 298.56 299.09 298.81 298.85C299.06 298.61 299.43 298.26 299.93 297.85C301.33 296.601 302.98 295.664 304.77 295.1C306.036 294.737 307.374 294.695 308.66 294.98C309.414 295.129 310.128 295.437 310.754 295.884C311.38 296.33 311.904 296.905 312.29 297.57C312.705 298.323 312.908 299.174 312.878 300.033C312.848 300.893 312.586 301.728 312.12 302.45C311.574 303.208 310.751 303.718 309.83 303.87C308.899 304.015 307.947 303.872 307.1 303.46C306.247 303.068 305.528 302.436 305.03 301.64C304.576 300.859 304.316 299.982 304.27 299.08C304.213 297.391 304.72 295.73 305.71 294.36C306.602 293.167 307.707 292.15 308.97 291.36C310.053 290.661 311.186 290.043 312.36 289.51C314.047 288.725 315.819 288.134 317.64 287.75C318.28 287.62 318.79 287.56 319.13 287.52C319.3 287.477 319.475 287.456 319.65 287.46Z" fill="white"/>
<path d="M332.7 348.76C332.54 348.996 332.366 349.223 332.18 349.44C332 349.65 331.74 349.87 331.45 350.16C331.084 350.452 330.696 350.716 330.29 350.95C328.968 351.67 327.509 352.103 326.008 352.22C324.507 352.338 322.998 352.136 321.58 351.63C319.6 350.956 317.841 349.757 316.49 348.16C314.949 346.337 313.823 344.201 313.19 341.9C312.467 339.371 312.2 336.733 312.4 334.11C312.525 331.257 313.52 328.511 315.25 326.24C316.161 325.122 317.334 324.246 318.665 323.689C319.996 323.133 321.444 322.913 322.88 323.05C324.261 323.213 325.547 323.837 326.53 324.82C327.492 325.763 328.048 327.044 328.08 328.39C328.049 329.672 327.526 330.893 326.62 331.8C325.803 332.648 324.8 333.295 323.69 333.69C321.714 334.375 319.589 334.514 317.54 334.09C315.866 333.756 314.251 333.173 312.75 332.36C311.622 331.763 310.533 331.095 309.49 330.36C308.63 329.75 307.98 329.26 307.55 328.92C307.319 328.758 307.102 328.577 306.9 328.38C307.151 328.51 307.389 328.664 307.61 328.84L309.61 330.19C310.666 330.892 311.761 331.533 312.89 332.11C314.376 332.88 315.966 333.429 317.61 333.74C319.594 334.126 321.645 333.974 323.55 333.3C324.591 332.922 325.529 332.305 326.29 331.5C327.109 330.673 327.581 329.564 327.61 328.4C327.571 327.181 327.062 326.023 326.19 325.17C325.277 324.273 324.091 323.707 322.82 323.56C321.474 323.44 320.119 323.651 318.873 324.174C317.627 324.697 316.528 325.516 315.67 326.56C314.003 328.748 313.043 331.392 312.92 334.14C312.714 336.704 312.965 339.284 313.66 341.76C314.272 343.998 315.352 346.081 316.83 347.87C318.118 349.425 319.805 350.601 321.71 351.27C323.083 351.776 324.546 351.992 326.007 351.906C327.468 351.82 328.896 351.433 330.2 350.77C331.139 350.242 331.983 349.563 332.7 348.76Z" fill="white"/>
<path d="M360.77 341.56C360.77 341.67 359.06 341.06 356.23 340.85C352.535 340.567 348.83 341.268 345.493 342.88C342.156 344.493 339.305 346.959 337.23 350.03C336.399 351.318 335.645 352.654 334.97 354.03C335.039 353.617 335.167 353.216 335.35 352.84C335.779 351.793 336.304 350.789 336.92 349.84C338.953 346.64 341.838 344.07 345.251 342.419C348.664 340.767 352.469 340.099 356.24 340.49C357.372 340.599 358.49 340.817 359.58 341.14C359.991 341.234 360.391 341.375 360.77 341.56Z" fill="white"/>
<g opacity="0.3">
<path d="M298.18 285.09C309.46 290.59 323.18 290.91 333.23 298.37C339.074 302.708 343.102 309.057 344.537 316.192C345.972 323.327 344.712 330.74 341 337C340.27 330.64 339 323.42 333.62 320C331.26 318.51 328.44 318 325.82 317C322.87 315.92 320.15 314.26 317.16 313.31C313.16 312.03 308.74 312.08 304.72 310.75C300.7 309.42 296.79 305.99 297.09 301.75L298.18 285.09Z" fill="black"/>
</g>
<path d="M340.88 335.26L339.28 315.15C339.28 315.15 328.37 313.04 324.5 310.58C320.63 308.12 313.55 303 313.55 303C313.55 303 311.84 309.14 308.32 309.49L305.15 309.85L305 297.47C305 297.47 304.4 303.03 299.83 303.89C298.83 304.09 298.78 303.89 298.78 303.89L295.69 287.68C295.69 287.68 292.03 292.42 285.34 289.26C285.34 289.26 296.18 270.36 298.29 269.66C300.4 268.96 311.8 268.66 311.8 268.66C311.8 268.66 327.63 267.66 329.39 268.34C331.15 269.02 333.61 271.82 333.61 271.82C333.61 271.82 352.26 289.77 358.24 295.75C362.956 300.726 366.134 306.96 367.39 313.7C367.75 316.86 370.39 330.05 370.39 330.05" fill="#B47266"/>
<path d="M370.45 330.1L370.36 329.77L370.15 328.77C369.97 327.89 369.7 326.62 369.36 324.96C369.02 323.3 368.63 321.24 368.16 318.83C367.94 317.63 367.7 316.33 367.47 314.94C367.35 314.25 367.29 313.52 367.15 312.8C367.01 312.08 366.81 311.34 366.59 310.59C365.592 307.284 364.156 304.126 362.32 301.2C361.285 299.549 360.096 297.998 358.77 296.57C357.38 295.11 355.82 293.68 354.28 292.16L333.49 272C332.864 271.294 332.196 270.626 331.49 270C330.822 269.353 330.025 268.855 329.15 268.54C328.199 268.406 327.24 268.349 326.28 268.37C325.28 268.37 324.28 268.37 323.28 268.37C319.28 268.46 315.21 268.71 311.02 268.91C308.93 268.97 306.82 269.05 304.7 269.17C303.64 269.23 302.57 269.3 301.5 269.39C300.448 269.452 299.404 269.609 298.38 269.86C297.969 270.133 297.604 270.471 297.3 270.86C296.96 271.28 296.62 271.7 296.3 272.14C295.66 273.02 295.04 273.92 294.43 274.84C293.22 276.66 292.04 278.54 290.87 280.44C289.06 283.44 287.3 286.36 285.61 289.29L285.49 288.93C287.152 289.766 289.018 290.113 290.87 289.93C292.67 289.688 294.323 288.808 295.53 287.45L295.89 287.04L295.98 287.56C297.04 293.11 298.07 298.56 299.06 303.77C299.06 303.62 299.01 303.66 298.99 303.63H299.11C299.206 303.64 299.304 303.64 299.4 303.63C299.599 303.608 299.796 303.571 299.99 303.52L300.57 303.36L301.12 303.13C301.838 302.787 302.473 302.293 302.98 301.68C303.966 300.427 304.595 298.931 304.8 297.35H305.28C305.28 301.63 305.313 305.763 305.38 309.75L305.13 309.53L308.21 309.19C309.164 309.066 310.039 308.596 310.67 307.87C311.916 306.418 312.831 304.712 313.35 302.87L313.43 302.6L313.67 302.76L320.41 307.42L323.58 309.62C324.562 310.348 325.634 310.947 326.77 311.4C328.899 312.244 331.08 312.949 333.3 313.51C335.41 314.06 337.42 314.51 339.3 314.91H339.41V315.02C339.88 321.38 340.26 326.41 340.52 329.86C340.64 331.57 340.73 332.86 340.8 333.79C340.8 334.22 340.8 334.56 340.86 334.79C340.867 334.903 340.867 335.017 340.86 335.13C340.86 335.13 340.86 335.02 340.86 334.79C340.86 334.56 340.8 334.22 340.76 333.79C340.68 332.88 340.56 331.57 340.41 329.86C340.12 326.41 339.7 321.39 339.16 315.04L339.28 315.16C337.37 314.79 335.36 314.34 333.28 313.79C331.04 313.238 328.839 312.539 326.69 311.7C325.533 311.245 324.44 310.639 323.44 309.9L320.25 307.71C318.08 306.22 315.82 304.71 313.49 303.07L313.81 302.96C313.279 304.873 312.337 306.648 311.05 308.16C310.348 308.968 309.372 309.488 308.31 309.62L305.24 309.97H304.99V309.72C304.95 305.72 304.907 301.583 304.86 297.31H305.34C305.124 298.985 304.461 300.571 303.42 301.9C302.873 302.566 302.192 303.108 301.42 303.49L300.82 303.74L300.19 303.91C299.976 303.965 299.759 304.005 299.54 304.03H299.19H298.99H298.87C298.836 304.022 298.805 304.004 298.78 303.98C298.78 303.98 298.71 303.98 298.66 303.78L295.57 287.57L296.03 287.68C294.743 289.149 292.966 290.101 291.03 290.36C289.087 290.572 287.123 290.225 285.37 289.36L285.12 289.24L285.26 289C286.96 286.053 288.717 283.097 290.53 280.13C291.7 278.23 292.88 276.35 294.1 274.51C294.71 273.59 295.33 272.68 295.99 271.79C296.31 271.35 296.65 270.92 296.99 270.49C297.341 270.018 297.779 269.618 298.28 269.31C299.352 269.043 300.447 268.879 301.55 268.82C302.62 268.72 303.7 268.66 304.76 268.59C306.89 268.48 309.01 268.4 311.1 268.34C315.26 268.15 319.36 267.9 323.36 267.82C324.36 267.82 325.36 267.82 326.36 267.82C327.363 267.804 328.367 267.868 329.36 268.01C330.308 268.343 331.171 268.879 331.89 269.58C332.616 270.201 333.301 270.869 333.94 271.58L354.67 291.78C356.22 293.31 357.76 294.78 359.16 296.21C360.495 297.665 361.69 299.242 362.73 300.92C364.571 303.877 366.004 307.069 366.99 310.41C367.2 311.17 367.4 311.91 367.53 312.65C367.66 313.39 367.73 314.11 367.85 314.8C368.06 316.19 368.28 317.48 368.5 318.69C368.94 321.1 369.32 323.16 369.63 324.84C369.94 326.52 370.18 327.77 370.35 328.66C370.42 329.08 370.48 329.4 370.52 329.66C370.56 329.92 370.45 330.1 370.45 330.1Z" fill="#89544C"/>
<path d="M314.52 269.66C314.52 269.75 312.86 270.05 310.28 270.94C306.935 272.143 303.694 273.618 300.59 275.35C299.703 275.798 298.895 276.389 298.2 277.1C297.578 277.777 297.08 278.559 296.73 279.41C296.086 280.853 295.772 282.421 295.81 284C295.81 285.36 295.91 286.47 295.92 287.23C295.957 287.63 295.94 288.034 295.87 288.43C295.777 288.043 295.723 287.648 295.71 287.25C295.64 286.48 295.49 285.39 295.44 284.01C295.348 282.369 295.639 280.729 296.29 279.22C296.647 278.309 297.169 277.471 297.83 276.75C298.559 275.996 299.407 275.368 300.34 274.89C303.466 273.134 306.759 271.693 310.17 270.59C311.208 270.268 312.263 270.004 313.33 269.8C313.719 269.701 314.119 269.654 314.52 269.66Z" fill="#89544C"/>
<path d="M326.4 273.2C325.9 273.397 325.385 273.554 324.86 273.67C323.86 273.97 322.43 274.37 320.71 275.03C318.695 275.805 316.754 276.759 314.91 277.88C313.85 278.49 312.73 279.14 311.54 279.76C310.35 280.38 309.06 280.92 307.91 281.65C307.339 281.998 306.837 282.449 306.43 282.98C306.061 283.512 305.787 284.104 305.62 284.73C305.307 285.957 305.099 287.208 305 288.47C304.856 290.624 304.856 292.786 305 294.94C305.09 296.79 305.18 298.29 305.2 299.33C305.247 299.866 305.247 300.404 305.2 300.94C305.098 300.412 305.038 299.877 305.02 299.34C304.93 298.21 304.8 296.74 304.65 294.96C304.464 292.788 304.437 290.606 304.57 288.43C304.664 287.135 304.868 285.85 305.18 284.59C305.361 283.907 305.658 283.261 306.06 282.68C306.499 282.092 307.045 281.593 307.67 281.21C308.91 280.44 310.19 279.94 311.36 279.31C312.53 278.68 313.65 278.06 314.72 277.46C316.601 276.354 318.579 275.423 320.63 274.68C322.017 274.201 323.429 273.801 324.86 273.48C325.363 273.338 325.879 273.244 326.4 273.2Z" fill="#89544C"/>
<path d="M332.2 278.47C331.792 278.68 331.363 278.848 330.92 278.97C330.09 279.27 328.92 279.7 327.43 280.31C323.608 281.825 320.134 284.101 317.22 287C315.68 288.625 314.501 290.558 313.76 292.67C313.159 294.404 312.851 296.225 312.85 298.06C312.896 299.748 313.13 301.425 313.55 303.06C313.55 303.06 313.48 302.96 313.39 302.74C313.26 302.414 313.15 302.08 313.06 301.74C312.7 300.528 312.505 299.274 312.48 298.01C312.367 293.775 313.939 289.668 316.85 286.59C319.812 283.663 323.374 281.414 327.29 280C328.78 279.43 330 279 330.86 278.81C331.294 278.65 331.743 278.536 332.2 278.47Z" fill="#89544C"/>
<path d="M338.23 291C338.23 291 338.17 291.09 337.99 291.2C337.728 291.355 337.44 291.46 337.14 291.51C336.031 291.636 334.909 291.463 333.89 291.01C333.208 290.737 332.501 290.529 331.78 290.39C330.963 290.273 330.129 290.369 329.36 290.67C327.59 291.486 325.913 292.492 324.36 293.67C322.751 294.737 321.354 296.093 320.24 297.67C319.524 299.124 318.642 300.49 317.61 301.74C317.17 302.199 316.665 302.59 316.11 302.9C315.677 303.131 315.19 303.242 314.7 303.22C314.397 303.21 314.097 303.156 313.81 303.06C313.62 302.99 313.52 302.95 313.53 302.93C313.54 302.91 313.95 303.03 314.7 303.02C315.148 303 315.584 302.869 315.97 302.64C316.483 302.325 316.948 301.938 317.35 301.49C318.313 300.216 319.147 298.849 319.84 297.41C320.953 295.74 322.387 294.309 324.06 293.2C324.92 292.58 325.77 292.02 326.6 291.48C327.403 290.933 328.269 290.487 329.18 290.15C330.026 289.834 330.939 289.745 331.83 289.89C332.574 290.054 333.301 290.288 334 290.59C334.96 291.059 336.022 291.283 337.09 291.24C337.478 291.202 337.86 291.122 338.23 291Z" fill="#89544C"/>
<path d="M345.13 314.58C344.858 314.461 344.605 314.303 344.38 314.11C343.728 313.641 343.109 313.126 342.53 312.57C338.633 308.895 335.997 304.083 335 298.82C334.839 298.032 334.736 297.233 334.69 296.43C334.64 296.139 334.64 295.841 334.69 295.55C334.78 295.55 334.89 296.79 335.35 298.75C336.542 303.868 339.119 308.559 342.8 312.31C344.19 313.74 345.19 314.51 345.13 314.58Z" fill="#89544C"/>
<path d="M360.82 311.48C360.473 312.155 359.989 312.751 359.4 313.23C358.036 314.464 356.413 315.376 354.65 315.9C352.886 316.423 351.026 316.539 349.21 316.24C348.455 316.158 347.724 315.927 347.06 315.56C347.06 315.47 347.91 315.73 349.26 315.88C351.02 316.066 352.8 315.904 354.497 315.401C356.194 314.898 357.775 314.065 359.15 312.95C360.21 312.09 360.75 311.42 360.82 311.48Z" fill="#89544C"/>
<path d="M381 442.57C376.193 446.437 370.072 448.286 363.929 447.726C357.785 447.167 352.099 444.242 348.07 439.57C343.47 434.19 339.82 427.57 340.38 420.5C341.8 402.75 340.94 332.43 340.94 332.43L369.16 325.18C369.16 325.18 390.91 410.18 391.98 425.01C392.47 431.5 387.15 437.68 381 442.57Z" fill="#B47266"/>
<path d="M153.81 412.77H186.19L204.11 406.47L209.32 392.59C209.32 392.59 219.84 384.59 230.77 394.69C241.7 404.79 248.44 425 248.44 425L219.44 435.1C219.44 435.1 201.35 448.62 199.24 448.66L141.35 449.44C141.35 449.44 140.77 423.71 153.81 412.77Z" fill="#B47266"/>
<path d="M227.89 406.25L224.1 345.08C224.071 344.537 224.154 343.995 224.342 343.485C224.53 342.975 224.82 342.509 225.195 342.115C225.569 341.721 226.02 341.407 226.519 341.193C227.019 340.979 227.557 340.869 228.1 340.87H261.45C262.479 340.869 263.468 341.264 264.213 341.974C264.958 342.683 265.401 343.652 265.45 344.68L267.85 405.84C267.867 406.376 267.777 406.91 267.584 407.411C267.39 407.911 267.099 408.368 266.725 408.753C266.352 409.138 265.905 409.444 265.411 409.654C264.917 409.863 264.386 409.97 263.85 409.97H231.85C230.843 409.962 229.876 409.575 229.141 408.885C228.407 408.196 227.96 407.255 227.89 406.25Z" fill="#263238"/>
<path d="M264 378.73C263.961 378.485 263.941 378.238 263.94 377.99C263.94 377.45 263.88 376.74 263.84 375.86C263.78 373.95 263.7 371.29 263.6 368.03C263.5 364.77 263.42 360.78 263.31 356.42C263.257 354.227 263.207 351.94 263.16 349.56C263.21 348.38 263.075 347.199 262.76 346.06C262.572 345.513 262.223 345.036 261.76 344.69C261.275 344.359 260.714 344.156 260.13 344.1C258.901 344.03 257.669 344.03 256.44 344.1L252.81 344.18L245.95 344.31L234.34 344.51L229.88 344.57C228.769 344.51 227.655 344.58 226.56 344.78C226.225 344.854 225.911 345.002 225.641 345.213C225.371 345.424 225.152 345.693 225 346C224.92 346.228 224.88 346.468 224.88 346.71C224.797 346.47 224.797 346.21 224.88 345.97C225.01 345.625 225.219 345.316 225.49 345.066C225.761 344.816 226.086 344.632 226.44 344.53C227.549 344.285 228.685 344.181 229.82 344.22L234.28 344.08L245.89 343.77L252.75 343.61L256.38 343.52C257.636 343.45 258.894 343.45 260.15 343.52C260.82 343.594 261.462 343.831 262.02 344.21C262.557 344.619 262.958 345.18 263.17 345.82C263.503 347.013 263.645 348.252 263.59 349.49C263.63 351.87 263.67 354.157 263.71 356.35C263.78 360.71 263.84 364.64 263.89 367.96C263.94 371.28 263.95 373.89 263.97 375.79C263.97 376.68 263.97 377.39 263.97 377.92C264.007 378.188 264.017 378.46 264 378.73Z" fill="#455A64"/>
<path d="M245.35 355C245.165 354.585 244.851 354.24 244.455 354.017C244.059 353.793 243.601 353.703 243.15 353.76C242.889 353.692 242.616 353.682 242.35 353.728C242.084 353.775 241.832 353.878 241.609 354.031C241.386 354.183 241.199 354.382 241.059 354.613C240.92 354.844 240.831 355.102 240.8 355.37C240.78 355.919 240.947 356.459 241.274 356.901C241.601 357.342 242.069 357.66 242.6 357.8C242.998 357.909 243.417 357.917 243.819 357.823C244.221 357.728 244.592 357.535 244.9 357.26C245.199 356.976 245.403 356.606 245.483 356.201C245.564 355.797 245.517 355.377 245.35 355Z" fill="#E0E0E0"/>
<path d="M208.68 394.29V388.06C208.68 388.06 214.8 373.66 214.62 374.19C214.44 374.72 225.47 367.14 225.47 367.14C225.846 370.309 225.724 373.518 225.11 376.65C224.392 379.005 223.147 381.167 221.47 382.97L220.61 389.69L234.47 378.4L251 369.71C251.981 369.631 252.966 369.808 253.858 370.223C254.75 370.639 255.519 371.279 256.09 372.08C258.2 374.89 255.21 377.7 253.81 378.58C252.41 379.46 239.81 388.58 239.81 388.58L232.81 396.65L234.3 398.35L246.66 390.51C246.66 390.51 262.29 379.1 265.8 378.39H265.99C266.637 378.284 267.301 378.375 267.895 378.652C268.489 378.929 268.986 379.379 269.321 379.942C269.656 380.506 269.813 381.158 269.772 381.812C269.73 382.466 269.493 383.093 269.09 383.61C264.79 389.2 257.39 398.71 257.02 398.38C256.49 397.92 240.44 408.98 240.44 408.98C240.44 408.98 256.49 403.71 257.9 402.48C259.31 401.25 273.7 385.98 273.7 385.98C273.7 385.98 275.63 386.33 275.98 390.72L275.11 395.11C275.11 395.11 275.46 396.16 275.98 398.44C276.5 400.72 268.43 416.36 268.43 416.36C268.43 416.36 236.82 433.74 233.84 433.92C230.86 434.1 219.79 433.92 219.79 433.92L208.68 394.29Z" fill="#B47266"/>
<path d="M274.77 394.54C274.631 395.008 274.429 395.456 274.17 395.87C273.516 397.034 272.784 398.154 271.98 399.22C270.98 400.59 269.74 402.15 268.48 403.98C267.088 405.973 265.503 407.825 263.75 409.51C260.466 412.458 256.799 414.951 252.85 416.92C251.36 417.7 250.14 418.3 249.28 418.71C248.854 418.945 248.405 419.136 247.94 419.28C248.332 418.99 248.75 418.739 249.19 418.53L252.68 416.6C256.537 414.55 260.133 412.042 263.39 409.13C265.123 407.471 266.697 405.653 268.09 403.7C269.37 401.88 270.66 400.33 271.68 399C272.7 397.67 273.49 396.56 273.99 395.77C274.225 395.345 274.485 394.934 274.77 394.54Z" fill="#89544C"/>
<path d="M160.37 409.19C158.298 410.167 156.346 411.378 154.55 412.8C150.349 416.421 147.176 421.084 145.35 426.32C143.575 431.573 142.45 437.023 142 442.55C141.8 444.61 141.64 446.3 141.52 447.55C141.46 448.1 141.42 448.55 141.38 448.92C141.377 449.081 141.346 449.24 141.29 449.39C141.275 449.23 141.275 449.07 141.29 448.91C141.29 448.54 141.29 448.08 141.34 447.54C141.34 446.35 141.48 444.62 141.65 442.49C141.983 436.916 143.056 431.411 144.84 426.12C146.69 420.799 149.962 416.085 154.3 412.49C155.623 411.431 157.07 410.538 158.61 409.83C159.15 409.56 159.61 409.43 159.89 409.31C160.046 409.256 160.207 409.216 160.37 409.19Z" fill="#263238"/>
<path d="M488.58 449.57C488.58 449.71 384.36 449.83 255.83 449.83C127.3 449.83 23.06 449.71 23.06 449.57C23.06 449.43 127.26 449.31 255.83 449.31C384.4 449.31 488.58 449.43 488.58 449.57Z" fill="#263238"/>
<path d="M148.49 213.71H79.72C78.0518 213.71 76.4519 214.373 75.2723 215.552C74.0927 216.732 73.43 218.332 73.43 220V288.77C73.43 290.438 74.0927 292.038 75.2723 293.218C76.4519 294.397 78.0518 295.06 79.72 295.06H127.3L146.44 310.82V295.06H148.49C150.158 295.06 151.758 294.397 152.938 293.218C154.117 292.038 154.78 290.438 154.78 288.77V220C154.78 218.332 154.117 216.732 152.938 215.552C151.758 214.373 150.158 213.71 148.49 213.71Z" fill="white"/>
<path d="M80.48 213.71H148.78C150.371 213.71 151.897 214.342 153.023 215.467C154.148 216.593 154.78 218.119 154.78 219.71V239.16C154.78 239.221 154.756 239.28 154.713 239.323C154.669 239.366 154.611 239.39 154.55 239.39H73.66C73.599 239.39 73.5405 239.366 73.4974 239.323C73.4542 239.28 73.43 239.221 73.43 239.16V220.75C73.4247 219.823 73.6035 218.905 73.956 218.047C74.3085 217.19 74.8278 216.411 75.4836 215.757C76.1395 215.102 76.9189 214.584 77.7766 214.232C78.6342 213.881 79.5532 213.703 80.48 213.71Z" fill="#FC7300"/>
<path d="M108.52 251.52V279.17H102.12V256.65H96.59V251.52H108.52Z" fill="#263238"/>
<path d="M135 251.52V255.66L124.73 279.17H117.73L127.65 256.73H118.48V261.23H112.79V251.52H135Z" fill="#263238"/>
<path d="M125.47 228.28C125.47 228.43 119.88 228.54 112.99 228.54C106.1 228.54 100.5 228.43 100.5 228.28C100.5 228.13 106.09 228 113 228C119.91 228 125.47 228.14 125.47 228.28Z" fill="#263238"/>
<path d="M148.49 213.71H148.92C149.339 213.728 149.755 213.792 150.16 213.9C151.769 214.324 153.146 215.366 153.99 216.8C154.603 217.848 154.908 219.047 154.87 220.26C154.87 221.58 154.87 223.01 154.87 224.55C154.87 227.65 154.87 231.2 154.87 235.18C154.87 243.13 154.87 252.77 154.92 263.78C154.92 269.29 154.92 275.15 154.92 281.32C154.92 282.86 154.92 284.42 154.92 286V288.38C154.949 289.209 154.837 290.038 154.59 290.83C154.186 292.051 153.429 293.123 152.414 293.912C151.399 294.701 150.172 295.17 148.89 295.26C148.02 295.31 147.21 295.26 146.36 295.26L146.59 295.03C146.59 300.03 146.59 305.32 146.59 310.79V311.3L146.19 310.97L127.05 295.23L127.21 295.28H79.64C78.8989 295.265 78.1655 295.126 77.47 294.87C76.0688 294.363 74.8855 293.388 74.12 292.11C73.7413 291.493 73.4675 290.817 73.31 290.11C73.1897 289.4 73.1428 288.68 73.17 287.96V275.5C73.17 264.56 73.17 254.01 73.17 243.96C73.17 238.96 73.17 234.03 73.17 229.27C73.17 226.89 73.17 224.557 73.17 222.27C73.1254 221.112 73.1655 219.952 73.29 218.8C73.5075 217.652 74.0284 216.582 74.7986 215.703C75.5688 214.824 76.5602 214.167 77.67 213.8C78.7439 213.507 79.8598 213.399 80.97 213.48H87.32H99.25L135.25 213.56H145.04H147.58C148.16 213.56 148.45 213.56 148.45 213.56H147.58H145.04L135.25 213.61L99.25 213.7H81C79.9373 213.622 78.869 213.723 77.84 214C76.7912 214.413 75.8751 215.105 75.19 216C74.4635 216.818 73.9697 217.816 73.76 218.89C73.6456 220.016 73.6121 221.149 73.66 222.28V229.28C73.66 234.04 73.66 238.95 73.66 243.97C73.66 253.97 73.66 264.57 73.66 275.51V288C73.6322 288.686 73.6757 289.373 73.79 290.05C73.9998 291.05 74.4618 291.981 75.1321 292.753C75.8024 293.524 76.6588 294.112 77.62 294.46C78.9655 294.836 80.3683 294.965 81.76 294.84H127.36L127.43 294.89L146.56 310.66L146.16 310.85C146.16 305.38 146.16 300.06 146.16 295.09V294.86H146.4C147.23 294.86 148.09 294.86 148.9 294.86C149.698 294.799 150.476 294.582 151.19 294.22C151.894 293.865 152.522 293.376 153.036 292.779C153.551 292.181 153.943 291.489 154.19 290.74C154.432 289.995 154.54 289.213 154.51 288.43V286C154.51 284.42 154.51 282.86 154.51 281.32C154.51 275.15 154.51 269.32 154.51 263.78C154.51 252.78 154.51 243.13 154.51 235.18C154.51 231.18 154.51 227.65 154.51 224.55C154.51 221.45 154.91 218.72 153.69 216.88C152.882 215.46 151.545 214.417 149.97 213.98C149.484 213.851 148.99 213.761 148.49 213.71Z" fill="#263238"/>
<path d="M126.24 205.74H126.07C124.656 205.74 123.51 206.886 123.51 208.3V221.55C123.51 222.964 124.656 224.11 126.07 224.11H126.24C127.654 224.11 128.8 222.964 128.8 221.55V208.3C128.8 206.886 127.654 205.74 126.24 205.74Z" fill="#E0E0E0"/>
<path d="M126.25 224.11C126.794 224.034 127.31 223.82 127.75 223.49C128.243 223.09 128.559 222.511 128.63 221.88C128.63 221.15 128.63 220.24 128.63 219.28C128.63 217.28 128.63 215.01 128.58 212.46C128.58 211.17 128.58 209.82 128.58 208.46C128.596 208.132 128.543 207.805 128.423 207.499C128.304 207.194 128.121 206.917 127.887 206.687C127.652 206.457 127.372 206.28 127.064 206.167C126.756 206.054 126.427 206.007 126.1 206.03C125.771 206.031 125.445 206.102 125.145 206.238C124.845 206.375 124.578 206.573 124.36 206.82C124.151 207.069 123.994 207.358 123.898 207.669C123.802 207.979 123.769 208.306 123.8 208.63C123.8 210.03 123.8 211.38 123.8 212.63C123.8 215.18 123.8 217.49 123.8 219.46C123.8 219.94 123.8 220.4 123.8 220.84C123.764 221.242 123.764 221.647 123.8 222.05C123.925 222.672 124.283 223.223 124.8 223.59C125.265 223.89 125.798 224.069 126.35 224.11C126.205 224.14 126.055 224.14 125.91 224.11C125.476 224.089 125.055 223.955 124.69 223.72C124.102 223.342 123.682 222.75 123.52 222.07C123.456 221.65 123.433 221.225 123.45 220.8C123.45 220.36 123.45 219.9 123.45 219.42C123.45 217.42 123.45 215.14 123.39 212.59C123.39 211.31 123.39 209.96 123.39 208.59C123.355 208.204 123.397 207.816 123.513 207.446C123.63 207.077 123.819 206.735 124.07 206.44C124.332 206.129 124.658 205.879 125.025 205.706C125.393 205.534 125.794 205.443 126.2 205.44C126.601 205.413 127.003 205.473 127.379 205.614C127.755 205.756 128.096 205.976 128.38 206.26C128.664 206.544 128.884 206.885 129.026 207.261C129.167 207.637 129.227 208.039 129.2 208.44C129.2 209.83 129.2 211.18 129.2 212.44C129.2 214.99 129.2 217.29 129.14 219.26C129.14 220.26 129.14 221.09 129.07 221.9C129.027 222.241 128.917 222.569 128.745 222.866C128.573 223.163 128.344 223.423 128.07 223.63C127.727 223.891 127.319 224.054 126.89 224.1C126.685 224.184 126.457 224.187 126.25 224.11Z" fill="#263238"/>
<path d="M101.41 205.74H101.24C99.8261 205.74 98.68 206.886 98.68 208.3V221.55C98.68 222.964 99.8261 224.11 101.24 224.11H101.41C102.824 224.11 103.97 222.964 103.97 221.55V208.3C103.97 206.886 102.824 205.74 101.41 205.74Z" fill="#E0E0E0"/>
<path d="M101.41 224.11C101.958 224.036 102.478 223.823 102.92 223.49C103.413 223.09 103.729 222.511 103.8 221.88C103.8 221.15 103.8 220.24 103.8 219.28C103.8 217.28 103.8 215.01 103.74 212.46C103.74 211.17 103.74 209.82 103.74 208.46C103.756 208.132 103.703 207.805 103.583 207.499C103.464 207.194 103.281 206.917 103.047 206.687C102.812 206.458 102.532 206.28 102.224 206.167C101.916 206.054 101.587 206.007 101.26 206.03C100.93 206.031 100.605 206.101 100.305 206.238C100.005 206.374 99.7373 206.572 99.52 206.82C99.3094 207.069 99.1505 207.357 99.0526 207.668C98.9548 207.978 98.9199 208.306 98.95 208.63C98.95 210.03 98.95 211.38 98.95 212.63C98.95 215.18 98.95 217.49 98.89 219.46C98.89 219.94 98.89 220.4 98.89 220.84C98.8533 221.243 98.8533 221.648 98.89 222.05C99.0111 222.674 99.3696 223.226 99.89 223.59C100.351 223.891 100.881 224.069 101.43 224.11C101.43 224.11 101.29 224.11 100.99 224.11C100.559 224.089 100.142 223.954 99.78 223.72C99.1887 223.345 98.7685 222.752 98.61 222.07C98.5475 221.65 98.5208 221.225 98.53 220.8C98.53 220.36 98.53 219.9 98.53 219.42C98.53 217.42 98.53 215.14 98.53 212.59C98.53 211.31 98.53 209.96 98.53 208.59C98.4712 207.811 98.7188 207.039 99.22 206.44C99.4812 206.129 99.807 205.878 100.175 205.705C100.543 205.533 100.944 205.442 101.35 205.44C101.75 205.415 102.152 205.476 102.527 205.618C102.902 205.76 103.243 205.98 103.527 206.263C103.81 206.547 104.03 206.888 104.172 207.263C104.314 207.638 104.375 208.04 104.35 208.44C104.35 209.83 104.35 211.18 104.35 212.44C104.35 214.99 104.35 217.29 104.35 219.26C104.35 220.26 104.35 221.09 104.28 221.9C104.186 222.585 103.827 223.207 103.28 223.63C102.936 223.889 102.528 224.052 102.1 224.1C101.88 224.194 101.632 224.197 101.41 224.11Z" fill="#263238"/>
<g opacity="0.3">
<path d="M95.65 214.48C95.9834 217.737 95.6718 221.028 94.7329 224.164C93.794 227.301 92.2462 230.221 90.178 232.76C88.1099 235.298 85.5618 237.403 82.6796 238.956C79.7973 240.509 76.6372 241.479 73.38 241.81L74.38 228.14L86.77 214.67L95.65 214.48Z" fill="black"/>
</g>
<path d="M73.8605 236.124C86.349 232.975 93.9206 220.299 90.7721 207.811C87.6236 195.322 74.9473 187.751 62.4588 190.899C49.9703 194.048 42.3987 206.724 45.5472 219.212C48.6957 231.701 61.372 239.272 73.8605 236.124Z" fill="white"/>
<path d="M68.13 239.35C63.177 239.347 58.3293 237.92 54.1647 235.239C50.0001 232.558 46.694 228.736 44.6407 224.228C42.5873 219.721 41.8731 214.718 42.5832 209.817C43.2934 204.915 45.3979 200.321 48.6459 196.581C51.894 192.842 56.1487 190.115 60.903 188.726C65.6572 187.337 70.7106 187.345 75.4609 188.747C80.2111 190.15 84.458 192.889 87.6953 196.637C90.9326 200.386 93.024 204.986 93.72 209.89C94.6737 216.671 92.8998 223.554 88.7871 229.029C84.6744 234.505 78.5585 238.126 71.78 239.1C70.5705 239.267 69.351 239.35 68.13 239.35ZM68.19 192.72C67.1863 192.719 66.1838 192.789 65.19 192.93C61.1195 193.514 57.3135 195.292 54.2531 198.039C51.1926 200.786 49.0149 204.378 47.9953 208.362C46.9757 212.346 47.1599 216.542 48.5246 220.421C49.8892 224.301 52.3731 227.688 55.6625 230.156C58.9518 232.624 62.8988 234.062 67.0049 234.288C71.111 234.513 75.1918 233.517 78.7316 231.424C82.2715 229.331 85.1116 226.236 86.893 222.529C88.6743 218.823 89.3171 214.672 88.74 210.6C88.0377 205.646 85.5734 201.112 81.799 197.828C78.0247 194.544 73.1931 192.731 68.19 192.72Z" fill="#455A64"/>
<path d="M68.19 192.72C68.3028 192.704 68.4172 192.704 68.53 192.72C68.75 192.72 69.08 192.72 69.53 192.72C70.8052 192.777 72.0714 192.961 73.31 193.27C75.275 193.752 77.1585 194.52 78.9 195.55C81.22 196.917 83.2567 198.716 84.9 200.85C86.8875 203.446 88.2341 206.475 88.83 209.69C88.9833 210.567 89.0901 211.452 89.15 212.34C89.1751 212.796 89.1751 213.254 89.15 213.71C89.15 214.17 89.15 214.64 89.15 215.11C88.9898 217.03 88.5865 218.922 87.95 220.74C87.2048 222.635 86.2129 224.424 85 226.06C83.7242 227.744 82.2197 229.242 80.53 230.51C76.917 233.158 72.5543 234.585 68.075 234.585C63.5957 234.585 59.2329 233.158 55.62 230.51C52.2607 228.041 49.7152 224.625 48.31 220.7C47.6883 218.856 47.3052 216.941 47.17 215C47.0426 213.187 47.1501 211.365 47.49 209.58C48.2395 205.643 50.1092 202.007 52.8745 199.107C55.6399 196.206 59.1835 194.166 63.08 193.23C63.89 193.05 64.62 192.92 65.25 192.84L66.86 192.75H67.86H68.2L67.86 192.8L66.86 192.89L65.26 193.03C64.63 193.13 63.92 193.27 63.12 193.47C61.1842 193.973 59.3292 194.748 57.61 195.77C55.3523 197.131 53.3711 198.906 51.77 201C49.8287 203.551 48.5103 206.52 47.92 209.67C47.5905 211.42 47.493 213.205 47.63 214.98C47.784 216.856 48.1772 218.704 48.8 220.48C49.4961 222.335 50.4342 224.09 51.59 225.7C52.8552 227.344 54.3389 228.807 56 230.05C59.5272 232.626 63.7821 234.015 68.15 234.015C72.5179 234.015 76.7727 232.626 80.3 230.05C83.5876 227.651 86.0898 224.331 87.49 220.51C88.128 218.737 88.5314 216.888 88.69 215.01C88.75 214.56 88.69 214.1 88.69 213.65C88.7149 213.204 88.7149 212.756 88.69 212.31C88.6 211.43 88.56 210.55 88.39 209.7C87.8172 206.547 86.5159 203.571 84.59 201.01C81.766 197.283 77.7786 194.604 73.26 193.4C72.0349 193.078 70.7831 192.867 69.52 192.77C68.65 192.74 68.19 192.75 68.19 192.72Z" fill="#263238"/>
<path d="M68.13 239.35H68.55L69.77 239.28C70.31 239.28 70.97 239.17 71.77 239.05L74.44 238.5C76.8372 237.851 79.1374 236.886 81.28 235.63C84.0899 233.918 86.5555 231.697 88.55 229.08C90.95 225.895 92.5824 222.199 93.32 218.28C93.4356 217.753 93.5158 217.218 93.56 216.68C93.56 216.14 93.68 215.6 93.73 215.05C93.78 214.5 93.73 213.94 93.73 213.38V212.53L93.65 211.68C93.4954 209.34 93.0106 207.034 92.21 204.83C90.4076 199.908 87.1419 195.655 82.8516 192.642C78.5614 189.63 73.452 188.003 68.21 187.98C62.9539 187.968 57.8217 189.576 53.5127 192.586C49.2036 195.596 45.9273 199.861 44.13 204.8C42.5463 209.089 42.1558 213.727 43 218.22C43.3692 220.253 43.9837 222.235 44.83 224.12C45.2371 225.004 45.6911 225.865 46.19 226.7L46.93 227.91L47.76 229.02C49.7297 231.651 52.1878 233.879 55 235.58C57.1356 236.85 59.4378 237.816 61.84 238.45C62.7141 238.687 63.6026 238.868 64.5 238.99C65.1611 239.111 65.829 239.191 66.5 239.23L67.73 239.31H68.15C68.0106 239.328 67.8695 239.328 67.73 239.31H66.5C65.8301 239.294 65.162 239.234 64.5 239.13C63.5958 239.023 62.7003 238.853 61.82 238.62C56.0967 237.233 51.0277 233.913 47.47 229.22L46.63 228.1L45.87 226.88C45.3578 226.035 44.8904 225.164 44.47 224.27C43.6062 222.352 42.9751 220.338 42.59 218.27C41.6967 213.695 42.0631 208.963 43.65 204.58C45.4687 199.537 48.8018 195.179 53.1931 192.104C57.5843 189.028 62.8189 187.385 68.18 187.4C73.5372 187.404 78.7632 189.058 83.147 192.137C87.5307 195.217 90.8594 199.572 92.68 204.61C93.4946 206.862 93.9829 209.219 94.13 211.61L94.2 212.47V213.33C94.2 213.9 94.2 214.47 94.2 215.03C94.2 215.59 94.08 216.15 94.02 216.7C93.9774 217.246 93.8938 217.787 93.77 218.32C93.0031 222.299 91.3261 226.047 88.87 229.27C86.8331 231.905 84.3195 234.133 81.46 235.84C79.2842 237.088 76.9498 238.037 74.52 238.66L71.82 239.17C71.04 239.27 70.37 239.32 69.82 239.34C69.27 239.36 68.82 239.34 68.59 239.34C68.36 239.34 68.13 239.35 68.13 239.35Z" fill="#263238"/>
<path d="M80.3566 181.303L78.226 184.72L91.928 193.263L94.0586 189.846L80.3566 181.303Z" fill="#455A64"/>
<path d="M91.53 193.45C91.6868 193.106 91.8637 192.773 92.06 192.45L93.53 190V190.22C90.43 188.35 85.42 185.27 79.81 181.76L80.17 181.68V181.74L80.1 181.85L79.96 182.06L79.69 182.5L79.15 183.36C78.8033 183.927 78.47 184.487 78.15 185.04L78.07 184.69C81.92 187.11 85.27 189.26 87.69 190.84L90.55 192.71C90.8961 192.939 91.2299 193.186 91.55 193.45C91.2039 193.287 90.8697 193.1 90.55 192.89L87.66 191.17C85.2 189.69 81.72 187.58 77.77 185.17L77.55 185.03L77.69 184.82L78.69 183.13L79.23 182.27L79.5 181.84L79.64 181.62L79.71 181.51V181.46L80.06 181.38C85.68 184.89 90.64 188.04 93.68 190.01L93.81 190.1L93.73 190.23C93.01 191.33 92.44 192.17 92.06 192.74C91.9009 192.989 91.7237 193.227 91.53 193.45Z" fill="#263238"/>
<path d="M47.0386 186.995L35.8361 199.742L38.8557 202.396L50.0582 189.649L47.0386 186.995Z" fill="#455A64"/>
<path d="M38.87 202.39C38.87 202.39 39.17 201.99 39.71 201.33L42 198.58C44 196.27 46.7 193.08 49.84 189.48V189.84L46.84 187.19H47.21L47.15 187.26L47.04 187.38L46.83 187.62L46.4 188.11L45.55 189.11L43.89 191L40.82 194.46L36 199.84V199.62C36.87 200.43 37.58 201.1 38.14 201.62C38.7 202.14 38.92 202.38 38.92 202.4C38.6307 202.224 38.3594 202.019 38.11 201.79C37.58 201.36 36.79 200.71 35.8 199.86L35.68 199.76L35.78 199.65L40.52 194.13L43.52 190.65C44.05 190.03 44.6 189.41 45.16 188.77C45.43 188.45 45.72 188.13 46 187.77L46.43 187.28L46.64 187.04L46.75 186.91L46.81 186.85H47.18L50.18 189.51L50.37 189.68L50.2 189.87C46.96 193.53 44.1 196.71 42.06 198.95L39.67 201.56C39.4206 201.853 39.1535 202.13 38.87 202.39Z" fill="#263238"/>
<path d="M57.98 215.56L59.97 211.78L67.08 214.99L74.73 201.06L78.31 203.12L68.4 220.69L57.98 215.56Z" fill="#455A64"/>
<path d="M68.41 220.72L58 215.57L60 211.76L67.07 215L74.72 201L78.32 203.07L68.41 220.72ZM58 215.55L68.38 220.65L78.27 203.13L74.73 201.13L67.09 215L60 211.81L58 215.55Z" fill="#263238"/>
<path d="M54.26 242.31C53.8799 242.2 53.5141 242.045 53.17 241.85C52.767 241.658 52.3762 241.441 52 241.2C51.4627 240.894 50.942 240.561 50.44 240.2C49.1115 239.311 47.8634 238.307 46.71 237.2C45.3017 235.842 44.0229 234.355 42.89 232.76C41.7792 231.151 40.8185 229.444 40.02 227.66C39.3853 226.195 38.8735 224.68 38.49 223.13C38.3353 222.537 38.2118 221.936 38.12 221.33C38.0268 220.878 37.9633 220.42 37.93 219.96C37.8701 219.573 37.85 219.181 37.87 218.79C37.97 218.79 38.13 220.45 38.87 223.04C39.2951 224.552 39.8333 226.029 40.48 227.46C41.2882 229.206 42.2451 230.878 43.34 232.46C44.4319 234.044 45.6563 235.533 47 236.91C48.1263 237.999 49.333 239.002 50.61 239.91C52.79 241.5 54.31 242.22 54.26 242.31Z" fill="#263238"/>
<path d="M42.46 237C41.8222 236.435 41.2608 235.79 40.79 235.08C39.5758 233.42 38.5148 231.652 37.62 229.8C36.7275 227.939 36.0143 225.997 35.49 224C35.2124 223.193 35.0475 222.352 35 221.5C35.3189 222.283 35.5894 223.084 35.81 223.9C36.4297 225.834 37.178 227.725 38.05 229.56C38.9354 231.383 39.9375 233.146 41.05 234.84C41.5716 235.525 42.0428 236.247 42.46 237Z" fill="#263238"/>
<path d="M350.16 220.85L361.41 201C354.462 189.711 351.989 176.231 354.475 163.21C356.961 150.19 364.227 138.57 374.846 130.635C385.464 122.699 398.667 119.023 411.858 120.327C425.05 121.632 437.276 127.823 446.135 137.685C454.993 147.546 459.843 160.364 459.731 173.619C459.618 186.875 454.552 199.609 445.528 209.319C436.504 219.028 424.174 225.012 410.962 226.093C397.751 227.174 384.612 223.274 374.13 215.16L350.16 220.85Z" fill="#FAFAFA"/>
<path d="M350.16 220.85L374.16 215.08L374.09 215.28C374.077 215.269 374.067 215.255 374.06 215.239C374.053 215.224 374.049 215.207 374.049 215.19C374.049 215.173 374.053 215.156 374.06 215.141C374.067 215.125 374.077 215.111 374.09 215.1C374.112 215.08 374.14 215.069 374.17 215.069C374.2 215.069 374.228 215.08 374.25 215.1C377.612 217.677 381.263 219.852 385.13 221.58C389.728 223.618 394.594 224.988 399.58 225.65C402.343 226.022 405.134 226.156 407.92 226.05C409.35 225.96 410.81 225.92 412.28 225.79L416.72 225.11C429.919 222.476 441.628 214.932 449.48 204C453.844 197.945 456.865 191.027 458.34 183.71C459.845 175.974 459.626 168.002 457.7 160.36C457.44 159.36 457.22 158.36 456.93 157.44L455.93 154.59C455.219 152.677 454.391 150.811 453.45 149C452.998 148.08 452.491 147.188 451.93 146.33C451.39 145.45 450.87 144.56 450.31 143.69L448.45 141.2L447.52 139.95C447.21 139.53 446.83 139.17 446.52 138.78L444.38 136.42C443.67 135.63 442.83 134.98 442.07 134.25L440.9 133.19C440.52 132.83 440.115 132.496 439.69 132.19L437.17 130.31C436.75 130.01 436.35 129.66 435.9 129.4L434.56 128.58L431.9 126.97L429.12 125.61C428.206 125.136 427.265 124.719 426.3 124.36C418.832 121.4 410.793 120.16 402.78 120.73C395.18 121.199 387.777 123.34 381.1 127C369.151 133.64 360.203 144.61 356.1 157.65C354.458 163.202 353.669 168.971 353.76 174.76C353.887 179.789 354.736 184.773 356.28 189.56C357.572 193.564 359.327 197.403 361.51 201C361.524 201.019 361.531 201.042 361.531 201.065C361.531 201.088 361.524 201.111 361.51 201.13L350.16 220.89C350.59 220.11 354.16 213.78 361.3 201V201.13C359.094 197.532 357.316 193.69 356 189.68C354.421 184.868 353.549 179.852 353.41 174.79C353.298 168.959 354.077 163.146 355.72 157.55C359.824 144.374 368.83 133.277 380.88 126.55C387.588 122.835 395.03 120.636 402.68 120.11C410.773 119.531 418.893 120.779 426.44 123.76C427.411 124.125 428.36 124.55 429.28 125.03C430.21 125.48 431.16 125.92 432.09 126.39L434.78 128.02L436.13 128.84C436.58 129.11 436.98 129.46 437.41 129.77L439.96 131.67C440.389 131.976 440.796 132.31 441.18 132.67L442.36 133.74C443.13 134.48 443.98 135.14 444.69 135.94L446.85 138.32C447.2 138.72 447.58 139.08 447.85 139.5L448.79 140.76L450.67 143.28C451.24 144.15 451.76 145.05 452.31 145.94C452.872 146.81 453.383 147.711 453.84 148.64C454.792 150.465 455.627 152.349 456.34 154.28C456.693 155.253 457.043 156.213 457.39 157.16C457.68 158.16 457.91 159.16 458.17 160.16C460.114 167.874 460.329 175.923 458.8 183.73C457.294 191.12 454.225 198.103 449.8 204.21C441.873 215.254 430.031 222.858 416.69 225.47L412.21 226.15C410.73 226.28 409.26 226.31 407.82 226.39C405.013 226.504 402.202 226.364 399.42 225.97C394.442 225.289 389.586 223.902 385 221.85C381.119 220.094 377.457 217.889 374.09 215.28L374.27 215.1C374.294 215.126 374.307 215.16 374.307 215.195C374.307 215.23 374.294 215.264 374.27 215.29H374.22L350.16 220.85Z" fill="#263238"/>
<path d="M412.59 148.85L410.82 176.85C410.749 177.957 410.276 179 409.489 179.783C408.703 180.566 407.658 181.034 406.55 181.1C405.393 181.172 404.252 180.797 403.363 180.053C402.473 179.309 401.903 178.252 401.77 177.1L398.66 148.96C398.599 148.455 398.646 147.942 398.799 147.457C398.952 146.971 399.207 146.524 399.547 146.145C399.887 145.766 400.304 145.465 400.77 145.26C401.237 145.056 401.741 144.953 402.25 144.96L409.08 145.06C409.563 145.067 410.039 145.172 410.48 145.369C410.921 145.565 411.318 145.85 411.646 146.204C411.974 146.558 412.227 146.975 412.389 147.43C412.552 147.885 412.62 148.368 412.59 148.85Z" fill="#FC7300"/>
<path d="M400.6 196.85C401.025 198.135 401.821 199.264 402.888 200.096C403.956 200.928 405.245 201.425 406.595 201.524C407.944 201.622 409.293 201.319 410.47 200.651C411.646 199.983 412.599 198.981 413.206 197.772C413.814 196.563 414.049 195.201 413.882 193.858C413.715 192.516 413.153 191.252 412.269 190.229C411.384 189.205 410.215 188.467 408.911 188.108C407.606 187.748 406.224 187.784 404.94 188.21C403.221 188.783 401.799 190.014 400.985 191.634C400.172 193.253 400.033 195.129 400.6 196.85Z" fill="#FC7300"/>
</svg>
