<svg width="500" height="500" viewBox="0 0 500 500" fill="none" xmlns="http://www.w3.org/2000/svg">
<path d="M500 382.4H0V382.65H500V382.4Z" fill="#EBEBEB"/>
<path d="M449.9 398.49H416.78V398.74H449.9V398.49Z" fill="#EBEBEB"/>
<path d="M331.22 401.21H322.53V401.46H331.22V401.21Z" fill="#EBEBEB"/>
<path d="M415.78 389.21H396.59V389.46H415.78V389.21Z" fill="#EBEBEB"/>
<path d="M95.65 390.89H52.46V391.14H95.65V390.89Z" fill="#EBEBEB"/>
<path d="M110.89 390.89H104.56V391.14H110.89V390.89Z" fill="#EBEBEB"/>
<path d="M225.15 395.11H131.47V395.36H225.15V395.11Z" fill="#EBEBEB"/>
<path d="M237 337.8H43.91C42.3974 337.797 40.9476 337.195 39.8789 336.124C38.8102 335.054 38.21 333.603 38.21 332.09V60.66C38.2232 59.156 38.8292 57.718 39.8965 56.6582C40.9637 55.5985 42.406 55.0026 43.91 55H237C238.514 55 239.967 55.6016 241.038 56.6724C242.108 57.7433 242.71 59.1956 242.71 60.71V332.09C242.71 333.604 242.108 335.057 241.038 336.128C239.967 337.198 238.514 337.8 237 337.8ZM43.91 55.2C42.4637 55.2026 41.0775 55.7791 40.0557 56.8027C39.0339 57.8264 38.46 59.2136 38.46 60.66V332.09C38.46 333.536 39.0339 334.924 40.0557 335.947C41.0775 336.971 42.4637 337.547 43.91 337.55H237C238.447 337.547 239.835 336.971 240.858 335.948C241.881 334.924 242.457 333.537 242.46 332.09V60.66C242.457 59.2127 241.881 57.8255 240.858 56.8021C239.835 55.7787 238.447 55.2026 237 55.2H43.91Z" fill="#EBEBEB"/>
<path d="M453.31 337.8H260.21C258.696 337.797 257.246 337.195 256.175 336.125C255.105 335.054 254.503 333.604 254.5 332.09V60.66C254.516 59.1551 255.124 57.7171 256.193 56.6576C257.262 55.5981 258.705 55.0025 260.21 55H453.31C454.812 55.0052 456.252 55.6022 457.317 56.6617C458.382 57.7212 458.987 59.1578 459 60.66V332.09C459 333.601 458.401 335.05 457.335 336.121C456.268 337.191 454.821 337.795 453.31 337.8ZM260.21 55.2C258.763 55.2026 257.375 55.7787 256.352 56.8021C255.329 57.8255 254.753 59.2127 254.75 60.66V332.09C254.753 333.537 255.329 334.924 256.352 335.948C257.375 336.971 258.763 337.547 260.21 337.55H453.31C454.757 337.547 456.145 336.971 457.168 335.948C458.191 334.924 458.767 333.537 458.77 332.09V60.66C458.767 59.2127 458.191 57.8255 457.168 56.8021C456.145 55.7787 454.757 55.2026 453.31 55.2H260.21Z" fill="#EBEBEB"/>
<path d="M388.15 381.78H428.66L420.48 235.31H396.34L388.15 381.78Z" fill="#F0F0F0"/>
<path d="M422.17 231.76H394.64V239.32H422.17V231.76Z" fill="#EBEBEB"/>
<path d="M339.03 381.78H379.54L371.36 235.31H347.22L339.03 381.78Z" fill="#F0F0F0"/>
<path d="M373.05 231.76H345.52V239.32H373.05V231.76Z" fill="#EBEBEB"/>
<path d="M392.92 358.74H348.88V381.78H392.92V358.74Z" fill="#E6E6E6"/>
<path d="M344.84 358.74H300.8V381.78H344.84V358.74Z" fill="#E0E0E0"/>
<path d="M442.43 358.74H398.39V381.78H442.43V358.74Z" fill="#E6E6E6"/>
<path d="M180.81 314.77V304.46L155.34 314.77V304.46L129.88 314.77V304.46L104.41 314.77V304.46L73.68 316.9H73.37V244.91H57.56V381.78H63.53H73.37H206.28V324.41V316.9V304.46L180.81 314.77Z" fill="#F0F0F0"/>
<path d="M227.44 344.6H150.12V381.79H227.44V344.6Z" fill="#E6E6E6"/>
<path d="M139.12 343.84H126.31C125.869 343.846 125.433 343.94 125.028 344.115C124.623 344.29 124.256 344.543 123.949 344.859C123.641 345.176 123.399 345.55 123.237 345.96C123.074 346.37 122.993 346.809 123 347.25V373.25C122.994 374.003 123.239 374.736 123.695 375.335C124.151 375.934 124.793 376.365 125.52 376.56V381.75H127.64V376.7H131.64V381.78H133.76V376.7H137.76V381.78H139.88V376.59C140.606 376.395 141.247 375.964 141.701 375.364C142.156 374.765 142.398 374.032 142.39 373.28V347.28C142.412 346.39 142.079 345.529 141.466 344.884C140.853 344.239 140.009 343.864 139.12 343.84Z" fill="#E6E6E6"/>
<path d="M115.48 343.84H102.67C102.229 343.846 101.793 343.94 101.388 344.115C100.983 344.29 100.616 344.543 100.309 344.859C100.001 345.176 99.7593 345.55 99.5965 345.96C99.4338 346.37 99.3534 346.809 99.36 347.25V373.25C99.3508 374.004 99.5938 374.739 100.05 375.339C100.507 375.938 101.151 376.368 101.88 376.56V381.75H104V376.7H108V381.78H110.11V376.7H114.11V381.78H116.22V376.59C116.947 376.395 117.589 375.964 118.045 375.365C118.501 374.766 118.746 374.033 118.74 373.28V347.28C118.762 346.392 118.431 345.532 117.82 344.887C117.209 344.243 116.368 343.866 115.48 343.84Z" fill="#E6E6E6"/>
<path d="M91.83 343.84H79C78.5588 343.846 78.1231 343.94 77.7179 344.115C77.3128 344.29 76.946 344.543 76.6387 344.859C76.3313 345.176 76.0893 345.55 75.9265 345.96C75.7638 346.37 75.6834 346.809 75.69 347.25V373.25C75.6843 374.003 75.9286 374.736 76.3847 375.335C76.8408 375.934 77.4828 376.365 78.21 376.56V381.75H80.32V376.7H84.32V381.78H86.43V376.7H90.43V381.78H92.54V376.59C93.269 376.398 93.913 375.968 94.3696 375.369C94.8262 374.769 95.0692 374.034 95.06 373.28V347.28C95.0817 346.397 94.755 345.541 94.1505 344.898C93.546 344.254 92.7124 343.874 91.83 343.84Z" fill="#E6E6E6"/>
<path d="M77.11 209.71C76.92 205.9 84.98 204.32 86.51 207.49C88.04 210.66 85 213 85 213C85 213 89.6 214.9 85.77 217.8C81.94 220.7 80.39 217.8 80.39 217.8C80.39 217.8 75.98 221.9 74.83 220.31C73.68 218.72 76 217.53 76 217.53C76 217.53 72.29 217.77 72.8 214.01C73.31 210.25 77.11 209.71 77.11 209.71Z" fill="#E0E0E0"/>
<path d="M65.44 227.44C65.34 225.54 69.38 224.75 70.14 226.33C70.3357 226.811 70.3673 227.343 70.2299 227.844C70.0925 228.345 69.7938 228.786 69.38 229.1C69.38 229.1 71.68 230.1 69.76 231.5C67.84 232.9 67.07 231.5 67.07 231.5C67.07 231.5 64.87 233.55 64.29 232.76C63.71 231.97 64.87 231.35 64.87 231.35C64.6384 231.38 64.4029 231.354 64.1837 231.273C63.9645 231.192 63.768 231.06 63.6109 230.887C63.4537 230.715 63.3407 230.506 63.2814 230.28C63.222 230.055 63.2181 229.818 63.27 229.59C63.3585 229.048 63.6161 228.549 64.0059 228.163C64.3957 227.776 64.8977 227.524 65.44 227.44Z" fill="#E0E0E0"/>
<path d="M63.88 187.81C63.6 182.35 75.17 180.07 77.38 184.62C79.59 189.17 75.17 192.57 75.17 192.57C75.17 192.57 81.79 195.29 76.28 199.47C70.77 203.65 68.56 199.47 68.56 199.47C68.56 199.47 62.23 205.34 60.56 203.07C58.89 200.8 62.22 199.07 62.22 199.07C62.22 199.07 56.89 199.42 57.62 194.07C58.35 188.72 63.88 187.81 63.88 187.81Z" fill="#E0E0E0"/>
<path d="M364 198.89C363.81 195.08 371.87 193.5 373.4 196.67C374.93 199.84 371.87 202.21 371.87 202.21C371.87 202.21 376.47 204.11 372.64 207.01C368.81 209.91 367.26 207.01 367.26 207.01C367.26 207.01 362.85 211.11 361.7 209.52C360.55 207.93 362.85 206.71 362.85 206.71C362.85 206.71 359.14 206.95 359.65 203.19C360.16 199.43 364 198.89 364 198.89Z" fill="#E0E0E0"/>
<path d="M352.31 216.62C352.21 214.72 356.24 213.93 357.01 215.51C357.205 215.992 357.235 216.525 357.095 217.026C356.956 217.527 356.655 217.968 356.24 218.28C356.24 218.28 358.55 219.23 356.63 220.68C354.71 222.13 353.94 220.68 353.94 220.68C353.94 220.68 351.74 222.68 351.16 221.94C350.58 221.2 351.74 220.53 351.74 220.53C351.508 220.56 351.273 220.534 351.054 220.453C350.834 220.373 350.638 220.24 350.481 220.067C350.324 219.895 350.211 219.686 350.151 219.461C350.092 219.235 350.088 218.998 350.14 218.77C350.229 218.229 350.486 217.729 350.876 217.343C351.266 216.957 351.768 216.704 352.31 216.62Z" fill="#E0E0E0"/>
<path d="M350.75 177C350.47 171.53 362.04 169.26 364.25 173.81C366.46 178.36 362.04 181.76 362.04 181.76C362.04 181.76 368.66 184.48 363.15 188.66C357.64 192.84 355.43 188.66 355.43 188.66C355.43 188.66 349.1 194.53 347.43 192.26C345.76 189.99 349.09 188.26 349.09 188.26C349.09 188.26 343.76 188.61 344.49 183.26C345.22 177.91 350.75 177 350.75 177Z" fill="#E0E0E0"/>
<path d="M417.46 201.87C417.27 198.06 425.33 196.48 426.87 199.64C428.41 202.8 425.33 205.18 425.33 205.18C425.33 205.18 429.94 207.08 426.1 209.99C422.26 212.9 420.72 209.99 420.72 209.99C420.72 209.99 416.31 214.08 415.16 212.5C414.01 210.92 416.31 209.69 416.31 209.69C416.31 209.69 412.6 209.93 413.11 206.17C413.62 202.41 417.46 201.87 417.46 201.87Z" fill="#E0E0E0"/>
<path d="M405.79 219.6C405.7 217.7 409.73 216.9 410.5 218.49C410.693 218.972 410.722 219.505 410.583 220.005C410.444 220.506 410.144 220.946 409.73 221.26C409.73 221.26 412.03 222.26 410.11 223.66C408.19 225.06 407.42 223.66 407.42 223.66C407.42 223.66 405.22 225.71 404.64 224.92C404.06 224.13 405.22 223.51 405.22 223.51C404.988 223.54 404.753 223.514 404.534 223.433C404.314 223.353 404.118 223.22 403.961 223.047C403.804 222.875 403.691 222.666 403.631 222.44C403.572 222.215 403.568 221.978 403.62 221.75C403.709 221.209 403.966 220.709 404.356 220.323C404.746 219.937 405.248 219.684 405.79 219.6Z" fill="#E0E0E0"/>
<path d="M404.23 180C403.96 174.53 415.53 172.26 417.73 176.8C419.93 181.34 415.53 184.75 415.53 184.75C415.53 184.75 422.14 187.48 416.63 191.65C411.12 195.82 408.91 191.65 408.91 191.65C408.91 191.65 402.58 197.53 400.91 195.26C399.24 192.99 402.56 191.26 402.56 191.26C402.56 191.26 397.23 191.61 397.97 186.21C398.71 180.81 404.23 180 404.23 180Z" fill="#E0E0E0"/>
<path d="M339.9 331.24V307.16H333.77V223.44H324.91V212.63L305.99 203.54V192.65H303.37V223.44H299.7V307.16H296.04V263.14H286.08V240.45H283.3V307.16H275.74V281.77H270.76V275.29H259.23V253.15H252.91V237.48H245.15V214.66H242.38V237.48H234.62V253.15H228.31V275.29H216.78V281.77H211.8V307.16H205.89V275.29H194.36V206.69H190.69V199.13H166.06V206.69H160.82V256.39H139.85V261.25H131.99V265.03H139.85V284.48H127.09V284.6H106.86V381.78H344.09V331.24H339.9Z" fill="#E6E6E6"/>
<path d="M114.38 289.4H111.41V292.46H114.38V289.4Z" fill="#F0F0F0"/>
<path d="M114.38 294.53H111.41V297.59H114.38V294.53Z" fill="#F0F0F0"/>
<path d="M167.48 209.36H164.51V212.42H167.48V209.36Z" fill="#F0F0F0"/>
<path d="M167.48 214.49H164.51V217.55H167.48V214.49Z" fill="#F0F0F0"/>
<path d="M167.48 219.62H164.51V222.68H167.48V219.62Z" fill="#F0F0F0"/>
<path d="M167.48 224.76H164.51V227.82H167.48V224.76Z" fill="#F0F0F0"/>
<path d="M167.48 229.89H164.51V232.95H167.48V229.89Z" fill="#F0F0F0"/>
<path d="M167.48 235.02H164.51V238.08H167.48V235.02Z" fill="#F0F0F0"/>
<path d="M167.48 240.15H164.51V243.21H167.48V240.15Z" fill="#F0F0F0"/>
<path d="M167.48 245.28H164.51V248.34H167.48V245.28Z" fill="#F0F0F0"/>
<path d="M167.48 260.68H164.51V263.74H167.48V260.68Z" fill="#F0F0F0"/>
<path d="M167.48 265.81H164.51V268.87H167.48V265.81Z" fill="#F0F0F0"/>
<path d="M172.2 209.36H169.23V212.42H172.2V209.36Z" fill="#F0F0F0"/>
<path d="M172.2 214.49H169.23V217.55H172.2V214.49Z" fill="#F0F0F0"/>
<path d="M172.2 219.62H169.23V222.68H172.2V219.62Z" fill="#F0F0F0"/>
<path d="M172.2 224.76H169.23V227.82H172.2V224.76Z" fill="#F0F0F0"/>
<path d="M172.2 229.89H169.23V232.95H172.2V229.89Z" fill="#F0F0F0"/>
<path d="M172.2 235.02H169.23V238.08H172.2V235.02Z" fill="#F0F0F0"/>
<path d="M172.2 240.15H169.23V243.21H172.2V240.15Z" fill="#F0F0F0"/>
<path d="M172.2 245.28H169.23V248.34H172.2V245.28Z" fill="#F0F0F0"/>
<path d="M172.2 265.81H169.23V268.87H172.2V265.81Z" fill="#F0F0F0"/>
<path d="M176.92 209.36H173.95V212.42H176.92V209.36Z" fill="#F0F0F0"/>
<path d="M176.92 214.49H173.95V217.55H176.92V214.49Z" fill="#F0F0F0"/>
<path d="M176.92 219.62H173.95V222.68H176.92V219.62Z" fill="#F0F0F0"/>
<path d="M176.92 224.76H173.95V227.82H176.92V224.76Z" fill="#F0F0F0"/>
<path d="M176.92 229.89H173.95V232.95H176.92V229.89Z" fill="#F0F0F0"/>
<path d="M176.92 235.02H173.95V238.08H176.92V235.02Z" fill="#F0F0F0"/>
<path d="M176.92 240.15H173.95V243.21H176.92V240.15Z" fill="#F0F0F0"/>
<path d="M176.92 245.28H173.95V248.34H176.92V245.28Z" fill="#F0F0F0"/>
<path d="M181.64 209.36H178.67V212.42H181.64V209.36Z" fill="#F0F0F0"/>
<path d="M181.64 214.49H178.67V217.55H181.64V214.49Z" fill="#F0F0F0"/>
<path d="M181.64 219.62H178.67V222.68H181.64V219.62Z" fill="#F0F0F0"/>
<path d="M181.64 224.76H178.67V227.82H181.64V224.76Z" fill="#F0F0F0"/>
<path d="M181.64 229.89H178.67V232.95H181.64V229.89Z" fill="#F0F0F0"/>
<path d="M181.64 235.02H178.67V238.08H181.64V235.02Z" fill="#F0F0F0"/>
<path d="M181.64 245.28H178.67V248.34H181.64V245.28Z" fill="#F0F0F0"/>
<path d="M181.64 250.41H178.67V253.47H181.64V250.41Z" fill="#F0F0F0"/>
<path d="M181.64 265.81H178.67V268.87H181.64V265.81Z" fill="#F0F0F0"/>
<path d="M181.64 270.94H178.67V274H181.64V270.94Z" fill="#F0F0F0"/>
<path d="M181.64 276.07H178.67V279.13H181.64V276.07Z" fill="#F0F0F0"/>
<path d="M181.64 281.2H178.67V284.26H181.64V281.2Z" fill="#F0F0F0"/>
<path d="M181.64 286.33H178.67V289.39H181.64V286.33Z" fill="#F0F0F0"/>
<path d="M181.64 291.47H178.67V294.53H181.64V291.47Z" fill="#F0F0F0"/>
<path d="M181.64 296.6H178.67V299.66H181.64V296.6Z" fill="#F0F0F0"/>
<path d="M186.35 209.36H183.38V212.42H186.35V209.36Z" fill="#F0F0F0"/>
<path d="M186.35 214.49H183.38V217.55H186.35V214.49Z" fill="#F0F0F0"/>
<path d="M186.35 219.62H183.38V222.68H186.35V219.62Z" fill="#F0F0F0"/>
<path d="M186.35 224.76H183.38V227.82H186.35V224.76Z" fill="#F0F0F0"/>
<path d="M186.35 229.89H183.38V232.95H186.35V229.89Z" fill="#F0F0F0"/>
<path d="M186.35 235.02H183.38V238.08H186.35V235.02Z" fill="#F0F0F0"/>
<path d="M186.35 250.41H183.38V253.47H186.35V250.41Z" fill="#F0F0F0"/>
<path d="M186.35 255.55H183.38V258.61H186.35V255.55Z" fill="#F0F0F0"/>
<path d="M186.35 260.68H183.38V263.74H186.35V260.68Z" fill="#F0F0F0"/>
<path d="M186.35 265.81H183.38V268.87H186.35V265.81Z" fill="#F0F0F0"/>
<path d="M186.35 270.94H183.38V274H186.35V270.94Z" fill="#F0F0F0"/>
<path d="M186.35 276.07H183.38V279.13H186.35V276.07Z" fill="#F0F0F0"/>
<path d="M186.35 281.2H183.38V284.26H186.35V281.2Z" fill="#F0F0F0"/>
<path d="M186.35 286.33H183.38V289.39H186.35V286.33Z" fill="#F0F0F0"/>
<path d="M186.35 291.47H183.38V294.53H186.35V291.47Z" fill="#F0F0F0"/>
<path d="M186.35 296.6H183.38V299.66H186.35V296.6Z" fill="#F0F0F0"/>
<path d="M186.35 301.73H183.38V304.79H186.35V301.73Z" fill="#F0F0F0"/>
<path d="M186.35 311.99H183.38V315.05H186.35V311.99Z" fill="#F0F0F0"/>
<path d="M191.07 209.36H188.1V212.42H191.07V209.36Z" fill="#F0F0F0"/>
<path d="M191.07 214.49H188.1V217.55H191.07V214.49Z" fill="#F0F0F0"/>
<path d="M191.07 219.62H188.1V222.68H191.07V219.62Z" fill="#F0F0F0"/>
<path d="M191.07 224.76H188.1V227.82H191.07V224.76Z" fill="#F0F0F0"/>
<path d="M191.07 229.89H188.1V232.95H191.07V229.89Z" fill="#F0F0F0"/>
<path d="M191.07 235.02H188.1V238.08H191.07V235.02Z" fill="#F0F0F0"/>
<path d="M191.07 250.41H188.1V253.47H191.07V250.41Z" fill="#F0F0F0"/>
<path d="M191.07 255.55H188.1V258.61H191.07V255.55Z" fill="#F0F0F0"/>
<path d="M191.07 260.68H188.1V263.74H191.07V260.68Z" fill="#F0F0F0"/>
<path d="M191.07 265.81H188.1V268.87H191.07V265.81Z" fill="#F0F0F0"/>
<path d="M191.07 281.2H188.1V284.26H191.07V281.2Z" fill="#F0F0F0"/>
<path d="M191.07 286.33H188.1V289.39H191.07V286.33Z" fill="#F0F0F0"/>
<path d="M191.07 291.47H188.1V294.53H191.07V291.47Z" fill="#F0F0F0"/>
<path d="M191.07 296.6H188.1V299.66H191.07V296.6Z" fill="#F0F0F0"/>
<path d="M191.07 301.73H188.1V304.79H191.07V301.73Z" fill="#F0F0F0"/>
<path d="M191.07 311.99H188.1V315.05H191.07V311.99Z" fill="#F0F0F0"/>
<path d="M191.07 317.12H188.1V320.18H191.07V317.12Z" fill="#F0F0F0"/>
<path d="M233.87 257.08H230.9V260.14H233.87V257.08Z" fill="#F0F0F0"/>
<path d="M233.87 262.21H230.9V265.27H233.87V262.21Z" fill="#F0F0F0"/>
<path d="M233.87 267.34H230.9V270.4H233.87V267.34Z" fill="#F0F0F0"/>
<path d="M233.87 272.47H230.9V275.53H233.87V272.47Z" fill="#F0F0F0"/>
<path d="M233.87 277.6H230.9V280.66H233.87V277.6Z" fill="#F0F0F0"/>
<path d="M233.87 282.73H230.9V285.79H233.87V282.73Z" fill="#F0F0F0"/>
<path d="M233.87 287.87H230.9V290.93H233.87V287.87Z" fill="#F0F0F0"/>
<path d="M233.87 303.26H230.9V306.32H233.87V303.26Z" fill="#F0F0F0"/>
<path d="M233.87 308.39H230.9V311.45H233.87V308.39Z" fill="#F0F0F0"/>
<path d="M233.87 313.52H230.9V316.58H233.87V313.52Z" fill="#F0F0F0"/>
<path d="M238.59 257.08H235.62V260.14H238.59V257.08Z" fill="#F0F0F0"/>
<path d="M238.59 262.21H235.62V265.27H238.59V262.21Z" fill="#F0F0F0"/>
<path d="M238.59 267.34H235.62V270.4H238.59V267.34Z" fill="#F0F0F0"/>
<path d="M238.59 272.47H235.62V275.53H238.59V272.47Z" fill="#F0F0F0"/>
<path d="M238.59 277.6H235.62V280.66H238.59V277.6Z" fill="#F0F0F0"/>
<path d="M238.59 282.73H235.62V285.79H238.59V282.73Z" fill="#F0F0F0"/>
<path d="M238.59 287.87H235.62V290.93H238.59V287.87Z" fill="#F0F0F0"/>
<path d="M243.3 257.08H240.33V260.14H243.3V257.08Z" fill="#F0F0F0"/>
<path d="M243.3 262.21H240.33V265.27H243.3V262.21Z" fill="#F0F0F0"/>
<path d="M243.3 267.34H240.33V270.4H243.3V267.34Z" fill="#F0F0F0"/>
<path d="M243.3 272.47H240.33V275.53H243.3V272.47Z" fill="#F0F0F0"/>
<path d="M243.3 277.6H240.33V280.66H243.3V277.6Z" fill="#F0F0F0"/>
<path d="M243.3 282.73H240.33V285.79H243.3V282.73Z" fill="#F0F0F0"/>
<path d="M243.3 287.87H240.33V290.93H243.3V287.87Z" fill="#F0F0F0"/>
<path d="M248.02 257.08H245.05V260.14H248.02V257.08Z" fill="#F0F0F0"/>
<path d="M248.02 262.21H245.05V265.27H248.02V262.21Z" fill="#F0F0F0"/>
<path d="M248.02 267.34H245.05V270.4H248.02V267.34Z" fill="#F0F0F0"/>
<path d="M248.02 272.47H245.05V275.53H248.02V272.47Z" fill="#F0F0F0"/>
<path d="M248.02 277.6H245.05V280.66H248.02V277.6Z" fill="#F0F0F0"/>
<path d="M248.02 282.73H245.05V285.79H248.02V282.73Z" fill="#F0F0F0"/>
<path d="M248.02 287.87H245.05V290.93H248.02V287.87Z" fill="#F0F0F0"/>
<path d="M248.02 293H245.05V296.06H248.02V293Z" fill="#F0F0F0"/>
<path d="M248.02 298.13H245.05V301.19H248.02V298.13Z" fill="#F0F0F0"/>
<path d="M248.02 303.26H245.05V306.32H248.02V303.26Z" fill="#F0F0F0"/>
<path d="M248.02 308.39H245.05V311.45H248.02V308.39Z" fill="#F0F0F0"/>
<path d="M252.74 257.08H249.77V260.14H252.74V257.08Z" fill="#F0F0F0"/>
<path d="M252.74 262.21H249.77V265.27H252.74V262.21Z" fill="#F0F0F0"/>
<path d="M252.74 267.34H249.77V270.4H252.74V267.34Z" fill="#F0F0F0"/>
<path d="M252.74 272.47H249.77V275.53H252.74V272.47Z" fill="#F0F0F0"/>
<path d="M252.74 277.6H249.77V280.66H252.74V277.6Z" fill="#F0F0F0"/>
<path d="M252.74 282.73H249.77V285.79H252.74V282.73Z" fill="#F0F0F0"/>
<path d="M252.74 287.87H249.77V290.93H252.74V287.87Z" fill="#F0F0F0"/>
<path d="M252.74 293H249.77V296.06H252.74V293Z" fill="#F0F0F0"/>
<path d="M252.74 298.13H249.77V301.19H252.74V298.13Z" fill="#F0F0F0"/>
<path d="M252.74 303.26H249.77V306.32H252.74V303.26Z" fill="#F0F0F0"/>
<path d="M252.74 308.39H249.77V311.45H252.74V308.39Z" fill="#F0F0F0"/>
<path d="M252.74 313.52H249.77V316.58H252.74V313.52Z" fill="#F0F0F0"/>
<path d="M252.74 328.92H249.77V331.98H252.74V328.92Z" fill="#F0F0F0"/>
<path d="M252.74 334.05H249.77V337.11H252.74V334.05Z" fill="#F0F0F0"/>
<path d="M257.46 257.08H254.49V260.14H257.46V257.08Z" fill="#F0F0F0"/>
<path d="M257.46 262.21H254.49V265.27H257.46V262.21Z" fill="#F0F0F0"/>
<path d="M257.46 267.34H254.49V270.4H257.46V267.34Z" fill="#F0F0F0"/>
<path d="M257.46 282.73H254.49V285.79H257.46V282.73Z" fill="#F0F0F0"/>
<path d="M257.46 287.87H254.49V290.93H257.46V287.87Z" fill="#F0F0F0"/>
<path d="M257.46 293H254.49V296.06H257.46V293Z" fill="#F0F0F0"/>
<path d="M257.46 298.13H254.49V301.19H257.46V298.13Z" fill="#F0F0F0"/>
<path d="M257.46 303.26H254.49V306.32H257.46V303.26Z" fill="#F0F0F0"/>
<path d="M257.46 308.39H254.49V311.45H257.46V308.39Z" fill="#F0F0F0"/>
<path d="M257.46 313.52H254.49V316.58H257.46V313.52Z" fill="#F0F0F0"/>
<path d="M257.46 328.92H254.49V331.98H257.46V328.92Z" fill="#F0F0F0"/>
<path d="M257.46 334.05H254.49V337.11H257.46V334.05Z" fill="#F0F0F0"/>
<path d="M257.46 339.18H254.49V342.24H257.46V339.18Z" fill="#F0F0F0"/>
<path d="M306.89 226.29H303.92V229.35H306.89V226.29Z" fill="#F0F0F0"/>
<path d="M306.89 231.42H303.92V234.48H306.89V231.42Z" fill="#F0F0F0"/>
<path d="M306.89 236.55H303.92V239.61H306.89V236.55Z" fill="#F0F0F0"/>
<path d="M306.89 241.68H303.92V244.74H306.89V241.68Z" fill="#F0F0F0"/>
<path d="M306.89 246.81H303.92V249.87H306.89V246.81Z" fill="#F0F0F0"/>
<path d="M306.89 251.94H303.92V255H306.89V251.94Z" fill="#F0F0F0"/>
<path d="M306.89 257.08H303.92V260.14H306.89V257.08Z" fill="#F0F0F0"/>
<path d="M306.89 262.21H303.92V265.27H306.89V262.21Z" fill="#F0F0F0"/>
<path d="M306.89 267.34H303.92V270.4H306.89V267.34Z" fill="#F0F0F0"/>
<path d="M306.89 272.47H303.92V275.53H306.89V272.47Z" fill="#F0F0F0"/>
<path d="M306.89 277.6H303.92V280.66H306.89V277.6Z" fill="#F0F0F0"/>
<path d="M306.89 282.73H303.92V285.79H306.89V282.73Z" fill="#F0F0F0"/>
<path d="M306.89 287.87H303.92V290.93H306.89V287.87Z" fill="#F0F0F0"/>
<path d="M306.89 293H303.92V296.06H306.89V293Z" fill="#F0F0F0"/>
<path d="M306.89 298.13H303.92V301.19H306.89V298.13Z" fill="#F0F0F0"/>
<path d="M306.89 303.26H303.92V306.32H306.89V303.26Z" fill="#F0F0F0"/>
<path d="M306.89 308.39H303.92V311.45H306.89V308.39Z" fill="#F0F0F0"/>
<path d="M306.89 313.52H303.92V316.58H306.89V313.52Z" fill="#F0F0F0"/>
<path d="M306.89 318.66H303.92V321.72H306.89V318.66Z" fill="#F0F0F0"/>
<path d="M306.89 323.79H303.92V326.85H306.89V323.79Z" fill="#F0F0F0"/>
<path d="M306.89 328.92H303.92V331.98H306.89V328.92Z" fill="#F0F0F0"/>
<path d="M306.89 334.05H303.92V337.11H306.89V334.05Z" fill="#F0F0F0"/>
<path d="M306.89 339.18H303.92V342.24H306.89V339.18Z" fill="#F0F0F0"/>
<path d="M311.61 226.29H308.64V229.35H311.61V226.29Z" fill="#F0F0F0"/>
<path d="M311.61 231.42H308.64V234.48H311.61V231.42Z" fill="#F0F0F0"/>
<path d="M311.61 236.55H308.64V239.61H311.61V236.55Z" fill="#F0F0F0"/>
<path d="M311.61 241.68H308.64V244.74H311.61V241.68Z" fill="#F0F0F0"/>
<path d="M311.61 246.81H308.64V249.87H311.61V246.81Z" fill="#F0F0F0"/>
<path d="M311.61 251.94H308.64V255H311.61V251.94Z" fill="#F0F0F0"/>
<path d="M311.61 257.08H308.64V260.14H311.61V257.08Z" fill="#F0F0F0"/>
<path d="M311.61 262.21H308.64V265.27H311.61V262.21Z" fill="#F0F0F0"/>
<path d="M311.61 267.34H308.64V270.4H311.61V267.34Z" fill="#F0F0F0"/>
<path d="M311.61 272.47H308.64V275.53H311.61V272.47Z" fill="#F0F0F0"/>
<path d="M311.61 277.6H308.64V280.66H311.61V277.6Z" fill="#F0F0F0"/>
<path d="M311.61 282.73H308.64V285.79H311.61V282.73Z" fill="#F0F0F0"/>
<path d="M311.61 287.87H308.64V290.93H311.61V287.87Z" fill="#F0F0F0"/>
<path d="M311.61 293H308.64V296.06H311.61V293Z" fill="#F0F0F0"/>
<path d="M311.61 298.13H308.64V301.19H311.61V298.13Z" fill="#F0F0F0"/>
<path d="M311.61 303.26H308.64V306.32H311.61V303.26Z" fill="#F0F0F0"/>
<path d="M311.61 308.39H308.64V311.45H311.61V308.39Z" fill="#F0F0F0"/>
<path d="M311.61 313.52H308.64V316.58H311.61V313.52Z" fill="#F0F0F0"/>
<path d="M311.61 318.66H308.64V321.72H311.61V318.66Z" fill="#F0F0F0"/>
<path d="M316.33 226.29H313.36V229.35H316.33V226.29Z" fill="#F0F0F0"/>
<path d="M316.33 231.42H313.36V234.48H316.33V231.42Z" fill="#F0F0F0"/>
<path d="M316.33 236.55H313.36V239.61H316.33V236.55Z" fill="#F0F0F0"/>
<path d="M316.33 241.68H313.36V244.74H316.33V241.68Z" fill="#F0F0F0"/>
<path d="M316.33 246.81H313.36V249.87H316.33V246.81Z" fill="#F0F0F0"/>
<path d="M316.33 251.94H313.36V255H316.33V251.94Z" fill="#F0F0F0"/>
<path d="M316.33 257.08H313.36V260.14H316.33V257.08Z" fill="#F0F0F0"/>
<path d="M316.33 262.21H313.36V265.27H316.33V262.21Z" fill="#F0F0F0"/>
<path d="M316.33 267.34H313.36V270.4H316.33V267.34Z" fill="#F0F0F0"/>
<path d="M316.33 272.47H313.36V275.53H316.33V272.47Z" fill="#F0F0F0"/>
<path d="M316.33 277.6H313.36V280.66H316.33V277.6Z" fill="#F0F0F0"/>
<path d="M316.33 282.73H313.36V285.79H316.33V282.73Z" fill="#F0F0F0"/>
<path d="M316.33 287.87H313.36V290.93H316.33V287.87Z" fill="#F0F0F0"/>
<path d="M316.33 293H313.36V296.06H316.33V293Z" fill="#F0F0F0"/>
<path d="M316.33 298.13H313.36V301.19H316.33V298.13Z" fill="#F0F0F0"/>
<path d="M316.33 303.26H313.36V306.32H316.33V303.26Z" fill="#F0F0F0"/>
<path d="M316.33 308.39H313.36V311.45H316.33V308.39Z" fill="#F0F0F0"/>
<path d="M316.33 313.52H313.36V316.58H316.33V313.52Z" fill="#F0F0F0"/>
<path d="M316.33 318.66H313.36V321.72H316.33V318.66Z" fill="#F0F0F0"/>
<path d="M321.05 226.29H318.08V229.35H321.05V226.29Z" fill="#F0F0F0"/>
<path d="M321.05 231.42H318.08V234.48H321.05V231.42Z" fill="#F0F0F0"/>
<path d="M321.05 236.55H318.08V239.61H321.05V236.55Z" fill="#F0F0F0"/>
<path d="M321.05 241.68H318.08V244.74H321.05V241.68Z" fill="#F0F0F0"/>
<path d="M321.05 246.81H318.08V249.87H321.05V246.81Z" fill="#F0F0F0"/>
<path d="M321.05 251.94H318.08V255H321.05V251.94Z" fill="#F0F0F0"/>
<path d="M321.05 257.08H318.08V260.14H321.05V257.08Z" fill="#F0F0F0"/>
<path d="M321.05 262.21H318.08V265.27H321.05V262.21Z" fill="#F0F0F0"/>
<path d="M321.05 267.34H318.08V270.4H321.05V267.34Z" fill="#F0F0F0"/>
<path d="M321.05 272.47H318.08V275.53H321.05V272.47Z" fill="#F0F0F0"/>
<path d="M321.05 277.6H318.08V280.66H321.05V277.6Z" fill="#F0F0F0"/>
<path d="M321.05 282.73H318.08V285.79H321.05V282.73Z" fill="#F0F0F0"/>
<path d="M321.05 287.87H318.08V290.93H321.05V287.87Z" fill="#F0F0F0"/>
<path d="M321.05 293H318.08V296.06H321.05V293Z" fill="#F0F0F0"/>
<path d="M321.05 298.13H318.08V301.19H321.05V298.13Z" fill="#F0F0F0"/>
<path d="M325.76 226.29H322.79V229.35H325.76V226.29Z" fill="#F0F0F0"/>
<path d="M325.76 231.42H322.79V234.48H325.76V231.42Z" fill="#F0F0F0"/>
<path d="M325.76 236.55H322.79V239.61H325.76V236.55Z" fill="#F0F0F0"/>
<path d="M325.76 241.68H322.79V244.74H325.76V241.68Z" fill="#F0F0F0"/>
<path d="M325.76 246.81H322.79V249.87H325.76V246.81Z" fill="#F0F0F0"/>
<path d="M325.76 251.94H322.79V255H325.76V251.94Z" fill="#F0F0F0"/>
<path d="M325.76 257.08H322.79V260.14H325.76V257.08Z" fill="#F0F0F0"/>
<path d="M325.76 262.21H322.79V265.27H325.76V262.21Z" fill="#F0F0F0"/>
<path d="M325.76 267.34H322.79V270.4H325.76V267.34Z" fill="#F0F0F0"/>
<path d="M325.76 272.47H322.79V275.53H325.76V272.47Z" fill="#F0F0F0"/>
<path d="M325.76 277.6H322.79V280.66H325.76V277.6Z" fill="#F0F0F0"/>
<path d="M325.76 282.73H322.79V285.79H325.76V282.73Z" fill="#F0F0F0"/>
<path d="M325.76 287.87H322.79V290.93H325.76V287.87Z" fill="#F0F0F0"/>
<path d="M330.48 226.29H327.51V229.35H330.48V226.29Z" fill="#F0F0F0"/>
<path d="M330.48 231.42H327.51V234.48H330.48V231.42Z" fill="#F0F0F0"/>
<path d="M330.48 236.55H327.51V239.61H330.48V236.55Z" fill="#F0F0F0"/>
<path d="M330.48 241.68H327.51V244.74H330.48V241.68Z" fill="#F0F0F0"/>
<path d="M330.48 246.81H327.51V249.87H330.48V246.81Z" fill="#F0F0F0"/>
<path d="M330.48 251.94H327.51V255H330.48V251.94Z" fill="#F0F0F0"/>
<path d="M330.48 257.08H327.51V260.14H330.48V257.08Z" fill="#F0F0F0"/>
<path d="M330.48 262.21H327.51V265.27H330.48V262.21Z" fill="#F0F0F0"/>
<path d="M330.48 267.34H327.51V270.4H330.48V267.34Z" fill="#F0F0F0"/>
<path d="M330.48 272.47H327.51V275.53H330.48V272.47Z" fill="#F0F0F0"/>
<path d="M330.48 277.6H327.51V280.66H330.48V277.6Z" fill="#F0F0F0"/>
<path d="M330.48 282.73H327.51V285.79H330.48V282.73Z" fill="#F0F0F0"/>
<path d="M146.87 260.68H143.9V263.74H146.87V260.68Z" fill="#F0F0F0"/>
<path d="M146.87 265.81H143.9V268.87H146.87V265.81Z" fill="#F0F0F0"/>
<path d="M146.87 270.94H143.9V274H146.87V270.94Z" fill="#F0F0F0"/>
<path d="M146.87 276.07H143.9V279.13H146.87V276.07Z" fill="#F0F0F0"/>
<path d="M146.87 281.2H143.9V284.26H146.87V281.2Z" fill="#F0F0F0"/>
<path d="M146.87 286.33H143.9V289.39H146.87V286.33Z" fill="#F0F0F0"/>
<path d="M146.87 291.47H143.9V294.53H146.87V291.47Z" fill="#F0F0F0"/>
<path d="M146.87 296.6H143.9V299.66H146.87V296.6Z" fill="#F0F0F0"/>
<path d="M146.87 301.73H143.9V304.79H146.87V301.73Z" fill="#F0F0F0"/>
<path d="M146.87 306.86H143.9V309.92H146.87V306.86Z" fill="#F0F0F0"/>
<path d="M146.87 311.99H143.9V315.05H146.87V311.99Z" fill="#F0F0F0"/>
<path d="M146.87 317.12H143.9V320.18H146.87V317.12Z" fill="#F0F0F0"/>
<path d="M146.87 322.26H143.9V325.32H146.87V322.26Z" fill="#F0F0F0"/>
<path d="M146.87 332.52H143.9V335.58H146.87V332.52Z" fill="#F0F0F0"/>
<path d="M146.87 337.65H143.9V340.71H146.87V337.65Z" fill="#F0F0F0"/>
<path d="M146.87 342.78H143.9V345.84H146.87V342.78Z" fill="#F0F0F0"/>
<path d="M146.87 347.91H143.9V350.97H146.87V347.91Z" fill="#F0F0F0"/>
<path d="M146.87 358.18H143.9V361.24H146.87V358.18Z" fill="#F0F0F0"/>
<path d="M146.87 363.31H143.9V366.37H146.87V363.31Z" fill="#F0F0F0"/>
<path d="M146.87 368.44H143.9V371.5H146.87V368.44Z" fill="#F0F0F0"/>
<path d="M151.59 260.68H148.62V263.74H151.59V260.68Z" fill="#F0F0F0"/>
<path d="M151.59 265.81H148.62V268.87H151.59V265.81Z" fill="#F0F0F0"/>
<path d="M151.59 270.94H148.62V274H151.59V270.94Z" fill="#F0F0F0"/>
<path d="M151.59 276.07H148.62V279.13H151.59V276.07Z" fill="#F0F0F0"/>
<path d="M151.59 281.2H148.62V284.26H151.59V281.2Z" fill="#F0F0F0"/>
<path d="M151.59 286.33H148.62V289.39H151.59V286.33Z" fill="#F0F0F0"/>
<path d="M151.59 291.47H148.62V294.53H151.59V291.47Z" fill="#F0F0F0"/>
<path d="M151.59 296.6H148.62V299.66H151.59V296.6Z" fill="#F0F0F0"/>
<path d="M151.59 301.73H148.62V304.79H151.59V301.73Z" fill="#F0F0F0"/>
<path d="M151.59 306.86H148.62V309.92H151.59V306.86Z" fill="#F0F0F0"/>
<path d="M151.59 311.99H148.62V315.05H151.59V311.99Z" fill="#F0F0F0"/>
<path d="M151.59 317.12H148.62V320.18H151.59V317.12Z" fill="#F0F0F0"/>
<path d="M151.59 322.26H148.62V325.32H151.59V322.26Z" fill="#F0F0F0"/>
<path d="M151.59 337.65H148.62V340.71H151.59V337.65Z" fill="#F0F0F0"/>
<path d="M151.59 342.78H148.62V345.84H151.59V342.78Z" fill="#F0F0F0"/>
<path d="M151.59 353.05H148.62V356.11H151.59V353.05Z" fill="#F0F0F0"/>
<path d="M151.59 358.18H148.62V361.24H151.59V358.18Z" fill="#F0F0F0"/>
<path d="M151.59 363.31H148.62V366.37H151.59V363.31Z" fill="#F0F0F0"/>
<path d="M151.59 368.44H148.62V371.5H151.59V368.44Z" fill="#F0F0F0"/>
<path d="M156.3 260.68H153.33V263.74H156.3V260.68Z" fill="#F0F0F0"/>
<path d="M156.3 265.81H153.33V268.87H156.3V265.81Z" fill="#F0F0F0"/>
<path d="M156.3 270.94H153.33V274H156.3V270.94Z" fill="#F0F0F0"/>
<path d="M156.3 276.07H153.33V279.13H156.3V276.07Z" fill="#F0F0F0"/>
<path d="M156.3 281.2H153.33V284.26H156.3V281.2Z" fill="#F0F0F0"/>
<path d="M156.3 286.33H153.33V289.39H156.3V286.33Z" fill="#F0F0F0"/>
<path d="M156.3 291.47H153.33V294.53H156.3V291.47Z" fill="#F0F0F0"/>
<path d="M156.3 296.6H153.33V299.66H156.3V296.6Z" fill="#F0F0F0"/>
<path d="M156.3 301.73H153.33V304.79H156.3V301.73Z" fill="#F0F0F0"/>
<path d="M156.3 306.86H153.33V309.92H156.3V306.86Z" fill="#F0F0F0"/>
<path d="M156.3 311.99H153.33V315.05H156.3V311.99Z" fill="#F0F0F0"/>
<path d="M156.3 317.12H153.33V320.18H156.3V317.12Z" fill="#F0F0F0"/>
<path d="M156.3 322.26H153.33V325.32H156.3V322.26Z" fill="#F0F0F0"/>
<path d="M156.3 327.39H153.33V330.45H156.3V327.39Z" fill="#F0F0F0"/>
<path d="M156.3 337.65H153.33V340.71H156.3V337.65Z" fill="#F0F0F0"/>
<path d="M156.3 347.91H153.33V350.97H156.3V347.91Z" fill="#F0F0F0"/>
<path d="M156.3 353.05H153.33V356.11H156.3V353.05Z" fill="#F0F0F0"/>
<path d="M156.3 358.18H153.33V361.24H156.3V358.18Z" fill="#F0F0F0"/>
<path d="M156.3 363.31H153.33V366.37H156.3V363.31Z" fill="#F0F0F0"/>
<path d="M156.3 368.44H153.33V371.5H156.3V368.44Z" fill="#F0F0F0"/>
<path d="M127.65 289.94H124.68V293H127.65V289.94Z" fill="#F0F0F0"/>
<path d="M127.65 295.07H124.68V298.13H127.65V295.07Z" fill="#F0F0F0"/>
<path d="M127.65 300.2H124.68V303.26H127.65V300.2Z" fill="#F0F0F0"/>
<path d="M127.65 305.33H124.68V308.39H127.65V305.33Z" fill="#F0F0F0"/>
<path d="M127.65 310.46H124.68V313.52H127.65V310.46Z" fill="#F0F0F0"/>
<path d="M127.65 315.59H124.68V318.65H127.65V315.59Z" fill="#F0F0F0"/>
<path d="M127.65 330.99H124.68V334.05H127.65V330.99Z" fill="#F0F0F0"/>
<path d="M127.65 336.12H124.68V339.18H127.65V336.12Z" fill="#F0F0F0"/>
<path d="M127.65 341.25H124.68V344.31H127.65V341.25Z" fill="#F0F0F0"/>
<path d="M127.65 346.38H124.68V349.44H127.65V346.38Z" fill="#F0F0F0"/>
<path d="M127.65 351.52H124.68V354.58H127.65V351.52Z" fill="#F0F0F0"/>
<path d="M127.65 356.65H124.68V359.71H127.65V356.65Z" fill="#F0F0F0"/>
<path d="M127.65 361.78H124.68V364.84H127.65V361.78Z" fill="#F0F0F0"/>
<path d="M132.37 289.94H129.4V293H132.37V289.94Z" fill="#F0F0F0"/>
<path d="M132.37 295.07H129.4V298.13H132.37V295.07Z" fill="#F0F0F0"/>
<path d="M132.37 300.2H129.4V303.26H132.37V300.2Z" fill="#F0F0F0"/>
<path d="M132.37 305.33H129.4V308.39H132.37V305.33Z" fill="#F0F0F0"/>
<path d="M132.37 310.46H129.4V313.52H132.37V310.46Z" fill="#F0F0F0"/>
<path d="M132.37 315.59H129.4V318.65H132.37V315.59Z" fill="#F0F0F0"/>
<path d="M132.37 330.99H129.4V334.05H132.37V330.99Z" fill="#F0F0F0"/>
<path d="M132.37 336.12H129.4V339.18H132.37V336.12Z" fill="#F0F0F0"/>
<path d="M132.37 341.25H129.4V344.31H132.37V341.25Z" fill="#F0F0F0"/>
<path d="M132.37 346.38H129.4V349.44H132.37V346.38Z" fill="#F0F0F0"/>
<path d="M132.37 351.52H129.4V354.58H132.37V351.52Z" fill="#F0F0F0"/>
<path d="M132.37 356.65H129.4V359.71H132.37V356.65Z" fill="#F0F0F0"/>
<path d="M132.37 366.91H129.4V369.97H132.37V366.91Z" fill="#F0F0F0"/>
<path d="M289.08 267.34H286.11V270.4H289.08V267.34Z" fill="#F0F0F0"/>
<path d="M289.08 272.47H286.11V275.53H289.08V272.47Z" fill="#F0F0F0"/>
<path d="M289.08 277.6H286.11V280.66H289.08V277.6Z" fill="#F0F0F0"/>
<path d="M289.08 282.73H286.11V285.79H289.08V282.73Z" fill="#F0F0F0"/>
<path d="M289.08 287.87H286.11V290.93H289.08V287.87Z" fill="#F0F0F0"/>
<path d="M289.08 293H286.11V296.06H289.08V293Z" fill="#F0F0F0"/>
<path d="M289.08 298.13H286.11V301.19H289.08V298.13Z" fill="#F0F0F0"/>
<path d="M289.08 303.26H286.11V306.32H289.08V303.26Z" fill="#F0F0F0"/>
<path d="M289.08 308.39H286.11V311.45H289.08V308.39Z" fill="#F0F0F0"/>
<path d="M289.08 313.52H286.11V316.58H289.08V313.52Z" fill="#F0F0F0"/>
<path d="M289.08 318.66H286.11V321.72H289.08V318.66Z" fill="#F0F0F0"/>
<path d="M289.08 328.92H286.11V331.98H289.08V328.92Z" fill="#F0F0F0"/>
<path d="M289.08 334.05H286.11V337.11H289.08V334.05Z" fill="#F0F0F0"/>
<path d="M289.08 339.18H286.11V342.24H289.08V339.18Z" fill="#F0F0F0"/>
<path d="M289.08 344.31H286.11V347.37H289.08V344.31Z" fill="#F0F0F0"/>
<path d="M289.08 349.45H286.11V352.51H289.08V349.45Z" fill="#F0F0F0"/>
<path d="M289.08 354.58H286.11V357.64H289.08V354.58Z" fill="#F0F0F0"/>
<path d="M289.08 359.71H286.11V362.77H289.08V359.71Z" fill="#F0F0F0"/>
<path d="M289.08 364.84H286.11V367.9H289.08V364.84Z" fill="#F0F0F0"/>
<path d="M293.79 267.34H290.82V270.4H293.79V267.34Z" fill="#F0F0F0"/>
<path d="M293.79 272.47H290.82V275.53H293.79V272.47Z" fill="#F0F0F0"/>
<path d="M293.79 277.6H290.82V280.66H293.79V277.6Z" fill="#F0F0F0"/>
<path d="M293.79 282.73H290.82V285.79H293.79V282.73Z" fill="#F0F0F0"/>
<path d="M293.79 287.87H290.82V290.93H293.79V287.87Z" fill="#F0F0F0"/>
<path d="M293.79 293H290.82V296.06H293.79V293Z" fill="#F0F0F0"/>
<path d="M293.79 298.13H290.82V301.19H293.79V298.13Z" fill="#F0F0F0"/>
<path d="M293.79 303.26H290.82V306.32H293.79V303.26Z" fill="#F0F0F0"/>
<path d="M293.79 308.39H290.82V311.45H293.79V308.39Z" fill="#F0F0F0"/>
<path d="M293.79 313.52H290.82V316.58H293.79V313.52Z" fill="#F0F0F0"/>
<path d="M293.79 318.66H290.82V321.72H293.79V318.66Z" fill="#F0F0F0"/>
<path d="M293.79 323.79H290.82V326.85H293.79V323.79Z" fill="#F0F0F0"/>
<path d="M293.79 328.92H290.82V331.98H293.79V328.92Z" fill="#F0F0F0"/>
<path d="M293.79 334.05H290.82V337.11H293.79V334.05Z" fill="#F0F0F0"/>
<path d="M293.79 339.18H290.82V342.24H293.79V339.18Z" fill="#F0F0F0"/>
<path d="M293.79 344.31H290.82V347.37H293.79V344.31Z" fill="#F0F0F0"/>
<path d="M293.79 349.45H290.82V352.51H293.79V349.45Z" fill="#F0F0F0"/>
<path d="M293.79 354.58H290.82V357.64H293.79V354.58Z" fill="#F0F0F0"/>
<path d="M293.79 359.71H290.82V362.77H293.79V359.71Z" fill="#F0F0F0"/>
<path d="M293.79 364.84H290.82V367.9H293.79V364.84Z" fill="#F0F0F0"/>
<path d="M265.84 287.33H262.87V290.39H265.84V287.33Z" fill="#F0F0F0"/>
<path d="M265.84 292.46H262.87V295.52H265.84V292.46Z" fill="#F0F0F0"/>
<path d="M265.84 297.59H262.87V300.65H265.84V297.59Z" fill="#F0F0F0"/>
<path d="M265.84 302.72H262.87V305.78H265.84V302.72Z" fill="#F0F0F0"/>
<path d="M265.84 307.85H262.87V310.91H265.84V307.85Z" fill="#F0F0F0"/>
<path d="M265.84 312.98H262.87V316.04H265.84V312.98Z" fill="#F0F0F0"/>
<path d="M265.84 318.12H262.87V321.18H265.84V318.12Z" fill="#F0F0F0"/>
<path d="M265.84 323.25H262.87V326.31H265.84V323.25Z" fill="#F0F0F0"/>
<path d="M265.84 328.38H262.87V331.44H265.84V328.38Z" fill="#F0F0F0"/>
<path d="M265.84 333.51H262.87V336.57H265.84V333.51Z" fill="#F0F0F0"/>
<path d="M270.56 287.33H267.59V290.39H270.56V287.33Z" fill="#F0F0F0"/>
<path d="M270.56 292.46H267.59V295.52H270.56V292.46Z" fill="#F0F0F0"/>
<path d="M270.56 297.59H267.59V300.65H270.56V297.59Z" fill="#F0F0F0"/>
<path d="M270.56 302.72H267.59V305.78H270.56V302.72Z" fill="#F0F0F0"/>
<path d="M270.56 307.85H267.59V310.91H270.56V307.85Z" fill="#F0F0F0"/>
<path d="M270.56 312.98H267.59V316.04H270.56V312.98Z" fill="#F0F0F0"/>
<path d="M270.56 318.12H267.59V321.18H270.56V318.12Z" fill="#F0F0F0"/>
<path d="M270.56 323.25H267.59V326.31H270.56V323.25Z" fill="#F0F0F0"/>
<path d="M270.56 328.38H267.59V331.44H270.56V328.38Z" fill="#F0F0F0"/>
<path d="M124.22 101.17C124.208 100.442 124.34 99.719 124.608 99.0422C124.876 98.3654 125.276 97.7483 125.783 97.2261C126.29 96.704 126.896 96.2871 127.564 95.9995C128.233 95.7118 128.952 95.5591 129.68 95.55C130.208 95.5492 130.734 95.6267 131.24 95.78C131.16 95.2102 131.119 94.6354 131.12 94.06C131.075 90.9479 132.267 87.9452 134.434 85.7119C136.602 83.4785 139.568 82.1974 142.68 82.15C143.395 82.1502 144.108 82.2172 144.81 82.35C145.684 80.8357 146.94 79.5771 148.453 78.6998C149.965 77.8224 151.681 77.357 153.43 77.35C156.125 77.3894 158.696 78.4877 160.588 80.4076C162.48 82.3275 163.54 84.9146 163.54 87.61H163.71C166.201 87.6904 168.563 88.7366 170.297 90.5272C172.031 92.3178 173 94.7125 173 97.205C173 99.6974 172.031 102.092 170.297 103.883C168.563 105.673 166.201 106.72 163.71 106.8H129.52C128.078 106.735 126.718 106.111 125.728 105.06C124.739 104.009 124.198 102.613 124.22 101.17Z" fill="#F5F5F5"/>
<path d="M228.1 156.24C228.079 154.77 228.642 153.351 229.665 152.296C230.689 151.24 232.09 150.634 233.56 150.61C234.092 150.613 234.621 150.694 235.13 150.85C235.046 150.277 235.002 149.699 235 149.12C234.955 146.008 236.147 143.005 238.314 140.772C240.482 138.539 243.448 137.257 246.56 137.21C247.275 137.209 247.989 137.279 248.69 137.42C249.565 135.904 250.823 134.645 252.337 133.767C253.852 132.89 255.57 132.425 257.32 132.42C260.015 132.462 262.585 133.563 264.475 135.485C266.365 137.406 267.423 139.995 267.42 142.69H267.59C270.081 142.77 272.443 143.817 274.177 145.607C275.911 147.398 276.88 149.793 276.88 152.285C276.88 154.777 275.911 157.172 274.177 158.963C272.443 160.753 270.081 161.8 267.59 161.88H233.41C231.963 161.82 230.598 161.196 229.605 160.142C228.613 159.088 228.073 157.688 228.1 156.24Z" fill="#F5F5F5"/>
<path d="M127.47 207C127.449 205.53 128.012 204.111 129.035 203.055C130.059 202 131.46 201.394 132.93 201.37C133.462 201.372 133.991 201.453 134.5 201.61C134.419 201.037 134.379 200.459 134.38 199.88C134.34 196.774 135.533 193.779 137.699 191.552C139.864 189.325 142.824 188.047 145.93 188C146.645 187.999 147.359 188.069 148.06 188.21C148.935 186.694 150.193 185.435 151.707 184.557C153.222 183.68 154.94 183.215 156.69 183.21C159.385 183.252 161.955 184.353 163.845 186.275C165.735 188.196 166.793 190.785 166.79 193.48H167C169.491 193.56 171.853 194.607 173.587 196.397C175.321 198.188 176.29 200.583 176.29 203.075C176.29 205.567 175.321 207.962 173.587 209.753C171.853 211.543 169.491 212.59 167 212.67H132.78C131.328 212.61 129.958 211.982 128.965 210.922C127.971 209.861 127.435 208.453 127.47 207Z" fill="#F5F5F5"/>
<path d="M383.4 138.44C383.389 137.552 383.73 136.696 384.349 136.059C384.967 135.422 385.812 135.056 386.7 135.04C387.022 135.043 387.342 135.094 387.65 135.19C387.601 134.842 387.578 134.491 387.58 134.14C387.565 133.207 387.735 132.281 388.079 131.414C388.423 130.547 388.935 129.756 389.586 129.087C390.236 128.418 391.012 127.884 391.869 127.516C392.726 127.147 393.647 126.952 394.58 126.94C395.013 126.943 395.445 126.986 395.87 127.07C396.402 126.16 397.163 125.404 398.077 124.878C398.99 124.352 400.026 124.074 401.08 124.07C402.71 124.094 404.266 124.759 405.409 125.921C406.553 127.083 407.193 128.649 407.19 130.28H407.29C408.828 130.28 410.303 130.891 411.391 131.979C412.479 133.066 413.09 134.542 413.09 136.08C413.09 137.618 412.479 139.093 411.391 140.181C410.303 141.269 408.828 141.88 407.29 141.88H386.61C385.73 141.843 384.9 141.462 384.299 140.818C383.699 140.175 383.376 139.32 383.4 138.44Z" fill="#F5F5F5"/>
<path d="M69.18 142.62C69.1734 142.18 69.2535 141.743 69.4158 141.334C69.578 140.925 69.8193 140.552 70.1257 140.236C70.4322 139.921 70.7978 139.668 71.2018 139.494C71.6057 139.32 72.0401 139.227 72.48 139.22C72.8185 139.215 73.1558 139.262 73.48 139.36C73.43 139.029 73.4033 138.695 73.4 138.36C73.3868 137.428 73.5574 136.502 73.902 135.635C74.2466 134.769 74.7586 133.979 75.4086 133.31C76.0587 132.641 76.834 132.107 77.6904 131.739C78.5469 131.37 79.4676 131.173 80.4 131.16C80.8328 131.159 81.2647 131.2 81.69 131.28C82.2224 130.37 82.983 129.615 83.8967 129.088C84.8105 128.562 85.8456 128.284 86.9 128.28C88.5287 128.304 90.0827 128.967 91.226 130.127C92.3693 131.288 93.0102 132.851 93.01 134.48H93.11C94.6483 134.48 96.1235 135.091 97.2112 136.179C98.2989 137.267 98.91 138.742 98.91 140.28C98.91 141.818 98.2989 143.294 97.2112 144.381C96.1235 145.469 94.6483 146.08 93.11 146.08H72.39C71.5067 146.044 70.6735 145.659 70.0722 145.011C69.4709 144.363 69.1502 143.504 69.18 142.62Z" fill="#F5F5F5"/>
<path d="M320.19 102.31C320.183 101.87 320.264 101.433 320.426 101.024C320.588 100.615 320.829 100.242 321.136 99.9264C321.442 99.6107 321.808 99.3584 322.212 99.184C322.616 99.0096 323.05 98.9165 323.49 98.91C323.813 98.9086 324.134 98.9592 324.44 99.06C324.394 98.7287 324.37 98.3945 324.37 98.06C324.355 97.1272 324.525 96.2008 324.869 95.3337C325.214 94.4666 325.725 93.676 326.376 93.0071C327.026 92.3383 327.802 91.8043 328.659 91.4359C329.516 91.0674 330.437 90.8717 331.37 90.86C331.803 90.8626 332.235 90.9061 332.66 90.99C333.192 90.0799 333.953 89.3245 334.867 88.7984C335.781 88.2722 336.816 87.9936 337.87 87.99C339.49 88.0082 341.039 88.6599 342.184 89.8055C343.33 90.9512 343.982 92.4999 344 94.12H344.1C345.638 94.12 347.114 94.7311 348.201 95.8188C349.289 96.9065 349.9 98.3817 349.9 99.92C349.9 101.458 349.289 102.933 348.201 104.021C347.114 105.109 345.638 105.72 344.1 105.72H323.4C322.526 105.684 321.7 105.306 321.1 104.669C320.5 104.032 320.174 103.185 320.19 102.31Z" fill="#F5F5F5"/>
<path d="M250 427.56C357.082 427.56 443.89 422.492 443.89 416.24C443.89 409.988 357.082 404.92 250 404.92C142.917 404.92 56.11 409.988 56.11 416.24C56.11 422.492 142.917 427.56 250 427.56Z" fill="#F5F5F5"/>
<path d="M90.69 337.15C90.9 338.62 86.91 339.58 83.69 340.15C83.95 342.82 85.69 345.51 88.18 348.03C91.27 346.29 95.67 344.03 96.48 344.56C97.29 345.09 92.86 348.09 90.04 349.8C92.0558 351.559 94.1909 353.176 96.43 354.64C97.81 353.35 99.43 352.22 100.43 352.83C101.43 353.44 101.16 355.46 100.66 357.25C104.02 359.25 106.53 360.4 106.53 360.4C107.506 357.282 108.255 354.097 108.77 350.87C108.61 350.53 108.44 350.19 108.28 349.87C107.74 348.62 108.28 348.08 109.16 347.87C109.415 345.588 109.435 343.286 109.22 341C105.42 340.21 100.8 338.73 102.53 336.45C103.53 335.08 105.53 334.92 107.47 335.27C107.197 334.815 106.882 334.387 106.53 333.99C99.62 326.37 94.8 333.99 94.8 333.99C90.8 330.64 85.13 331.55 83.91 336.78C86.11 336.19 90.43 335.33 90.69 337.15Z" fill="#263238"/>
<path opacity="0.3" d="M90.69 337.15C90.9 338.62 86.91 339.58 83.69 340.15C83.95 342.82 85.69 345.51 88.18 348.03C91.27 346.29 95.67 344.03 96.48 344.56C97.29 345.09 92.86 348.09 90.04 349.8C92.0558 351.559 94.1909 353.176 96.43 354.64C97.81 353.35 99.43 352.22 100.43 352.83C101.43 353.44 101.16 355.46 100.66 357.25C104.02 359.25 106.53 360.4 106.53 360.4C107.506 357.282 108.255 354.097 108.77 350.87C108.61 350.53 108.44 350.19 108.28 349.87C107.74 348.62 108.28 348.08 109.16 347.87C109.415 345.588 109.435 343.286 109.22 341C105.42 340.21 100.8 338.73 102.53 336.45C103.53 335.08 105.53 334.92 107.47 335.27C107.197 334.815 106.882 334.387 106.53 333.99C99.62 326.37 94.8 333.99 94.8 333.99C90.8 330.64 85.13 331.55 83.91 336.78C86.11 336.19 90.43 335.33 90.69 337.15Z" fill="white"/>
<path d="M99.31 393.13L98.31 393.05C98.31 392.54 102.4 341.53 90.95 336.72C90.4051 336.463 89.8078 336.336 89.2055 336.35C88.6032 336.364 88.0125 336.518 87.48 336.8C83.36 339 81.37 347.89 81.35 348L80.35 347.78C80.43 347.4 82.45 338.31 87 335.94C87.6627 335.59 88.397 335.398 89.146 335.377C89.895 335.356 90.6388 335.508 91.32 335.82C103.46 340.88 99.49 391 99.31 393.13Z" fill="#263238"/>
<path d="M100.76 392C100.55 389.7 95.88 335.73 104.62 330C106.71 328.63 108.62 328.33 110.17 329.14C114.3 331.22 114.84 340.05 114.86 340.42L113.86 340.48C113.86 340.39 113.33 331.85 109.72 330.03C108.47 329.4 106.94 329.67 105.17 330.84C96.93 336.24 101.7 391.35 101.75 391.91L100.76 392Z" fill="#263238"/>
<path d="M102.07 396.39C102.01 394.63 100.57 353.32 108.52 349.7C109.262 349.354 110.071 349.175 110.89 349.175C111.709 349.175 112.518 349.354 113.26 349.7C118.72 352.1 122.09 362.27 122.26 362.7L121.26 363.01C121.26 362.91 117.88 352.83 112.83 350.61C112.219 350.319 111.552 350.168 110.875 350.168C110.199 350.168 109.531 350.319 108.92 350.61C102.82 353.39 102.61 384.61 103.05 396.35L102.07 396.39Z" fill="#263238"/>
<path d="M100.05 394.5L99.05 394.39C100.45 382.09 103.14 349.33 98.76 345.39C98.5462 345.133 98.2624 344.943 97.943 344.843C97.6235 344.744 97.282 344.739 96.96 344.83C94 346 92.24 356.65 91.8 360.66L90.8 360.55C90.97 359.01 92.57 345.48 96.6 343.93C97.0897 343.768 97.616 343.751 98.115 343.882C98.6139 344.014 99.0638 344.287 99.41 344.67C105.08 349.72 100.25 392.67 100.05 394.5Z" fill="#263238"/>
<path d="M83.36 371.19H119.28L116.28 411.43H86.36L83.36 371.19Z" fill="#D0312D"/>
<path opacity="0.2" d="M94.27 371.19L95.27 411.43H116.28L119.28 371.19H94.27Z" fill="white"/>
<path d="M88.25 356.42C87.88 357.42 85.09 356.63 82.9 355.85C82.14 357.59 82.32 359.85 82.96 362.26C85.46 362.26 88.96 362.33 89.28 362.96C89.6 363.59 85.83 363.89 83.5 363.96C84.1412 365.737 84.9029 367.467 85.78 369.14C87.08 368.82 88.47 368.67 88.85 369.38C89.23 370.09 88.4 371.26 87.48 372.19C88.88 374.54 90.02 376.19 90.02 376.19C91.6935 374.603 93.2477 372.895 94.67 371.08C94.67 370.82 94.67 370.55 94.67 370.28C94.77 369.28 95.28 369.17 95.89 369.37C96.8256 368.052 97.6231 366.641 98.27 365.16C96.2 363.36 93.86 360.87 95.71 360.06C96.82 359.57 98.06 360.13 99.16 361.06C99.1541 360.686 99.1072 360.314 99.02 359.95C97.37 352.88 91.78 355.95 91.78 355.95C90.45 352.5 86.66 351.13 84.12 353.95C85.76 354.26 88.71 355.21 88.25 356.42Z" fill="#263238"/>
<path opacity="0.3" d="M88.25 356.42C87.88 357.42 85.09 356.63 82.9 355.85C82.14 357.59 82.32 359.85 82.96 362.26C85.46 362.26 88.96 362.33 89.28 362.96C89.6 363.59 85.83 363.89 83.5 363.96C84.1412 365.737 84.9029 367.467 85.78 369.14C87.08 368.82 88.47 368.67 88.85 369.38C89.23 370.09 88.4 371.26 87.48 372.19C88.88 374.54 90.02 376.19 90.02 376.19C91.6935 374.603 93.2477 372.895 94.67 371.08C94.67 370.82 94.67 370.55 94.67 370.28C94.77 369.28 95.28 369.17 95.89 369.37C96.8256 368.052 97.6231 366.641 98.27 365.16C96.2 363.36 93.86 360.87 95.71 360.06C96.82 359.57 98.06 360.13 99.16 361.06C99.1541 360.686 99.1072 360.314 99.02 359.95C97.37 352.88 91.78 355.95 91.78 355.95C90.45 352.5 86.66 351.13 84.12 353.95C85.76 354.26 88.71 355.21 88.25 356.42Z" fill="white"/>
<path d="M114.93 361.2C113.809 361.293 112.704 361.525 111.64 361.89C111.359 361.126 111.197 360.323 111.16 359.51C110.93 352.27 116.16 355.32 118.86 353.19C119.482 352.643 120.212 352.234 121.003 351.987C121.794 351.741 122.627 351.663 123.45 351.76C123.21 352.156 123.002 352.57 122.83 353C122.766 353.158 122.739 353.329 122.75 353.499C122.761 353.669 122.81 353.835 122.893 353.984C122.977 354.132 123.093 354.26 123.232 354.358C123.372 354.456 123.532 354.522 123.7 354.55C124.376 354.674 125.073 354.59 125.7 354.31C125.883 354.202 126.057 354.078 126.22 353.94C126.655 354.704 126.991 355.521 127.22 356.37C127.494 357.382 127.648 358.422 127.68 359.47C127.271 359.56 126.867 359.674 126.47 359.81C126.313 359.878 126.173 359.981 126.062 360.111C125.95 360.241 125.87 360.395 125.827 360.561C125.783 360.726 125.778 360.9 125.812 361.068C125.845 361.236 125.916 361.394 126.02 361.53C126.454 361.961 126.958 362.316 127.51 362.58C127.329 363.743 127.024 364.882 126.6 365.98H126.23C125.967 366.033 125.706 366.099 125.45 366.18C125.303 366.219 125.159 366.27 125.02 366.33C124.842 366.408 124.686 366.529 124.568 366.683C124.449 366.837 124.371 367.018 124.34 367.21C124.312 367.407 124.337 367.609 124.412 367.794C124.488 367.978 124.611 368.139 124.77 368.26C124.94 368.385 125.121 368.496 125.31 368.59C124.616 369.785 123.628 370.783 122.44 371.49C121.389 371.01 120.367 370.469 119.38 369.87C119.6 369.58 119.82 369.29 120.02 368.99C120.255 368.662 120.365 368.262 120.33 367.86C120.305 367.658 120.241 367.464 120.14 367.287C120.04 367.111 119.905 366.956 119.744 366.832C119.583 366.709 119.399 366.618 119.202 366.566C119.006 366.514 118.801 366.502 118.6 366.53C118.203 366.584 117.844 366.793 117.6 367.11C117.36 367.47 117.09 367.81 116.83 368.11C115.449 367.091 114.211 365.89 113.15 364.54H113.26C113.915 364.365 114.584 364.251 115.26 364.2C115.666 364.148 116.034 363.938 116.285 363.614C116.535 363.291 116.647 362.881 116.595 362.475C116.543 362.069 116.332 361.701 116.009 361.45C115.685 361.2 115.276 361.088 114.87 361.14L114.93 361.2Z" fill="#263238"/>
<path opacity="0.5" d="M114.93 361.2C113.809 361.293 112.704 361.525 111.64 361.89C111.359 361.126 111.197 360.323 111.16 359.51C110.93 352.27 116.16 355.32 118.86 353.19C119.482 352.643 120.212 352.234 121.003 351.987C121.794 351.741 122.627 351.663 123.45 351.76C123.21 352.156 123.002 352.57 122.83 353C122.766 353.158 122.739 353.329 122.75 353.499C122.761 353.669 122.81 353.835 122.893 353.984C122.977 354.132 123.093 354.26 123.232 354.358C123.372 354.456 123.532 354.522 123.7 354.55C124.376 354.674 125.073 354.59 125.7 354.31C125.883 354.202 126.057 354.078 126.22 353.94C126.655 354.704 126.991 355.521 127.22 356.37C127.494 357.382 127.648 358.422 127.68 359.47C127.271 359.56 126.867 359.674 126.47 359.81C126.313 359.878 126.173 359.981 126.062 360.111C125.95 360.241 125.87 360.395 125.827 360.561C125.783 360.726 125.778 360.9 125.812 361.068C125.845 361.236 125.916 361.394 126.02 361.53C126.454 361.961 126.958 362.316 127.51 362.58C127.329 363.743 127.024 364.882 126.6 365.98H126.23C125.967 366.033 125.706 366.099 125.45 366.18C125.303 366.219 125.159 366.27 125.02 366.33C124.842 366.408 124.686 366.529 124.568 366.683C124.449 366.837 124.371 367.018 124.34 367.21C124.312 367.407 124.337 367.609 124.412 367.794C124.488 367.978 124.611 368.139 124.77 368.26C124.94 368.385 125.121 368.496 125.31 368.59C124.616 369.785 123.628 370.783 122.44 371.49C121.389 371.01 120.367 370.469 119.38 369.87C119.6 369.58 119.82 369.29 120.02 368.99C120.255 368.662 120.365 368.262 120.33 367.86C120.305 367.658 120.241 367.464 120.14 367.287C120.04 367.111 119.905 366.956 119.744 366.832C119.583 366.709 119.399 366.618 119.202 366.566C119.006 366.514 118.801 366.502 118.6 366.53C118.203 366.584 117.844 366.793 117.6 367.11C117.36 367.47 117.09 367.81 116.83 368.11C115.449 367.091 114.211 365.89 113.15 364.54H113.26C113.915 364.365 114.584 364.251 115.26 364.2C115.666 364.148 116.034 363.938 116.285 363.614C116.535 363.291 116.647 362.881 116.595 362.475C116.543 362.069 116.332 361.701 116.009 361.45C115.685 361.2 115.276 361.088 114.87 361.14L114.93 361.2Z" fill="white"/>
<path d="M117 336.22C117.621 335.781 118.292 335.418 119 335.14C118.815 334.615 118.548 334.122 118.21 333.68C115.15 329.77 113.77 333.68 111.39 333.74C110.83 333.728 110.273 333.834 109.756 334.051C109.239 334.268 108.774 334.591 108.39 335C108.69 335.102 108.981 335.229 109.26 335.38C109.365 335.434 109.456 335.511 109.526 335.606C109.596 335.7 109.644 335.81 109.665 335.926C109.686 336.042 109.681 336.161 109.649 336.274C109.617 336.388 109.559 336.492 109.48 336.58C109.18 336.95 108.77 337.216 108.31 337.34C108.164 337.355 108.016 337.355 107.87 337.34C107.981 337.929 108.163 338.503 108.41 339.05C108.713 339.7 109.089 340.314 109.53 340.88C109.782 340.747 110.043 340.63 110.31 340.53C110.423 340.496 110.543 340.489 110.659 340.509C110.776 340.528 110.886 340.574 110.982 340.642C111.079 340.71 111.158 340.8 111.215 340.903C111.272 341.007 111.304 341.122 111.31 341.24C111.272 341.656 111.161 342.063 110.98 342.44C111.597 342.971 112.267 343.437 112.98 343.83L113.2 343.7C113.36 343.61 113.53 343.53 113.7 343.45C113.796 343.405 113.896 343.371 114 343.35C114.127 343.313 114.261 343.309 114.39 343.337C114.519 343.365 114.639 343.424 114.74 343.51C114.839 343.603 114.912 343.72 114.952 343.85C114.992 343.979 114.998 344.117 114.97 344.25C114.938 344.391 114.891 344.529 114.83 344.66C115.719 344.984 116.676 345.074 117.61 344.92C117.951 344.208 118.252 343.476 118.51 342.73C118.27 342.683 118.03 342.623 117.79 342.55C117.521 342.484 117.285 342.32 117.13 342.09C116.98 341.852 116.93 341.565 116.99 341.29C117.017 341.154 117.072 341.025 117.151 340.912C117.23 340.798 117.332 340.702 117.45 340.63C117.686 340.485 117.968 340.435 118.24 340.49L119.1 340.7C119.38 339.559 119.504 338.385 119.47 337.21H119.4C118.968 337.411 118.557 337.652 118.17 337.93C117.934 338.08 117.648 338.13 117.375 338.069C117.102 338.008 116.865 337.841 116.715 337.605C116.565 337.369 116.515 337.083 116.576 336.81C116.637 336.537 116.804 336.3 117.04 336.15L117 336.22Z" fill="#263238"/>
<path opacity="0.3" d="M117 336.22C117.621 335.781 118.292 335.418 119 335.14C118.815 334.615 118.548 334.122 118.21 333.68C115.15 329.77 113.77 333.68 111.39 333.74C110.83 333.728 110.273 333.834 109.756 334.051C109.239 334.268 108.774 334.591 108.39 335C108.69 335.102 108.981 335.229 109.26 335.38C109.365 335.434 109.456 335.511 109.526 335.606C109.596 335.7 109.644 335.81 109.665 335.926C109.686 336.042 109.681 336.161 109.649 336.274C109.617 336.388 109.559 336.492 109.48 336.58C109.18 336.95 108.77 337.216 108.31 337.34C108.164 337.355 108.016 337.355 107.87 337.34C107.981 337.929 108.163 338.503 108.41 339.05C108.713 339.7 109.089 340.314 109.53 340.88C109.782 340.747 110.043 340.63 110.31 340.53C110.423 340.496 110.543 340.489 110.659 340.509C110.776 340.528 110.886 340.574 110.982 340.642C111.079 340.71 111.158 340.8 111.215 340.903C111.272 341.007 111.304 341.122 111.31 341.24C111.272 341.656 111.161 342.063 110.98 342.44C111.597 342.971 112.267 343.437 112.98 343.83L113.2 343.7C113.36 343.61 113.53 343.53 113.7 343.45C113.796 343.405 113.896 343.371 114 343.35C114.127 343.313 114.261 343.309 114.39 343.337C114.519 343.365 114.639 343.424 114.74 343.51C114.839 343.603 114.912 343.72 114.952 343.85C114.992 343.979 114.998 344.117 114.97 344.25C114.938 344.391 114.891 344.529 114.83 344.66C115.719 344.984 116.676 345.074 117.61 344.92C117.951 344.208 118.252 343.476 118.51 342.73C118.27 342.683 118.03 342.623 117.79 342.55C117.521 342.484 117.285 342.32 117.13 342.09C116.98 341.852 116.93 341.565 116.99 341.29C117.017 341.154 117.072 341.025 117.151 340.912C117.23 340.798 117.332 340.702 117.45 340.63C117.686 340.485 117.968 340.435 118.24 340.49L119.1 340.7C119.38 339.559 119.504 338.385 119.47 337.21H119.4C118.968 337.411 118.557 337.652 118.17 337.93C117.934 338.08 117.648 338.13 117.375 338.069C117.102 338.008 116.865 337.841 116.715 337.605C116.565 337.369 116.515 337.083 116.576 336.81C116.637 336.537 116.804 336.3 117.04 336.15L117 336.22Z" fill="white"/>
<path d="M87.73 343.47C87.52 344.94 91.51 345.91 94.73 346.47C94.46 349.14 92.73 351.84 90.23 354.36C87.15 352.62 82.74 350.36 81.93 350.88C81.12 351.4 85.56 354.41 88.38 356.13C86.3663 357.896 84.2347 359.523 82 361C80.61 359.7 79 358.57 78 359.18C77 359.79 77.27 361.82 77.76 363.6C74.41 365.6 71.89 366.75 71.89 366.75C70.9136 363.632 70.165 360.447 69.65 357.22C69.82 356.89 69.99 356.55 70.14 356.22C70.68 354.97 70.14 354.44 69.26 354.22C69.0254 351.939 69.0254 349.641 69.26 347.36C73.06 346.56 77.68 345.09 75.95 342.81C74.95 341.43 72.95 341.28 71.01 341.62C71.2764 341.163 71.5879 340.735 71.94 340.34C78.86 332.72 83.68 340.34 83.68 340.34C87.68 336.99 93.34 337.9 94.56 343.13C92.31 342.52 88 341.66 87.73 343.47Z" fill="#263238"/>
<path opacity="0.5" d="M87.73 343.47C87.52 344.94 91.51 345.91 94.73 346.47C94.46 349.14 92.73 351.84 90.23 354.36C87.15 352.62 82.74 350.36 81.93 350.88C81.12 351.4 85.56 354.41 88.38 356.13C86.3663 357.896 84.2347 359.523 82 361C80.61 359.7 79 358.57 78 359.18C77 359.79 77.27 361.82 77.76 363.6C74.41 365.6 71.89 366.75 71.89 366.75C70.9136 363.632 70.165 360.447 69.65 357.22C69.82 356.89 69.99 356.55 70.14 356.22C70.68 354.97 70.14 354.44 69.26 354.22C69.0254 351.939 69.0254 349.641 69.26 347.36C73.06 346.56 77.68 345.09 75.95 342.81C74.95 341.43 72.95 341.28 71.01 341.62C71.2764 341.163 71.5879 340.735 71.94 340.34C78.86 332.72 83.68 340.34 83.68 340.34C87.68 336.99 93.34 337.9 94.56 343.13C92.31 342.52 88 341.66 87.73 343.47Z" fill="white"/>
<path d="M289.4 406.61V286.98H283.99V406.61L277.05 409.31V411.43H286.06H287.33H296.33V409.31L289.4 406.61Z" fill="#263238"/>
<path d="M389.46 406.61V286.98H384.05V406.61L377.12 409.31V411.43H386.12H387.39H396.4V409.31L389.46 406.61Z" fill="#263238"/>
<path opacity="0.5" d="M296.34 409.31V411.43H277.05V409.31L283.99 406.6V286.98H289.4V406.6L296.34 409.31Z" fill="white"/>
<path opacity="0.5" d="M396.4 409.31V411.43H377.12V409.31L384.05 406.6V286.98H389.46V406.6L396.4 409.31Z" fill="white"/>
<path opacity="0.2" d="M283.99 286.98H289.4V298.46L283.99 297.85V286.98Z" fill="black"/>
<path opacity="0.2" d="M389.46 286.98V309.68L384.05 309.07V286.98H389.46Z" fill="black"/>
<path d="M405.86 177.52H267.59V294.25H405.86V177.52Z" fill="#263238"/>
<path d="M406 279.85H267.44V294.26H406V279.85Z" fill="#D0312D"/>
<path d="M406 177.52H267.44V191.93H406V177.52Z" fill="#D0312D"/>
<g opacity="0.7">
<path d="M281.47 279.85L271.19 294.25H267.59V288.95L274.09 279.85H281.47Z" fill="white"/>
<path d="M285.43 294.25H278.04L288.33 279.85H295.71L285.43 294.25Z" fill="white"/>
<path d="M299.67 294.25H292.28L302.57 279.85H309.95L299.67 294.25Z" fill="white"/>
<path d="M313.91 294.25H306.52L316.81 279.85H324.19L313.91 294.25Z" fill="white"/>
<path d="M328.15 294.25H320.77L331.05 279.85H338.44L328.15 294.25Z" fill="white"/>
<path d="M342.39 294.25H335.01L345.29 279.85H352.68L342.39 294.25Z" fill="white"/>
<path d="M356.63 294.25H349.25L359.54 279.85H366.92L356.63 294.25Z" fill="white"/>
<path d="M370.88 294.25H363.49L373.78 279.85H381.16L370.88 294.25Z" fill="white"/>
<path d="M385.12 294.25H377.73L388.02 279.85H395.4L385.12 294.25Z" fill="white"/>
<path d="M405.86 279.85V285.15L399.36 294.25H391.98L402.26 279.85H405.86Z" fill="white"/>
</g>
<g opacity="0.7">
<path d="M281.47 177.52L271.19 191.93H267.59V186.62L274.09 177.52H281.47Z" fill="white"/>
<path d="M285.43 191.93H278.04L288.33 177.52H295.71L285.43 191.93Z" fill="white"/>
<path d="M299.67 191.93H292.28L302.57 177.52H309.95L299.67 191.93Z" fill="white"/>
<path d="M313.91 191.93H306.52L316.81 177.52H324.19L313.91 191.93Z" fill="white"/>
<path d="M328.15 191.93H320.77L331.05 177.52H338.44L328.15 191.93Z" fill="white"/>
<path d="M342.39 191.93H335.01L345.29 177.52H352.68L342.39 191.93Z" fill="white"/>
<path d="M356.63 191.93H349.25L359.54 177.52H366.92L356.63 191.93Z" fill="white"/>
<path d="M370.88 191.93H363.49L373.78 177.52H381.16L370.88 191.93Z" fill="white"/>
<path d="M385.12 191.93H377.73L388.02 177.52H395.4L385.12 191.93Z" fill="white"/>
<path d="M405.86 177.52V182.83L399.36 191.93H391.98L402.26 177.52H405.86Z" fill="white"/>
</g>
<path d="M355.75 422.12C388.103 422.12 414.33 419.904 414.33 417.17C414.33 414.436 388.103 412.22 355.75 412.22C323.397 412.22 297.17 414.436 297.17 417.17C297.17 419.904 323.397 422.12 355.75 422.12Z" fill="#263238"/>
<path d="M281.18 410.41L267.34 341.48H262.04L248.19 410.41L238.02 416.64V418.48H291.02V416.64L281.18 410.41Z" fill="#D0312D"/>
<path opacity="0.2" d="M291.02 416.64H238.02V418.96H291.02V416.64Z" fill="white"/>
<path opacity="0.2" d="M267.34 341.48H262.04L248.03 410.21H281.01L267.34 341.48Z" fill="white"/>
<path opacity="0.6" d="M276.58 387.9L273.43 372.08H255.8L252.57 387.9H276.58Z" fill="white"/>
<path d="M166.44 129.24H123.71C122.548 129.239 121.398 129.466 120.324 129.91C119.25 130.354 118.275 131.005 117.453 131.826C116.631 132.647 115.979 133.622 115.534 134.695C115.089 135.768 114.86 136.918 114.86 138.08V153.08C114.86 155.427 115.792 157.678 117.452 159.338C119.112 160.998 121.363 161.93 123.71 161.93H152.11L165.11 175.82L158.11 161.93H166.49C168.837 161.93 171.088 160.998 172.748 159.338C174.408 157.678 175.34 155.427 175.34 153.08V138.08C175.34 136.914 175.109 135.76 174.661 134.683C174.213 133.607 173.557 132.629 172.73 131.808C171.902 130.986 170.921 130.336 169.841 129.896C168.762 129.455 167.606 129.232 166.44 129.24Z" fill="#D0312D"/>
<path opacity="0.7" d="M166.44 129.24H123.71C122.548 129.239 121.398 129.466 120.324 129.91C119.25 130.354 118.275 131.005 117.453 131.826C116.631 132.647 115.979 133.622 115.534 134.695C115.089 135.768 114.86 136.918 114.86 138.08V153.08C114.86 155.427 115.792 157.678 117.452 159.338C119.112 160.998 121.363 161.93 123.71 161.93H152.11L165.11 175.82L158.11 161.93H166.49C168.837 161.93 171.088 160.998 172.748 159.338C174.408 157.678 175.34 155.427 175.34 153.08V138.08C175.34 136.914 175.109 135.76 174.661 134.683C174.213 133.607 173.557 132.629 172.73 131.808C171.902 130.986 170.921 130.336 169.841 129.896C168.762 129.455 167.606 129.232 166.44 129.24Z" fill="white"/>
<path d="M125.8 144.76C125.762 143.75 126.027 142.753 126.56 141.894C127.093 141.036 127.87 140.357 128.792 139.944C129.714 139.53 130.738 139.402 131.734 139.575C132.729 139.748 133.65 140.214 134.379 140.914C135.107 141.614 135.61 142.515 135.823 143.503C136.036 144.49 135.948 145.519 135.572 146.457C135.196 147.394 134.549 148.198 133.713 148.766C132.877 149.333 131.89 149.637 130.88 149.64C130.221 149.671 129.563 149.568 128.946 149.336C128.329 149.105 127.765 148.75 127.29 148.293C126.815 147.836 126.437 147.287 126.181 146.68C125.925 146.073 125.795 145.419 125.8 144.76ZM134.57 144.76C134.58 144.023 134.37 143.3 133.968 142.683C133.565 142.066 132.988 141.583 132.31 141.295C131.632 141.007 130.883 140.928 130.16 141.067C129.436 141.206 128.771 141.557 128.248 142.076C127.725 142.595 127.368 143.258 127.223 143.98C127.078 144.702 127.151 145.451 127.434 146.132C127.716 146.812 128.195 147.393 128.808 147.801C129.422 148.208 130.143 148.424 130.88 148.42C131.366 148.434 131.849 148.348 132.301 148.17C132.753 147.991 133.164 147.722 133.509 147.38C133.854 147.038 134.126 146.629 134.308 146.179C134.491 145.729 134.58 145.246 134.57 144.76Z" fill="#D0312D"/>
<path d="M137.16 145.92C137.146 145.173 137.355 144.44 137.759 143.812C138.164 143.185 138.746 142.692 139.432 142.397C140.118 142.101 140.876 142.017 141.61 142.154C142.344 142.291 143.02 142.643 143.553 143.166C144.086 143.689 144.451 144.359 144.602 145.09C144.753 145.822 144.682 146.581 144.4 147.272C144.118 147.963 143.636 148.555 143.016 148.971C142.396 149.387 141.667 149.61 140.92 149.61C140.426 149.634 139.932 149.555 139.47 149.379C139.008 149.203 138.587 148.933 138.234 148.586C137.881 148.24 137.603 147.824 137.418 147.365C137.234 146.906 137.146 146.414 137.16 145.92ZM143.35 145.92C143.328 145.442 143.167 144.981 142.886 144.595C142.604 144.208 142.216 143.912 141.768 143.745C141.32 143.577 140.833 143.545 140.366 143.652C139.9 143.759 139.476 144.001 139.146 144.347C138.816 144.693 138.595 145.128 138.511 145.599C138.426 146.07 138.482 146.555 138.671 146.994C138.86 147.434 139.174 147.808 139.574 148.07C139.974 148.332 140.442 148.471 140.92 148.47C141.252 148.478 141.581 148.416 141.887 148.289C142.194 148.162 142.47 147.973 142.699 147.733C142.928 147.492 143.104 147.207 143.216 146.895C143.328 146.583 143.374 146.251 143.35 145.92Z" fill="#D0312D"/>
<path d="M154 145.92C154.025 146.408 153.949 146.896 153.775 147.352C153.601 147.809 153.334 148.224 152.99 148.571C152.647 148.919 152.234 149.19 151.78 149.369C151.325 149.548 150.838 149.63 150.35 149.61C149.868 149.624 149.389 149.526 148.952 149.323C148.514 149.12 148.13 148.818 147.83 148.44V152.17H146.52V142.31H147.77V143.45C148.071 143.056 148.463 142.74 148.912 142.53C149.361 142.319 149.854 142.22 150.35 142.24C150.838 142.218 151.324 142.299 151.779 142.477C152.234 142.654 152.646 142.925 152.99 143.272C153.334 143.618 153.601 144.033 153.775 144.489C153.949 144.945 154.026 145.433 154 145.92ZM152.68 145.92C152.658 145.443 152.497 144.982 152.216 144.596C151.936 144.209 151.547 143.914 151.1 143.746C150.653 143.578 150.166 143.545 149.7 143.651C149.234 143.757 148.81 143.998 148.48 144.343C148.149 144.688 147.928 145.123 147.842 145.593C147.756 146.063 147.811 146.548 147.998 146.987C148.186 147.427 148.498 147.802 148.897 148.065C149.295 148.329 149.762 148.47 150.24 148.47C150.569 148.472 150.894 148.406 151.196 148.277C151.498 148.148 151.771 147.957 151.996 147.718C152.221 147.479 152.394 147.196 152.505 146.886C152.616 146.577 152.662 146.248 152.64 145.92H152.68Z" fill="#D0312D"/>
<path d="M154.86 148.77L155.4 147.77C156.156 148.261 157.039 148.521 157.94 148.52C159.15 148.52 159.65 148.15 159.65 147.52C159.65 145.9 155.09 147.3 155.09 144.42C155.09 143.13 156.25 142.26 158.09 142.26C159.008 142.243 159.915 142.467 160.72 142.91L160.16 143.91C159.537 143.521 158.814 143.323 158.08 143.34C156.93 143.34 156.37 143.76 156.37 144.34C156.37 146.04 160.95 144.65 160.95 147.46C160.95 148.77 159.75 149.6 157.83 149.6C156.779 149.627 155.745 149.338 154.86 148.77Z" fill="#D0312D"/>
<path d="M162.3 148.74C162.3 148.623 162.323 148.508 162.369 148.4C162.415 148.292 162.481 148.195 162.565 148.114C162.649 148.033 162.749 147.969 162.858 147.927C162.967 147.885 163.083 147.866 163.2 147.87C163.315 147.867 163.429 147.888 163.536 147.931C163.643 147.973 163.74 148.037 163.821 148.119C163.903 148.2 163.967 148.297 164.009 148.404C164.052 148.511 164.073 148.625 164.07 148.74C164.071 148.855 164.05 148.968 164.006 149.074C163.963 149.181 163.899 149.277 163.818 149.358C163.737 149.439 163.641 149.503 163.535 149.546C163.428 149.59 163.315 149.611 163.2 149.61C163.084 149.613 162.968 149.592 162.859 149.55C162.751 149.507 162.652 149.444 162.568 149.363C162.485 149.282 162.418 149.185 162.372 149.078C162.326 148.971 162.301 148.856 162.3 148.74ZM162.42 139.99H164L163.74 146.52H162.74L162.42 139.99Z" fill="#D0312D"/>
<path d="M107.22 411.48L113.64 415.18L122.73 400.61L116.3 396.92L107.22 411.48Z" fill="#FFB573"/>
<path opacity="0.2" d="M116.3 396.92L122.72 400.62L118.03 408.13L111.61 404.43L116.3 396.92Z" fill="black"/>
<path d="M115.52 410.53H106.52C106.373 410.531 106.23 410.582 106.116 410.675C106.001 410.768 105.922 410.896 105.89 411.04L104.43 417.63C104.373 417.915 104.431 418.21 104.59 418.454C104.749 418.697 104.996 418.868 105.28 418.93H105.52C108.43 418.88 110.52 418.71 114.2 418.71C116.45 418.71 123.2 418.94 126.35 418.94C129.5 418.94 129.87 415.87 128.6 415.59C122.89 414.34 118.6 412.59 116.76 410.98C116.421 410.675 115.976 410.514 115.52 410.53Z" fill="#263238"/>
<path d="M116 411.56C115.966 411.551 115.936 411.531 115.912 411.505C115.889 411.478 115.875 411.445 115.87 411.41C115.864 411.377 115.868 411.343 115.882 411.312C115.897 411.282 115.92 411.256 115.95 411.24C116.22 411.07 118.61 409.6 119.43 410.02C119.522 410.064 119.599 410.134 119.652 410.221C119.705 410.308 119.732 410.408 119.73 410.51C119.757 410.686 119.737 410.865 119.672 411.03C119.607 411.195 119.5 411.34 119.36 411.45C118.945 411.737 118.443 411.871 117.94 411.83C117.285 411.811 116.635 411.72 116 411.56ZM116.51 411.31C117.375 411.603 118.318 411.557 119.15 411.18C119.235 411.1 119.299 411.002 119.339 410.892C119.379 410.783 119.393 410.666 119.38 410.55C119.38 410.41 119.31 410.34 119.27 410.34C119.195 410.321 119.115 410.321 119.04 410.34C118.154 410.505 117.306 410.834 116.54 411.31H116.51Z" fill="#D0312D"/>
<path d="M116 411.59C115.974 411.573 115.953 411.549 115.939 411.521C115.925 411.493 115.918 411.461 115.92 411.43C115.92 411.33 116.11 409.2 116.92 408.5C117.024 408.415 117.144 408.352 117.273 408.314C117.401 408.276 117.537 408.264 117.67 408.28C117.802 408.28 117.93 408.326 118.032 408.41C118.135 408.494 118.204 408.61 118.23 408.74C118.38 409.52 116.9 411.15 116.14 411.57H116.06L116 411.59ZM117.19 408.71C116.67 409.377 116.363 410.186 116.31 411.03C117.08 410.45 118.02 409.22 117.92 408.74C117.92 408.69 117.92 408.56 117.67 408.56H117.58C117.43 408.56 117.284 408.613 117.17 408.71H117.19Z" fill="#D0312D"/>
<path d="M210.79 413.2L218.42 412.32L216.22 395.92L208.58 396.8L210.79 413.2Z" fill="#FFB573"/>
<path opacity="0.2" d="M208.58 396.8L216.22 395.92L217.35 404.38L209.72 405.26L208.58 396.8Z" fill="black"/>
<path d="M218.59 410.53H209.59C209.442 410.529 209.299 410.58 209.184 410.673C209.069 410.766 208.99 410.895 208.96 411.04L207.5 417.63C207.469 417.771 207.466 417.916 207.492 418.057C207.518 418.199 207.571 418.334 207.649 418.455C207.727 418.576 207.829 418.68 207.947 418.762C208.066 418.843 208.199 418.9 208.34 418.93H208.58C211.49 418.88 213.58 418.71 217.27 418.71C219.52 418.71 226.27 418.94 229.42 418.94C232.57 418.94 232.93 415.87 231.66 415.59C225.95 414.34 221.66 412.59 219.83 410.98C219.488 410.679 219.045 410.518 218.59 410.53Z" fill="#263238"/>
<path d="M219.09 411.56C219.056 411.551 219.026 411.531 219.002 411.505C218.979 411.478 218.965 411.445 218.96 411.41C218.953 411.376 218.958 411.34 218.974 411.309C218.991 411.278 219.017 411.253 219.05 411.24C219.31 411.07 221.7 409.6 222.52 410.02C222.613 410.063 222.69 410.133 222.744 410.22C222.797 410.307 222.824 410.408 222.82 410.51C222.848 410.685 222.83 410.864 222.767 411.029C222.704 411.194 222.598 411.339 222.46 411.45C222.041 411.738 221.536 411.872 221.03 411.83C220.376 411.81 219.725 411.719 219.09 411.56ZM219.6 411.31C220.465 411.603 221.408 411.557 222.24 411.18C222.328 411.102 222.395 411.004 222.437 410.894C222.479 410.785 222.494 410.667 222.48 410.55C222.48 410.41 222.41 410.34 222.36 410.34C222.288 410.321 222.212 410.321 222.14 410.34C221.24 410.5 220.378 410.829 219.6 411.31Z" fill="#D0312D"/>
<path d="M219.05 411.59C219.021 411.575 218.998 411.552 218.982 411.523C218.966 411.495 218.958 411.463 218.96 411.43C218.96 411.33 219.15 409.2 219.96 408.5C220.061 408.413 220.179 408.349 220.306 408.311C220.434 408.273 220.568 408.262 220.7 408.28C220.833 408.279 220.963 408.325 221.067 408.409C221.171 408.492 221.242 408.61 221.27 408.74C221.42 409.52 219.94 411.15 219.18 411.57H219.09L219.05 411.59ZM220.23 408.71C219.713 409.378 219.409 410.187 219.36 411.03C220.12 410.45 221.06 409.22 220.97 408.74C220.97 408.69 220.97 408.56 220.71 408.56H220.63C220.483 408.563 220.342 408.616 220.23 408.71Z" fill="#D0312D"/>
<path d="M218.32 401L205.5 397.94C205.5 397.94 196.21 330.66 174.36 300.17C171.801 296.459 168.704 293.149 165.17 290.35C163.81 307.25 162.17 325.23 160.82 334.8C157.4 358.35 124.27 403.72 124.27 403.72L112.67 398.85C112.67 398.85 139.3 349.55 140.58 326.4C141.98 301.27 142.58 257.19 142.64 252.03H182C185.68 272.42 213.78 319.08 218.32 401Z" fill="#263238"/>
<path opacity="0.3" d="M218.32 401L205.5 397.94C205.5 397.94 196.21 330.66 174.36 300.17C171.801 296.459 168.704 293.149 165.17 290.35C163.81 307.25 162.17 325.23 160.82 334.8C157.4 358.35 124.27 403.72 124.27 403.72L112.67 398.85C112.67 398.85 139.3 349.55 140.58 326.4C141.98 301.27 142.58 257.19 142.64 252.03H182C185.68 272.42 213.78 319.08 218.32 401Z" fill="white"/>
<path d="M205.64 208.64C205.58 220.7 205.1 232.75 204.48 244.79L204.39 243.79C205.24 249.18 205.99 254.59 206.7 260C207.41 265.41 208 270.86 208.45 276.32L203.28 277.32C200.09 266.86 197.45 256.25 194.98 245.61C194.57 233.24 194.71 220.83 194.98 208.45L205.6 208.64H205.64Z" fill="#FFB573"/>
<path d="M204.87 205.5C208.1 207.5 204.34 228.6 205.12 244.43C205.261 246.019 205.512 247.596 205.87 249.15L195 250.37C194.324 247.842 193.81 245.273 193.46 242.68C192.93 235.3 193.46 214.43 193.46 214.43L204.87 205.5Z" fill="#D0312D"/>
<path opacity="0.7" d="M205.12 244.43C205.261 246.019 205.512 247.596 205.87 249.15L195 250.37C194.329 247.841 193.818 245.273 193.47 242.68C193.33 240.78 193.26 237.98 193.24 234.88C193.24 230.2 193.24 224.82 193.34 220.76C193.4 217.05 193.47 214.44 193.47 214.44L204.88 205.51C208.09 207.51 204.34 228.6 205.12 244.43Z" fill="white"/>
<path d="M208.29 274.89L210.36 285.05L201.3 285.42C201.3 285.42 198.86 278.52 203.43 274.57L208.29 274.89Z" fill="#FFB573"/>
<path d="M208.27 292.13L201.45 290.79L201.3 285.42L210.36 285.05L208.27 292.13Z" fill="#FFB573"/>
<path d="M194.05 248.55L205.87 246.68L206.2 249.94L194.84 251.13L194.05 248.55Z" fill="#D0312D"/>
<path opacity="0.6" d="M194.05 248.55L205.87 246.68L206.2 249.94L194.84 251.13L194.05 248.55Z" fill="white"/>
<path opacity="0.1" d="M193.23 234.88C193.23 230.2 193.23 224.82 193.33 220.76C194.163 218.863 195.309 217.118 196.72 215.6C197.823 222.237 196.589 229.051 193.23 234.88Z" fill="black"/>
<path d="M219.98 403.23L203.51 400.78L204.02 396.22L221.15 398.47L219.98 403.23Z" fill="#263238"/>
<path d="M125.21 406.56L110.36 400.66L112.13 396.22L127.65 402.06L125.21 406.56Z" fill="#263238"/>
<path opacity="0.3" d="M174.36 300.15C171.801 296.439 168.704 293.129 165.17 290.33L166.26 276.33C166.26 276.33 173.07 287.51 174.36 300.15Z" fill="black"/>
<path d="M204.87 205.5C190.05 230.09 183.47 260.22 183.47 260.22L176.23 272.65L171.23 258.65L170 258.47L168.2 258.2L166.36 257.92L162.58 257.32L160.67 257C160.03 256.9 159.4 256.79 158.76 256.67L156.87 256.33L155 255.98C153.29 255.65 151.62 255.31 150 254.98L149.16 254.79C148 254.52 146.89 254.25 145.86 253.97C144.83 253.69 143.86 253.41 143.05 253.13L142.43 252.92C143.84 242.915 146.225 233.071 149.55 223.53C150.05 222.1 150.55 220.73 151.08 219.4C153.012 214.401 155.284 209.539 157.88 204.85L158.04 204.56C162.64 196.32 171.96 192.73 177.56 194.15C182.854 195.694 188.055 197.537 193.14 199.67C197.17 201.361 201.088 203.308 204.87 205.5Z" fill="#D0312D"/>
<path opacity="0.7" d="M204.87 205.5C190.05 230.09 183.47 260.22 183.47 260.22L176.23 272.65L171.23 258.65L170 258.47L168.2 258.2L166.36 257.92L162.58 257.32L160.67 257C160.03 256.9 159.4 256.79 158.76 256.67L156.87 256.33L155 255.98C153.29 255.65 151.62 255.31 150 254.98L149.16 254.79C148 254.52 146.89 254.25 145.86 253.97C144.83 253.69 143.86 253.42 143.05 253.13L142.43 252.92C143.84 242.915 146.225 233.071 149.55 223.53C150.05 222.1 150.55 220.73 151.08 219.4C153.012 214.401 155.284 209.539 157.88 204.85L158.04 204.56C162.64 196.32 171.96 192.73 177.56 194.15C182.854 195.694 188.055 197.537 193.14 199.67C197.17 201.361 201.088 203.308 204.87 205.5Z" fill="white"/>
<path opacity="0.1" d="M181.09 222.68C181.09 222.68 180.67 224.92 180.16 228.08C179.505 231.572 178.5 234.99 177.16 238.28C176.36 239.91 173.07 246.41 173.7 249.28C174.33 252.15 171.24 258.58 171.24 258.58L170.01 258.4C170.77 254.85 173.32 243.4 174.7 242.03C176.33 240.45 178.87 233.46 178.34 230.83C177.81 228.2 181.09 222.68 181.09 222.68Z" fill="black"/>
<path d="M170.26 274.89L172.34 285.05L163.28 285.42C163.28 285.42 160.83 278.52 165.4 274.57L170.26 274.89Z" fill="#FFB573"/>
<path d="M170.25 292.13L163.43 290.79L163.28 285.42L172.34 285.05L170.25 292.13Z" fill="#FFB573"/>
<path d="M176 194.59C177 197.42 185 207.59 185 207.59L192 199.59C191.475 199.136 191.041 198.586 190.72 197.97C190.373 197.325 190.216 196.595 190.265 195.865C190.315 195.134 190.569 194.432 191 193.84C191.367 193.361 191.798 192.934 192.28 192.57C192.358 192.516 192.431 192.455 192.5 192.39L189 179.27C186.82 184.34 181.17 193.76 176 194.59Z" fill="#FFB573"/>
<path opacity="0.2" d="M190.76 198C190.413 197.355 190.255 196.625 190.305 195.895C190.355 195.164 190.609 194.462 191.04 193.87C191.407 193.391 191.838 192.964 192.32 192.6L187.09 183.44C183.8 190.71 188 195.79 190.76 198Z" fill="black"/>
<path d="M203.66 168.21C203.66 168.21 206.5 178.13 201.66 182.72C196.82 187.31 194.36 168.46 194.36 168.46L203.66 168.21Z" fill="#FFB573"/>
<path opacity="0.4" d="M203.66 168.21C203.66 168.21 206.5 178.13 201.66 182.72C196.82 187.31 194.36 168.46 194.36 168.46L203.66 168.21Z" fill="black"/>
<path d="M187.08 192.77C188.418 194.293 190.22 195.333 192.208 195.73C194.196 196.128 196.259 195.861 198.08 194.97C200.463 193.869 202.334 191.897 203.31 189.46C203.447 189.133 203.567 188.799 203.67 188.46C205.52 181.93 204.54 166.55 197.9 167.8C192.46 168.8 186.9 167.66 184.59 172.68C183.914 174.109 183.595 175.681 183.66 177.26C183.78 184.56 183.52 188.88 187.08 192.77Z" fill="#FFB573"/>
<path d="M199.29 180.22C199.922 182.075 200.811 183.832 201.93 185.44C201.508 185.716 201.03 185.896 200.531 185.969C200.032 186.041 199.523 186.004 199.04 185.86L199.29 180.22Z" fill="#ED893E"/>
<path d="M185 182.33C184.3 182.53 184.26 185.66 185 188.5L183.76 188.85C182.372 186.881 181.356 184.674 180.76 182.34C179.19 176.4 178.97 172.55 179.54 169.58L189.39 168.31L189.8 171.54C189.267 171.806 188.851 172.259 188.632 172.813C188.412 173.366 188.405 173.981 188.61 174.54C189.68 177.25 188.16 181.48 186.09 183.18C186.11 183.22 186 182 185 182.33Z" fill="#FFB573"/>
<path opacity="0.4" d="M185 182.33C184.3 182.53 184.26 185.66 185 188.5L183.76 188.85C182.372 186.881 181.356 184.674 180.76 182.34C179.19 176.4 178.97 172.55 179.54 169.58L189.39 168.31L189.8 171.54C189.267 171.806 188.851 172.259 188.632 172.813C188.412 173.366 188.405 173.981 188.61 174.54C189.68 177.25 188.16 181.48 186.09 183.18C186.11 183.22 186 182 185 182.33Z" fill="black"/>
<path d="M180.21 183.11C180.956 184.8 182.34 186.126 184.06 186.8C186.35 187.67 187.72 185.68 187.27 183.4C186.86 181.4 185.19 178.4 182.8 178.55C182.279 178.579 181.774 178.739 181.331 179.014C180.887 179.289 180.52 179.671 180.262 180.124C180.005 180.578 179.865 181.089 179.856 181.611C179.847 182.132 179.968 182.648 180.21 183.11Z" fill="#FFB573"/>
<path d="M181.51 166.63C181.51 166.63 180.32 164.57 182.92 162.12C185.52 159.67 196.42 158.67 199.68 160.69C202.94 162.71 205.61 161.22 205.44 159.89C205.76 160.285 205.949 160.769 205.981 161.276C206.013 161.783 205.887 162.288 205.62 162.72C205.62 162.72 207.71 162.61 208.73 165.72C208.347 165.655 207.955 165.675 207.581 165.781C207.207 165.887 206.862 166.074 206.57 166.33C206.95 166.72 207.228 167.198 207.378 167.722C207.528 168.245 207.546 168.798 207.43 169.33C206.793 168.681 205.953 168.268 205.05 168.16C205.324 168.933 205.733 169.651 206.26 170.28C206.26 170.28 201.94 170.76 199.7 169.12C200.138 169.864 200.723 170.51 201.42 171.02C201.42 171.02 194.42 172.32 192.08 169.54C191.726 170.027 191.481 170.585 191.362 171.175C191.243 171.765 191.252 172.374 191.39 172.96C190.8 172.978 190.213 172.871 189.667 172.647C189.121 172.423 188.628 172.087 188.22 171.66C186.526 173.053 184.461 173.918 182.28 174.15C182.662 173.731 182.998 173.272 183.28 172.78C183.28 172.78 179.68 174.89 177.28 173.29C177.593 172.777 177.797 172.205 177.88 171.61L176.94 172.08C176.94 172.08 176.9 166.83 181.51 166.63Z" fill="#263238"/>
<path d="M203 182.41C201.74 182.25 201.17 180.57 201.14 180.5C201.132 180.478 201.129 180.455 201.13 180.433C201.132 180.41 201.138 180.387 201.148 180.367C201.158 180.346 201.173 180.328 201.19 180.313C201.208 180.298 201.228 180.287 201.25 180.28C201.295 180.267 201.344 180.27 201.386 180.291C201.429 180.311 201.462 180.347 201.48 180.39C201.48 180.39 202 181.93 203.04 182.06C203.084 182.067 203.124 182.091 203.152 182.126C203.179 182.161 203.193 182.205 203.19 182.25C203.189 182.273 203.183 182.296 203.172 182.317C203.162 182.338 203.148 182.356 203.13 182.371C203.112 182.386 203.091 182.398 203.069 182.404C203.047 182.411 203.023 182.413 203 182.41Z" fill="#ED893E"/>
<path d="M199.58 190.53C199.58 190.53 198.7 190.89 197.58 191.26C195.58 191.93 192.69 192.63 192.52 191.41C192.494 191.245 192.502 191.075 192.545 190.914C192.588 190.752 192.665 190.601 192.77 190.47C193.63 189.29 196.5 188.86 198.4 188.66C198.44 188.986 198.532 189.303 198.67 189.6C198.885 189.985 199.2 190.306 199.58 190.53Z" fill="#263238"/>
<path d="M197.57 191.26C195.57 191.93 192.68 192.63 192.51 191.41C192.484 191.245 192.492 191.076 192.535 190.914C192.579 190.752 192.655 190.601 192.76 190.47C194.46 190.35 196.77 190.37 197.57 191.26Z" fill="#A02724"/>
<path d="M190.34 178.2C190.34 178.2 191.34 180.84 190.34 180.84C189.34 180.84 190.34 178.2 190.34 178.2Z" fill="white"/>
<path d="M188.64 180.48C188.64 180.48 189.64 183.12 188.64 183.12C187.64 183.12 188.64 180.48 188.64 180.48Z" fill="white"/>
<path d="M202.2 172C202.2 172 203.79 174.35 202.78 174.57C201.77 174.79 202.2 172 202.2 172Z" fill="white"/>
<path d="M203.24 184.68C203.24 184.68 204.16 187.37 203.12 187.32C202.08 187.27 203.24 184.68 203.24 184.68Z" fill="white"/>
<path d="M174.65 192.61C174.65 192.61 179.65 207.61 182.72 213.31L183.38 212.61C183.38 212.61 177.84 196.83 176.99 192.61H174.65Z" fill="#D0312D"/>
<path d="M190.38 199.89C190.139 204.619 188.767 209.221 186.38 213.31V214.43C186.38 214.43 190.38 211.07 191.56 201.08L190.38 199.89Z" fill="#D0312D"/>
<path d="M182.21 213L183.21 211.25C185.01 213.55 186.54 212.31 186.54 212.31L187.2 213.71L185.46 218.52H183.66L182.21 213Z" fill="#D0312D"/>
<path d="M185.35 216.11C185.35 216.11 184.67 232.33 185.35 241.73C185.78 247.73 186.24 258.54 185.94 261.41L183.23 263.49L181.1 260.22C181.1 260.22 182.78 255.77 181.99 244.5C181.2 233.23 184.09 216.5 184.09 216.5L185.35 216.11Z" fill="#D0312D"/>
<path d="M171.28 193.51L176.68 190.65L184.05 197.49L184.4 206.37L189.66 199.16L192.88 197.52L195.21 201.43L192.27 206.13L190.38 203.7L184.06 209.07L179.4 201.66L176.27 203.36L171.28 193.51Z" fill="#D0312D"/>
<path opacity="0.6" d="M171.28 193.51L176.68 190.65L184.05 197.49L184.4 206.37L189.66 199.16L192.88 197.52L195.21 201.43L192.27 206.13L190.38 203.7L184.06 209.07L179.4 201.66L176.27 203.36L171.28 193.51Z" fill="white"/>
<path opacity="0.1" d="M184.06 209.07L189.83 201.68L192.27 206.13L190.38 203.7L184.06 209.07Z" fill="black"/>
<path opacity="0.1" d="M184.06 209.07L181.43 199.52L176.27 203.36L179.4 201.66L184.06 209.07Z" fill="black"/>
<path opacity="0.1" d="M167.84 252L158.64 253C158.64 253 148.8 238.07 149.56 223.47C150.06 222.04 150.56 220.67 151.09 219.34C153.022 214.341 155.294 209.479 157.89 204.79C158.613 204.11 159.396 203.498 160.23 202.96L169.74 217.14C169.74 217.14 170.35 240.25 167.84 252Z" fill="black"/>
<path d="M167.61 208.64C167.55 220.7 167.08 232.75 166.45 244.79L166.37 243.79C167.21 249.177 167.977 254.58 168.67 260C169.36 265.43 169.98 270.86 170.42 276.32L165.26 277.32C162.06 266.86 159.42 256.25 156.96 245.61C156.55 233.24 156.69 220.83 156.96 208.45L167.57 208.64H167.61Z" fill="#FFB573"/>
<path d="M163.26 200.65C168.4 202.89 169.96 211.22 169.96 211.22C169.96 211.22 167.35 243.11 167.48 244.43C167.61 245.75 167.84 248.26 167.84 248.26L156.84 250.37C156.84 250.37 155.92 244.43 155.39 232.3C154.86 220.17 155.39 210.06 157.89 205.59C160.39 201.12 163.26 200.65 163.26 200.65Z" fill="#D0312D"/>
<path opacity="0.7" d="M163.26 200.65C168.4 202.89 169.96 211.22 169.96 211.22C169.96 211.22 167.35 243.11 167.48 244.43C167.61 245.75 167.84 248.26 167.84 248.26L156.84 250.37C156.84 250.37 155.92 244.43 155.39 232.3C154.86 220.17 155.39 210.06 157.89 205.59C160.39 201.12 163.26 200.65 163.26 200.65Z" fill="white"/>
<path d="M155.16 248.52L168.67 246.28L167.84 249.71L156.67 252.01L155.16 248.52Z" fill="#D0312D"/>
<path opacity="0.6" d="M155.16 248.52L168.67 246.28L167.84 249.71L156.67 252.01L155.16 248.52Z" fill="white"/>
<path d="M228.33 298.23L226.14 330C226.082 330.517 225.825 330.99 225.424 331.321C225.022 331.651 224.508 331.812 223.99 331.77L182.91 329.51C182.397 329.484 181.914 329.262 181.56 328.89C181.206 328.518 181.009 328.024 181.01 327.51L183.2 295.75C183.258 295.233 183.515 294.76 183.916 294.429C184.318 294.099 184.832 293.938 185.35 293.98L226.44 296.24C226.695 296.246 226.946 296.303 227.179 296.407C227.412 296.51 227.622 296.659 227.797 296.843C227.973 297.028 228.11 297.246 228.202 297.484C228.293 297.722 228.337 297.975 228.33 298.23Z" fill="#263238"/>
<path d="M207 325.63L225.47 322.32C225.47 322.32 234.82 340.32 240.31 345.22L219.8 352.8C219.8 352.8 210.09 341.14 207 325.63Z" fill="#D0312D"/>
<path opacity="0.7" d="M207 325.63L225.47 322.32C225.47 322.32 234.82 340.32 240.31 345.22L219.8 352.8C219.8 352.8 210.09 341.14 207 325.63Z" fill="white"/>
<path d="M206.53 308.31C209.99 310.38 220.28 326.9 220.28 326.9L241.84 315C241.84 315 230.84 304.68 227.4 303.39C223.96 302.1 206.53 308.31 206.53 308.31Z" fill="#D0312D"/>
<path opacity="0.6" d="M206.23 308.31C209.75 310.38 220.23 326.9 220.23 326.9L242.13 315C242.13 315 231 304.65 227.45 303.36C223.9 302.07 206.23 308.31 206.23 308.31Z" fill="white"/>
<path d="M193.22 302.76C193.22 302.76 197.28 312.14 198.22 320.76L226.58 315.76C226.58 315.76 222.38 304.66 220.58 302.76C218.78 300.86 193.22 302.76 193.22 302.76Z" fill="#D0312D"/>
<path opacity="0.7" d="M193.22 302.76C193.22 302.76 197.28 312.14 198.22 320.76L226.58 315.76C226.58 315.76 222.38 304.66 220.58 302.76C218.78 300.86 193.22 302.76 193.22 302.76Z" fill="white"/>
<path d="M215.39 296.66C214.29 291.79 208.39 287.66 203.74 286.93C200.36 286.42 197.58 293.05 196.74 295.64L195.57 295.29C195.7 294.87 198.77 284.96 203.87 285.72C208.97 286.48 215.31 290.97 216.53 296.39L215.39 296.66Z" fill="#263238"/>
<path d="M186.75 294.06C187.285 294.123 187.787 294.349 188.189 294.706C188.592 295.064 188.875 295.536 189 296.06L191.75 310.45C191.86 310.874 192.101 311.253 192.438 311.533C192.776 311.813 193.193 311.98 193.63 312.01L230.63 314.01C230.816 314.044 231.007 314.031 231.186 313.973C231.366 313.916 231.529 313.815 231.66 313.679C231.792 313.544 231.888 313.378 231.94 313.197C231.992 313.016 231.999 312.825 231.96 312.64L229.2 298.2C229.06 297.671 228.758 297.199 228.337 296.849C227.916 296.499 227.396 296.29 226.85 296.25L185.8 294L186.75 294.06Z" fill="#263238"/>
<path opacity="0.1" d="M186.75 294.06C187.285 294.123 187.787 294.349 188.189 294.706C188.592 295.064 188.875 295.536 189 296.06L191.75 310.45C191.86 310.874 192.101 311.253 192.438 311.533C192.776 311.813 193.193 311.98 193.63 312.01L230.63 314.01C230.816 314.044 231.007 314.031 231.186 313.973C231.366 313.916 231.529 313.815 231.66 313.679C231.792 313.544 231.888 313.378 231.94 313.197C231.992 313.016 231.999 312.825 231.96 312.64L229.2 298.2C229.06 297.671 228.758 297.199 228.337 296.849C227.916 296.499 227.396 296.29 226.85 296.25L185.8 294L186.75 294.06Z" fill="white"/>
<path d="M216.46 316.91H216.41L213.66 316.75C213.414 316.722 213.182 316.621 212.993 316.461C212.805 316.301 212.668 316.088 212.6 315.85L212.15 314.11C212.114 313.993 212.107 313.869 212.129 313.749C212.152 313.629 212.204 313.516 212.28 313.42C212.352 313.333 212.444 313.265 212.549 313.223C212.654 313.181 212.768 313.166 212.88 313.18L215.63 313.34C215.875 313.366 216.107 313.465 216.296 313.623C216.485 313.782 216.622 313.993 216.69 314.23L217.14 315.98C217.176 316.095 217.183 316.218 217.161 316.336C217.138 316.455 217.086 316.566 217.01 316.66C216.943 316.741 216.859 316.805 216.764 316.848C216.668 316.892 216.565 316.913 216.46 316.91ZM216.46 316.45C216.5 316.456 216.542 316.451 216.58 316.437C216.618 316.423 216.653 316.4 216.68 316.37C216.701 316.326 216.712 316.279 216.712 316.23C216.712 316.182 216.701 316.134 216.68 316.09L216.23 314.35C216.187 314.204 216.103 314.074 215.988 313.974C215.872 313.875 215.731 313.811 215.58 313.79L212.83 313.63C212.79 313.627 212.749 313.632 212.711 313.646C212.673 313.66 212.639 313.682 212.61 313.71C212.589 313.754 212.579 313.802 212.579 313.85C212.579 313.898 212.589 313.946 212.61 313.99L213.07 315.74C213.11 315.885 213.193 316.014 213.307 316.112C213.421 316.21 213.561 316.272 213.71 316.29L216.46 316.45Z" fill="#263238"/>
<g opacity="0.5">
<path d="M216.46 316.91H216.41L213.66 316.75C213.414 316.722 213.182 316.621 212.993 316.461C212.805 316.301 212.668 316.088 212.6 315.85L212.15 314.11C212.114 313.993 212.107 313.869 212.129 313.749C212.152 313.629 212.204 313.516 212.28 313.42C212.352 313.333 212.444 313.265 212.549 313.223C212.654 313.181 212.768 313.166 212.88 313.18L215.63 313.34C215.875 313.366 216.107 313.465 216.296 313.623C216.485 313.782 216.622 313.993 216.69 314.23L217.14 315.98C217.176 316.095 217.183 316.218 217.161 316.336C217.138 316.455 217.086 316.566 217.01 316.66C216.943 316.741 216.859 316.805 216.764 316.848C216.668 316.892 216.565 316.913 216.46 316.91ZM216.46 316.45C216.5 316.456 216.542 316.451 216.58 316.437C216.618 316.423 216.653 316.4 216.68 316.37C216.701 316.326 216.712 316.279 216.712 316.23C216.712 316.182 216.701 316.134 216.68 316.09L216.23 314.35C216.187 314.204 216.103 314.074 215.988 313.974C215.872 313.875 215.731 313.811 215.58 313.79L212.83 313.63C212.79 313.627 212.749 313.632 212.711 313.646C212.673 313.66 212.639 313.682 212.61 313.71C212.589 313.754 212.579 313.802 212.579 313.85C212.579 313.898 212.589 313.946 212.61 313.99L213.07 315.74C213.11 315.885 213.193 316.014 213.307 316.112C213.421 316.21 213.561 316.272 213.71 316.29L216.46 316.45Z" fill="white"/>
</g>
</svg>
